<svg xmlns="http://www.w3.org/2000/svg" viewBox="0 0 43.19 47.3"><defs><style>.cls-1{fill:#009de4;}</style></defs><title>Asset 31</title><g id="Layer_2" data-name="Layer 2"><g id="_1" data-name="1"><g id="_452_location_map_globe_internet" data-name="452, location, map, globe, internet"><path class="cls-1" d="M21.55,47.3a1.23,1.23,0,0,1-1.22-1.2,1.17,1.17,0,0,1,1.22-1.2c1.92,0,3.94-1.9,5.46-5.3a33.79,33.79,0,0,0,2.63-13.9A32,32,0,0,0,27,12.1c-1.52-3.3-3.54-5.3-5.46-5.3a1.2,1.2,0,1,1,0-2.4,21.45,21.45,0,1,1,0,42.9ZM27.11,7.6a18.53,18.53,0,0,1,2.12,3.5,36.33,36.33,0,0,1,2.84,14.8,36.33,36.33,0,0,1-2.84,14.8,14.47,14.47,0,0,1-2.12,3.5,19.09,19.09,0,0,0,0-36.6Z"/><path class="cls-1" d="M20.64,6.9a1.1,1.1,0,0,1-1-.6V6.2h0a1,1,0,0,1,0-1.1,1.1,1.1,0,0,1,1-.6h1a1.22,1.22,0,0,1,1.21,1.2,1.16,1.16,0,0,1-1.21,1.2A1.31,1.31,0,0,0,21,7,.76.76,0,0,0,20.64,6.9Z"/><path class="cls-1" d="M21.55,47.3A21.35,21.35,0,0,1,3.14,14.8a1.33,1.33,0,0,1,1-.6,1.25,1.25,0,0,1,1,.5c2.53,4,7.89,10.6,8.09,10.9a.84.84,0,0,1,.2.7,33.94,33.94,0,0,0,2.74,13.5c1.51,3.2,3.54,5.1,5.46,5.1a1.22,1.22,0,0,1,1.21,1.2A1.39,1.39,0,0,1,21.55,47.3ZM4.25,17.7A19.49,19.49,0,0,0,2.33,26,19.2,19.2,0,0,0,16,44.3,17,17,0,0,1,14,41,36.37,36.37,0,0,1,11,26.9C10.12,25.6,6.68,21.2,4.25,17.7Z"/><path class="cls-1" d="M21.55,47.3C18.61,47.3,16,45,14,40.9A36.66,36.66,0,0,1,11,26.4a1.22,1.22,0,0,1,.4-.9c.3-.4,1.11-1.5,2.23-2.8,4.85-6.3,6.77-9.4,7-10.2l.1-.3a.37.37,0,0,1,.1-.3,4.87,4.87,0,0,0,.1-1.2,8.13,8.13,0,0,0-1.21-4.3,1.3,1.3,0,0,1-.1-1.1,1.78,1.78,0,0,1,.8-.7,4.64,4.64,0,0,1,1.12-.1c2.93,0,5.66,2.3,7.68,6.6a36.33,36.33,0,0,1,2.84,14.8,36.33,36.33,0,0,1-2.84,14.8C27.21,45,24.48,47.3,21.55,47.3Zm-8.1-20.4A31.93,31.93,0,0,0,16.19,40c1.51,3.2,3.54,5.1,5.46,5.1s3.94-1.9,5.46-5.3a33.79,33.79,0,0,0,2.63-13.9A32.92,32.92,0,0,0,27,12.1C25.69,9.3,24.08,7.5,22.46,7a11.57,11.57,0,0,1,.71,3.7,6.89,6.89,0,0,1-.11,1.5c0,.2,0,.3-.1.4h0l-.1.3h0c-.1.5-.5,2.2-7.38,11.2C14.57,25.4,13.76,26.4,13.45,26.9Z"/><path class="cls-1" d="M12.24,27.6a1.52,1.52,0,0,1-.91-.4h0c-.2-.3-5.56-7-8.19-11.1a9.84,9.84,0,0,1-1.52-3h0l-.1-.3h0a12.27,12.27,0,0,1-.21-2v-.6A10.85,10.85,0,0,1,12.24,0a10.65,10.65,0,0,1,9.31,5.2v.1h0a10.75,10.75,0,0,1,1.51,5.5,7.57,7.57,0,0,1-.1,1.5c0,.2,0,.3-.1.4h0l-.1.3h0c-.1.5-.51,2.2-7.38,11.2l-2.33,3a.91.91,0,0,1-.81.4ZM3.84,12.5a8.79,8.79,0,0,0,1.22,2.3,114.21,114.21,0,0,0,7.18,9.8c.4-.5.91-1.1,1.42-1.8,4.85-6.3,6.77-9.4,7-10.2l.1-.3a.37.37,0,0,1,.1-.3,4.87,4.87,0,0,0,.1-1.2,8.13,8.13,0,0,0-1.21-4.3V6.4h0a8.66,8.66,0,0,0-16,3.9v.4a7.57,7.57,0,0,0,.1,1.5Z"/><path class="cls-1" d="M12.24,15.3a5.15,5.15,0,0,1-5.16-5.1,5.16,5.16,0,0,1,10.32,0A5.15,5.15,0,0,1,12.24,15.3Zm0-7.9a2.87,2.87,0,0,0-2.83,2.8,2.83,2.83,0,0,0,5.66,0A2.81,2.81,0,0,0,12.24,7.4Z"/><path class="cls-1" d="M12.24,15.3a5.15,5.15,0,0,1-5.16-5.1,5.16,5.16,0,0,1,10.32,0A5.15,5.15,0,0,1,12.24,15.3Zm0-7.9a2.87,2.87,0,0,0-2.83,2.8,2.83,2.83,0,0,0,5.66,0A2.81,2.81,0,0,0,12.24,7.4Z"/><path class="cls-1" d="M42,27.9H2.12A1.22,1.22,0,0,1,.91,26.7a1.16,1.16,0,0,1,1.21-1.2H42a1.2,1.2,0,1,1,0,2.4Z"/><path class="cls-1" d="M38.64,16.5H20.84a1.22,1.22,0,0,1-1.21-1.2,1.16,1.16,0,0,1,1.21-1.2h17.8a1.2,1.2,0,1,1,0,2.4Z"/><path class="cls-1" d="M38.64,37.7H4.05a1.2,1.2,0,1,1,0-2.4H38.64a1.23,1.23,0,0,1,1.22,1.2A1.3,1.3,0,0,1,38.64,37.7Z"/></g></g></g></svg>