<svg xmlns="http://www.w3.org/2000/svg" viewBox="0 0 56.35 43.91"><defs><style>.cls-1{fill:#009de4;}</style></defs><title>Asset 42</title><g id="Layer_2" data-name="Layer 2"><g id="_1" data-name="1"><g id="_469_Beach_sunbed_vacation" data-name="469, Beach, sunbed, vacation"><path class="cls-1" d="M55.13,19.61H24.68a1.22,1.22,0,0,1-1.21-1.2,16.44,16.44,0,0,1,32.88,0A1.17,1.17,0,0,1,55.13,19.61ZM25.9,17.31h28A14,14,0,0,0,39.86,4.61,13.85,13.85,0,0,0,25.9,17.31Z"/><path class="cls-1" d="M49.26,19.61H30.55a1.22,1.22,0,0,1-1.21-1.2,21.65,21.65,0,0,1,2.93-11.3c2-3.2,4.65-5,7.59-5s5.66,1.8,7.58,5a21.06,21.06,0,0,1,2.94,11.3A1,1,0,0,1,49.26,19.61Zm-17.5-2.3H48.15a18.74,18.74,0,0,0-2.53-8.9c-1.51-2.5-3.54-3.9-5.66-3.9s-4.05,1.4-5.67,3.9A19,19,0,0,0,31.76,17.31Z"/><path class="cls-1" d="M43.5,19.61h-7a1.23,1.23,0,0,1-1.22-1.2c0-1.7.11-16.2,4.66-16.2s4.65,14.6,4.65,16.2A1.14,1.14,0,0,1,43.5,19.61Zm-5.87-2.3h4.65a66.47,66.47,0,0,0-.8-8.6A9.86,9.86,0,0,0,40,4.61c-.31.3-.91,1.4-1.52,4.1A42.61,42.61,0,0,0,37.63,17.31Z"/><path class="cls-1" d="M36.42,43.91H3.64a1.24,1.24,0,0,1-1.11-.7,1.12,1.12,0,0,1,.3-1.3l5.87-5.8a1.16,1.16,0,0,1,.81-.3h21a1.16,1.16,0,0,1,.81.3l5.77,5.7a1.27,1.27,0,0,1,.4.9A1,1,0,0,1,36.42,43.91ZM6.47,41.61H33.58L30,38.11H9.91Z"/><path class="cls-1" d="M40,43.91a1.23,1.23,0,0,1-1.22-1.2V18.41A1.23,1.23,0,0,1,40,17.21a1.16,1.16,0,0,1,1.21,1.2v24.3A1.3,1.3,0,0,1,40,43.91Z"/><path class="cls-1" d="M21.14,38.11a1.38,1.38,0,0,1-.81-.3,1.12,1.12,0,0,1-.1-1.6l7-8.1a1.14,1.14,0,0,1,1.62-.1,1.1,1.1,0,0,1,.1,1.6l-7,8.1C21.85,38,21.55,38.11,21.14,38.11Z"/><path class="cls-1" d="M13,38.11a1.9,1.9,0,0,1-.71-.2,1.11,1.11,0,0,1-.2-1.6l3.54-4.6a1.21,1.21,0,0,1,.91-.5h8.19a1.23,1.23,0,0,1,1.22,1.2,1.17,1.17,0,0,1-1.22,1.2H17.1L14,37.81A1.72,1.72,0,0,1,13,38.11Z"/><path class="cls-1" d="M52.81,43.91H1.21a1.2,1.2,0,1,1,0-2.4h51.6A1.22,1.22,0,0,1,54,42.71,1.16,1.16,0,0,1,52.81,43.91Z"/><path class="cls-1" d="M35.2,38.11H30.55a1.2,1.2,0,1,1,0-2.4H35.2a1.23,1.23,0,0,1,1.22,1.2A1.17,1.17,0,0,1,35.2,38.11Z"/><path class="cls-1" d="M9.51,18.31A1.16,1.16,0,0,1,8.7,18a1.1,1.1,0,0,1,0-1.6,4.4,4.4,0,0,1,6.37,0,1,1,0,0,1,0,1.6,1.06,1.06,0,0,1-1.62,0,1.84,1.84,0,0,0-1.92-.6,4.21,4.21,0,0,0-1.11.6A1.64,1.64,0,0,1,9.51,18.31Z"/><path class="cls-1" d="M18.82,18.31A1.14,1.14,0,0,1,18,18a4.17,4.17,0,0,0-1.12-.6A1.85,1.85,0,0,0,15,18a1.06,1.06,0,0,1-1.62,0,1,1,0,0,1,0-1.6,4.41,4.41,0,0,1,6.38,0,1,1,0,0,1,0,1.6A1.67,1.67,0,0,1,18.82,18.31Z"/><path class="cls-1" d="M27,3a1.16,1.16,0,0,1-.81-.3A1.12,1.12,0,0,0,25,2.31a1.08,1.08,0,0,0-.61.4,1.06,1.06,0,0,1-1.62,0,1,1,0,0,1,0-1.6,3.57,3.57,0,0,1,5.16,0,1,1,0,0,1,0,1.6A1.64,1.64,0,0,1,27,3Z"/><path class="cls-1" d="M27,3a1.16,1.16,0,0,1-.81-.3,1,1,0,0,1,0-1.6,3.57,3.57,0,0,1,5.16,0l-1.62,1.5h0a1.7,1.7,0,0,0-.71-.4,1.12,1.12,0,0,0-1.21.4A.93.93,0,0,1,27,3Z"/><path class="cls-1" d="M11.84,12.61A5.84,5.84,0,0,1,6,6.81a5.87,5.87,0,0,1,11.73,0A5.84,5.84,0,0,1,11.84,12.61Zm0-9.2a3.57,3.57,0,0,0-3.55,3.5,3.55,3.55,0,0,0,7.09,0A3.56,3.56,0,0,0,11.84,3.41Z"/><path class="cls-1" d="M50.48,43.91a1.23,1.23,0,0,1-1.22-1.2V32.31a1.23,1.23,0,0,1,1.22-1.2,1.16,1.16,0,0,1,1.21,1.2v10.4A1.22,1.22,0,0,1,50.48,43.91Z"/><path class="cls-1" d="M45.83,43.91a1.23,1.23,0,0,1-1.22-1.2v-3.5a1.22,1.22,0,0,1,2.43,0v3.5A1.3,1.3,0,0,1,45.83,43.91Z"/></g></g></g></svg>