<svg xmlns="http://www.w3.org/2000/svg" viewBox="0 0 49.9 44.5"><defs><style>.cls-1{fill:#009de4;}</style></defs><title>Asset 38</title><g id="Layer_2" data-name="Layer 2"><g id="_1" data-name="1"><g id="_453_air_plane_airplane_fly" data-name="453, air , plane, airplane, fly"><path class="cls-1" d="M8.32,34.1a1.41,1.41,0,0,1-1-.5L.23,23.1a1,1,0,0,1,0-1.3,1.27,1.27,0,0,1,1.31-.4l8.9,3,33.08-5.2a4.25,4.25,0,0,1,1.12-.1,5.24,5.24,0,0,1,5.26,5.4,6.7,6.7,0,0,1-6.07,7.1L29.77,32.7a1.32,1.32,0,0,1-1.22-.8A1.09,1.09,0,0,1,29,30.6l3.44-2.3H28.55L24.1,32.6a.72.72,0,0,1-.61.3L8.32,34.1ZM4.07,24.7l4.76,7,14-1.1,4.55-4.4a1.14,1.14,0,0,1,.81-.3h8.19a1.09,1.09,0,0,1,1.11.8A1.13,1.13,0,0,1,37,28L34,30l9.61-.8a4.28,4.28,0,0,0,4-4.7c-.1-1.5-.91-3.2-2.93-3.2a1.73,1.73,0,0,0-.71.1L10.65,26.6h-.51Z"/><path class="cls-1" d="M21.17,39.9H16.51a1.24,1.24,0,0,1-1.11-.7,1.26,1.26,0,0,1,.2-1.3L22.48,31h0l4.86-4.7a1.14,1.14,0,0,1,.81-.3h8.19a1.09,1.09,0,0,1,1.11.8,1.13,1.13,0,0,1-.5,1.3l-6.58,4.4-8.49,7.1A.94.94,0,0,1,21.17,39.9Zm-1.92-2.3h1.41l8.2-6.9.1-.1,3.44-2.3H28.55L24.1,32.6Z"/><rect class="cls-1" x="14.09" y="27.1" width="2.33" height="2.3"/><rect class="cls-1" x="18.84" y="26" width="2.33" height="2.3"/><rect class="cls-1" x="38.77" y="23.7" width="2.33" height="2.3"/><rect class="cls-1" x="42.21" y="22.5" width="2.33" height="2.3"/><path class="cls-1" d="M8.32,16.7H1.24A1.22,1.22,0,0,1,0,15.5a1.16,1.16,0,0,1,1.21-1.2H8.32a1.22,1.22,0,0,1,1.21,1.2A1.29,1.29,0,0,1,8.32,16.7Z"/><path class="cls-1" d="M16.51,20.2H5.89a1.2,1.2,0,1,1,0-2.4H16.41A1.23,1.23,0,0,1,17.63,19,1.14,1.14,0,0,1,16.51,20.2Z"/><path class="cls-1" d="M8.32,38.7H1.24a1.2,1.2,0,1,1,0-2.4H8.32a1.22,1.22,0,0,1,1.21,1.2A1.29,1.29,0,0,1,8.32,38.7Z"/><path class="cls-1" d="M35.23,15.6a1.2,1.2,0,1,1,0-2.4,2.3,2.3,0,1,0,0-4.6,2.26,2.26,0,0,0-.81.1,1.1,1.1,0,0,1-1.11-.2,1.21,1.21,0,0,1-.51-1V7.3a3.56,3.56,0,0,0-3.54-3.5A3.61,3.61,0,0,0,26,5.8a1.23,1.23,0,0,1-1.51.6,1.21,1.21,0,0,1-.61-1.5A5.92,5.92,0,0,1,35,6.1h.1a4.61,4.61,0,0,1,4.65,4.6A4.61,4.61,0,0,1,35.23,15.6Z"/><path class="cls-1" d="M25.82,14.2a1.2,1.2,0,1,1,0-2.4A2.3,2.3,0,1,0,25,7.3a1.11,1.11,0,0,1-1.11-.2,1.24,1.24,0,0,1-.51-1V5.9a3.57,3.57,0,0,0-6.77-1.5,1.1,1.1,0,0,1-.71.6A1,1,0,0,1,15,4.9a2.09,2.09,0,0,0-1.12-.3,2.31,2.31,0,0,0-2.22,1.5,1.22,1.22,0,0,1-1.22.8h-.1A2.27,2.27,0,0,0,8,9.2,1.23,1.23,0,0,1,6.8,10.4,1.16,1.16,0,0,1,5.59,9.2,4.67,4.67,0,0,1,9.74,4.6a4.63,4.63,0,0,1,4-2.3,4.25,4.25,0,0,1,1.12.1A5.86,5.86,0,0,1,19.65,0a6,6,0,0,1,5.77,4.6h.1a4.61,4.61,0,0,1,4.65,4.6A4.28,4.28,0,0,1,25.82,14.2Z"/><path class="cls-1" d="M47,44.5a1.22,1.22,0,0,1-1.21-1.2,2.44,2.44,0,0,0-3.14-2.2,1.11,1.11,0,0,1-1.11-.2,1.24,1.24,0,0,1-.51-1v-.2a3.56,3.56,0,0,0-3.54-3.5,3.6,3.6,0,0,0-3.23,2,1.07,1.07,0,0,1-.71.6,1,1,0,0,1-.91-.1,2.07,2.07,0,0,0-1.11-.3,1.2,1.2,0,1,1,0-2.4,4.21,4.21,0,0,1,1.11.1,5.86,5.86,0,0,1,4.75-2.4,5.94,5.94,0,0,1,5.77,4.6h.1a4.61,4.61,0,0,1,4.65,4.6C48.08,44,47.57,44.5,47,44.5Z"/></g></g></g></svg>