<svg xmlns="http://www.w3.org/2000/svg" viewBox="0 0 42.69 47.7"><defs><style>.cls-1{fill:#009de4;}</style></defs><title>Asset 43</title><g id="Layer_2" data-name="Layer 2"><g id="_1" data-name="1"><g id="_475_tea_cup_coffee_hotel" data-name="475, tea, cup, coffee, hotel"><path class="cls-1" d="M21.24,40.8c-4.45,0-8.49-2.1-11.63-5.9A21.79,21.79,0,0,1,4.86,21.1a1.22,1.22,0,0,1,1.21-1.2H36.52a1.22,1.22,0,0,1,1.21,1.2A21.79,21.79,0,0,1,33,34.9C29.74,38.7,25.69,40.8,21.24,40.8ZM7.18,22.3a19.42,19.42,0,0,0,4.15,11.2,12.82,12.82,0,0,0,9.81,5,12.82,12.82,0,0,0,9.81-5A18.76,18.76,0,0,0,35.1,22.3Z"/><path class="cls-1" d="M24.08,47.7H18.51a5.54,5.54,0,0,1-3.44-1.2l-.5-.4a3.24,3.24,0,0,0-1.93-.7H4.05a3.83,3.83,0,0,1-4-3.5,3.83,3.83,0,0,1,4.05-3.5H38.64a3.83,3.83,0,0,1,4,3.5,3.83,3.83,0,0,1-4,3.5H30a2.7,2.7,0,0,0-1.92.7l-.61.4A5.51,5.51,0,0,1,24.08,47.7ZM3.94,40.8c-.91,0-1.71.5-1.71,1.2s.8,1.2,1.71,1.2h8.6A5.52,5.52,0,0,1,16,44.4l.51.4a3.19,3.19,0,0,0,1.92.7H24a2.71,2.71,0,0,0,1.93-.7l.5-.4a5.54,5.54,0,0,1,3.44-1.2h8.6c.91,0,1.72-.5,1.72-1.2s-.81-1.2-1.72-1.2Z"/><path class="cls-1" d="M33,35a1.3,1.3,0,0,1-1.22-1.1,1.08,1.08,0,0,1,1.12-1.2,9.2,9.2,0,0,0,6.17-4.1c1.31-2,1.31-2.8,1.21-3-.3-.4-2-.3-3.44.1a1.1,1.1,0,0,1-1.41-.8,1.16,1.16,0,0,1,.8-1.4c.71-.2,4.56-1.2,6,.8s-.5,4.7-1.11,5.6A11.49,11.49,0,0,1,33,35Z"/><path class="cls-1" d="M36.52,22.3H6a1.23,1.23,0,0,1-1.22-1.2V17.6A1.23,1.23,0,0,1,6,16.4H36.42a1.22,1.22,0,0,1,1.21,1.2v3.5A1.2,1.2,0,0,1,36.52,22.3ZM7.18,19.9H35.3V18.7H7.18Z"/><path class="cls-1" d="M23.57,25.7H7.18a1.2,1.2,0,1,1,0-2.4H23.57a1.22,1.22,0,0,1,1.21,1.2A1.16,1.16,0,0,1,23.57,25.7Z"/><path class="cls-1" d="M15.68,18.8a1.22,1.22,0,0,1-1.21-1.2,5.84,5.84,0,0,1,5.86-5.8h9.41a1.2,1.2,0,1,0,0-2.4H13.35A3.56,3.56,0,0,1,9.81,5.9a3.56,3.56,0,0,1,3.54-3.5h7a1.23,1.23,0,0,0,1.22-1.2A1.21,1.21,0,0,1,24,1.2a3.56,3.56,0,0,1-3.54,3.5h-7a1.2,1.2,0,1,0,0,2.4H29.84a3.56,3.56,0,0,1,3.54,3.5,3.56,3.56,0,0,1-3.54,3.5H20.43a3.56,3.56,0,0,0-3.54,3.5A1.29,1.29,0,0,1,15.68,18.8Z"/></g></g></g></svg>