<svg xmlns="http://www.w3.org/2000/svg" viewBox="0 0 51.59 52.2"><defs><style>.cls-1{fill:#009de4;}</style></defs><title>Asset 39</title><g id="Layer_2" data-name="Layer 2"><g id="_1" data-name="1"><g id="_458_temperature_hot_weather_update" data-name="458, temperature, hot, weather, update"><path class="cls-1" d="M25.79,52.2h-.2a14.24,14.24,0,0,1-9.71-4.1,13.82,13.82,0,0,1-1.72-17.7,14.15,14.15,0,0,1,5.77-4.8V7A5.87,5.87,0,0,1,31.66,7V25.6a13.64,13.64,0,0,1,5.67,4.7A14,14,0,0,1,25.79,52.2Zm0-48.7A3.56,3.56,0,0,0,22.25,7V26.4a1.23,1.23,0,0,1-.7,1.1,11.51,11.51,0,0,0,4,22.3h.2a11.69,11.69,0,0,0,8.3-3.4,11.41,11.41,0,0,0,3.44-8.2A11.57,11.57,0,0,0,30,27.4a1.08,1.08,0,0,1-.7-1.1V7A3.57,3.57,0,0,0,25.79,3.5Z"/><path class="cls-1" d="M25.79,45.2a7,7,0,1,1,7.09-7A7.06,7.06,0,0,1,25.79,45.2Zm0-11.6a4.6,4.6,0,1,0,4.66,4.6A4.68,4.68,0,0,0,25.79,33.6Z"/><path class="cls-1" d="M25.79,9.3H21.14a1.22,1.22,0,0,1-1.21-1.2,1.16,1.16,0,0,1,1.21-1.2h4.65a1.2,1.2,0,1,1,0,2.4Z"/><path class="cls-1" d="M25.79,13.9H21.14a1.22,1.22,0,0,1-1.21-1.2,1.16,1.16,0,0,1,1.21-1.2h4.65a1.2,1.2,0,1,1,0,2.4Z"/><path class="cls-1" d="M25.79,18.6H21.14a1.2,1.2,0,1,1,0-2.4h4.65a1.2,1.2,0,1,1,0,2.4Z"/><path class="cls-1" d="M25.79,23.2H21.14a1.2,1.2,0,1,1,0-2.4h4.65a1.2,1.2,0,1,1,0,2.4Z"/><path class="cls-1" d="M5.16,16.3A4.68,4.68,0,0,1,.51,11.7,4.68,4.68,0,0,1,5.16,7.1h.1A5.92,5.92,0,0,1,16.39,5.9a1.07,1.07,0,0,1-.61,1.5,1.17,1.17,0,0,1-1.52-.6A3.6,3.6,0,0,0,11,4.8,3.56,3.56,0,0,0,7.49,8.3v.1A1.24,1.24,0,0,1,7,9.4a1.41,1.41,0,0,1-1.11.2,2.28,2.28,0,0,0-.81-.1,2.3,2.3,0,1,0,0,4.6,1.22,1.22,0,0,1,1.21,1.2A1.18,1.18,0,0,1,5.16,16.3Z"/><path class="cls-1" d="M50,10.5a1.22,1.22,0,0,1-1.21-1.2,2.44,2.44,0,0,0-3.14-2.2,1.11,1.11,0,0,1-1.11-.2,1.24,1.24,0,0,1-.51-1V5.8a3.56,3.56,0,0,0-3.54-3.5,3.71,3.71,0,0,0-3.23,2,1.24,1.24,0,0,1-1.52.6,1.21,1.21,0,0,1-.61-1.5A5.92,5.92,0,0,1,46.23,4.6h.1A4.61,4.61,0,0,1,51,9.2,1,1,0,0,1,50,10.5Z"/><path class="cls-1" d="M10.52,16.3H4.65a1.22,1.22,0,0,1-1.21-1.2,1.16,1.16,0,0,1,1.21-1.2h5.87a1.22,1.22,0,0,1,1.21,1.2A1.16,1.16,0,0,1,10.52,16.3Z"/><path class="cls-1" d="M39.86,18.6a1.23,1.23,0,0,1-1.22-1.2V12a1.55,1.55,0,0,0-1.52-1.5H30.45a1.2,1.2,0,1,1,0-2.4h6.67A3.84,3.84,0,0,1,41,12v5.4A1.09,1.09,0,0,1,39.86,18.6Z"/><path class="cls-1" d="M37.83,19.8v4.6h-.91v-2h-2v2H34V19.8h.91v1.8h2V19.8Z"/><path class="cls-1" d="M40.77,24.4a2.92,2.92,0,0,1-.91-.2,1.76,1.76,0,0,1-.71-.5c-.2-.2-.31-.5-.51-.7a3.09,3.09,0,0,1-.2-.8,1.49,1.49,0,0,1,.2-.9,4.24,4.24,0,0,1,.51-.7,1.76,1.76,0,0,1,.71-.5,2.92,2.92,0,0,1,.91-.2,3,3,0,0,1,.91.2,1.91,1.91,0,0,1,.71.5,2,2,0,0,1,.4.8,3.09,3.09,0,0,1,.2.8,2.92,2.92,0,0,1-.2.9,1.72,1.72,0,0,1-.51.7,1.79,1.79,0,0,1-.7.5C41.37,24.3,41.07,24.4,40.77,24.4Zm-1.32-2.3a1.27,1.27,0,0,0,.1.6c.1.2.2.3.31.5a.54.54,0,0,0,.4.3c.1,0,.41.1.61.1a1.27,1.27,0,0,0,.6-.1,1.31,1.31,0,0,0,.41-.3c.1-.2.2-.3.3-.5a1.85,1.85,0,0,0,0-1.2c-.1-.2-.2-.3-.3-.5s-.3-.3-.41-.3a3.54,3.54,0,0,0-.6-.1,1.31,1.31,0,0,0-.61.1,1.38,1.38,0,0,0-.4.3,1.88,1.88,0,0,0-.31.5A1.27,1.27,0,0,0,39.45,22.1Z"/><path class="cls-1" d="M46.84,20.5H45.42v3.8h-.91V20.5H43.09v-.8h3.85l-.1.8Z"/><path class="cls-1" d="M50.38,42.9H38.64a1.2,1.2,0,1,1,0-2.4H50.38a1.22,1.22,0,0,1,1.21,1.2A1.16,1.16,0,0,1,50.38,42.9Z"/><path class="cls-1" d="M44.51,47.5H36.32a1.2,1.2,0,1,1,0-2.4h8.19a1.22,1.22,0,0,1,1.21,1.2A1.16,1.16,0,0,1,44.51,47.5Z"/><path class="cls-1" d="M13,42.9H1.21a1.2,1.2,0,1,1,0-2.4H13a1.22,1.22,0,0,1,1.21,1.2A1.3,1.3,0,0,1,13,42.9Z"/><path class="cls-1" d="M15.27,47.5H7.08a1.2,1.2,0,1,1,0-2.4h8.19a1.23,1.23,0,0,1,1.22,1.2A1.3,1.3,0,0,1,15.27,47.5Z"/></g></g></g></svg>