<svg xmlns="http://www.w3.org/2000/svg" viewBox="0 0 53.88 49.86"><defs><style>.cls-1{fill:#009de4;}</style></defs><title>Asset 35</title><g id="Layer_2" data-name="Layer 2"><g id="_1" data-name="1"><g id="_461_drink_ice_cream_summer_juice" data-name="461, drink, ice cream, summer, juice"><path class="cls-1" d="M17.6,49.86H14.06a1.18,1.18,0,0,1-1.11-.8l-8.9-26.8a1.27,1.27,0,0,1,.5-1.4,1,1,0,0,1,1.42.3,5.8,5.8,0,0,0,4.45,2,5.87,5.87,0,0,0,3.94-1.5,1.11,1.11,0,0,1,1.52,0,5.87,5.87,0,0,0,8.5-.7,1.1,1.1,0,0,1,1.42-.3,1.2,1.2,0,0,1,.6,1.3l-7.79,26.9A.9.9,0,0,1,17.6,49.86ZM15,47.56h1.82l6.58-22.7a7.71,7.71,0,0,1-3.34.7,7.59,7.59,0,0,1-4.65-1.5,8.87,8.87,0,0,1-4.66,1.5A8.3,8.3,0,0,1,7.59,25Z"/><path class="cls-1" d="M20,25.56a7.59,7.59,0,0,1-4.65-1.5,8.87,8.87,0,0,1-4.66,1.5,8.09,8.09,0,0,1-6.27-2.9,8.28,8.28,0,0,1-1.92-5.2,8.13,8.13,0,0,1,4.85-7.4,11,11,0,0,1-.2-1.8,8.11,8.11,0,0,1,8.2-8.1,8.11,8.11,0,0,1,8.19,8.1,11,11,0,0,1-.2,1.8,8.07,8.07,0,0,1,3,12.5A8.39,8.39,0,0,1,20,25.56Zm-4.75-4.1a1.14,1.14,0,0,1,.8.3,5.87,5.87,0,0,0,8.5-.7,5.84,5.84,0,0,0,1.32-3.6,5.89,5.89,0,0,0-4.35-5.6,1.05,1.05,0,0,1-.71-.6,1,1,0,0,1,0-.9,5.22,5.22,0,0,0,.4-2.1,5.87,5.87,0,0,0-11.73,0,4.92,4.92,0,0,0,.4,2.1,1.38,1.38,0,0,1,0,.9,1.06,1.06,0,0,1-.7.6,5.89,5.89,0,0,0-4.35,5.6,5.45,5.45,0,0,0,1.41,3.7,5.8,5.8,0,0,0,4.45,2,5.89,5.89,0,0,0,3.95-1.5A.86.86,0,0,1,15.28,21.46Z"/><path class="cls-1" d="M22.36,30.16H11.73A1.22,1.22,0,0,1,10.52,29a1.16,1.16,0,0,1,1.21-1.2H22.25A1.23,1.23,0,0,1,23.47,29,1.14,1.14,0,0,1,22.36,30.16Z"/><rect class="cls-1" x="12.95" y="32.46" width="2.33" height="2.3"/><rect class="cls-1" x="16.49" y="32.46" width="2.33" height="2.3"/><rect class="cls-1" x="33.99" y="32.46" width="2.33" height="2.3"/><rect class="cls-1" x="38.74" y="35.96" width="2.33" height="2.3"/><rect class="cls-1" x="43.4" y="31.36" width="2.33" height="2.3"/><rect class="cls-1" x="33.99" y="38.26" width="2.33" height="2.3"/><rect class="cls-1" x="41.07" y="39.46" width="2.33" height="2.3"/><rect class="cls-1" x="44.61" y="37.16" width="2.33" height="2.3"/><path class="cls-1" d="M49.26,49.86H30.55a1.22,1.22,0,0,1-1.21-1.2V10.46a1.22,1.22,0,0,1,1.21-1.2H49.26a1.23,1.23,0,0,1,1.22,1.2v38.2A1.23,1.23,0,0,1,49.26,49.86Zm-17.6-2.3H48.05V11.66H31.66Z"/><path class="cls-1" d="M49.26,49.86H30.55a1.22,1.22,0,0,1-1.21-1.2V29.06a1.22,1.22,0,0,1,1.21-1.2H49.26a1.23,1.23,0,0,1,1.22,1.2v19.7A1.21,1.21,0,0,1,49.26,49.86Zm-17.6-2.3H48.05V30.16H31.66Z"/><path class="cls-1" d="M49.26,49.86H30.55a1.22,1.22,0,0,1-1.21-1.2v-4.6a1.22,1.22,0,0,1,1.21-1.2H49.26a1.23,1.23,0,0,1,1.22,1.2v4.6A1.23,1.23,0,0,1,49.26,49.86Zm-17.6-2.3H48.05v-2.3H31.66Z"/><path class="cls-1" d="M38.74,34.76h-.2a1.2,1.2,0,0,1-1-1.3l4.65-29a1.12,1.12,0,0,1,.71-.9L52.3.06a1.21,1.21,0,0,1,1.52.7,1.19,1.19,0,0,1-.71,1.5l-8.7,3.2-4.55,28.3A1.18,1.18,0,0,1,38.74,34.76Z"/><path class="cls-1" d="M18,17.56c-6.17,0-8.8-3.3-9.92-5.4h0c-.2-.3-.3-.7-.5-1a1.18,1.18,0,0,1,.7-1.5,1.21,1.21,0,0,1,1.52.7,2.77,2.77,0,0,0,.41.8h0c1.11,2.2,3.74,4.7,9.71,4a1.16,1.16,0,1,1,.3,2.3C19.32,17.46,18.61,17.56,18,17.56Z"/><path class="cls-1" d="M24.68,49.86H1.21a1.2,1.2,0,1,1,0-2.4H24.68a1.23,1.23,0,0,1,1.22,1.2A1.3,1.3,0,0,1,24.68,49.86Z"/></g></g></g></svg>