<svg xmlns="http://www.w3.org/2000/svg" viewBox="0 0 55.16 53.3"><defs><style>.cls-1{fill:#009de4;}</style></defs><title>Asset 40</title><g id="Layer_2" data-name="Layer 2"><g id="_1" data-name="1"><g id="_472_Direction_hotel_motel_room" data-name="472, Direction, hotel, motel, room"><path class="cls-1" d="M30.48,7H24.61A1.22,1.22,0,0,1,23.4,5.8V1.2A1.22,1.22,0,0,1,24.61,0h5.87a1.22,1.22,0,0,1,1.21,1.2V5.8A1.22,1.22,0,0,1,30.48,7ZM25.82,4.7h3.54V2.4H25.82Z"/><path class="cls-1" d="M30.48,22.1H24.61a1.22,1.22,0,0,1-1.21-1.2V16.3a1.22,1.22,0,0,1,1.21-1.2h5.87a1.22,1.22,0,0,1,1.21,1.2v4.6A1.3,1.3,0,0,1,30.48,22.1Zm-4.66-2.3h3.54V17.5H25.82Z"/><path class="cls-1" d="M30.48,53.3H24.61a1.22,1.22,0,0,1-1.21-1.2V31.3a1.22,1.22,0,0,1,1.21-1.2h5.87a1.22,1.22,0,0,1,1.21,1.2V52.2A1.21,1.21,0,0,1,30.48,53.3ZM25.82,51h3.54V32.5H25.82Z"/><path class="cls-1" d="M48.08,17.4H16.41a1.22,1.22,0,0,1-1.21-1.2V5.9a1.22,1.22,0,0,1,1.21-1.2H48.08a.94.94,0,0,1,.71.3l5.86,4.6a.9.9,0,0,1,.41.8,1.35,1.35,0,0,1-.31.9l-5.86,5.8A1.18,1.18,0,0,1,48.08,17.4ZM17.63,15.1H47.57l4.55-4.5L47.57,7H17.63Z"/><path class="cls-1" d="M38.67,32.5H7a1.14,1.14,0,0,1-.81-.3L.33,26.4a1,1,0,0,1-.3-.9,1.23,1.23,0,0,1,.4-.8L6.3,20.1A1.08,1.08,0,0,1,7,19.8H38.67A1.22,1.22,0,0,1,39.88,21V31.4A1.2,1.2,0,0,1,38.67,32.5ZM7.51,30.2h30V22.1h-30L2.86,25.7Z"/><path class="cls-1" d="M37.46,11.6h-21a1.2,1.2,0,1,1,0-2.4H37.46a1.22,1.22,0,0,1,1.21,1.2A1.16,1.16,0,0,1,37.46,11.6Z"/><path class="cls-1" d="M42.21,11.6H41a1.2,1.2,0,1,1,0-2.4h1.21a1.22,1.22,0,0,1,1.21,1.2A1.29,1.29,0,0,1,42.21,11.6Z"/><path class="cls-1" d="M38.67,26.7h-21a1.2,1.2,0,1,1,0-2.4h21a1.2,1.2,0,1,1,0,2.4Z"/><path class="cls-1" d="M14.09,26.7H12.87a1.2,1.2,0,1,1,0-2.4h1.22a1.22,1.22,0,0,1,1.21,1.2A1.3,1.3,0,0,1,14.09,26.7Z"/><path class="cls-1" d="M53.94,53.3H3.57a1.23,1.23,0,0,1-1.22-1.2,1.17,1.17,0,0,1,1.22-1.2H53.94a1.23,1.23,0,0,1,1.22,1.2A1.3,1.3,0,0,1,53.94,53.3Z"/><path class="cls-1" d="M37.46,53.3a1.23,1.23,0,0,1-1.22-1.2V46.3a1.23,1.23,0,0,1,1.22-1.2,1.16,1.16,0,0,1,1.21,1.2v5.9A1.14,1.14,0,0,1,37.46,53.3Z"/><path class="cls-1" d="M42.21,53.3A1.22,1.22,0,0,1,41,52.1V39.4a1.22,1.22,0,0,1,1.21-1.2,1.16,1.16,0,0,1,1.21,1.2V52.2A1.28,1.28,0,0,1,42.21,53.3Z"/><path class="cls-1" d="M12.87,53.3a1.22,1.22,0,0,1-1.21-1.2V46.3a1.22,1.22,0,0,1,2.43,0v5.9A1.15,1.15,0,0,1,12.87,53.3Z"/><path class="cls-1" d="M17.63,53.3a1.23,1.23,0,0,1-1.22-1.2V39.4a1.22,1.22,0,0,1,2.43,0V52.2A1.28,1.28,0,0,1,17.63,53.3Z"/></g></g></g></svg>