<svg xmlns="http://www.w3.org/2000/svg" viewBox="0 0 52.8 52.2"><defs><style>.cls-1{fill:#009de4;}</style></defs><title>Asset 48</title><g id="Layer_2" data-name="Layer 2"><g id="_1" data-name="1"><g id="_473_luggage_bag_handbag_hotel" data-name="473, luggage, bag , handbag, hotel"><path class="cls-1" d="M24.68,13.9H10.62a1.22,1.22,0,0,1-1.21-1.2V1.2A1.22,1.22,0,0,1,10.62,0H24.68A1.23,1.23,0,0,1,25.9,1.2V12.8A1.29,1.29,0,0,1,24.68,13.9ZM11.73,11.6H23.47V2.3H11.73Z"/><path class="cls-1" d="M34,23.2H1.21A1.22,1.22,0,0,1,0,22V15.7a4.16,4.16,0,0,1,4.15-4.2H31.06a4.16,4.16,0,0,1,4.14,4.2V22A1.16,1.16,0,0,1,34,23.2ZM2.43,20.9H32.88V15.8A1.8,1.8,0,0,0,31.06,14H4.15a1.8,1.8,0,0,0-1.82,1.8l.1,5.1Z"/><path class="cls-1" d="M24.68,41.7a1.22,1.22,0,0,1-1.21-1.2V22a1.22,1.22,0,0,1,2.43,0V40.6A1.29,1.29,0,0,1,24.68,41.7Z"/><rect class="cls-1" x="12.95" y="16.3" width="2.33" height="2.3"/><rect class="cls-1" x="16.49" y="16.3" width="2.33" height="2.3"/><rect class="cls-1" x="19.93" y="16.3" width="2.33" height="2.3"/><path class="cls-1" d="M28.32,52.2H4.15A4,4,0,0,1,0,48.4V22a1.22,1.22,0,0,1,1.21-1.2H34A1.22,1.22,0,0,1,35.2,22v9.3A1.22,1.22,0,0,1,34,32.5H28.22a2.44,2.44,0,0,0-2.42,2.4V47.4a2.44,2.44,0,0,0,2.42,2.4A1.23,1.23,0,0,1,29.44,51,1.21,1.21,0,0,1,28.32,52.2ZM2.43,23.2V48.4a1.7,1.7,0,0,0,1.82,1.5H24.18a4.72,4.72,0,0,1-.71-2.4V34.9a4.72,4.72,0,0,1,4.75-4.7h4.56V23.3L2.43,23.2Z"/><path class="cls-1" d="M42.18,32.5H34a1.22,1.22,0,0,1-1.21-1.2V26.7A1.22,1.22,0,0,1,34,25.5h8.19a1.23,1.23,0,0,1,1.22,1.2v4.6A1.17,1.17,0,0,1,42.18,32.5Zm-7-2.3h5.87V27.9H35.2Z"/><path class="cls-1" d="M24.68,7H10.62A1.22,1.22,0,0,1,9.41,5.8a1.16,1.16,0,0,1,1.21-1.2H24.68a1.2,1.2,0,1,1,0,2.4Z"/><path class="cls-1" d="M45.93,52.2H28.32a4.72,4.72,0,0,1-4.75-4.7V34.9a4.72,4.72,0,0,1,4.75-4.7H48.05a4.72,4.72,0,0,1,4.75,4.7V45.4a1.27,1.27,0,0,1-.4.9,1.25,1.25,0,0,1-1,.2,2.86,2.86,0,0,0-.91-.1,3.56,3.56,0,0,0-3.54,3.5,2.77,2.77,0,0,0,.1.9,1.23,1.23,0,0,1-.2,1A1.54,1.54,0,0,1,45.93,52.2ZM28.32,32.5a2.44,2.44,0,0,0-2.42,2.4V47.4a2.44,2.44,0,0,0,2.42,2.4H44.61A5.84,5.84,0,0,1,50.48,44V34.8a2.45,2.45,0,0,0-2.43-2.4H28.32Z"/><path class="cls-1" d="M48,52.2H45.83a1.19,1.19,0,0,1-1.12-.9,7.84,7.84,0,0,1-.2-1.4,5.84,5.84,0,0,1,5.87-5.8,6,6,0,0,1,1.41.2,1.17,1.17,0,0,1,.91,1.1v2.1A4.72,4.72,0,0,1,48,52.2Zm-1-2.4h1a2.45,2.45,0,0,0,2.43-2.4v-1A3.39,3.39,0,0,0,46.94,49.8Z"/><path class="cls-1" d="M50.38,38.3a5.84,5.84,0,0,1-5.87-5.8,5.9,5.9,0,0,1,.2-1.4,1.19,1.19,0,0,1,1.12-.9H48a4.72,4.72,0,0,1,4.75,4.7V37a1.17,1.17,0,0,1-.91,1.1A6,6,0,0,1,50.38,38.3Zm-3.44-5.8A3.56,3.56,0,0,0,50.48,36V35a2.45,2.45,0,0,0-2.43-2.4H46.94Z"/><path class="cls-1" d="M30.35,52.2H28.22a4.72,4.72,0,0,1-4.75-4.7V45.4a1.17,1.17,0,0,1,.91-1.1,7.92,7.92,0,0,1,1.42-.2,5.84,5.84,0,0,1,5.86,5.8,5.9,5.9,0,0,1-.2,1.4A1.18,1.18,0,0,1,30.35,52.2ZM25.8,46.4v1a2.44,2.44,0,0,0,2.42,2.4h1A3.32,3.32,0,0,0,25.8,46.4Z"/><path class="cls-1" d="M25.8,38.3a6,6,0,0,1-1.42-.2,1.17,1.17,0,0,1-.91-1.1V34.9a4.72,4.72,0,0,1,4.75-4.7h2.13a1.18,1.18,0,0,1,1.11.9,7.84,7.84,0,0,1,.2,1.4A5.84,5.84,0,0,1,25.8,38.3Zm2.52-5.8a2.44,2.44,0,0,0-2.42,2.4v1a3.56,3.56,0,0,0,3.54-3.5H28.32Z"/><path class="cls-1" d="M19.93,30.2H1.21A1.22,1.22,0,0,1,0,29a1.16,1.16,0,0,1,1.21-1.2H19.93A1.22,1.22,0,0,1,21.14,29,1.16,1.16,0,0,1,19.93,30.2Z"/><path class="cls-1" d="M19.93,34.8H1.21A1.22,1.22,0,0,1,0,33.6a1.16,1.16,0,0,1,1.21-1.2H19.93a1.22,1.22,0,0,1,1.21,1.2A1.16,1.16,0,0,1,19.93,34.8Z"/><path class="cls-1" d="M19.93,39.4H1.21a1.2,1.2,0,1,1,0-2.4H19.93a1.22,1.22,0,0,1,1.21,1.2A1.16,1.16,0,0,1,19.93,39.4Z"/><path class="cls-1" d="M19.93,44.1H1.21A1.22,1.22,0,0,1,0,42.9a1.16,1.16,0,0,1,1.21-1.2H19.93a1.2,1.2,0,1,1,0,2.4Z"/><path class="cls-1" d="M46.94,41.7H24.68a1.22,1.22,0,0,1-1.21-1.2,1.16,1.16,0,0,1,1.21-1.2H46.94a1.2,1.2,0,1,1,0,2.4Z"/><path class="cls-1" d="M35.81,52.2A1.22,1.22,0,0,1,34.6,51V31.3a1.21,1.21,0,0,1,2.42,0V51A1.38,1.38,0,0,1,35.81,52.2Z"/></g></g></g></svg>