<svg xmlns="http://www.w3.org/2000/svg" viewBox="0 0 51.59 55.6"><defs><style>.cls-1{fill:#009de4;}</style></defs><title>Asset 41</title><g id="Layer_2" data-name="Layer 2"><g id="_1" data-name="1"><g id="_462_hotel_building_home_service" data-name="462, hotel ,building, home, service"><path class="cls-1" d="M50.38,55.6H19.93a1.23,1.23,0,0,1-1.22-1.2V5.8a1.23,1.23,0,0,1,1.22-1.2H50.38a1.22,1.22,0,0,1,1.21,1.2V54.4A1.16,1.16,0,0,1,50.38,55.6ZM21.14,53.3H49.26V7H21.14Z"/><path class="cls-1" d="M45.72,7H24.58a1.22,1.22,0,0,1-1.21-1.2V1.2A1.22,1.22,0,0,1,24.58,0h21a1.23,1.23,0,0,1,1.22,1.2V5.8A1.21,1.21,0,0,1,45.72,7ZM25.8,4.6H44.51V2.3H25.8Z"/><path class="cls-1" d="M19.93,55.6H1.21A1.22,1.22,0,0,1,0,54.4v-37a1.22,1.22,0,0,1,1.21-1.2H19.93a1.22,1.22,0,0,1,1.21,1.2V54.5A1.2,1.2,0,0,1,19.93,55.6ZM2.33,53.3H18.71V18.5H2.33Z"/><path class="cls-1" d="M13,18.5H7.08a1.22,1.22,0,0,1-1.21-1.2V12.7a1.22,1.22,0,0,1,1.21-1.2,1.16,1.16,0,0,1,1.21,1.2v3.5h3.55V12.7a1.22,1.22,0,0,1,1.21-1.2,1.16,1.16,0,0,1,1.21,1.2v4.6A1.47,1.47,0,0,1,13,18.5Z"/><path class="cls-1" d="M39.86,55.6H30.45a1.23,1.23,0,0,1-1.22-1.2V42.9a1.23,1.23,0,0,1,1.22-1.2h9.41a1.22,1.22,0,0,1,1.21,1.2V54.5A1.21,1.21,0,0,1,39.86,55.6Zm-8.2-2.3h7V44h-7Z"/><path class="cls-1" d="M5.87,55.6a1.23,1.23,0,0,1-1.22-1.2V22a1.22,1.22,0,0,1,2.43,0V54.4A1.22,1.22,0,0,1,5.87,55.6Z"/><path class="cls-1" d="M10.52,55.6a1.22,1.22,0,0,1-1.21-1.2V22a1.21,1.21,0,0,1,2.42,0V54.4A1.16,1.16,0,0,1,10.52,55.6Z"/><path class="cls-1" d="M15.27,55.6a1.22,1.22,0,0,1-1.21-1.2V22a1.22,1.22,0,0,1,2.43,0V54.4A1.3,1.3,0,0,1,15.27,55.6Z"/><rect class="cls-1" x="24.58" y="9.3" width="2.33" height="2.3"/><rect class="cls-1" x="29.34" y="9.3" width="2.33" height="2.3"/><rect class="cls-1" x="33.99" y="9.3" width="2.33" height="2.3"/><rect class="cls-1" x="38.64" y="9.3" width="2.33" height="2.3"/><rect class="cls-1" x="43.4" y="9.3" width="2.33" height="2.3"/><rect class="cls-1" x="24.58" y="13.9" width="2.33" height="2.3"/><rect class="cls-1" x="29.34" y="13.9" width="2.33" height="2.3"/><rect class="cls-1" x="33.99" y="13.9" width="2.33" height="2.3"/><rect class="cls-1" x="38.64" y="13.9" width="2.33" height="2.3"/><rect class="cls-1" x="43.4" y="13.9" width="2.33" height="2.3"/><rect class="cls-1" x="24.58" y="18.5" width="2.33" height="2.3"/><rect class="cls-1" x="29.34" y="18.5" width="2.33" height="2.3"/><rect class="cls-1" x="33.99" y="18.5" width="2.33" height="2.3"/><rect class="cls-1" x="38.64" y="18.5" width="2.33" height="2.3"/><rect class="cls-1" x="43.4" y="18.5" width="2.33" height="2.3"/><rect class="cls-1" x="24.58" y="23.2" width="2.33" height="2.3"/><rect class="cls-1" x="29.34" y="23.2" width="2.33" height="2.3"/><rect class="cls-1" x="33.99" y="23.2" width="2.33" height="2.3"/><rect class="cls-1" x="38.64" y="23.2" width="2.33" height="2.3"/><rect class="cls-1" x="43.4" y="23.2" width="2.33" height="2.3"/><rect class="cls-1" x="24.58" y="27.8" width="2.33" height="2.3"/><rect class="cls-1" x="29.34" y="27.8" width="2.33" height="2.3"/><rect class="cls-1" x="33.99" y="27.8" width="2.33" height="2.3"/><rect class="cls-1" x="38.64" y="27.8" width="2.33" height="2.3"/><rect class="cls-1" x="43.4" y="27.8" width="2.33" height="2.3"/><rect class="cls-1" x="24.58" y="32.4" width="2.33" height="2.3"/><rect class="cls-1" x="29.34" y="32.4" width="2.33" height="2.3"/><rect class="cls-1" x="33.99" y="32.4" width="2.33" height="2.3"/><rect class="cls-1" x="38.64" y="32.4" width="2.33" height="2.3"/><rect class="cls-1" x="43.4" y="32.4" width="2.33" height="2.3"/><rect class="cls-1" x="24.58" y="37.1" width="2.33" height="2.3"/><rect class="cls-1" x="29.34" y="37.1" width="2.33" height="2.3"/><rect class="cls-1" x="33.99" y="37.1" width="2.33" height="2.3"/><rect class="cls-1" x="38.64" y="37.1" width="2.33" height="2.3"/><rect class="cls-1" x="43.4" y="37.1" width="2.33" height="2.3"/><path class="cls-1" d="M42.18,44H28.12a1.2,1.2,0,1,1,0-2.4H42.18a1.23,1.23,0,0,1,1.22,1.2A1.17,1.17,0,0,1,42.18,44Z"/><path class="cls-1" d="M15.27,47.5H1.21a1.2,1.2,0,1,1,0-2.4H15.27a1.23,1.23,0,0,1,1.22,1.2A1.3,1.3,0,0,1,15.27,47.5Z"/><path class="cls-1" d="M19.93,40.5H5.87a1.23,1.23,0,0,1-1.22-1.2,1.17,1.17,0,0,1,1.22-1.2H19.93a1.2,1.2,0,1,1,0,2.4Z"/><path class="cls-1" d="M15.27,33.6H1.21A1.22,1.22,0,0,1,0,32.4a1.16,1.16,0,0,1,1.21-1.2H15.27a1.2,1.2,0,1,1,0,2.4Z"/></g></g></g></svg>