<svg xmlns="http://www.w3.org/2000/svg" viewBox="0 0 57.46 45.3"><defs><style>.cls-1{fill:#009de4;}</style></defs><title>Asset 46</title><g id="Layer_2" data-name="Layer 2"><g id="_1" data-name="1"><g id="_471_hotel_sign_board_direction" data-name="471, hotel , sign ,board, direction"><path class="cls-1" d="M15.68,29.2v2.6h2.53V29.2h1.52v6.7H18.21V33.1H15.68v2.8H14.16V29.2Z"/><path class="cls-1" d="M27.41,32.5c0,2.2-1.31,3.6-3.33,3.6a3.17,3.17,0,0,1-3.24-3.4,3.27,3.27,0,0,1,3.34-3.5A3,3,0,0,1,27.41,32.5Zm-4.95.1c0,1.3.6,2.3,1.62,2.3s1.61-1,1.61-2.3-.6-2.3-1.61-2.3S22.46,31.2,22.46,32.6Z"/><path class="cls-1" d="M29.44,30.4H27.62V29.2h5.26v1.3H31.06V36H29.54V30.4Z"/><path class="cls-1" d="M37.73,33.1H35.2v1.6H38V36H33.69V29.2h4.24v1.3H35.3v1.4h2.53l-.1,1.2Z"/><path class="cls-1" d="M39.05,29.2h1.51v5.5H43.3V36H39.05Z"/><path class="cls-1" d="M56.24,45.3h-55A1.22,1.22,0,0,1,0,44.1V10.5A1.22,1.22,0,0,1,1.21,9.3h55a1.23,1.23,0,0,1,1.22,1.2V44.1A1.17,1.17,0,0,1,56.24,45.3ZM2.33,43H55V11.7H2.33Z"/><path class="cls-1" d="M51.59,40.7H5.87a1.23,1.23,0,0,1-1.22-1.2V15.2a1.22,1.22,0,0,1,2.43,0V38.4h43.4V15.2a1.22,1.22,0,0,1,2.43,0V39.5C52.7,40.1,52.2,40.7,51.59,40.7Z"/><rect class="cls-1" x="8.19" y="34.9" width="2.33" height="2.3"/><rect class="cls-1" x="46.94" y="34.9" width="2.33" height="2.3"/><rect class="cls-1" x="8.19" y="14" width="2.33" height="2.3"/><rect class="cls-1" x="46.94" y="14" width="2.33" height="2.3"/><path class="cls-1" d="M29,25.6h0a1.18,1.18,0,0,1-.81-.3l-1.11-1.1H25.49A1.22,1.22,0,0,1,24.28,23V21.4l-1.11-1.1a1,1,0,0,1,0-1.6l1.11-1.1V16a1.22,1.22,0,0,1,1.21-1.2h1.62l1.11-1.1a1.18,1.18,0,0,1,.81-.3,1.14,1.14,0,0,1,.81.3L31,14.8h1.62A1.23,1.23,0,0,1,33.79,16v1.6l1.11,1.1a1,1,0,0,1,0,1.6l-1.11,1.1V23a1.23,1.23,0,0,1-1.22,1.2H31l-1.11,1.1A1.14,1.14,0,0,1,29,25.6Zm-2.32-3.8h.91a1.18,1.18,0,0,1,.81.3l.6.6.61-.6a1.16,1.16,0,0,1,.81-.3h.91v-.9a1.14,1.14,0,0,1,.3-.8l.61-.6-.61-.6a1.14,1.14,0,0,1-.3-.8v-.9h-.91a1.16,1.16,0,0,1-.81-.3L29,16.2l-.6.6a.94.94,0,0,1-.81.4h-.91v.9a1.14,1.14,0,0,1-.31.8l-.6.6.6.6a1.14,1.14,0,0,1,.31.8v.9Z"/><path class="cls-1" d="M53.92,7.1H4.75a1.2,1.2,0,1,1,0-2.4H53.92a1.22,1.22,0,0,1,1.21,1.2A1.3,1.3,0,0,1,53.92,7.1Z"/><path class="cls-1" d="M53.92,2.4H4.75A1.22,1.22,0,0,1,3.54,1.2,1.22,1.22,0,0,1,4.75,0H53.92a1.22,1.22,0,0,1,1.21,1.2A1.22,1.22,0,0,1,53.92,2.4Z"/><path class="cls-1" d="M10.52,11.7a1.22,1.22,0,0,1-1.21-1.2V1.2a1.21,1.21,0,0,1,2.42,0v9.3A1.16,1.16,0,0,1,10.52,11.7Z"/><path class="cls-1" d="M48.05,11.7a1.22,1.22,0,0,1-1.21-1.2V1.2A1.22,1.22,0,0,1,48.05,0a1.16,1.16,0,0,1,1.21,1.2v9.3A1.16,1.16,0,0,1,48.05,11.7Z"/></g></g></g></svg>