<svg xmlns="http://www.w3.org/2000/svg" viewBox="0 0 54.02 53.3"><defs><style>.cls-1{fill:#009de4;}</style></defs><title>Asset 32</title><g id="Layer_2" data-name="Layer 2"><g id="_1" data-name="1"><g id="_463_lighthouse_building_navigation_house" data-name="463, lighthouse, building, navigation, house"><path class="cls-1" d="M38.74,53.3H15.27a1.26,1.26,0,0,1-.91-.4,1.1,1.1,0,0,1-.3-.9L17.6,20.7a1.2,1.2,0,0,1,1.22-1H35.2a1.2,1.2,0,0,1,1.22,1L40,51.9v.2A1.3,1.3,0,0,1,38.74,53.3ZM16.59,51H37.43L34.19,22H19.83Z"/><path class="cls-1" d="M35.2,22.1H18.82a1.23,1.23,0,0,1-1.22-1.2V14a1.23,1.23,0,0,1,1.22-1.2H35.2A1.23,1.23,0,0,1,36.42,14v6.9A1.3,1.3,0,0,1,35.2,22.1ZM20,19.8H34.09V15.2H20Z"/><path class="cls-1" d="M35.2,15.1H18.82a1.23,1.23,0,0,1-1.22-1.2V9.3a1.23,1.23,0,0,1,1.22-1.2H35.2a1.23,1.23,0,0,1,1.22,1.2v4.6A1.23,1.23,0,0,1,35.2,15.1ZM20,12.8H34.09V10.5H20Z"/><path class="cls-1" d="M35.2,15.1H18.82a1.23,1.23,0,0,1-1.22-1.2V9.3a9.41,9.41,0,0,1,18.82,0v4.6A1.23,1.23,0,0,1,35.2,15.1ZM20,12.8H34.09V9.3a7,7,0,0,0-14,0L20,12.8Z"/><path class="cls-1" d="M31.66,53.3H22.25A1.22,1.22,0,0,1,21,52.1V44a5.87,5.87,0,0,1,11.74,0v8.2A1,1,0,0,1,31.66,53.3ZM23.47,51h7.08V44.1a3.54,3.54,0,0,0-7.08,0Z"/><path class="cls-1" d="M52.81,53.3H1.21A1.22,1.22,0,0,1,0,52.1a1.16,1.16,0,0,1,1.21-1.2h51.6A1.22,1.22,0,0,1,54,52.1,1.3,1.3,0,0,1,52.81,53.3Z"/><path class="cls-1" d="M27,33.6a4.6,4.6,0,1,1,0-9.2A4.68,4.68,0,0,1,31.66,29,4.55,4.55,0,0,1,27,33.6Zm0-6.9A2.3,2.3,0,1,0,29.34,29,2.28,2.28,0,0,0,27,26.7Z"/><path class="cls-1" d="M38.74,14a1.25,1.25,0,0,1-1-.5,1.15,1.15,0,0,1,.41-1.6l9.4-5.8a1.18,1.18,0,0,1,1.62.4,1.14,1.14,0,0,1-.4,1.6l-9.41,5.8C39.15,13.9,39,14,38.74,14Z"/><path class="cls-1" d="M48.05,24.4a1.51,1.51,0,0,1-.61-.2L38,18.4a1.25,1.25,0,0,1-.41-1.6,1.28,1.28,0,0,1,1.62-.4l9.51,5.8a1.24,1.24,0,0,1,.4,1.6A1.39,1.39,0,0,1,48.05,24.4Z"/><path class="cls-1" d="M15.27,14a1.42,1.42,0,0,1-.6-.2L5.26,8a1.23,1.23,0,0,1-.4-1.6A1.27,1.27,0,0,1,6.47,6l9.41,5.8a1.25,1.25,0,0,1,.41,1.6A1.13,1.13,0,0,1,15.27,14Z"/><path class="cls-1" d="M6,24.4a1.24,1.24,0,0,1-1-.5,1.14,1.14,0,0,1,.4-1.6l9.41-5.8a1.18,1.18,0,0,1,1.62.4A1.15,1.15,0,0,1,16,18.5l-9.4,5.7A1.51,1.51,0,0,1,6,24.4Z"/><path class="cls-1" d="M36.42,37.1H30.55a1.2,1.2,0,1,1,0-2.4h5.87a1.22,1.22,0,0,1,1.21,1.2A1.3,1.3,0,0,1,36.42,37.1Z"/><path class="cls-1" d="M23.47,37.1H17.6a1.2,1.2,0,1,1,0-2.4h5.87a1.22,1.22,0,0,1,1.21,1.2A1.16,1.16,0,0,1,23.47,37.1Z"/><path class="cls-1" d="M49.26,16.3h-7a1.2,1.2,0,1,1,0-2.4h7a1.2,1.2,0,1,1,0,2.4Z"/><path class="cls-1" d="M11.73,16.3h-7a1.2,1.2,0,1,1,0-2.4h7A1.23,1.23,0,0,1,13,15.1,1.17,1.17,0,0,1,11.73,16.3Z"/></g></g></g></svg>