<svg xmlns="http://www.w3.org/2000/svg" viewBox="0 0 44.71 55.6"><defs><style>.cls-1{fill:#009de4;}</style></defs><title>Asset 26</title><g id="Layer_2" data-name="Layer 2"><g id="_1" data-name="1"><g id="_456_Boat_ship_transport_vessel" data-name="456, Boat, ship, transport, vessel"><path class="cls-1" d="M36.32,25.8a.61.61,0,0,1-.41-.1L22.25,20.9,8.6,25.7a1.44,1.44,0,0,1-1.11-.1A1.18,1.18,0,0,1,7,24.7v-12a1.22,1.22,0,0,1,1.21-1.2H36.32a1.22,1.22,0,0,1,1.21,1.2V24.6a1,1,0,0,1-.51.9A1.08,1.08,0,0,1,36.32,25.8ZM22.25,18.5a.61.61,0,0,1,.41.1L35.2,23V13.9H9.41V23L22,18.6A1,1,0,0,1,22.25,18.5Z"/><path class="cls-1" d="M22.25,49.8H11.73a1.18,1.18,0,0,1-1.11-.9L4.75,25.7a1.28,1.28,0,0,1,.71-1.4l16.39-5.8a1.44,1.44,0,0,1,1.11.1,1.18,1.18,0,0,1,.51.9v29A1.25,1.25,0,0,1,22.25,49.8Zm-9.61-2.3h8.5V21.3L7.28,26.2Z"/><path class="cls-1" d="M32.78,49.8H22.25A1.22,1.22,0,0,1,21,48.6v-29a1,1,0,0,1,.51-.9,1.09,1.09,0,0,1,1.11-.1l16.39,5.8a1.09,1.09,0,0,1,.71,1.4L33.89,48.9A1.1,1.1,0,0,1,32.78,49.8Zm-9.31-2.3h8.39l5.37-21.3L23.47,21.3V47.5Z"/><path class="cls-1" d="M28.12,13.9H15.27a1.22,1.22,0,0,1-1.21-1.2V5.8a1.22,1.22,0,0,1,1.21-1.2H28.12a1.23,1.23,0,0,1,1.22,1.2v6.9A1.31,1.31,0,0,1,28.12,13.9ZM16.39,11.6H26.91V7H16.39Z"/><path class="cls-1" d="M24.58,7H18.71A1.22,1.22,0,0,1,17.5,5.8V1.2A1.22,1.22,0,0,1,18.71,0h5.87A1.23,1.23,0,0,1,25.8,1.2V5.8A1.23,1.23,0,0,1,24.58,7ZM19.93,4.6h3.54V2.3H19.93Z"/><rect class="cls-1" x="14.06" y="15.1" width="2.33" height="2.3"/><rect class="cls-1" x="10.52" y="15.1" width="2.33" height="2.3"/><rect class="cls-1" x="17.6" y="15.1" width="2.33" height="2.3"/><rect class="cls-1" x="21.04" y="15.1" width="2.33" height="2.3"/><rect class="cls-1" x="24.58" y="15.1" width="2.33" height="2.3"/><rect class="cls-1" x="28.12" y="15.1" width="2.33" height="2.3"/><rect class="cls-1" x="31.66" y="15.1" width="2.33" height="2.3"/><path class="cls-1" d="M3.54,55.6A3.56,3.56,0,0,1,0,52.1a1.22,1.22,0,0,1,1.21-1.2,1.17,1.17,0,0,1,1.22,1.2,1.22,1.22,0,0,0,2.43,0,1.21,1.21,0,0,1,2.42,0A4,4,0,0,1,3.54,55.6Z"/><path class="cls-1" d="M8.19,55.6a3.56,3.56,0,0,1-3.54-3.5,1.22,1.22,0,0,1,2.43,0,1.22,1.22,0,0,0,2.43,0,1.22,1.22,0,0,1,1.21-1.2,1.17,1.17,0,0,1,1.22,1.2A3.9,3.9,0,0,1,8.19,55.6Z"/><path class="cls-1" d="M12.85,55.6a3.56,3.56,0,0,1-3.54-3.5,1.22,1.22,0,0,1,1.21-1.2,1.16,1.16,0,0,1,1.21,1.2,1.22,1.22,0,0,0,2.43,0,1.22,1.22,0,0,1,2.43,0A3.89,3.89,0,0,1,12.85,55.6Z"/><path class="cls-1" d="M17.6,55.6a3.56,3.56,0,0,1-3.54-3.5,1.22,1.22,0,0,1,1.21-1.2,1.17,1.17,0,0,1,1.22,1.2,1.22,1.22,0,0,0,2.43,0,1.21,1.21,0,0,1,2.42,0A4,4,0,0,1,17.6,55.6Z"/><path class="cls-1" d="M22.25,55.6a3.56,3.56,0,0,1-3.54-3.5,1.22,1.22,0,0,1,2.43,0,1.22,1.22,0,0,0,2.43,0,1.22,1.22,0,0,1,2.43,0A3.9,3.9,0,0,1,22.25,55.6Z"/><path class="cls-1" d="M26.91,55.6a3.56,3.56,0,0,1-3.54-3.5,1.22,1.22,0,0,1,2.43,0A1.22,1.22,0,0,0,27,53.3a1.16,1.16,0,0,0,1.21-1.2,1.23,1.23,0,0,1,1.22-1.2,1.16,1.16,0,0,1,1.21,1.2A3.89,3.89,0,0,1,26.91,55.6Z"/><path class="cls-1" d="M31.66,55.6a3.56,3.56,0,0,1-3.54-3.5,1.23,1.23,0,0,1,1.22-1.2,1.16,1.16,0,0,1,1.21,1.2,1.22,1.22,0,0,0,2.43,0,1.22,1.22,0,0,1,1.21-1.2,1.17,1.17,0,0,1,1.22,1.2A4,4,0,0,1,31.66,55.6Z"/><path class="cls-1" d="M36.32,55.6a3.56,3.56,0,0,1-3.54-3.5A1.22,1.22,0,0,1,34,50.9a1.16,1.16,0,0,1,1.21,1.2,1.22,1.22,0,0,0,2.43,0,1.22,1.22,0,0,1,2.43,0A3.89,3.89,0,0,1,36.32,55.6Z"/><path class="cls-1" d="M41,55.6a3.56,3.56,0,0,1-3.54-3.5,1.22,1.22,0,0,1,2.43,0,1.22,1.22,0,0,0,1.21,1.2,1.16,1.16,0,0,0,1.21-1.2,1.22,1.22,0,0,1,2.43,0A3.89,3.89,0,0,1,41,55.6Z"/><path class="cls-1" d="M28.12,10.4H22.25a1.2,1.2,0,1,1,0-2.4h5.87a1.23,1.23,0,0,1,1.22,1.2A1.31,1.31,0,0,1,28.12,10.4Z"/><path class="cls-1" d="M7,31.3a1.19,1.19,0,0,1-.4-2.3L17.1,25.5a1.2,1.2,0,0,1,1.51.7,1.18,1.18,0,0,1-.71,1.5L7.38,31.2C7.28,31.3,7.18,31.3,7,31.3Z"/><path class="cls-1" d="M37.53,31.3a.8.8,0,0,1-.41-.1L26.6,27.7a1.18,1.18,0,0,1-.7-1.5,1.2,1.2,0,0,1,1.51-.7L37.93,29a1.19,1.19,0,0,1,.71,1.5A1.29,1.29,0,0,1,37.53,31.3Z"/></g></g></g></svg>