<svg xmlns="http://www.w3.org/2000/svg" viewBox="0 0 57.27 54.6"><defs><style>.cls-1{fill:#009de4;}</style></defs><title>Asset 47</title><g id="Layer_2" data-name="Layer 2"><g id="_1" data-name="1"><g id="_455_balloon_air_air_hot" data-name="455, balloon, air, air, hot"><path class="cls-1" d="M37.43,43H19.83a1.2,1.2,0,0,1-1.22-1c-.3-2.7-2.42-6.1-4.55-9.5-2.43-3.8-4.85-7.8-4.85-11.2,0-10.4,8.7-18.8,19.32-18.8s19.32,8.4,19.32,18.8c0,3.4-2.43,7.4-4.86,11.2-2.12,3.3-4.25,6.8-4.55,9.5C38.54,42.6,38,43,37.43,43ZM20.84,40.7H36.42c.71-2.9,2.73-6.2,4.65-9.4,2.23-3.6,4.55-7.3,4.55-10a16.74,16.74,0,0,0-17-16.5,16.75,16.75,0,0,0-17,16.5c0,2.7,2.33,6.4,4.56,10C18.11,34.5,20.13,37.8,20.84,40.7Z"/><path class="cls-1" d="M34,43H23.27a1.29,1.29,0,0,1-1.22-1.1c-.2-2.8-1.51-6.3-2.83-9.6-1.42-3.8-2.93-7.7-2.93-11A24.76,24.76,0,0,1,19.73,8.2c2.32-3.7,5.46-5.7,8.9-5.7s6.57,2,8.9,5.7A24.76,24.76,0,0,1,41,21.3c0,3.3-1.52,7.2-2.93,11-1.32,3.4-2.63,6.9-2.84,9.6A1.2,1.2,0,0,1,34,43Zm-9.71-2.3H33a43.26,43.26,0,0,1,2.83-9.2c1.42-3.6,2.83-7.4,2.83-10.2a23.4,23.4,0,0,0-3-11.9c-1.92-3-4.35-4.6-6.88-4.6s-5,1.6-6.88,4.6a22.44,22.44,0,0,0-3,11.9c0,2.9,1.41,6.6,2.83,10.2A61.74,61.74,0,0,1,24.28,40.7Z"/><path class="cls-1" d="M30.65,43H26.71a1.29,1.29,0,0,1-1.22-1.1c-.1-2.9-.6-6.4-1-9.8a86.09,86.09,0,0,1-1.11-10.8A59.2,59.2,0,0,1,24.58,8.5c.91-4.1,2.23-6.1,4.05-6.1s3.13,2,4,6.1a57.88,57.88,0,0,1,1.22,12.8,74.69,74.69,0,0,1-1.11,10.8,71,71,0,0,0-1,9.8A1.11,1.11,0,0,1,30.65,43Zm-2.83-2.3h1.72c.1-2.8.61-5.9,1-9a84.35,84.35,0,0,0,1-10.4,64.45,64.45,0,0,0-1-11.7c-.81-3.7-1.62-4.6-1.92-4.8-.2.2-1.11,1.1-1.92,4.8a56.51,56.51,0,0,0-1,11.7,84.17,84.17,0,0,0,1,10.5C27.21,34.8,27.62,38,27.82,40.7Z"/><path class="cls-1" d="M32.27,54.6H24.89a3.93,3.93,0,0,1-3.95-3.9V46.5a1.22,1.22,0,0,1,1.21-1.2H35a1.23,1.23,0,0,1,1.22,1.2v4.2A3.87,3.87,0,0,1,32.27,54.6Zm-8.9-6.9v3.1A1.59,1.59,0,0,0,25,52.4h7.38A1.59,1.59,0,0,0,34,50.8V47.7Z"/><path class="cls-1" d="M37.43,47.7H19.83a1.2,1.2,0,1,1,0-2.4h17.6a1.22,1.22,0,0,1,1.21,1.2A1.29,1.29,0,0,1,37.43,47.7Z"/><path class="cls-1" d="M26.91,54.6a1.23,1.23,0,0,1-1.22-1.2V49.9a1.22,1.22,0,0,1,2.43,0v3.5A1.29,1.29,0,0,1,26.91,54.6Z"/><path class="cls-1" d="M30.35,54.6a1.23,1.23,0,0,1-1.22-1.2V49.9a1.23,1.23,0,0,1,1.22-1.2,1.16,1.16,0,0,1,1.21,1.2v3.5A1.16,1.16,0,0,1,30.35,54.6Z"/><path class="cls-1" d="M51.49,14.1a1.2,1.2,0,1,1,0-2.4,2.3,2.3,0,1,0-.81-4.5A1.11,1.11,0,0,1,49.57,7a1.21,1.21,0,0,1-.51-1V5.8a3.56,3.56,0,0,0-3.54-3.5,3.62,3.62,0,0,0-3.24,2,1.23,1.23,0,0,1-1.51.6,1.21,1.21,0,0,1-.61-1.5A5.92,5.92,0,0,1,51.29,4.6h.1A4.61,4.61,0,0,1,56,9.2,4.86,4.86,0,0,1,51.49,14.1Z"/><path class="cls-1" d="M4.65,15.2A4.61,4.61,0,0,1,0,10.6,4.68,4.68,0,0,1,4.65,6h.1A5.92,5.92,0,0,1,15.28,3.8a3.79,3.79,0,0,1,1.11-.1,4.73,4.73,0,0,1,3.13,1.2,1.1,1.1,0,0,1,.1,1.6A1.24,1.24,0,0,1,18,6.6,2.25,2.25,0,0,0,16.49,6a2.29,2.29,0,0,0-1.11.3,1.45,1.45,0,0,1-.91.1,1.33,1.33,0,0,1-.71-.6,3.61,3.61,0,0,0-3.24-2A3.56,3.56,0,0,0,7,7.3v.2a1.21,1.21,0,0,1-.51,1,1.4,1.4,0,0,1-1.11.2,2,2,0,0,0-.81-.1,2.3,2.3,0,1,0,0,4.6,1.23,1.23,0,0,1,1.22,1.2C5.77,14.7,5.26,15.2,4.65,15.2Z"/><path class="cls-1" d="M56.14,47.7H45.62a1.2,1.2,0,1,1,0-2.4h9.11a2.45,2.45,0,0,0-2-1.2,2.28,2.28,0,0,0-.81.1,1.11,1.11,0,0,1-1.11-.2,1.23,1.23,0,0,1-.5-1v-.2a3.56,3.56,0,0,0-3.54-3.5,3.61,3.61,0,0,0-3.24,2,1.24,1.24,0,0,1-1.52.6,1.21,1.21,0,0,1-.61-1.5A5.92,5.92,0,0,1,52.5,41.6h.1a4.62,4.62,0,0,1,4.66,4.6C57.36,47.2,56.85,47.7,56.14,47.7Z"/></g></g></g></svg>