<svg xmlns="http://www.w3.org/2000/svg" viewBox="0 0 52.8 55.67"><defs><style>.cls-1{fill:#009de4;}</style></defs><title>Asset 34</title><g id="Layer_2" data-name="Layer 2"><g id="_1" data-name="1"><g id="_454_glass_glasses_drink_hotel" data-name="454, glass, glasses, drink, hotel"><path class="cls-1" d="M28.12,34.77a1.48,1.48,0,0,1-.91-.39L7.28,10.08a1,1,0,0,1-.1-1.2,1.22,1.22,0,0,1,1-.71H48.05a1.11,1.11,0,0,1,1,.71,1.27,1.27,0,0,1-.1,1.2L29,34.38A1,1,0,0,1,28.12,34.77ZM10.72,10.48l17.5,21.29,17.5-21.29Z"/><path class="cls-1" d="M34.79,55.67H21.54a1.09,1.09,0,0,1-1-.69,1.28,1.28,0,0,1,.1-1.21l6.68-8.1a1.12,1.12,0,0,1,.91-.4,1.58,1.58,0,0,1,.91.4l6.67,8.1A1,1,0,0,1,35.91,55,1.38,1.38,0,0,1,34.79,55.67ZM24,53.38h8.4l-4.15-5.11Z"/><path class="cls-1" d="M28.12,47.58a1.23,1.23,0,0,1-1.22-1.2V33.67a1.23,1.23,0,0,1,1.22-1.19,1.16,1.16,0,0,1,1.21,1.19V46.38A1.16,1.16,0,0,1,28.12,47.58Z"/><path class="cls-1" d="M43.39,16.27H19.92a1.2,1.2,0,1,1,0-2.39H43.39a1.2,1.2,0,1,1,0,2.39Z"/><path class="cls-1" d="M9.4,19.77a9.59,9.59,0,0,1-7.48-3.6,9.26,9.26,0,0,1,1.72-13A9.53,9.53,0,0,1,16.79,4.88a1.13,1.13,0,0,1-.2,1.6A1.15,1.15,0,0,1,15,6.27,7.11,7.11,0,0,0,5.15,5a6.91,6.91,0,0,0-1.31,9.69A7.12,7.12,0,0,0,13.65,16a1.15,1.15,0,0,1,1.62.19,1.13,1.13,0,0,1-.2,1.6A8.54,8.54,0,0,1,9.4,19.77Z"/><path class="cls-1" d="M41.06,55.67H8.19a1.2,1.2,0,1,1,0-2.4H41.06a1.2,1.2,0,1,1,0,2.4Z"/><path class="cls-1" d="M51.59,51.08H38.74a1.21,1.21,0,1,1,0-2.41H51.59a1.23,1.23,0,0,1,1.21,1.21A1.3,1.3,0,0,1,51.59,51.08Z"/><path class="cls-1" d="M28.12,21a1.11,1.11,0,0,1-.81-.31,1,1,0,0,1,0-1.59L46.12.38a1.06,1.06,0,0,1,1.62,0,1,1,0,0,1,0,1.6L29,20.58A2,2,0,0,1,28.12,21Z"/><rect class="cls-1" x="30.54" y="22.08" width="2.33" height="2.3"/><rect class="cls-1" x="27" y="25.58" width="2.33" height="2.3"/><rect class="cls-1" x="23.46" y="20.98" width="2.33" height="2.3"/><rect class="cls-1" x="22.25" y="17.48" width="2.33" height="2.3"/></g></g></g></svg>