<svg xmlns="http://www.w3.org/2000/svg" viewBox="0 0 51.59 45.3"><defs><style>.cls-1{fill:#009de4;}</style></defs><title>Asset 28</title><g id="Layer_2" data-name="Layer 2"><g id="_1" data-name="1"><g id="_470_calendar_vecation_date_holidays" data-name="470, calendar, vecation, date, holidays"><path class="cls-1" d="M50.38,45.3H1.21A1.22,1.22,0,0,1,0,44.1V11.7a1.22,1.22,0,0,1,1.21-1.2H50.38a1.22,1.22,0,0,1,1.21,1.2V44.1A1.16,1.16,0,0,1,50.38,45.3ZM2.33,43H49.16V12.9H2.33Z"/><path class="cls-1" d="M50.38,45.3H1.21A1.22,1.22,0,0,1,0,44.1V11.7a1.22,1.22,0,0,1,1.21-1.2H50.38a1.22,1.22,0,0,1,1.21,1.2V44.1A1.16,1.16,0,0,1,50.38,45.3ZM2.33,43H49.16V12.9H2.33Z"/><path class="cls-1" d="M50.38,12.9H1.21A1.22,1.22,0,0,1,0,11.7V5.9A1.22,1.22,0,0,1,1.21,4.7H50.38a1.22,1.22,0,0,1,1.21,1.2v5.8A1.22,1.22,0,0,1,50.38,12.9ZM2.33,10.5H49.16V7H2.33Z"/><path class="cls-1" d="M50.38,12.9H1.21A1.22,1.22,0,0,1,0,11.7V5.9A1.22,1.22,0,0,1,1.21,4.7H50.38a1.22,1.22,0,0,1,1.21,1.2v5.8A1.22,1.22,0,0,1,50.38,12.9ZM2.33,10.5H49.16V7H2.33Z"/><rect class="cls-1" x="8.19" y="16.3" width="2.33" height="2.3"/><rect class="cls-1" x="12.95" y="16.3" width="2.33" height="2.3"/><rect class="cls-1" x="17.6" y="16.3" width="2.33" height="2.3"/><rect class="cls-1" x="22.25" y="16.3" width="2.33" height="2.3"/><rect class="cls-1" x="27.01" y="16.3" width="2.33" height="2.3"/><rect class="cls-1" x="31.66" y="16.3" width="2.33" height="2.3"/><rect class="cls-1" x="36.32" y="16.3" width="2.33" height="2.3"/><rect class="cls-1" x="41.07" y="16.3" width="2.33" height="2.3"/><rect class="cls-1" x="8.19" y="21" width="2.33" height="2.3"/><rect class="cls-1" x="12.95" y="21" width="2.33" height="2.3"/><path class="cls-1" d="M18.82,23.3h0a1.23,1.23,0,0,1-1.22-1.2h0a1.23,1.23,0,0,1,1.22-1.2h0A1.22,1.22,0,0,1,20,22.1h0A1.3,1.3,0,0,1,18.82,23.3Z"/><path class="cls-1" d="M23.47,23.3h0a1.23,1.23,0,0,1-1.22-1.2h0a1.23,1.23,0,0,1,1.22-1.2h0a1.22,1.22,0,0,1,1.21,1.2h0A1.29,1.29,0,0,1,23.47,23.3Z"/><path class="cls-1" d="M28.12,23.3h0a1.22,1.22,0,0,1-1.21-1.2h0a1.22,1.22,0,0,1,1.21-1.2h0a1.23,1.23,0,0,1,1.22,1.2h0A1.17,1.17,0,0,1,28.12,23.3Z"/><path class="cls-1" d="M32.78,23.3h0a1.23,1.23,0,0,1-1.22-1.2h0a1.23,1.23,0,0,1,1.22-1.2h0A1.22,1.22,0,0,1,34,22.1h0A1.16,1.16,0,0,1,32.78,23.3Z"/><path class="cls-1" d="M37.53,23.3h0a1.22,1.22,0,0,1-1.21-1.2h0a1.22,1.22,0,0,1,1.21-1.2h0a1.22,1.22,0,0,1,1.21,1.2h0A1.29,1.29,0,0,1,37.53,23.3Z"/><path class="cls-1" d="M42.18,23.3h0A1.22,1.22,0,0,1,41,22.1h0a1.22,1.22,0,0,1,1.21-1.2h0a1.23,1.23,0,0,1,1.22,1.2h0A1.17,1.17,0,0,1,42.18,23.3Z"/><path class="cls-1" d="M9.41,27.9h0a1.23,1.23,0,0,1-1.22-1.2h0a1.23,1.23,0,0,1,1.22-1.2h0a1.22,1.22,0,0,1,1.21,1.2h0A1.3,1.3,0,0,1,9.41,27.9Z"/><path class="cls-1" d="M14.06,27.9h0a1.22,1.22,0,0,1-1.21-1.2h0a1.22,1.22,0,0,1,1.21-1.2h0a1.22,1.22,0,0,1,1.21,1.2h0A1.16,1.16,0,0,1,14.06,27.9Z"/><path class="cls-1" d="M18.82,27.9h0a1.23,1.23,0,0,1-1.22-1.2h0a1.23,1.23,0,0,1,1.22-1.2h0A1.22,1.22,0,0,1,20,26.7h0A1.3,1.3,0,0,1,18.82,27.9Z"/><path class="cls-1" d="M23.47,27.9h0a1.23,1.23,0,0,1-1.22-1.2h0a1.23,1.23,0,0,1,1.22-1.2h0a1.22,1.22,0,0,1,1.21,1.2h0A1.29,1.29,0,0,1,23.47,27.9Z"/><path class="cls-1" d="M28.12,27.9h0a1.22,1.22,0,0,1-1.21-1.2h0a1.22,1.22,0,0,1,1.21-1.2h0a1.23,1.23,0,0,1,1.22,1.2h0A1.17,1.17,0,0,1,28.12,27.9Z"/><rect class="cls-1" x="31.66" y="25.6" width="2.33" height="2.3"/><rect class="cls-1" x="36.32" y="25.6" width="2.33" height="2.3"/><rect class="cls-1" x="41.07" y="25.6" width="2.33" height="2.3"/><rect class="cls-1" x="8.19" y="30.2" width="2.33" height="2.3"/><rect class="cls-1" x="12.95" y="30.2" width="2.33" height="2.3"/><rect class="cls-1" x="17.6" y="30.2" width="2.33" height="2.3"/><rect class="cls-1" x="22.25" y="30.2" width="2.33" height="2.3"/><rect class="cls-1" x="27.01" y="30.2" width="2.33" height="2.3"/><rect class="cls-1" x="31.66" y="30.2" width="2.33" height="2.3"/><rect class="cls-1" x="36.32" y="30.2" width="2.33" height="2.3"/><rect class="cls-1" x="41.07" y="30.2" width="2.33" height="2.3"/><rect class="cls-1" x="8.19" y="34.9" width="2.33" height="2.3"/><rect class="cls-1" x="12.95" y="34.9" width="2.33" height="2.3"/><rect class="cls-1" x="17.6" y="34.9" width="2.33" height="2.3"/><rect class="cls-1" x="22.25" y="34.9" width="2.33" height="2.3"/><rect class="cls-1" x="27.01" y="34.9" width="2.33" height="2.3"/><rect class="cls-1" x="31.66" y="34.9" width="2.33" height="2.3"/><rect class="cls-1" x="36.32" y="34.9" width="2.33" height="2.3"/><rect class="cls-1" x="41.07" y="34.9" width="2.33" height="2.3"/><path class="cls-1" d="M50.38,45.3H1.21A1.22,1.22,0,0,1,0,44.1V40.6a1.22,1.22,0,0,1,1.21-1.2H50.38a1.22,1.22,0,0,1,1.21,1.2v3.5A1.16,1.16,0,0,1,50.38,45.3ZM2.33,43H49.16V41.8H2.33Z"/><path class="cls-1" d="M50.38,45.3H1.21A1.22,1.22,0,0,1,0,44.1V40.6a1.22,1.22,0,0,1,1.21-1.2H50.38a1.22,1.22,0,0,1,1.21,1.2v3.5A1.16,1.16,0,0,1,50.38,45.3ZM2.33,43H49.16V41.8H2.33Z"/><path class="cls-1" d="M49.26,2.4h-48A1.22,1.22,0,0,1,0,1.2,1.22,1.22,0,0,1,1.21,0H49.26a1.23,1.23,0,0,1,1.22,1.2A1.3,1.3,0,0,1,49.26,2.4Z"/></g></g></g></svg>