<svg xmlns="http://www.w3.org/2000/svg" viewBox="0 0 57.66 44"><defs><style>.cls-1{fill:#009de4;}</style></defs><title>Asset 36</title><g id="Layer_2" data-name="Layer 2"><g id="_1" data-name="1"><g id="_468_swimming_pool_hotel_serves" data-name="468, swimming, pool , hotel, serves"><path class="cls-1" d="M22.25,25.5A1.22,1.22,0,0,1,21,24.3V4.6a4.66,4.66,0,0,1,9.31,0,1.22,1.22,0,0,1-2.43,0,2.33,2.33,0,0,0-4.65,0V24.3C23.47,25,23,25.5,22.25,25.5Z"/><path class="cls-1" d="M35.2,25.5A1.22,1.22,0,0,1,34,24.3V4.6A4.61,4.61,0,0,1,38.64,0,4.69,4.69,0,0,1,43.3,4.6a1.23,1.23,0,0,1-1.22,1.2,1.16,1.16,0,0,1-1.21-1.2,2.33,2.33,0,0,0-4.66,0V24.3A1,1,0,0,1,35.2,25.5Z"/><path class="cls-1" d="M29.34,39.4c-13.15,0-23.47-5.1-23.47-11.6S16.19,16.2,29.34,16.2,52.8,21.3,52.8,27.8,42.49,39.4,29.34,39.4Zm0-20.9a37.08,37.08,0,0,0-15.28,3c-3.74,1.7-5.87,4-5.87,6.3s2.13,4.6,5.87,6.3A37.12,37.12,0,0,0,29.34,37a37.11,37.11,0,0,0,15.27-2.9c3.74-1.7,5.87-4,5.87-6.3s-2.13-4.6-5.87-6.3A37.4,37.4,0,0,0,29.34,18.5Z"/><path class="cls-1" d="M29.34,44C22,44,15,42.5,9.71,39.8,4.25,37,1.21,33.1,1.21,29a1.23,1.23,0,0,1,1.22-1.2A1.16,1.16,0,0,1,3.64,29c0,3.2,2.53,6.4,7.28,8.8a42.11,42.11,0,0,0,18.52,3.9A42.07,42.07,0,0,0,48,37.8c4.65-2.4,7.28-5.5,7.28-8.8a1.22,1.22,0,0,1,2.43,0c0,4.2-3,8-8.5,10.8A45.48,45.48,0,0,1,29.34,44Z"/><path class="cls-1" d="M35.2,9.3h-13A1.22,1.22,0,0,1,21,8.1a1.16,1.16,0,0,1,1.21-1.2H35.1a1.23,1.23,0,0,1,1.22,1.2A1.21,1.21,0,0,1,35.2,9.3Z"/><path class="cls-1" d="M35.2,13.9h-13a1.2,1.2,0,1,1,0-2.4H35.1a1.23,1.23,0,0,1,1.22,1.2A1.14,1.14,0,0,1,35.2,13.9Z"/><path class="cls-1" d="M29.34,27.8a.91.91,0,0,1-.71-.3s-3.95-3.1-5.87-1.5a5.69,5.69,0,0,1-7,.4,1.23,1.23,0,0,1-.3-1.6,1.27,1.27,0,0,1,1.62-.3,3.28,3.28,0,0,0,4-.3c3.44-2.9,8.7,1.3,8.9,1.5a1,1,0,0,1,.11,1.6A.84.84,0,0,1,29.34,27.8Z"/><path class="cls-1" d="M29.34,27.8a1.15,1.15,0,0,1-.81-2c.2-.2,5.36-4.4,8.9-1.5a3.28,3.28,0,0,0,4,.3,1.16,1.16,0,0,1,1.61.3,1.13,1.13,0,0,1-.3,1.6,5.69,5.69,0,0,1-7-.4c-1.62-1.4-4.86.7-5.87,1.5A1.07,1.07,0,0,1,29.34,27.8Z"/><path class="cls-1" d="M29.34,32.4a1.85,1.85,0,0,1-.71-.2s-3.95-2.9-5.87-1.2a5.57,5.57,0,0,1-7.08,0,1.1,1.1,0,0,1-.1-1.6,1.14,1.14,0,0,1,1.62-.1,3.12,3.12,0,0,0,4,0c3.44-2.9,8.6,1,8.8,1.1a1.1,1.1,0,0,1-.7,2Z"/><path class="cls-1" d="M29.34,32.4a1.2,1.2,0,0,1-.91-.5,1.11,1.11,0,0,1,.2-1.6c.2-.2,5.36-4,8.8-1.1a3.08,3.08,0,0,0,4,0,1.13,1.13,0,0,1,1.61.1,1.1,1.1,0,0,1-.1,1.6,5.57,5.57,0,0,1-7.08,0c-2-1.7-5.87,1.2-5.87,1.2A1.08,1.08,0,0,1,29.34,32.4Z"/><path class="cls-1" d="M56.24,10.4H39.86a1.2,1.2,0,1,1,0-2.4H56.24a1.23,1.23,0,0,1,1.22,1.2A1.17,1.17,0,0,1,56.24,10.4Z"/><path class="cls-1" d="M45.72,13.9h-7a1.2,1.2,0,1,1,0-2.4h7a1.2,1.2,0,1,1,0,2.4Z"/><path class="cls-1" d="M17.6,10.4H1.21a1.2,1.2,0,1,1,0-2.4H17.6a1.2,1.2,0,1,1,0,2.4Z"/><path class="cls-1" d="M18.82,13.9h-7a1.2,1.2,0,1,1,0-2.4h7a1.2,1.2,0,1,1,0,2.4Z"/></g></g></g></svg>