<svg xmlns="http://www.w3.org/2000/svg" viewBox="0 0 54.02 50"><defs><style>.cls-1{fill:#009de4;}</style></defs><title>Asset 50</title><g id="Layer_2" data-name="Layer 2"><g id="_1" data-name="1"><g id="_467_bullet_train_high_speed" data-name="467, bullet, train, high, speed"><path class="cls-1" d="M42.28,41.9H3.54a1.22,1.22,0,0,1-1.21-1.2A19.79,19.79,0,0,1,22.25,21H42.18a1.23,1.23,0,0,1,1.22,1.2V40.7A1.14,1.14,0,0,1,42.28,41.9ZM4.75,39.6H41.07V23.4H22.36A17.52,17.52,0,0,0,4.75,39.6Z"/><path class="cls-1" d="M22.36,33.8H6a1.23,1.23,0,0,1-1.22-1.2A1.17,1.17,0,0,1,6,31.4H21.24V22.1a1.22,1.22,0,0,1,2.43,0V32.6A1.48,1.48,0,0,1,22.36,33.8Z"/><path class="cls-1" d="M42.28,30.3H29.34a1.23,1.23,0,0,1-1.22-1.2V22.2A1.23,1.23,0,0,1,29.34,21H42.18a1.23,1.23,0,0,1,1.22,1.2v6.9A1.14,1.14,0,0,1,42.28,30.3ZM30.55,28H41.07V23.4H30.55Z"/><path class="cls-1" d="M42.28,30.3H29.34a1.23,1.23,0,0,1-1.22-1.2V22.2A1.23,1.23,0,0,1,29.34,21H42.18a1.23,1.23,0,0,1,1.22,1.2v6.9A1.14,1.14,0,0,1,42.28,30.3ZM30.55,28H41.07V23.4H30.55Z"/><path class="cls-1" d="M29.34,30.3h-7a1.23,1.23,0,0,1-1.22-1.2V22.2A1.23,1.23,0,0,1,22.36,21h7a1.22,1.22,0,0,1,1.21,1.2v6.9A1.16,1.16,0,0,1,29.34,30.3ZM23.47,28h4.65V23.4H23.47V28Z"/><path class="cls-1" d="M29.34,30.3h-7a1.23,1.23,0,0,1-1.22-1.2V22.2A1.23,1.23,0,0,1,22.36,21h7a1.22,1.22,0,0,1,1.21,1.2v6.9A1.16,1.16,0,0,1,29.34,30.3ZM23.47,28h4.65V23.4H23.47V28Z"/><path class="cls-1" d="M42.28,38.4H13A1.2,1.2,0,1,1,13,36H42.28a1.23,1.23,0,0,1,1.22,1.2A1.3,1.3,0,0,1,42.28,38.4Z"/><path class="cls-1" d="M52.8,46.5H1.21a1.2,1.2,0,1,1,0-2.4H52.8A1.23,1.23,0,0,1,54,45.3,1.3,1.3,0,0,1,52.8,46.5Z"/><rect class="cls-1" x="25.8" y="32.6" width="2.33" height="2.3"/><rect class="cls-1" x="29.34" y="32.6" width="2.33" height="2.3"/><rect class="cls-1" x="32.88" y="32.6" width="2.33" height="2.3"/><rect class="cls-1" x="36.42" y="32.6" width="2.33" height="2.3"/><path class="cls-1" d="M46.94,41.9H42.28a1.2,1.2,0,1,1,0-2.4h3.44V18.7a3.54,3.54,0,0,0-7.08,0v3.5a1.22,1.22,0,0,1-1.21,1.2,1.17,1.17,0,0,1-1.22-1.2V18.7A5.87,5.87,0,0,1,48,18.7v22A1,1,0,0,1,46.94,41.9Z"/><path class="cls-1" d="M4.75,50a1.22,1.22,0,0,1-1.21-1.2V45.3a1.22,1.22,0,0,1,1.21-1.2A1.17,1.17,0,0,1,6,45.3v3.5A1.23,1.23,0,0,1,4.75,50Z"/><path class="cls-1" d="M9.41,50a1.23,1.23,0,0,1-1.22-1.2V45.3a1.22,1.22,0,0,1,2.43,0v3.5A1.16,1.16,0,0,1,9.41,50Z"/><path class="cls-1" d="M14.16,50A1.22,1.22,0,0,1,13,48.8V45.3a1.22,1.22,0,0,1,1.21-1.2,1.17,1.17,0,0,1,1.22,1.2v3.5A1.3,1.3,0,0,1,14.16,50Z"/><path class="cls-1" d="M18.82,50a1.23,1.23,0,0,1-1.22-1.2V45.3a1.22,1.22,0,0,1,2.43,0v3.5A1.22,1.22,0,0,1,18.82,50Z"/><path class="cls-1" d="M23.47,50a1.23,1.23,0,0,1-1.22-1.2V45.3a1.22,1.22,0,0,1,2.43,0v3.5A1.16,1.16,0,0,1,23.47,50Z"/><path class="cls-1" d="M28.22,50A1.22,1.22,0,0,1,27,48.8V45.3a1.22,1.22,0,0,1,1.21-1.2,1.17,1.17,0,0,1,1.22,1.2v3.5A1.3,1.3,0,0,1,28.22,50Z"/><path class="cls-1" d="M32.88,50a1.23,1.23,0,0,1-1.22-1.2V45.3a1.23,1.23,0,0,1,1.22-1.2,1.16,1.16,0,0,1,1.21,1.2v3.5A1.3,1.3,0,0,1,32.88,50Z"/><path class="cls-1" d="M37.53,50a1.22,1.22,0,0,1-1.21-1.2V45.3a1.22,1.22,0,0,1,1.21-1.2,1.16,1.16,0,0,1,1.21,1.2v3.5A1.16,1.16,0,0,1,37.53,50Z"/><path class="cls-1" d="M42.28,50a1.22,1.22,0,0,1-1.21-1.2V45.3a1.22,1.22,0,0,1,2.43,0v3.5A1.3,1.3,0,0,1,42.28,50Z"/><path class="cls-1" d="M46.94,50a1.23,1.23,0,0,1-1.22-1.2V45.3a1.23,1.23,0,0,1,1.22-1.2,1.16,1.16,0,0,1,1.21,1.2v3.5A1.3,1.3,0,0,1,46.94,50Z"/><path class="cls-1" d="M4.75,21a4.6,4.6,0,1,1,0-9.2h.11A5.91,5.91,0,0,1,16,10.6a1.06,1.06,0,0,1-.6,1.5,1.09,1.09,0,0,1-1.52-.6,3.61,3.61,0,0,0-3.24-2A3.56,3.56,0,0,0,7.08,13v.2a1.23,1.23,0,0,1-.5,1,1.44,1.44,0,0,1-1.12.2,2,2,0,0,0-.81-.1,2.3,2.3,0,1,0,0,4.6,1.23,1.23,0,0,1,1.22,1.2C6,20.5,5.36,21,4.75,21Z"/><path class="cls-1" d="M51.59,10.6a1.22,1.22,0,0,1-1.21-1.2,2.44,2.44,0,0,0-3.14-2.2A1.11,1.11,0,0,1,46.13,7a1.24,1.24,0,0,1-.51-1V5.8a3.56,3.56,0,0,0-3.54-3.5,3.62,3.62,0,0,0-3.24,2,1.23,1.23,0,0,1-1.51.6,1.21,1.21,0,0,1-.61-1.5A5.92,5.92,0,0,1,47.85,4.6H48A4.61,4.61,0,0,1,52.6,9.2C52.8,10.1,52.3,10.6,51.59,10.6Z"/><path class="cls-1" d="M10.22,21H4.35a1.22,1.22,0,0,1-1.21-1.2,1.16,1.16,0,0,1,1.21-1.2h5.87a1.22,1.22,0,0,1,1.21,1.2A1.3,1.3,0,0,1,10.22,21Z"/></g></g></g></svg>