<svg xmlns="http://www.w3.org/2000/svg" viewBox="0 0 52.1 55.61"><defs><style>.cls-1{fill:#009de4;}</style></defs><title>Asset 27</title><g id="Layer_2" data-name="Layer 2"><g id="_1" data-name="1"><g id="_464_Boat_ship_transport_vessel" data-name="464, Boat, ship, transport, vessel"><path class="cls-1" d="M39.25,35.88h-27A1.22,1.22,0,0,1,11,34.68v-5.8a1.22,1.22,0,0,1,1.21-1.2h21a7,7,0,0,1,7,6.9A1.05,1.05,0,0,1,39.25,35.88Zm-25.8-2.3H37.93a4.65,4.65,0,0,0-4.55-3.5H13.45Z"/><path class="cls-1" d="M32.17,49.78h-31A1.22,1.22,0,0,1,0,48.58V34.68a1.09,1.09,0,0,1,.61-1l1.62-.8c2.22-1.1,6.37-1.6,8.59-1.6h1.32a1.22,1.22,0,0,1,1.21,1.2v1.2H50.88a1.23,1.23,0,0,1,1.22,1.2c0,3.9-2.43,7.7-7,10.8A25.31,25.31,0,0,1,32.17,49.78ZM2.43,47.48H32.17a22.14,22.14,0,0,0,11.63-3.9c3.34-2.2,5.36-5,5.87-7.7H12.24A1.22,1.22,0,0,1,11,34.68v-1.2h-.11a22.24,22.24,0,0,0-7.58,1.4l-1,.5C2.43,35.48,2.43,47.48,2.43,47.48Z"/><path class="cls-1" d="M12.24,30.08H7.59a1.23,1.23,0,0,1-1.22-1.2,1.17,1.17,0,0,1,1.22-1.2h4.65a1.22,1.22,0,0,1,1.21,1.2A1.16,1.16,0,0,1,12.24,30.08Z"/><path class="cls-1" d="M42.79,25.48H24a1.22,1.22,0,0,1-1.21-1.2V1.18a1.17,1.17,0,0,1,.81-1.1,1.1,1.1,0,0,1,1.31.4L43.6,23.58a1.14,1.14,0,0,1,.3.8A1.11,1.11,0,0,1,42.79,25.48Zm-17.6-2.3H40.36L25.19,4.48Z"/><path class="cls-1" d="M24,23.18H13.45a1.25,1.25,0,0,1-1-.5,1.42,1.42,0,0,1-.1-1.1L22.86.78a1.17,1.17,0,0,1,1.32-.6,1.18,1.18,0,0,1,.91,1.1v20.8A1.06,1.06,0,0,1,24,23.18Zm-8.59-2.3h7.48V6.08Z"/><path class="cls-1" d="M24,30.08a1.22,1.22,0,0,1-1.21-1.2v-4.6A1.22,1.22,0,0,1,24,23.08a1.17,1.17,0,0,1,1.22,1.2v4.6A1.17,1.17,0,0,1,24,30.08Z"/><path class="cls-1" d="M29.74,45.18H9.91a1.2,1.2,0,1,1,0-2.4H29.74a14.17,14.17,0,0,0,6.37-1.5l6.17-3a1.19,1.19,0,0,1,1.62.5,1.16,1.16,0,0,1-.5,1.6l-6.17,3A16.53,16.53,0,0,1,29.74,45.18Z"/><path class="cls-1" d="M28.73,13.88H24.08a1.2,1.2,0,1,1,0-2.4h4.65a1.22,1.22,0,0,1,1.21,1.2A1.29,1.29,0,0,1,28.73,13.88Z"/><path class="cls-1" d="M29.84,40.48a1.22,1.22,0,0,1-1.21-1.2V29a1.22,1.22,0,0,1,2.43,0v10.4A1.15,1.15,0,0,1,29.84,40.48Z"/><path class="cls-1" d="M24.88,55.58a5.44,5.44,0,0,1-4-1.5c-1.52-1.7-5.06,0-5.57.2a7.08,7.08,0,0,1-8.39-.1c-2.63-1.9-4.25-.2-4.25-.2a1.15,1.15,0,0,1-1.62.1,1.12,1.12,0,0,1-.1-1.6c1-1.2,4-2.7,7.49-.2a5,5,0,0,0,5.66,0l.1-.1c.2-.1,5.57-3,8.5.2,1.42,1.6,5.56.3,6.88-.3a1.09,1.09,0,0,1,1.52.6,1.07,1.07,0,0,1-.61,1.5A26.4,26.4,0,0,1,27,55.28,10.63,10.63,0,0,1,24.88,55.58Z"/><path class="cls-1" d="M7.59,15.08a1.23,1.23,0,0,1-1.22-1.2c0-.2,0-.6-.91-.9a5.88,5.88,0,0,0-1.41-.2,1.23,1.23,0,0,1-1.22-1.2,1.17,1.17,0,0,1,1.22-1.2c1.61,0,4.65.7,4.65,3.5A1.14,1.14,0,0,1,7.59,15.08Z"/><path class="cls-1" d="M7.59,15.08a1.23,1.23,0,0,1-1.22-1.2c0-2.7,3-3.5,4.66-3.5a1.2,1.2,0,1,1,0,2.4S8.7,12.88,8.7,14C8.8,14.48,8.19,15.08,7.59,15.08Z"/><path class="cls-1" d="M12.24,7.68A1.22,1.22,0,0,1,11,6.48c0-.2-.71-.4-1.22-.4A1.22,1.22,0,0,1,8.6,4.88a1.16,1.16,0,0,1,1.21-1.2c1.72,0,3.54.8,3.54,2.7A1.07,1.07,0,0,1,12.24,7.68Z"/><path class="cls-1" d="M12.24,7.68A1.22,1.22,0,0,1,11,6.48c0-1.9,1.82-2.7,3.54-2.7a1.2,1.2,0,1,1,0,2.4c-.41,0-1.22.2-1.22.4A1,1,0,0,1,12.24,7.68Z"/></g></g></g></svg>