<svg xmlns="http://www.w3.org/2000/svg" viewBox="0 0 38.84 53.3"><defs><style>.cls-1{fill:#009de4;}</style></defs><title>Asset 44</title><g id="Layer_2" data-name="Layer 2"><g id="_1" data-name="1"><g id="_460_pass_passboart_ticket_hotel" data-name="460, pass, passboart, ticket, hotel"><path class="cls-1" d="M19.42,33.6A11.6,11.6,0,1,1,31.16,22,11.68,11.68,0,0,1,19.42,33.6Zm0-20.8a9.3,9.3,0,1,0,9.41,9.3A9.4,9.4,0,0,0,19.42,12.8Z"/><path class="cls-1" d="M19.42,32.9c-1.72,0-3.34-1.2-4.45-3.5A16.7,16.7,0,0,1,13.45,22,16.7,16.7,0,0,1,15,14.6c1.11-2.2,2.73-3.5,4.45-3.5s3.34,1.2,4.45,3.5A16.7,16.7,0,0,1,25.39,22a16.7,16.7,0,0,1-1.52,7.4C22.76,31.7,21.14,32.9,19.42,32.9Zm0-19.4c-1.72,0-3.64,3.6-3.64,8.5s1.92,8.5,3.64,8.5,3.64-3.6,3.64-8.5S21.14,13.5,19.42,13.5Z"/><path class="cls-1" d="M29.94,23.6H9.51a1.2,1.2,0,1,1,0-2.4H29.94a1.23,1.23,0,0,1,1.22,1.2A1.17,1.17,0,0,1,29.94,23.6Z"/><path class="cls-1" d="M28.22,17.7h-17a1.2,1.2,0,1,1,0-2.4h17a1.23,1.23,0,0,1,1.22,1.2A1.17,1.17,0,0,1,28.22,17.7Z"/><path class="cls-1" d="M28.22,28.6H10.42a1.22,1.22,0,0,1-1.21-1.2,1.16,1.16,0,0,1,1.21-1.2h17.9a1.23,1.23,0,0,1,1.22,1.2A1.25,1.25,0,0,1,28.22,28.6Z"/><path class="cls-1" d="M37.63,53.3H33a1.23,1.23,0,0,1-1.22-1.2c0-1-1.11-2.2-3.13-3A22.32,22.32,0,0,0,20,47.5a22,22,0,0,0-8.6,1.6c-1.92.9-3.14,2-3.14,3a1.22,1.22,0,0,1-1.21,1.2H1.21A1.22,1.22,0,0,1,0,52.1V1.2A1.22,1.22,0,0,1,1.21,0H7.08A1.22,1.22,0,0,1,8.29,1.2c0,1,1.12,2.2,3.14,3A22.32,22.32,0,0,0,20,5.8a22,22,0,0,0,8.6-1.6c1.92-.9,3.13-2,3.13-3A1.23,1.23,0,0,1,33,0h4.65a1.22,1.22,0,0,1,1.21,1.2v51A1.28,1.28,0,0,1,37.63,53.3ZM33.89,51h2.53V2.4H33.89c-.51,1.6-1.92,3-4.25,4A25.68,25.68,0,0,1,20,8.2a23.85,23.85,0,0,1-9.61-1.8c-2.33-1-3.84-2.4-4.25-4H2.43V51H6.17c.51-1.6,1.92-2.9,4.25-4A23.51,23.51,0,0,1,20,45.2,23.51,23.51,0,0,1,29.64,47C32,48.1,33.38,49.5,33.89,51Z"/><path class="cls-1" d="M31.76,38.3H7.08a1.22,1.22,0,0,1-1.21-1.2,1.16,1.16,0,0,1,1.21-1.2H31.66a1.23,1.23,0,0,1,1.22,1.2A1.14,1.14,0,0,1,31.76,38.3Z"/><path class="cls-1" d="M31.76,42.9H7.08a1.2,1.2,0,1,1,0-2.4H31.66a1.23,1.23,0,0,1,1.22,1.2A1.14,1.14,0,0,1,31.76,42.9Z"/></g></g></g></svg>