<svg xmlns="http://www.w3.org/2000/svg" viewBox="0 0 52.8 52.2"><defs><style>.cls-1{fill:#009de4;}</style></defs><title>Asset 33</title><g id="Layer_2" data-name="Layer 2"><g id="_1" data-name="1"><g id="_451_picture_image_landmark_photo" data-name="451, picture, image, landmark, photo"><path class="cls-1" d="M51.59,52.2H1.21A1.22,1.22,0,0,1,0,51V1.2A1.22,1.22,0,0,1,1.21,0H51.59A1.22,1.22,0,0,1,52.8,1.2V51A1.29,1.29,0,0,1,51.59,52.2ZM2.43,49.8H50.48V2.4h-48Z"/><path class="cls-1" d="M46.94,41.7H5.87a1.23,1.23,0,0,1-1.22-1.2V5.8A1.23,1.23,0,0,1,5.87,4.6h41a1.22,1.22,0,0,1,1.21,1.2V40.6A1.12,1.12,0,0,1,46.94,41.7ZM7.08,39.4H45.72V7H7.08Z"/><path class="cls-1" d="M21.14,30.2A5.8,5.8,0,1,1,27,24.4,5.85,5.85,0,0,1,21.14,30.2Zm0-9.3a3.5,3.5,0,1,0,3.54,3.5A3.5,3.5,0,0,0,21.14,20.9Z"/><path class="cls-1" d="M23.47,34.8H18.82a1.23,1.23,0,0,1-1.22-1.2V29a1.23,1.23,0,0,1,1.22-1.2h4.65A1.22,1.22,0,0,1,24.68,29v4.6A1.22,1.22,0,0,1,23.47,34.8Zm-3.54-2.3h2.32V30.2H19.93Z"/><path class="cls-1" d="M50.38,46.4H34A1.2,1.2,0,1,1,34,44H50.38a1.22,1.22,0,0,1,1.21,1.2A1.16,1.16,0,0,1,50.38,46.4Z"/><path class="cls-1" d="M29.34,46.4H19.93a1.2,1.2,0,1,1,0-2.4h9.41a1.2,1.2,0,1,1,0,2.4Z"/><rect class="cls-1" x="5.87" y="45.2" width="2.33" height="2.3"/><rect class="cls-1" x="9.41" y="45.2" width="2.33" height="2.3"/><rect class="cls-1" x="12.95" y="45.2" width="2.33" height="2.3"/><path class="cls-1" d="M25.8,41.7H16.39a1.23,1.23,0,0,1-1.22-1.2V38.6a.43.43,0,0,0-.4-.4H12.85A1.23,1.23,0,0,1,11.63,37V35.6a7.86,7.86,0,0,1,7.89-7.8h2.94a7.86,7.86,0,0,1,7.89,7.8v1.5a1.23,1.23,0,0,1-1.22,1.2H27.21a.43.43,0,0,0-.4.4v1.9C27,41.2,26.5,41.7,25.8,41.7Zm-8.2-2.3h7v-.8a2.71,2.71,0,0,1,2.73-2.7h.81v-.3a5.58,5.58,0,0,0-5.56-5.5H19.62a5.58,5.58,0,0,0-5.56,5.5v.3h.81a2.7,2.7,0,0,1,2.73,2.7v.8Z"/><path class="cls-1" d="M31.66,41.7H25.8a1.23,1.23,0,0,1-1.22-1.2V38.6a2.71,2.71,0,0,1,2.73-2.7H30a2.71,2.71,0,0,1,2.74,2.7v2A1,1,0,0,1,31.66,41.7ZM27,39.4h3.54v-.8a.43.43,0,0,0-.4-.4H27.41a.43.43,0,0,0-.4.4Z"/><path class="cls-1" d="M16.49,41.7H10.62a1.22,1.22,0,0,1-1.21-1.2V38.6a2.7,2.7,0,0,1,2.73-2.7h2.73a2.7,2.7,0,0,1,2.73,2.7v2A1.11,1.11,0,0,1,16.49,41.7Zm-4.76-2.3h3.54v-.8a.43.43,0,0,0-.4-.4H12.14a.44.44,0,0,0-.41.4v.8Z"/><path class="cls-1" d="M46.94,41.7a1.1,1.1,0,0,1-1-.6L33,16.8a1.23,1.23,0,0,1,.1-1.3,1.16,1.16,0,0,1,1.21-.4l13,3.5a1.14,1.14,0,0,1,.81,1.4,1.15,1.15,0,0,1-1.42.8L36.32,18,48,40a1.16,1.16,0,0,1-.51,1.6A.9.9,0,0,1,46.94,41.7Z"/><path class="cls-1" d="M30.55,24.4a.79.79,0,0,1-.51-.1,1.16,1.16,0,0,1-.5-1.6l3.54-6.9a1.19,1.19,0,0,1,1.62-.5,1.16,1.16,0,0,1,.5,1.6l-3.54,6.9A1.74,1.74,0,0,1,30.55,24.4Z"/><path class="cls-1" d="M5.87,29a1.85,1.85,0,0,1-.71-.2,1.23,1.23,0,0,1-.3-1.6L16.59,11A1.26,1.26,0,0,1,18,10.6l8.19,3.5a1.09,1.09,0,0,1,.61,1.5,1.12,1.12,0,0,1-1.52.6l-7.38-3.1L6.78,28.6A1.29,1.29,0,0,1,5.87,29Z"/></g></g></g></svg>