<svg xmlns="http://www.w3.org/2000/svg" viewBox="0 0 47.92 54.55"><defs><style>.cls-1{fill:#009de4;}</style></defs><title>Asset 37</title><g id="Layer_2" data-name="Layer 2"><g id="_1" data-name="1"><g id="_457_lunch_hotel_knife_table" data-name="457, lunch, hotel, knife, table"><path class="cls-1" d="M21,30.53H18.07a1.6,1.6,0,0,1-1.62-1.61V18.42a3,3,0,0,1,6.07,0v10.5A1.58,1.58,0,0,1,21,30.53Zm-2.22-2.3h1.41V18.42a.71.71,0,0,0-1.41,0v9.81Z"/><path class="cls-1" d="M19.59,41.32a1.23,1.23,0,0,1-1.22-1.2V29.32a1.22,1.22,0,0,1,2.43,0v10.8A1.22,1.22,0,0,1,19.59,41.32Z"/><path class="cls-1" d="M22.12,41.32a1.23,1.23,0,0,1-1.22-1.2v-5.3c0-.4-.2-.7-.3-.7H18.37c-.1,0-.3.3-.3.7v5.41a1.22,1.22,0,0,1-2.43,0V34.82a2.84,2.84,0,0,1,2.73-3H20.6a2.91,2.91,0,0,1,2.73,3v5.41A1.14,1.14,0,0,1,22.12,41.32Z"/><path class="cls-1" d="M29.2,41.32A3.18,3.18,0,0,1,26,38.12V27.32c0-.2,0-.29.1-.4a8.09,8.09,0,0,1-2.12-5.5,7.44,7.44,0,0,1,7.28-7.69,1.22,1.22,0,0,1,1.21,1.19V38.23A3.28,3.28,0,0,1,29.2,41.32Zm-.91-12.79v9.59a.91.91,0,0,0,1.82,0v-22a5.36,5.36,0,0,0-3.85,5.3,5.49,5.49,0,0,0,2.84,4.9,1.2,1.2,0,0,1,.6,1.3,1.18,1.18,0,0,1-1.11.91Z"/><path class="cls-1" d="M24,46.42A19.27,19.27,0,0,1,4.72,27.32a19.32,19.32,0,0,1,38.64,0A19.27,19.27,0,0,1,24,46.42Zm0-35.89a16.8,16.8,0,1,0,0,33.59,16.8,16.8,0,1,0,0-33.59Z"/><path class="cls-1" d="M46.9,53.42a1.22,1.22,0,0,1-1.21-1.19V4l-2,.7a1.25,1.25,0,0,1-1-.11l-2.83-1.9L37,4.62a1.08,1.08,0,0,1-1.32,0l-2.83-1.9L30,4.62a1.08,1.08,0,0,1-1.32,0l-2.83-1.9L23,4.62a1.08,1.08,0,0,1-1.32,0l-2.83-1.9-2.83,1.9a1.08,1.08,0,0,1-1.32,0L11.9,2.72,9.07,4.62a1.08,1.08,0,0,1-1.32,0l-3-2-2.13.7v49a1.23,1.23,0,0,1-1.21,1.21A1.17,1.17,0,0,1,.16,52.32V2.43A1.2,1.2,0,0,1,1,1.32L4.51.12a1.31,1.31,0,0,1,1,.1l2.83,1.9L11.19.22a1.11,1.11,0,0,1,1.32,0l2.83,1.9L18.17.22a1.11,1.11,0,0,1,1.32,0l2.83,1.9L25.15.22a1.11,1.11,0,0,1,1.32,0l2.83,1.9L32.13.22a1.11,1.11,0,0,1,1.32,0l2.83,1.9L39.11.22a1.11,1.11,0,0,1,1.32,0l3,2,2.93-1a.94.94,0,0,1,1,.21,1.17,1.17,0,0,1,.5.89v49.8A1.1,1.1,0,0,1,46.9,53.42Z"/><path class="cls-1" d="M4.72,54.53a.71.71,0,0,1-.41-.11L.77,53.23A1.17,1.17,0,1,1,1.58,51l2.93,1,3-2a1.07,1.07,0,0,1,1.31,0l2.84,1.89L14.53,50a1.07,1.07,0,0,1,1.31,0l2.84,1.89L21.51,50a1.07,1.07,0,0,1,1.31,0l2.84,1.89L28.49,50a1.07,1.07,0,0,1,1.31,0l2.84,1.89L35.47,50a1.07,1.07,0,0,1,1.31,0l2.84,1.89L42.45,50a1.17,1.17,0,0,1,1-.11L47,51.12a1.17,1.17,0,1,1-.81,2.2l-2.93-1-3,2a1.07,1.07,0,0,1-1.31,0l-2.83-1.9-2.84,1.9a1.07,1.07,0,0,1-1.31,0l-2.83-1.9-2.84,1.9a1.07,1.07,0,0,1-1.31,0l-2.83-1.9-2.84,1.9a1.07,1.07,0,0,1-1.31,0l-2.83-1.9-2.74,1.9a1.07,1.07,0,0,1-1.31,0l-2.83-1.9-2.94,1.9A.71.71,0,0,1,4.72,54.53Z"/><path class="cls-1" d="M11.7,34.82A1.19,1.19,0,0,1,10.58,34a21,21,0,0,1,0-13.5,1.09,1.09,0,0,1,1.52-.61,1.07,1.07,0,0,1,.61,1.5,19.22,19.22,0,0,0,0,11.9,1.19,1.19,0,0,1-.71,1.5Z"/><path class="cls-1" d="M36.38,33.73a.6.6,0,0,1-.41-.11,1.06,1.06,0,0,1-.6-1.5,16,16,0,0,0,0-10.7,1.23,1.23,0,0,1,.6-1.5,1.27,1.27,0,0,1,1.52.61c.1.29,2.53,6.29,0,12.39A1.3,1.3,0,0,1,36.38,33.73Z"/></g></g></g></svg>