<svg xmlns="http://www.w3.org/2000/svg" viewBox="0 0 55.23 53.4"><defs><style>.cls-1{fill:#009de4;}</style></defs><title>Asset 30</title><g id="Layer_2" data-name="Layer 2"><g id="_1" data-name="1"><g id="_459_camera_image_photo_picture" data-name="459, camera, image, photo, picture"><path class="cls-1" d="M52.1,53.4H3a3.1,3.1,0,0,1-3-3V21.7a3,3,0,0,1,3-3H52a3,3,0,0,1,3,3V50.4A2.88,2.88,0,0,1,52.1,53.4ZM3,21a.69.69,0,0,0-.71.7V50.4a.69.69,0,0,0,.71.7H52a.68.68,0,0,0,.7-.7V21.7A.68.68,0,0,0,52,21Z"/><path class="cls-1" d="M42.79,21H12.65a1.27,1.27,0,0,1-1-.5,1.38,1.38,0,0,1-.1-1.1l3.54-8.1a1.26,1.26,0,0,1,1.12-.7H39.25a1.23,1.23,0,0,1,1.11.7l3.54,8a.9.9,0,0,1,.1.5A1.22,1.22,0,0,1,42.79,21ZM14.47,18.6h26.6l-2.53-5.8H17Z"/><path class="cls-1" d="M9.71,21h-5a1.22,1.22,0,0,1-1.21-1.2V16.3a1.22,1.22,0,0,1,1.21-1.2h5a1.23,1.23,0,0,1,1.22,1.2v3.5A1.4,1.4,0,0,1,9.71,21ZM6,18.6H8.5V17.4H6Z"/><path class="cls-1" d="M50.48,21H42.29a1.23,1.23,0,0,1-1.22-1.2V16.3a1.23,1.23,0,0,1,1.22-1.2h8.19a1.22,1.22,0,0,1,1.21,1.2v3.5A1.38,1.38,0,0,1,50.48,21ZM43.4,18.6h5.86V17.4H43.4Z"/><path class="cls-1" d="M27.72,7.6A1.23,1.23,0,0,1,26.5,6.4V1.2a1.22,1.22,0,0,1,2.43,0V6.5A1.14,1.14,0,0,1,27.72,7.6Z"/><path class="cls-1" d="M32.67,8a1.42,1.42,0,0,1-.6-.2,1.25,1.25,0,0,1-.41-1.6L34.6,1.6a1.28,1.28,0,0,1,1.62-.4,1.25,1.25,0,0,1,.4,1.6L33.69,7.4A1.4,1.4,0,0,1,32.67,8Z"/><path class="cls-1" d="M22.76,8a1.25,1.25,0,0,1-1-.5L18.92,2.9a1.14,1.14,0,0,1,.4-1.6,1.16,1.16,0,0,1,1.62.4l2.83,4.6a1.14,1.14,0,0,1-.4,1.6C23.17,7.9,23,8,22.76,8Z"/><path class="cls-1" d="M32.88,21H22.36a1.23,1.23,0,0,1-1.22-1.2V15.2A1.23,1.23,0,0,1,22.36,14H32.88a1.22,1.22,0,0,1,1.21,1.2v4.6A1.39,1.39,0,0,1,32.88,21Zm-9.41-2.4h8.19V16.3H23.47v2.3Z"/><path class="cls-1" d="M54,44.1H37a1.13,1.13,0,0,1-1-.6,1,1,0,0,1,.1-1.2A10.08,10.08,0,0,0,38.24,36a10.28,10.28,0,0,0-2.13-6.3,1.06,1.06,0,0,1-.1-1.2,1.13,1.13,0,0,1,1-.6H54a1.22,1.22,0,0,1,1.21,1.2V43A1.28,1.28,0,0,1,54,44.1ZM39.15,41.8H52.81V30.2H39.15A12.62,12.62,0,0,1,40.57,36,14.17,14.17,0,0,1,39.15,41.8Z"/><path class="cls-1" d="M18.21,44.1h-17A1.22,1.22,0,0,1,0,42.9V29.1a1.22,1.22,0,0,1,1.21-1.2h17a1.11,1.11,0,0,1,1,.6,1,1,0,0,1-.1,1.2A10.07,10.07,0,0,0,17,36a10.27,10.27,0,0,0,2.12,6.3,1.06,1.06,0,0,1,.1,1.2A.94.94,0,0,1,18.21,44.1ZM2.43,41.8H16.08A12.61,12.61,0,0,1,14.67,36a12.92,12.92,0,0,1,1.41-5.8H2.43Z"/><path class="cls-1" d="M27.62,48.8A13,13,0,0,1,17.3,43.7a12.28,12.28,0,0,1-2.53-7.6,12.71,12.71,0,0,1,2.53-7.6,13,13,0,0,1,20.63,0,12.22,12.22,0,0,1,2.53,7.6,12.71,12.71,0,0,1-2.53,7.6A13,13,0,0,1,27.62,48.8Zm0-23.2a10.35,10.35,0,0,0-8.4,4.2,10.07,10.07,0,0,0-2.12,6.3A10.54,10.54,0,0,0,27.62,46.6,10.34,10.34,0,0,0,36,42.4a10.08,10.08,0,0,0,2.13-6.3A10.56,10.56,0,0,0,27.62,25.6Z"/><path class="cls-1" d="M27.62,43A7.13,7.13,0,0,1,22,40.2,7,7,0,0,1,27.62,29a7.11,7.11,0,0,1,5.66,2.8,6.92,6.92,0,0,1,0,8.4A7.11,7.11,0,0,1,27.62,43Zm0-11.6a4.63,4.63,0,0,0-3.75,1.9,4.76,4.76,0,0,0,0,5.6,4.68,4.68,0,1,0,3.75-7.5Z"/></g></g></g></svg>