<svg xmlns="http://www.w3.org/2000/svg" viewBox="0 0 54.02 52.2"><defs><style>.cls-1{fill:#009de4;}</style></defs><title>Asset 49</title><g id="Layer_2" data-name="Layer 2"><g id="_1" data-name="1"><g id="_465_hotel_bag_suitcase_luggage" data-name="465, hotel, bag , suitcase, luggage"><path class="cls-1" d="M51.59,42.9H2.43a1.23,1.23,0,0,1-1.22-1.2V8.1A1.23,1.23,0,0,1,2.43,6.9H51.59A1.22,1.22,0,0,1,52.8,8.1V41.7A1.22,1.22,0,0,1,51.59,42.9ZM3.64,40.6H50.48V9.3H3.64Z"/><path class="cls-1" d="M42,42.9H12a1.23,1.23,0,0,1-1.22-1.2V18.6A1.23,1.23,0,0,1,12,17.4H42a1.22,1.22,0,0,1,1.21,1.2V41.8A1.14,1.14,0,0,1,42,42.9ZM13.15,40.6H40.77V19.7H13.15Z"/><path class="cls-1" d="M13.25,13.9h-6a1.22,1.22,0,0,1-1.21-1.2V8.1A1.22,1.22,0,0,1,7.28,6.9h6a1.23,1.23,0,0,1,1.22,1.2v4.6A1.31,1.31,0,0,1,13.25,13.9ZM8.4,11.6H12V9.3H8.4Z"/><path class="cls-1" d="M46.84,13.9h-6a1.23,1.23,0,0,1-1.22-1.2V8.1a1.23,1.23,0,0,1,1.22-1.2h6a1.22,1.22,0,0,1,1.21,1.2v4.6A1.3,1.3,0,0,1,46.84,13.9ZM42,11.6h3.64V9.3H42Z"/><rect class="cls-1" x="6.07" y="35.9" width="2.43" height="2.3"/><rect class="cls-1" x="45.62" y="35.9" width="2.43" height="2.3"/><path class="cls-1" d="M31.16,38.3H11.94a1.23,1.23,0,0,1-1.22-1.2,1.17,1.17,0,0,1,1.22-1.2H31.16a1.22,1.22,0,0,1,1.21,1.2A1.16,1.16,0,0,1,31.16,38.3Z"/><path class="cls-1" d="M36,38.3H34.8a1.23,1.23,0,0,1-1.22-1.2,1.17,1.17,0,0,1,1.22-1.2H36a1.2,1.2,0,1,1,0,2.4Z"/><path class="cls-1" d="M38.44,9.3H15.58a1.23,1.23,0,0,1-1.22-1.2V1.2A1.23,1.23,0,0,1,15.58,0H38.34a1.22,1.22,0,0,1,1.21,1.2V8.1A1.14,1.14,0,0,1,38.44,9.3ZM16.79,7H37.23V2.4H16.79Z"/><path class="cls-1" d="M18,22a1.23,1.23,0,0,1-1.22-1.2V16.2a1.22,1.22,0,0,1,2.43,0v4.6A1.16,1.16,0,0,1,18,22Z"/><path class="cls-1" d="M21.65,22a1.23,1.23,0,0,1-1.22-1.2V16.2A1.23,1.23,0,0,1,21.65,15a1.16,1.16,0,0,1,1.21,1.2v4.6A1.3,1.3,0,0,1,21.65,22Z"/><path class="cls-1" d="M25.19,22A1.23,1.23,0,0,1,24,20.8V16.2a1.22,1.22,0,0,1,2.43,0v4.6A1.16,1.16,0,0,1,25.19,22Z"/><path class="cls-1" d="M28.83,22a1.22,1.22,0,0,1-1.21-1.2V16.2A1.22,1.22,0,0,1,28.83,15,1.16,1.16,0,0,1,30,16.2v4.6A1.29,1.29,0,0,1,28.83,22Z"/><path class="cls-1" d="M32.37,22a1.22,1.22,0,0,1-1.21-1.2V16.2A1.22,1.22,0,0,1,32.37,15a1.24,1.24,0,0,1,1.21,1.3v4.6A1.14,1.14,0,0,1,32.37,22Z"/><path class="cls-1" d="M36,22a1.22,1.22,0,0,1-1.21-1.2V16.2A1.22,1.22,0,0,1,36,15a1.17,1.17,0,0,1,1.22,1.2v4.6A1.31,1.31,0,0,1,36,22Z"/><path class="cls-1" d="M18,47.5H7.18A1.22,1.22,0,0,1,6,46.3V41.7a1.22,1.22,0,0,1,1.21-1.2H18a1.22,1.22,0,0,1,1.21,1.2v4.6A1.16,1.16,0,0,1,18,47.5ZM8.4,45.2h8.49V42.9H8.4Z"/><path class="cls-1" d="M46.84,47.5H36a1.22,1.22,0,0,1-1.21-1.2V41.7A1.22,1.22,0,0,1,36,40.5H46.84a1.22,1.22,0,0,1,1.21,1.2v4.6A1.3,1.3,0,0,1,46.84,47.5Zm-9.72-2.3h8.5V42.9h-8.5v2.3Z"/><path class="cls-1" d="M52.8,47.5H1.21a1.2,1.2,0,1,1,0-2.4H52.8A1.23,1.23,0,0,1,54,46.3,1.3,1.3,0,0,1,52.8,47.5Z"/><path class="cls-1" d="M52.8,52.2H1.21a1.2,1.2,0,1,1,0-2.4H52.8A1.23,1.23,0,0,1,54,51,1.39,1.39,0,0,1,52.8,52.2Z"/></g></g></g></svg>