<svg xmlns="http://www.w3.org/2000/svg" viewBox="0 0 44.64 49.9"><defs><style>.cls-1{fill:#009de4;}</style></defs><title>Asset 45</title><g id="Layer_2" data-name="Layer 2"><g id="_1" data-name="1"><g id="_466_swimsuite_summer_swim_beach_trouser" data-name="466, swimsuite, summer, swim, beach, trouser"><path class="cls-1" d="M42.2,26.7h-41A1.22,1.22,0,0,1,0,25.5V19.3a4.25,4.25,0,0,1,4.24-4.2h34.8a4.25,4.25,0,0,1,4.25,4.2v6.2A1.14,1.14,0,0,1,42.2,26.7ZM2.34,24.4H41V19.3a1.9,1.9,0,0,0-1.92-1.9H4.26a1.91,1.91,0,0,0-1.92,1.9Z"/><path class="cls-1" d="M25.81,49.9a.93.93,0,0,1-.71-.3,1.09,1.09,0,0,1-.4-.9V37.9a2.33,2.33,0,1,0-4.66,0V48.7a1.49,1.49,0,0,1-.4.9,1.18,1.18,0,0,1-1,.2L1,46.3a1.17,1.17,0,0,1-.91-1.1V19.4a4.25,4.25,0,0,1,4.25-4.2H39.16a4.25,4.25,0,0,1,4.25,4.2V45.3a1.17,1.17,0,0,1-.91,1.1L26.11,49.9ZM2.34,44.3l15.28,3V37.9a4.79,4.79,0,0,1,4.65-4.8,4.66,4.66,0,0,1,4.65,4.8v9.4L41,44.3v-25a1.9,1.9,0,0,0-1.92-1.9H4.26a1.91,1.91,0,0,0-1.92,1.9Z"/><path class="cls-1" d="M28.14,22.1H15.29a1.2,1.2,0,1,1,0-2.4H28.14a1.22,1.22,0,0,1,1.21,1.2A1.3,1.3,0,0,1,28.14,22.1Z"/><path class="cls-1" d="M18.73,30.2A1.22,1.22,0,0,1,17.52,29V20.9a1.21,1.21,0,0,1,2.42,0V29A1.16,1.16,0,0,1,18.73,30.2Z"/><path class="cls-1" d="M24.6,30.2A1.23,1.23,0,0,1,23.38,29V20.9a1.22,1.22,0,0,1,2.43,0V29A1.16,1.16,0,0,1,24.6,30.2Z"/><path class="cls-1" d="M5.88,46.4a1.22,1.22,0,0,1-1.21-1.2V34.8a1.22,1.22,0,0,1,2.43,0V45.2A1.3,1.3,0,0,1,5.88,46.4Z"/><path class="cls-1" d="M5.88,32.5a1.22,1.22,0,0,1-1.21-1.2V30.1a1.22,1.22,0,0,1,2.43,0v1.2A1.3,1.3,0,0,1,5.88,32.5Z"/><path class="cls-1" d="M37.34,14H33.9a9.22,9.22,0,0,1-9.3-9.2V3.7A3.61,3.61,0,0,1,28.24.1h9.1A3.6,3.6,0,0,1,41,3.7v6.7A3.6,3.6,0,0,1,37.34,14ZM28.24,2.4a1.33,1.33,0,0,0-1.32,1.3V4.8a7,7,0,0,0,7,6.9h3.44a1.33,1.33,0,0,0,1.32-1.3V3.7a1.33,1.33,0,0,0-1.32-1.3Z"/><path class="cls-1" d="M10.64,14H7.2a3.6,3.6,0,0,1-3.64-3.6V3.7A3.6,3.6,0,0,1,7.2.1h9.1a3.6,3.6,0,0,1,3.64,3.6V4.8A9.29,9.29,0,0,1,10.64,14ZM7.2,2.4A1.33,1.33,0,0,0,5.88,3.7v6.7A1.33,1.33,0,0,0,7.2,11.7h3.44a7,7,0,0,0,7-6.9V3.7A1.33,1.33,0,0,0,16.3,2.4Z"/><path class="cls-1" d="M29.25,2.4H16.3a1.22,1.22,0,0,1-1.21-1.2A1.16,1.16,0,0,1,16.3,0H29.35a1.23,1.23,0,0,1,1.22,1.2A1.25,1.25,0,0,1,29.25,2.4Z"/><path class="cls-1" d="M25.81,7H18.73a1.2,1.2,0,1,1,0-2.4h7.08A1.22,1.22,0,0,1,27,5.8,1.29,1.29,0,0,1,25.81,7Z"/><path class="cls-1" d="M43.41,3.6h-.2L37.34,2.4A1.19,1.19,0,0,1,36.43,1,1.2,1.2,0,0,1,37.85.1l5.87,1.2a1.19,1.19,0,0,1,.91,1.4A1.43,1.43,0,0,1,43.41,3.6Z"/><path class="cls-1" d="M1.13,3.6A1.17,1.17,0,0,1,0,2.7,1.28,1.28,0,0,1,.93,1.3L6.79.1A1.31,1.31,0,0,1,8.21,1,1.29,1.29,0,0,1,7.3,2.4L1.43,3.5A.37.37,0,0,1,1.13,3.6Z"/><path class="cls-1" d="M38.46,36.3a2.09,2.09,0,0,1-1.72-.7c-.31-.3-2-.2-3.44.3a1.21,1.21,0,0,1-1.52-.7,1.19,1.19,0,0,1,.71-1.5s1-.3,2.12-.5c1.72-.2,3,0,3.74.7a7.27,7.27,0,0,0,3.24-1.3,1.15,1.15,0,0,1,1.62.3,1.12,1.12,0,0,1-.3,1.6A8.65,8.65,0,0,1,38.46,36.3Z"/><path class="cls-1" d="M38.46,40.6a2.09,2.09,0,0,1-1.72-.7c-.31-.3-2-.2-3.44.3a1.2,1.2,0,0,1-1.62-.7,1.19,1.19,0,0,1,.71-1.5s1-.3,2.12-.5c1.72-.2,3,0,3.74.7a7.27,7.27,0,0,0,3.24-1.3,1.15,1.15,0,0,1,1.62.3,1.13,1.13,0,0,1-.3,1.6A7.94,7.94,0,0,1,38.46,40.6Z"/></g></g></g></svg>