<svg xmlns="http://www.w3.org/2000/svg" viewBox="0 0 57.36 56.9"><defs><style>.cls-1{fill:#009de4;}</style></defs><title>Asset 29</title><g id="Layer_2" data-name="Layer 2"><g id="_1" data-name="1"><g id="_474_globe_world_internet_hotel" data-name="474, globe, world, internet, hotel"><path class="cls-1" d="M28.63,52.2a23.75,23.75,0,1,1,0-47.5A23.91,23.91,0,0,1,52.7,28.4,24,24,0,0,1,28.63,52.2Zm0-45.1a21.45,21.45,0,1,0,0,42.9A21.66,21.66,0,0,0,50.38,28.5,21.7,21.7,0,0,0,28.63,7.1Z"/><path class="cls-1" d="M28.63,56.9A28.53,28.53,0,0,1,0,28.5,28.14,28.14,0,0,1,9.81,7.2a1.14,1.14,0,0,1,1.62.1,1.1,1.1,0,0,1-.1,1.6,26.14,26.14,0,0,0-9,19.5,26.35,26.35,0,0,0,52.7,0,26.18,26.18,0,0,0-26.4-26,26,26,0,0,0-6.17.7A1.22,1.22,0,0,1,21,2.2,1.09,1.09,0,0,1,22,.8,30.48,30.48,0,0,1,28.63,0,28.53,28.53,0,0,1,57.36,28.3,28.72,28.72,0,0,1,28.63,56.9Z"/><path class="cls-1" d="M25.9,52.1h-.1A24.06,24.06,0,0,1,8,40.7a1.18,1.18,0,0,1-.1-1A1.14,1.14,0,0,1,8.7,39a6,6,0,0,1,1.82-.2,7.29,7.29,0,0,1,3.44,1,24.27,24.27,0,0,0,2.23,1h0c3,.9,3.54,2.4,3.74,3.9.1.6.1.8.4.9h0a.6.6,0,0,0,.41.1,10.51,10.51,0,0,0,2.43-.5.35.35,0,0,0,.2-.1h0c.1,0,.1,0,.2-.1a18.86,18.86,0,0,1,4.35-.9c1.21,0,1.72.5,1.92,1,.51,1.1-.4,2.1-.71,2.5-.6.7-1.11,1.2-1.51,1.6a10.32,10.32,0,0,0-.71.9,1.76,1.76,0,0,0,.1.6c0,.1.1.2.1.3a1.14,1.14,0,0,1-1.21,1.1ZM11,41a21.68,21.68,0,0,0,13.65,8.6A5.3,5.3,0,0,1,26,47.5c.3-.3.61-.7,1-1.1a20.56,20.56,0,0,0-2.73.7.35.35,0,0,0-.2.1c-.11,0-.11,0-.21.1a9.68,9.68,0,0,1-3.13.6,3.5,3.5,0,0,1-1.82-.5,3.62,3.62,0,0,1-1.32-2.5c-.1-.9-.2-1.5-2-2a19.17,19.17,0,0,1-2.73-1.1A5.72,5.72,0,0,0,11,41Z"/><path class="cls-1" d="M17.4,34.4A3.27,3.27,0,0,1,15,33.1c-2-1.9-1.41-4.5-1.11-6a8.92,8.92,0,0,0,.2-1.1c-.2-1-2.12-1.4-3.64-1.4a16.47,16.47,0,0,1-4.25-.4,1.14,1.14,0,0,1-.81-1.4A1.15,1.15,0,0,1,6.78,22a17.61,17.61,0,0,0,3.64.3c3.34,0,5.46,1.2,6,3.2a5.32,5.32,0,0,1-.2,2.1c-.41,1.6-.61,2.9.4,3.8h0c.51.6.81.6.81.6s.4-.2.71-.3a10.92,10.92,0,0,1,1.51-.7,7.54,7.54,0,0,1,3.24-.2c1.11.1,1.72.2,3.24-1.8a5.23,5.23,0,0,1,1.82-1.7,2.33,2.33,0,0,0,.71-.5c.3-.3.3-1,0-2s-.91-2.4-1.32-3.5c-.3-.6-.5-1.2-.7-1.6a12,12,0,0,1-.92-3.6,3.8,3.8,0,0,1,1.42-2.4c.3-.3.61-.7,1.11-1.2a22.71,22.71,0,0,0-2.73.7c-.1,0-.2.1-.3.1s-.3.1-.51.1c-1.72.5-3.23,1-4.45.1-1-.8-1-2.3-.91-3.3h0a8.57,8.57,0,0,0,.1-2.7,1.17,1.17,0,0,1,2.33-.3,12.65,12.65,0,0,1-.1,3.3c-.1.8,0,1.1.1,1.2A8.28,8.28,0,0,0,24,11.2c.21,0,.31-.1.51-.1s.1,0,.2-.1c3.24-1,5.36-1.3,6.17-.1s-.3,2.3-.6,2.7c-.61.7-1.12,1.2-1.52,1.6-.61.6-.71.8-.71.9a16.37,16.37,0,0,0,.81,2.7,10.38,10.38,0,0,0,.61,1.4c1.21,2.6,2.73,6.1.91,8h0c-.51.5-.91.7-1.11.9a3.47,3.47,0,0,0-1.12,1.1h0C26,33,24.58,33.1,22.76,32.9a4.82,4.82,0,0,0-2.33.2,4.35,4.35,0,0,0-.91.5A4.59,4.59,0,0,1,17.4,34.4Z"/><path class="cls-1" d="M48,28a3.66,3.66,0,0,1-2.53-1.3c-2-1.9-1.42-4.5-1.11-6a6.53,6.53,0,0,0,.2-1.1c-.4-1.2-2-1.4-4.45-1.5S35.2,17.9,34,15.9h0c-1.11-2.1.51-4.2,1.72-5.7a7.83,7.83,0,0,0,.91-1.3l.3-.6.31-.6a1.34,1.34,0,0,1,.6-.7,1.42,1.42,0,0,1,.91,0,23.37,23.37,0,0,1,9.11,7.4A24.51,24.51,0,0,1,52.4,25.5a1.4,1.4,0,0,1-.3.9,1,1,0,0,1-.91.4s-.21,0-.21.1a.37.37,0,0,0-.3.1,4.11,4.11,0,0,0-.91.5A5.71,5.71,0,0,1,48,28ZM36.11,14.8c.51.9,2.33,1,4,1.1,2.53.1,5.77.2,6.68,3.2v.1a5.17,5.17,0,0,1-.21,2.1c-.4,1.6-.6,2.9.41,3.8h0c.61.6.81.6.81.6s.4-.2.71-.3a3.14,3.14,0,0,1,1.31-.6,22.06,22.06,0,0,0-11-15.1c0,.1,0,.1-.11.2a.1.1,0,0,1-.1.1c-.3.5-.71,1.1-1.11,1.7C36.82,12.7,35.71,14,36.11,14.8Z"/><path class="cls-1" d="M35.71,51.2A1.9,1.9,0,0,1,35,51a2.38,2.38,0,0,1-.81-1h0c-1.11-2,.51-4.1,1.62-5.7a9.53,9.53,0,0,0,1-1.4,9.54,9.54,0,0,0,.91-6.1,3.32,3.32,0,0,1,.1-2.6,3.33,3.33,0,0,1,2.33-1.5,7.67,7.67,0,0,1,2-.3,5.85,5.85,0,0,1,3.44,1.1,16.13,16.13,0,0,0,2.23,1,5.12,5.12,0,0,1,3,1.9,1,1,0,0,1,.1,1.1,23.36,23.36,0,0,1-5.86,8.4,22.61,22.61,0,0,1-9,5.2C35.91,51.1,35.81,51.2,35.71,51.2Zm4-15.9a5.81,5.81,0,0,0,.1,1,12.23,12.23,0,0,1-1.12,7.6h0a13.19,13.19,0,0,1-1.21,1.8c-.81,1-1.72,2.2-1.52,3A21.8,21.8,0,0,0,48.35,37.3,8.25,8.25,0,0,0,47,36.7a17.42,17.42,0,0,1-2.63-1.1,4.36,4.36,0,0,0-2.33-.8,7.94,7.94,0,0,0-1.41.2C40.06,35.1,39.86,35.2,39.76,35.3Z"/><path class="cls-1" d="M12.85,9.4A3.56,3.56,0,0,1,9.31,5.9a3.54,3.54,0,0,1,7.08,0A3.63,3.63,0,0,1,12.85,9.4Zm0-4.6A1.2,1.2,0,1,0,14.06,6,1.3,1.3,0,0,0,12.85,4.8Z"/></g></g></g></svg>