<svg xmlns="http://www.w3.org/2000/svg" viewBox="0 0 165.33 165.32"><defs><style>.cls-1{fill:#3271cc;}.cls-2{fill:#2a303f;}.cls-3{fill:#e57957;}.cls-4{fill:#c14727;}.cls-5{fill:#ffe89f;}.cls-6{fill:#92ceff;}.cls-7{fill:#f9c04c;}.cls-8{fill:#fff;}</style></defs><title>Asset 7</title><g id="Layer_2" data-name="Layer 2"><g id="Layer_1-2" data-name="Layer 1"><path class="cls-1" d="M165.33,82.66A82.67,82.67,0,1,1,82.66,0,82.67,82.67,0,0,1,165.33,82.66Z"/><path class="cls-2" d="M163,102.31,111,50.37l-1.65,2.32L92.58,35.9h-16L58.13,65.06l44-2.17L54.23,130.2l34.85,34.85A82.69,82.69,0,0,0,163,102.31Z"/><path class="cls-3" d="M44.6,92.17v23a6.61,6.61,0,0,0,6.61,6.61V85.55A6.61,6.61,0,0,0,44.6,92.17Z"/><path class="cls-4" d="M120.72,92.17v23a6.61,6.61,0,0,1-6.61,6.61V85.55A6.61,6.61,0,0,1,120.72,92.17Z"/><path class="cls-5" d="M71.35,125.49v-20.9l11.31-.3v-11c-13.26,0-24.9-6.39-31.45-16V122.8A10.59,10.59,0,0,0,61.8,133.38H82.66v-7.89Z"/><path class="cls-3" d="M61.8,51.23H82.66v-4H61.8A10.58,10.58,0,0,0,51.21,57.85v4A10.58,10.58,0,0,1,61.8,51.23Z"/><path class="cls-3" d="M82.66,93.25V55.08H61.8A10.57,10.57,0,0,0,51.22,65.66V77.27C57.76,86.86,69.4,93.25,82.66,93.25Z"/><path class="cls-6" d="M61.8,55.08H82.66V51.23H61.8A10.58,10.58,0,0,0,51.22,61.81v3.85A10.57,10.57,0,0,1,61.8,55.08Z"/><path class="cls-6" d="M71.35,109.19v16.3H82.66V114.12C77.87,114.12,73.68,112.15,71.35,109.19Z"/><path class="cls-3" d="M71.35,109.19c2.33,3,6.52,4.93,11.31,4.93V101.76H71.35Z"/><path class="cls-7" d="M114.11,122.8V77.27c-6.55,9.59-18.18,16-31.45,16v11l11.32.3v20.9H82.66v7.89h20.87A10.58,10.58,0,0,0,114.11,122.8Z"/><path class="cls-4" d="M103.53,51.23a10.58,10.58,0,0,1,10.58,10.58v-4a10.58,10.58,0,0,0-10.58-10.58H82.66v4Z"/><path class="cls-4" d="M103.53,55.08H82.66V93.25c13.27,0,24.9-6.39,31.45-16V65.66A10.58,10.58,0,0,0,103.53,55.08Z"/><path class="cls-1" d="M103.53,51.23H82.66v3.85h20.87a10.58,10.58,0,0,1,10.58,10.58V61.81A10.58,10.58,0,0,0,103.53,51.23Z"/><path class="cls-1" d="M82.66,114.12v11.37H94v-16.3A14.42,14.42,0,0,1,82.66,114.12Z"/><path class="cls-4" d="M94,109.19v-7.43H82.66v12.36A14.42,14.42,0,0,0,94,109.19Z"/><path class="cls-5" d="M81.13,70.16a1.54,1.54,0,0,1,1.53-1.53V66.87H76.89c0,.13,0,.27,0,.4a5.8,5.8,0,0,0,5.79,5.8V71.7A1.54,1.54,0,0,1,81.13,70.16Z"/><path class="cls-1" d="M82.66,61.24H76.87v5.63h5.79Z"/><path class="cls-1" d="M81.13,70.15a1.54,1.54,0,0,0,1.53,1.54V68.62A1.54,1.54,0,0,0,81.13,70.15Z"/><path class="cls-7" d="M88.45,67.28c0-.14,0-.28,0-.41H82.66v1.76a1.54,1.54,0,1,1,0,3.07v1.37A5.79,5.79,0,0,0,88.45,67.28Z"/><path class="cls-2" d="M88.43,66.87s0-5.63,0-5.63H82.66v5.63Z"/><path class="cls-2" d="M84.2,70.15a1.54,1.54,0,0,0-1.54-1.53v3.07A1.54,1.54,0,0,0,84.2,70.15Z"/><path class="cls-4" d="M72,40.44a12.09,12.09,0,0,1-1.21.07A12.09,12.09,0,0,0,72,40.44Z"/><path class="cls-8" d="M67.93,47.27h3.32a11.88,11.88,0,0,1,11.41-9.22V32C74.53,32,67.93,38.8,67.93,47.27Z"/><path class="cls-6" d="M94.07,47.27h3.32C97.39,38.8,90.8,32,82.66,32v6.1A11.88,11.88,0,0,1,94.07,47.27Z"/></g></g></svg>