<svg xmlns="http://www.w3.org/2000/svg" viewBox="0 0 165.32 165.32"><defs><style>.cls-1{fill:#3271cc;}.cls-2{fill:#2a303f;}.cls-3{fill:#fff;}.cls-4{fill:#92ceff;}.cls-5{fill:#e57957;}.cls-6{fill:#c14727;}</style></defs><title>Asset 15</title><g id="Layer_2" data-name="Layer 2"><g id="Layer_1-2" data-name="Layer 1"><circle class="cls-1" cx="82.66" cy="82.66" r="82.66"/><path class="cls-2" d="M163.94,97.65,115.81,49.51l-2.17,2.18-31-31L74.53,73.09,20.71,82.66l31,31-2.18,2.17,48.14,48.13A82.69,82.69,0,0,0,163.94,97.65Z"/><path class="cls-3" d="M43.24,82.66A39.42,39.42,0,0,1,82.66,43.24V20.71L76,36.26A46.9,46.9,0,0,0,36.26,76L20.71,82.66l15.55,6.71A46.89,46.89,0,0,0,76,129.06l6.71,15.55V122.08A39.42,39.42,0,0,1,43.24,82.66Z"/><path class="cls-1" d="M43.24,82.66a39.42,39.42,0,0,0,39.42,39.42v-3.91a35.51,35.51,0,0,1,0-71V43.24A39.42,39.42,0,0,0,43.24,82.66Z"/><path class="cls-3" d="M47.15,82.66a35.51,35.51,0,0,0,35.51,35.51v-71A35.51,35.51,0,0,0,47.15,82.66Z"/><path class="cls-4" d="M129.06,89.38l15.55-6.72L129.06,76A46.9,46.9,0,0,0,89.37,36.26L82.66,20.71V43.24a39.42,39.42,0,1,1,0,78.84v22.53l6.71-15.55A46.89,46.89,0,0,0,129.06,89.38Z"/><path class="cls-2" d="M118.17,82.66a35.51,35.51,0,0,1-35.51,35.51v3.91a39.42,39.42,0,1,0,0-78.84v3.91A35.51,35.51,0,0,1,118.17,82.66Z"/><path class="cls-4" d="M118.17,82.66A35.51,35.51,0,0,0,82.66,47.15v71A35.51,35.51,0,0,0,118.17,82.66Z"/><polygon class="cls-5" points="60.16 60.16 76.38 88.94 82.66 82.66 60.16 60.16"/><polygon class="cls-6" points="88.94 76.38 60.16 60.16 82.66 82.66 88.94 76.38"/><polygon class="cls-1" points="82.66 82.66 76.38 88.94 105.17 105.17 82.66 82.66"/><polygon class="cls-2" points="105.17 105.17 88.94 76.38 82.66 82.66 105.17 105.17"/><path class="cls-3" d="M81.22,84.1a2,2,0,0,1,0-2.88l-1.53-1.53a4.2,4.2,0,0,0,5.94,6L84.1,84.1A2,2,0,0,1,81.22,84.1Z"/><path class="cls-5" d="M81.22,84.1a2,2,0,0,0,2.88,0l-2.88-2.88A2,2,0,0,0,81.22,84.1Z"/><path class="cls-4" d="M85.64,79.69a4.19,4.19,0,0,0-6,0l1.53,1.53A2,2,0,0,1,84.1,84.1l1.53,1.54A4.2,4.2,0,0,0,85.64,79.69Z"/><path class="cls-2" d="M84.1,81.22a2,2,0,0,0-2.88,0L84.1,84.1A2,2,0,0,0,84.1,81.22Z"/></g></g></svg>