<svg xmlns="http://www.w3.org/2000/svg" viewBox="0 0 165.32 165.32"><defs><style>.cls-1{fill:#92ceff;}.cls-2{fill:#65a2ea;}.cls-3{fill:#ffe89f;}.cls-4{fill:#3271cc;}.cls-5{fill:#f9c04c;}.cls-6{fill:#2a303f;}.cls-7{fill:#fff;}.cls-8{fill:#e57957;}.cls-9{fill:#c14727;}</style></defs><title>Asset 2</title><g id="Layer_2" data-name="Layer 2"><g id="Layer_1-2" data-name="Layer 1"><path class="cls-1" d="M165.32,82.66A82.66,82.66,0,1,1,82.66,0,82.66,82.66,0,0,1,165.32,82.66Z"/><path class="cls-2" d="M164.19,96.27,116.62,48.7l-5,5L93.33,35.34l-3,5.47-3.71-3.66L72,44.26,82.62,54.88,64.43,88.08l-22.3-22.3L35,73l24.4,24.39L42.2,128.65l36.57,36.57c1.29.06,2.59.1,3.89.1A82.67,82.67,0,0,0,164.19,96.27Z"/><path class="cls-3" d="M42.58,72.68a5.06,5.06,0,1,1-.71-7.12A5.05,5.05,0,0,1,42.58,72.68Z"/><rect class="cls-4" x="41.12" y="67.54" width="3.24" height="10.54" transform="translate(-40.69 59.85) rotate(-50.76)"/><path class="cls-5" d="M122.73,72.68a5.07,5.07,0,1,0,.72-7.12A5.07,5.07,0,0,0,122.73,72.68Z"/><rect class="cls-6" x="117.31" y="71.19" width="10.54" height="3.24" transform="translate(-18.42 93.95) rotate(-39.24)"/><polygon class="cls-4" points="67.03 99.89 82.66 99.89 82.66 93.78 35.91 93.78 35.91 104.45 67.03 104.45 67.03 99.89"/><path class="cls-2" d="M82.66,109H67v-4.56H35.91v6.08A9.73,9.73,0,0,0,37,115H82.66Z"/><path class="cls-3" d="M82.66,76.21h-30V55.4a3.25,3.25,0,0,1,3.24-3.24H82.66V45.67H55.75A9.73,9.73,0,0,0,46,55.4V76.21h-.39a9.72,9.72,0,0,0-9.73,9.73v7.84H82.66Z"/><path class="cls-6" d="M40.7,117.62v7.53A4.84,4.84,0,0,0,45.54,130h5.85a4.83,4.83,0,0,0,4.83-4.83v-7.53Z"/><path class="cls-7" d="M55.49,93.77a7,7,0,1,1-7-7A7,7,0,0,1,55.49,93.77Z"/><path class="cls-8" d="M51.64,109a3.18,3.18,0,1,1-3.18-3.18A3.17,3.17,0,0,1,51.64,109Z"/><polygon class="cls-3" points="82.66 42.44 81.34 42.44 81.34 39.8 78.69 39.8 78.69 42.44 76.04 42.44 76.04 39.8 73.4 39.8 73.4 37.15 76.04 37.15 76.04 39.8 78.69 39.8 78.69 37.15 81.34 37.15 81.34 39.8 82.66 39.8 82.66 39.8 82.66 35.34 71.99 35.34 71.99 44.26 82.66 44.26 82.66 42.44 82.66 42.44"/><rect class="cls-4" x="73.4" y="37.15" width="2.65" height="2.65"/><rect class="cls-4" x="76.04" y="39.8" width="2.65" height="2.65"/><rect class="cls-4" x="78.69" y="37.15" width="2.65" height="2.65"/><polygon class="cls-4" points="81.34 39.8 81.34 42.44 82.66 42.44 82.66 42.44 82.66 39.8 82.66 39.8 81.34 39.8"/><path class="cls-4" d="M55.92,52.16a3.25,3.25,0,0,0-3.24,3.24V76.21h30v-24Z"/><path class="cls-3" d="M37,115a9.73,9.73,0,0,0,8.64,5.27h37V115Z"/><polygon class="cls-7" points="67.03 99.89 67.03 104.45 67.03 109.01 82.66 109.01 82.66 104.45 82.66 99.89 67.03 99.89"/><polygon class="cls-6" points="98.29 99.89 82.66 99.89 82.66 93.78 129.41 93.78 129.41 104.45 98.29 104.45 98.29 99.89"/><path class="cls-4" d="M82.66,109H98.29v-4.56h31.12v6.08a9.7,9.7,0,0,1-1.09,4.46H82.66Z"/><path class="cls-5" d="M82.66,76.21h30V55.4a3.25,3.25,0,0,0-3.25-3.24H82.66V45.67h26.9a9.73,9.73,0,0,1,9.73,9.73V76.21h.39a9.73,9.73,0,0,1,9.73,9.73v7.83H82.66Z"/><path class="cls-6" d="M124.62,117.62v7.53a4.84,4.84,0,0,1-4.84,4.83h-5.85a4.84,4.84,0,0,1-4.84-4.83v-7.53Z"/><path class="cls-1" d="M109.83,93.77a7,7,0,1,0,7-7A7,7,0,0,0,109.83,93.77Z"/><path class="cls-9" d="M113.68,109a3.18,3.18,0,1,0,3.18-3.18A3.17,3.17,0,0,0,113.68,109Z"/><polygon class="cls-5" points="82.66 42.44 83.98 42.44 83.98 39.8 86.63 39.8 86.63 42.44 89.27 42.44 89.27 39.8 91.92 39.8 91.92 37.15 89.27 37.15 89.27 39.8 86.63 39.8 86.63 37.15 83.98 37.15 83.98 39.8 82.66 39.8 82.66 39.8 82.66 35.34 93.33 35.34 93.33 44.26 82.66 44.26 82.66 42.44 82.66 42.44"/><rect class="cls-6" x="89.27" y="37.15" width="2.65" height="2.65"/><rect class="cls-6" x="86.62" y="39.8" width="2.65" height="2.65"/><rect class="cls-6" x="83.98" y="37.15" width="2.64" height="2.65"/><polygon class="cls-6" points="83.98 39.8 83.98 42.44 82.66 42.44 82.66 42.44 82.66 39.8 82.66 39.8 83.98 39.8"/><path class="cls-6" d="M109.39,52.16a3.25,3.25,0,0,1,3.25,3.24V76.21h-30v-24Z"/><path class="cls-5" d="M128.32,115a9.73,9.73,0,0,1-8.64,5.27h-37V115Z"/><polygon class="cls-1" points="82.66 99.89 82.66 104.45 82.66 109.01 98.28 109.01 98.29 104.45 98.29 99.89 82.66 99.89"/></g></g></svg>