<svg xmlns="http://www.w3.org/2000/svg" viewBox="0 0 165.32 165.32"><defs><style>.cls-1{fill:#e57957;}.cls-2{fill:#c14727;}.cls-3{fill:#92ceff;}.cls-4{fill:#fff;}.cls-5{fill:#65a2ea;}.cls-6{fill:#3271cc;}</style></defs><title>Asset 13</title><g id="Layer_2" data-name="Layer 2"><g id="Layer_1-2" data-name="Layer 1"><circle class="cls-1" cx="82.66" cy="82.66" r="82.66"/><path class="cls-2" d="M165.29,84l-42-42L97.72,67.6,79.56,49.43l-3.75,3.76L63.18,40.56l-9,9L84.92,80.4,50.43,114.89,99.2,163.66A82.66,82.66,0,0,0,165.29,84Z"/><path class="cls-3" d="M60.66,41.74l-5.78,5.79a4.18,4.18,0,0,0,5.91,5.92l5.79-5.79a4.2,4.2,0,0,0,1.18-2.52l-4.58-4.58A4.2,4.2,0,0,0,60.66,41.74Z"/><path class="cls-3" d="M77.05,50.61,71.26,56.4a4.18,4.18,0,0,0,5.91,5.92L83,56.53A4.14,4.14,0,0,0,84.14,54l-4.58-4.58A4.15,4.15,0,0,0,77.05,50.61Z"/><path class="cls-4" d="M91.32,72.17c1.67-3.36,6.35-8.9,3-10.56l-44-17.92c-4-1.4-8.07.1-9.73,3.46s.36,7.07,3.72,8.73L81,77.19C84.33,78.86,89.66,75.54,91.32,72.17Z"/><path class="cls-5" d="M123.58,104.66l-5.79,5.79a4.19,4.19,0,0,1-5.92-5.92l5.8-5.79a4.15,4.15,0,0,1,2.51-1.18l4.58,4.58A4.2,4.2,0,0,1,123.58,104.66Z"/><path class="cls-5" d="M114.71,88.27l-5.79,5.79A4.18,4.18,0,0,1,103,88.15l5.79-5.79a4.2,4.2,0,0,1,2.52-1.18l4.58,4.58A4.15,4.15,0,0,1,114.71,88.27Z"/><path class="cls-3" d="M93.15,74c3.36-1.66,8.9-6.35,10.57-3l17.91,44c1.41,4-.09,8.07-3.46,9.73s-7.07-.35-8.73-3.72L88.13,84.36C86.47,81,89.78,75.66,93.15,74Z"/><path class="cls-5" d="M123.12,41.83c-3.94-3.94-13.34-1.43-20.38,6.5L59.56,96.81c-3,3.87-2.68,8.74-1.25,10.2l65-65A1.06,1.06,0,0,0,123.12,41.83Z"/><path class="cls-4" d="M63.24,98.33,53,92.11A5.6,5.6,0,0,0,45.24,94c-1.61,2.66-.7,5.39,1.89,7.71L56,109.34l9.14-9.14A5.6,5.6,0,0,0,63.24,98.33Z"/><path class="cls-6" d="M123.49,42.2c4,3.94,1.43,13.35-6.5,20.38L68.51,105.77c-3.86,3-8.73,2.68-10.2,1.24l65-65A1.06,1.06,0,0,1,123.49,42.2Z"/><path class="cls-3" d="M67,102.08l6.21,10.29a5.62,5.62,0,0,1-1.9,7.72c-2.66,1.6-5.39.7-7.71-1.9L56,109.34l9.14-9.14A5.73,5.73,0,0,1,67,102.08Z"/><path class="cls-4" d="M119.85,45.28c-3.41-3.42-9.31-2.34-15.83,3.23,6.06-3.59,10.62-3.68,13.57-.8l2.34-2.34A.24.24,0,0,0,119.85,45.28Z"/><path class="cls-3" d="M116.79,61.27c5.57-6.51,6.64-12.41,3.24-15.82l-.1-.08-2.34,2.34C120.46,50.66,120.38,55.22,116.79,61.27Z"/><path class="cls-6" d="M66.18,99.14,50.43,114.89a1.55,1.55,0,0,0,2.21,0l13.54-13.54A1.56,1.56,0,0,0,66.18,99.14Z"/><path class="cls-5" d="M64,99.14,50.43,112.67a1.58,1.58,0,0,0,0,2.22L66.18,99.14A1.55,1.55,0,0,0,64,99.14Z"/></g></g></svg>