<svg xmlns="http://www.w3.org/2000/svg" viewBox="0 0 165.32 165.32"><defs><style>.cls-1{fill:#92ceff;}.cls-2{fill:#65a2ea;}.cls-3{fill:#3271cc;}.cls-4{fill:#fff;}.cls-5{fill:#2a303f;}</style></defs><title>Asset 16</title><g id="Layer_2" data-name="Layer 2"><g id="Layer_1-2" data-name="Layer 1"><path class="cls-1" d="M165.32,82.66A82.66,82.66,0,1,1,82.66,0,82.66,82.66,0,0,1,165.32,82.66Z"/><path class="cls-2" d="M161.91,106.17,139.28,83.54l-5.34,1.86L117.7,69.15l-1.19,1.19L105,58.82l-.08.08-8.09-8.09L86.55,66.68l-12-12-7.7,26,20.83,20.83-37.25,13L99.53,163.6A82.79,82.79,0,0,0,161.91,106.17Zm-58.76-10,.65-.64.31.31Z"/><rect class="cls-1" x="70.93" y="60.08" width="3.63" height="9.07"/><rect class="cls-3" x="70.93" y="54.68" width="3.63" height="5.4"/><rect class="cls-4" x="67.3" y="60.08" width="3.63" height="9.07"/><rect class="cls-2" x="67.3" y="54.68" width="3.63" height="5.4"/><rect class="cls-1" x="93.19" y="56.21" width="3.63" height="2.61"/><rect class="cls-3" x="93.19" y="50.81" width="3.63" height="5.4"/><rect class="cls-4" x="89.56" y="56.21" width="3.63" height="2.61"/><rect class="cls-2" x="89.56" y="50.81" width="3.63" height="5.4"/><path class="cls-4" d="M86.7,36.78a8.83,8.83,0,1,0-17.66,0,8.72,8.72,0,0,0,.56,3.08,6.55,6.55,0,1,0,9.67,5.75s0-.08,0-.12A8.81,8.81,0,0,0,86.7,36.78Z"/><path class="cls-4" d="M113.55,30a10.49,10.49,0,1,0-21,0,10.28,10.28,0,0,0,.67,3.65,7.79,7.79,0,1,0,11.49,6.84.68.68,0,0,0,0-.14A10.49,10.49,0,0,0,113.55,30Z"/><polygon class="cls-3" points="86.7 83.54 26.04 83.54 35.78 95.9 86.7 95.9 86.7 83.54"/><polygon class="cls-4" points="35.78 95.9 50.44 114.51 86.7 114.51 86.7 95.9 35.78 95.9"/><polygon class="cls-5" points="132.29 95.9 139.28 83.54 86.7 83.54 86.7 95.9 132.29 95.9"/><polygon class="cls-1" points="132.29 95.9 86.7 95.9 86.7 114.51 121.76 114.51 132.29 95.9"/><path class="cls-4" d="M51,90.25A2.25,2.25,0,1,1,48.78,88,2.25,2.25,0,0,1,51,90.25Z"/><path class="cls-4" d="M59.42,90.25A2.25,2.25,0,1,1,57.17,88,2.25,2.25,0,0,1,59.42,90.25Z"/><path class="cls-4" d="M67.8,90.25A2.25,2.25,0,1,1,65.55,88,2.25,2.25,0,0,1,67.8,90.25Z"/><path class="cls-4" d="M76.18,90.25A2.25,2.25,0,1,1,73.93,88,2.25,2.25,0,0,1,76.18,90.25Z"/><path class="cls-4" d="M84.57,90.25A2.25,2.25,0,1,1,82.32,88,2.25,2.25,0,0,1,84.57,90.25Z"/><path class="cls-1" d="M93,90.25A2.25,2.25,0,1,1,90.7,88,2.25,2.25,0,0,1,93,90.25Z"/><path class="cls-1" d="M101.34,90.25A2.25,2.25,0,1,1,99.09,88,2.25,2.25,0,0,1,101.34,90.25Z"/><path class="cls-1" d="M109.72,90.25A2.25,2.25,0,1,1,107.47,88,2.25,2.25,0,0,1,109.72,90.25Z"/><path class="cls-1" d="M118.11,90.25A2.25,2.25,0,1,1,115.86,88,2.25,2.25,0,0,1,118.11,90.25Z"/><polygon class="cls-3" points="89.56 69.15 61.86 69.15 59.89 76.35 89.56 76.35 89.56 69.15"/><polygon class="cls-4" points="59.89 76.35 57.91 83.54 89.56 83.54 89.56 76.35 59.89 76.35"/><polygon class="cls-5" points="119.23 76.35 117.7 69.15 89.56 69.15 89.56 76.35 119.23 76.35"/><polygon class="cls-1" points="119.23 76.35 89.56 76.35 89.56 83.54 120.75 83.54 119.23 76.35"/><polygon class="cls-3" points="93.19 58.82 83.23 58.82 81.81 63.99 93.19 63.99 93.19 58.82"/><polygon class="cls-4" points="81.81 63.99 80.39 69.15 93.19 69.15 93.19 63.99 81.81 63.99"/><polygon class="cls-5" points="106.08 63.99 104.99 58.82 93.19 58.82 93.19 63.99 106.08 63.99"/><polygon class="cls-1" points="106.08 63.99 93.19 63.99 93.19 69.15 107.18 69.15 106.08 63.99"/></g></g></svg>