<svg xmlns="http://www.w3.org/2000/svg" viewBox="0 0 165.32 165.32"><defs><style>.cls-1{fill:#92ceff;}.cls-2{fill:#65a2ea;}.cls-3{fill:#3271cc;}.cls-4{fill:#2a303f;}.cls-5{fill:#fff;}.cls-6{fill:#c14727;}.cls-7{fill:#e57957;}</style></defs><title>Asset 10</title><g id="Layer_2" data-name="Layer 2"><g id="Layer_1-2" data-name="Layer 1"><path class="cls-1" d="M165.32,82.66A82.66,82.66,0,1,1,82.66,0,82.65,82.65,0,0,1,165.32,82.66Z"/><path class="cls-2" d="M161.74,106.79c-.06-.12-.12-.25-.19-.37L137.79,82.66,134.89,85l-27.8-27.8-10.72,5.2-1.66,1.26L74,43l-9.92,6L59.56,65.59l-5.89,12-10.38.49L29.81,83.34,23,99.53l.47,10.1,4.74,4.74-1.44,1.1,49.59,49.59c2.08.16,4.18.26,6.3.26A82.69,82.69,0,0,0,161.74,106.79Z"/><path class="cls-3" d="M45.13,123.85A24.36,24.36,0,1,1,69.49,99.5,24.37,24.37,0,0,1,45.13,123.85Zm0-43.49A19.14,19.14,0,1,0,64.27,99.5,19.15,19.15,0,0,0,45.13,80.36Z"/><path class="cls-4" d="M120.19,123.85A24.36,24.36,0,1,1,144.55,99.5,24.37,24.37,0,0,1,120.19,123.85Zm0-43.49A19.14,19.14,0,1,0,139.34,99.5,19.16,19.16,0,0,0,120.19,80.36Z"/><path class="cls-5" d="M93.43,65.59H56.94l-1.45,3.35,25.58,31.61h.24L98.44,60.9l-1.7-.85L96,59.71ZM81.61,93,63.7,70.8H91.17Z"/><path class="cls-1" d="M81.31,100.55h36.81l2.93-5L98.16,67.77l2.59-6-4-1.73,1.7.85Zm32.8-5.21H86.25l9.59-22.19Z"/><path class="cls-4" d="M105.42,63.35H89a2.61,2.61,0,0,1-2.61-2.61A2.86,2.86,0,0,1,89,58l16.47-1.18a2.4,2.4,0,0,1,2.6,2.42v1.55A2.61,2.61,0,0,1,105.42,63.35Z"/><path class="cls-6" d="M127,99.71a6.84,6.84,0,1,1-6.84-6.84A6.84,6.84,0,0,1,127,99.71Z"/><path class="cls-5" d="M65.36,51a12.88,12.88,0,0,1-5.68-.41l.68,3.26a9.57,9.57,0,0,1-.49,4.94L43.77,96.08a2.61,2.61,0,0,0,4.79,2.06L65.31,59.36a9.6,9.6,0,0,0,.49-5l-.4-1.9A3.11,3.11,0,0,1,65.49,51Z"/><path class="cls-4" d="M65.36,51l.13,0a3.34,3.34,0,0,1,1.76-2.1l5.48-2.45A2.6,2.6,0,1,0,70.6,41.7l-9.32,4.16a3.36,3.36,0,0,0-1.84,3.61l.24,1.14A12.88,12.88,0,0,0,65.36,51Z"/><path class="cls-7" d="M52,99.71a6.84,6.84,0,1,1-6.84-6.84A6.84,6.84,0,0,1,52,99.71Z"/><rect class="cls-3" x="81.52" y="84.64" width="2.63" height="26.38" transform="translate(-24.17 27.25) rotate(-16.34)"/><rect class="cls-4" x="73.77" y="83.67" width="10.75" height="3.01" transform="translate(-20.7 25.6) rotate(-16.28)"/><rect class="cls-4" x="81.16" y="108.99" width="10.75" height="3.01" transform="translate(-27.5 28.69) rotate(-16.28)"/><path class="cls-4" d="M88,96.33a5.37,5.37,0,1,1-6.66-3.66A5.37,5.37,0,0,1,88,96.33Z"/></g></g></svg>