<svg xmlns="http://www.w3.org/2000/svg" viewBox="0 0 165.33 165.32"><defs><style>.cls-1{fill:#ffe89f;}.cls-2{fill:#f9c04c;}.cls-3{fill:#92ceff;}.cls-4{fill:#3271cc;}.cls-5{fill:#e57957;}.cls-6{fill:#c14727;}.cls-7{fill:#2a303f;}.cls-8{fill:#fff;}.cls-9{fill:#65a2ea;}</style></defs><title>Asset 11</title><g id="Layer_2" data-name="Layer 2"><g id="Layer_1-2" data-name="Layer 1"><path class="cls-1" d="M165.33,82.66A82.67,82.67,0,1,1,82.66,0,82.66,82.66,0,0,1,165.33,82.66Z"/><path class="cls-2" d="M164.79,92,124.51,51.74,111.62,62.23,91.19,41.79l-8.33-1.66-5.6,2.58L71.74,49,89.63,80.12,40.82,119.84l45.39,45.39A82.66,82.66,0,0,0,164.79,92Z"/><rect class="cls-3" x="63.29" y="50.29" width="5.94" height="70.99"/><rect class="cls-4" x="96.09" y="50.3" width="5.94" height="70.99"/><polygon class="cls-5" points="39.38 105.82 54.84 121.28 63.29 121.28 63.29 50.29 54.84 50.29 39.38 65.76 39.38 105.82"/><polygon class="cls-6" points="125.95 65.75 110.49 50.29 102.03 50.29 102.03 121.28 110.49 121.28 125.95 105.82 125.95 65.75"/><path class="cls-7" d="M39.37,55.22V65.76L54.84,50.29H44.3A4.93,4.93,0,0,0,39.37,55.22Z"/><path class="cls-7" d="M126,116.36V105.82l-15.46,15.46H121A4.92,4.92,0,0,0,126,116.36Z"/><path class="cls-7" d="M39.37,116.36a4.93,4.93,0,0,0,4.93,4.92H54.83L39.37,105.82Z"/><path class="cls-7" d="M126,55.22A4.93,4.93,0,0,0,121,50.29H110.49L126,65.75Z"/><path class="cls-8" d="M90.34,50.29h4.37a12.09,12.09,0,0,0-.53-3.52h-4.7A7.73,7.73,0,0,1,90.34,50.29Z"/><path class="cls-8" d="M70.62,50.3H75a7.6,7.6,0,0,1,.86-3.52h-4.7A12.11,12.11,0,0,0,70.62,50.3Z"/><path class="cls-7" d="M82.67,38.25a12.05,12.05,0,0,0-11.52,8.52h4.7a7.67,7.67,0,0,1,13.63,0h4.7A12,12,0,0,0,82.67,38.25Z"/><rect class="cls-5" x="69.24" y="50.3" width="13.43" height="70.99"/><rect class="cls-6" x="82.67" y="50.3" width="13.43" height="70.99"/><path class="cls-8" d="M79.38,89.59A13.12,13.12,0,1,1,66.26,76.48,13.11,13.11,0,0,1,79.38,89.59Z"/><path class="cls-5" d="M66.26,97.68a8.09,8.09,0,1,1,8.09-8.09A8.1,8.1,0,0,1,66.26,97.68Zm0-13.3a5.22,5.22,0,1,0,5.22,5.21A5.22,5.22,0,0,0,66.26,84.38Z"/><rect class="cls-9" x="91.5" y="71.16" width="16.48" height="19.77" transform="translate(-21.99 122.26) rotate(-57.8)"/><path class="cls-6" d="M108.3,80.26l-5.57,8.85L91.09,81.78l5.57-8.85Zm-6.11,6.48,3.74-5.94L97.2,75.3l-3.74,5.94Z"/></g></g></svg>