<svg xmlns="http://www.w3.org/2000/svg" viewBox="0 0 165.32 165.32"><defs><style>.cls-1{fill:#92ceff;}.cls-2{fill:#65a2ea;}.cls-3{fill:#3271cc;}.cls-4{fill:#2a303f;}.cls-5{fill:#fff;}</style></defs><title>Asset 5</title><g id="Layer_2" data-name="Layer 2"><g id="Layer_1-2" data-name="Layer 1"><path class="cls-1" d="M165.32,82.66A82.66,82.66,0,1,1,82.66,0,82.66,82.66,0,0,1,165.32,82.66Z"/><path class="cls-2" d="M165.29,83.8,116.86,35.37,48.09,129.58,83.8,165.29A82.62,82.62,0,0,0,165.29,83.8Z"/><path class="cls-3" d="M54.05,33.27a8.44,8.44,0,0,0-8.43,8.44v81.91a8.43,8.43,0,0,0,8.43,8.43H82.66V33.27Z"/><path class="cls-4" d="M119.7,123.62V41.71a8.44,8.44,0,0,0-8.44-8.44H82.66v98.78h28.6A8.43,8.43,0,0,0,119.7,123.62Z"/><path class="cls-5" d="M66.56,47.59a4.8,4.8,0,0,1,1.51,3.88,4.62,4.62,0,0,1-1.54,3.85,7.57,7.57,0,0,1-4.72,1.22H59.24v4.24H56.8V46.33h5A7.43,7.43,0,0,1,66.56,47.59Zm-1.73,6a3.16,3.16,0,0,0,.74-2.27,2.35,2.35,0,0,0-.94-2.12,5.36,5.36,0,0,0-2.91-.62H59.24v5.79h2.83A3.76,3.76,0,0,0,64.83,53.55Z"/><path class="cls-5" d="M72.2,57.49l-1.44,3.29H68.15l6.37-14.45h2.6l6.37,14.45H80.88l-1.44-3.29Zm6.25-2.25-2.63-6-2.63,6Z"/><path class="cls-5" d="M89.86,48.23a3.25,3.25,0,0,0-1.74.43A1.45,1.45,0,0,0,87.43,50a1.52,1.52,0,0,0,.69,1.34,10.3,10.3,0,0,0,2.9,1,8,8,0,0,1,3.35,1.51,3.59,3.59,0,0,1,1.13,2.86,3.78,3.78,0,0,1-1.43,3.07,5.66,5.66,0,0,1-3.74,1.18,8.76,8.76,0,0,1-6-2.33l1.52-1.84a6.88,6.88,0,0,0,4.55,1.9,3.09,3.09,0,0,0,1.87-.51,1.58,1.58,0,0,0,.7-1.34,1.52,1.52,0,0,0-.66-1.3,6.47,6.47,0,0,0-2.24-.85A19.73,19.73,0,0,1,87.64,54a5.55,5.55,0,0,1-1.47-.83,3.48,3.48,0,0,1-1.27-3,3.64,3.64,0,0,1,1.45-3.09A5.9,5.9,0,0,1,90,46a8.64,8.64,0,0,1,2.74.45,7,7,0,0,1,2.36,1.28l-1.3,1.84A5.1,5.1,0,0,0,92,48.6,6.63,6.63,0,0,0,89.86,48.23Z"/><path class="cls-5" d="M102.88,48.23a3.27,3.27,0,0,0-1.74.43,1.45,1.45,0,0,0-.68,1.32,1.51,1.51,0,0,0,.68,1.34,10.3,10.3,0,0,0,2.9,1,8,8,0,0,1,3.35,1.51,3.59,3.59,0,0,1,1.13,2.86,3.78,3.78,0,0,1-1.43,3.07,5.66,5.66,0,0,1-3.74,1.18,8.76,8.76,0,0,1-6-2.33l1.52-1.84a6.9,6.9,0,0,0,4.55,1.9,3.07,3.07,0,0,0,1.87-.51,1.57,1.57,0,0,0,.69-1.34,1.49,1.49,0,0,0-.65-1.3,6.47,6.47,0,0,0-2.24-.85,19.73,19.73,0,0,1-2.42-.71,5.55,5.55,0,0,1-1.47-.83,3.54,3.54,0,0,1-1.28-3,3.65,3.65,0,0,1,1.46-3.09A5.9,5.9,0,0,1,103,46a8.64,8.64,0,0,1,2.74.45,7,7,0,0,1,2.36,1.28l-1.3,1.84A5.1,5.1,0,0,0,105,48.6,6.63,6.63,0,0,0,102.88,48.23Z"/><path class="cls-5" d="M103.7,98.37a21.13,21.13,0,0,0-20.11-20.1c-.29,0-.59,0-.89,0s-.68,0-1,0a21.12,21.12,0,0,0-20.1,20.1c0,.32,0,.65,0,1s0,.65,0,1a21.12,21.12,0,0,0,20.1,20.1l.89,0,1,0a21.13,21.13,0,0,0,20.11-20.1c0-.32,0-.65,0-1S103.71,98.69,103.7,98.37ZM98.26,88.31H92.89a18.85,18.85,0,0,0-5.39-7.48A19.22,19.22,0,0,1,98.26,88.31Zm-7.47,0h-7.2V80.76C86.55,81.88,89.08,84.61,90.79,88.31Zm2.28,10.06H83.59V90.26h8A27.24,27.24,0,0,1,93.07,98.37Zm-20.81,1.95h9.47v8.12h-8A27.05,27.05,0,0,1,72.26,100.32Zm1.49-10.06h8v8.11H72.26A26.93,26.93,0,0,1,73.75,90.26Zm9.84,10.06h9.48a27.37,27.37,0,0,1-1.5,8.12h-8ZM81.73,80.76v7.55h-7.2C76.24,84.61,78.78,81.88,81.73,80.76Zm-3.91.07a18.9,18.9,0,0,0-5.38,7.48H67.06A19.22,19.22,0,0,1,77.82,80.83ZM65.87,90.26h5.84a28.68,28.68,0,0,0-1.4,8.11H63.57A18.9,18.9,0,0,1,65.87,90.26Zm4.44,10.06a28.68,28.68,0,0,0,1.4,8.11H65.87a18.9,18.9,0,0,1-2.3-8.11Zm-3.25,10.06h5.38a18.94,18.94,0,0,0,5.38,7.49A19.22,19.22,0,0,1,67.06,110.38Zm7.47,0h7.2v7.55C78.78,116.81,76.24,114.08,74.53,110.38Zm9.06,7.55v-7.55h7.2C89.08,114.08,86.54,116.81,83.59,117.93Zm3.91-.06a19,19,0,0,0,5.39-7.49h5.37A19.24,19.24,0,0,1,87.5,117.87Zm12-9.43H93.61a28.81,28.81,0,0,0,1.4-8.12h6.74A19.12,19.12,0,0,1,99.46,108.44ZM95,98.37a28.68,28.68,0,0,0-1.4-8.11h5.85a19,19,0,0,1,2.29,8.11Z"/></g></g></svg>