<svg xmlns="http://www.w3.org/2000/svg" viewBox="0 0 165.33 165.32"><defs><style>.cls-1{fill:#e57957;}.cls-2{fill:#c14727;}.cls-3{fill:#3271cc;}.cls-4{fill:#2a303f;}.cls-5{fill:#92ceff;}.cls-6{fill:#fff;}.cls-7{fill:#ffe89f;}.cls-8{fill:#f9c04c;}</style></defs><title>Asset 8</title><g id="Layer_2" data-name="Layer 2"><g id="Layer_1-2" data-name="Layer 1"><path class="cls-1" d="M165.33,82.66A82.67,82.67,0,1,1,82.66,0,82.67,82.67,0,0,1,165.33,82.66Z"/><path class="cls-2" d="M165.08,88.71,118.84,42.47,68.75,104.78,64.91,101,46.66,119.21,52.48,125,49,129.35l35.91,35.91A82.63,82.63,0,0,0,165.08,88.71Z"/><path class="cls-3" d="M82.66,108.17v-2.55a2.45,2.45,0,0,1,0-4.9V89.62H46.48v18.55ZM49.9,97.87a3.58,3.58,0,0,1,3.58-3.57H68.12a3.57,3.57,0,0,1,3.57,3.57v1.89a3.57,3.57,0,0,1-3.57,3.57H53.48a3.57,3.57,0,0,1-3.58-3.57Z"/><path class="cls-4" d="M82.66,100.72a2.45,2.45,0,0,1,0,4.9v2.55h36.18V89.62H82.66Zm11-2.85a3.57,3.57,0,0,1,3.58-3.57h14.64a3.57,3.57,0,0,1,3.57,3.57v1.89a3.57,3.57,0,0,1-3.57,3.57H97.21a3.57,3.57,0,0,1-3.58-3.57Z"/><polygon class="cls-5" points="110.94 46.98 82.66 46.98 54.39 46.98 54.39 72.28 82.66 72.29 110.94 72.28 110.94 46.98"/><rect class="cls-6" x="46.48" y="77.32" width="36.18" height="12.29"/><rect class="cls-5" x="82.66" y="77.32" width="36.18" height="12.29"/><path class="cls-5" d="M74.81,117.62a2.1,2.1,0,0,1-2.1-2.1v-3a2.09,2.09,0,0,1,2.1-2.09h7.85v-2.25H44v4.67a9,9,0,0,0,9,9H82.66v-4.23ZM59.71,116a1.66,1.66,0,0,1-1.65,1.66H51.28A1.67,1.67,0,0,1,49.63,116v-.87a1.65,1.65,0,0,1,1.65-1.66h6.78a1.65,1.65,0,0,1,1.65,1.66Z"/><path class="cls-3" d="M82.66,108.17v2.25h7.86a2.09,2.09,0,0,1,2.09,2.09v3a2.08,2.08,0,0,1-2.1,2.09H82.66v4.23H112.3a9,9,0,0,0,9-9v-4.67H82.66Zm33,7.79a1.66,1.66,0,0,1-1.66,1.66h-6.77a1.65,1.65,0,0,1-1.66-1.65v-.87a1.65,1.65,0,0,1,1.65-1.66H114a1.66,1.66,0,0,1,1.66,1.66Z"/><path class="cls-4" d="M48.41,121.85v5.76a2.74,2.74,0,0,0,2.74,2.74h7.72a2.74,2.74,0,0,0,2.74-2.74v-4.47H53A8.93,8.93,0,0,1,48.41,121.85Z"/><path class="cls-4" d="M103.72,123.14v4.47a2.74,2.74,0,0,0,2.74,2.74h7.72a2.74,2.74,0,0,0,2.74-2.74v-5.76a9,9,0,0,1-4.62,1.29Z"/><rect class="cls-3" x="54.39" y="46.98" width="28.27" height="25.31"/><rect class="cls-4" x="82.66" y="46.98" width="28.27" height="25.31"/><path class="cls-7" d="M53.48,103.33H56v-9H53.48a3.58,3.58,0,0,0-3.58,3.57v1.89A3.57,3.57,0,0,0,53.48,103.33Z"/><path class="cls-6" d="M68.12,103.33a3.57,3.57,0,0,0,3.57-3.57V97.87a3.57,3.57,0,0,0-3.57-3.57H56v9Z"/><path class="cls-1" d="M51.28,113.43a1.65,1.65,0,0,0-1.65,1.66V116a1.67,1.67,0,0,0,1.65,1.66h1.15v-4.19Z"/><path class="cls-7" d="M58.06,113.43H52.43v4.19h5.63A1.66,1.66,0,0,0,59.71,116v-.87A1.65,1.65,0,0,0,58.06,113.43Z"/><path class="cls-2" d="M114,117.62A1.66,1.66,0,0,0,115.7,116v-.87a1.66,1.66,0,0,0-1.66-1.66h-1.15v4.19Z"/><path class="cls-8" d="M112.89,113.43h-5.62a1.65,1.65,0,0,0-1.65,1.66V116a1.65,1.65,0,0,0,1.66,1.65h5.62Z"/><path class="cls-8" d="M111.85,103.33a3.57,3.57,0,0,0,3.57-3.57V97.87a3.57,3.57,0,0,0-3.57-3.57h-2.48v9Z"/><path class="cls-5" d="M97.21,103.33h12.16v-9H97.21a3.57,3.57,0,0,0-3.58,3.57v1.89A3.57,3.57,0,0,0,97.21,103.33Z"/><path class="cls-1" d="M80.21,103.17a2.45,2.45,0,0,0,2.45,2.45v-4.9A2.45,2.45,0,0,0,80.21,103.17Z"/><path class="cls-2" d="M85.11,103.17a2.45,2.45,0,0,0-2.45-2.45v4.9A2.45,2.45,0,0,0,85.11,103.17Z"/><path class="cls-6" d="M72.71,112.51v3a2.1,2.1,0,0,0,2.1,2.1h7.85v-7.2H74.81A2.09,2.09,0,0,0,72.71,112.51Z"/><path class="cls-5" d="M90.51,117.61a2.08,2.08,0,0,0,2.1-2.09v-3a2.09,2.09,0,0,0-2.09-2.09H82.66v7.2Z"/><path class="cls-5" d="M80.07,73.54a37.59,37.59,0,0,0-23-3.19L56.84,69c8.09-1.44,17.29.22,24.68,3.82C81.32,73.21,80.27,73.13,80.07,73.54Z"/><path class="cls-3" d="M108.34,73.54a37.56,37.56,0,0,0-23-3.19c-.09-.46-.17-.92-.25-1.38,8.1-1.44,17.29.22,24.69,3.82C109.6,73.21,108.54,73.13,108.34,73.54Z"/><path class="cls-7" d="M82.66,77.32v-5H54.39V47H82.66V35c-13.74,0-26.35,2.82-36.18,7.5V77.32Z"/><path class="cls-8" d="M82.66,47h28.27v25.3H82.66v5h36.18V42.47C109,37.79,96.4,35,82.66,35Z"/></g></g></svg>