<svg xmlns="http://www.w3.org/2000/svg" viewBox="0 0 165.33 165.32"><defs><style>.cls-1{fill:#ffe89f;}.cls-2{fill:#f9c04c;}.cls-3{fill:#3271cc;}.cls-4{fill:#2a303f;}.cls-5{fill:#fff;}.cls-6{fill:#92ceff;}</style></defs><title>Asset 14</title><g id="Layer_2" data-name="Layer 2"><g id="Layer_1-2" data-name="Layer 1"><path class="cls-1" d="M165.33,82.66A82.67,82.67,0,1,1,82.66,0,82.67,82.67,0,0,1,165.33,82.66Z"/><path class="cls-2" d="M165.23,86.26,131.71,52.74,32.8,111.64l53.58,53.59A82.65,82.65,0,0,0,165.23,86.26Z"/><path class="cls-3" d="M134.45,59.34A9.33,9.33,0,0,0,125.12,50H40.2a9.33,9.33,0,0,0-9.33,9.33v6.4H134.45Z"/><rect class="cls-3" x="30.87" y="70.98" width="103.58" height="15.69"/><rect class="cls-4" x="30.87" y="65.74" width="103.58" height="5.25"/><path class="cls-4" d="M40.2,115.31h84.92a9.33,9.33,0,0,0,9.33-9.33V86.68H30.87V106A9.33,9.33,0,0,0,40.2,115.31Z"/><path class="cls-2" d="M68.89,73.76a4.32,4.32,0,0,1-4.32,4.32H46a4.32,4.32,0,0,1-4.32-4.32V63A4.32,4.32,0,0,1,46,58.64H64.57A4.32,4.32,0,0,1,68.89,63Z"/><path class="cls-4" d="M55.3,61.36a7,7,0,1,0,7,7A7,7,0,0,0,55.3,61.36Zm0,13.09a6.09,6.09,0,1,1,6.09-6.09A6.08,6.08,0,0,1,55.31,74.45Z"/><path class="cls-5" d="M75.27,104.53a4.52,4.52,0,0,0,1.91-.38A6.47,6.47,0,0,0,78.86,103l1.38,1.42a6.36,6.36,0,0,1-4.91,2.25,6.52,6.52,0,0,1-4.79-1.87,6.23,6.23,0,0,1-1.91-4.7,6.39,6.39,0,0,1,1.94-4.74,6.77,6.77,0,0,1,4.91-1.9,6.46,6.46,0,0,1,5,2.19l-1.37,1.5a6.25,6.25,0,0,0-1.72-1.23,5.09,5.09,0,0,0-1.91-.34,4.56,4.56,0,0,0-3.25,1.25A4.21,4.21,0,0,0,70.87,100a4.43,4.43,0,0,0,1.31,3.25A4.23,4.23,0,0,0,75.27,104.53Z"/><path class="cls-5" d="M84.68,103.58l-1.28,2.9H81.1l5.62-12.75H89l5.61,12.75h-2.3l-1.27-2.9Zm5.5-2-2.31-5.25-2.32,5.25Z"/><path class="cls-5" d="M106.57,97.87a3.71,3.71,0,0,1-2.75,4l3.34,4.63h-2.74l-3-4.29H98.55v4.29H96.4V93.73h4.74a6.81,6.81,0,0,1,4.17,1A3.76,3.76,0,0,1,106.57,97.87Zm-2.86,1.81a2.27,2.27,0,0,0,.66-1.82,1.94,1.94,0,0,0-.68-1.71,4.48,4.48,0,0,0-2.41-.47H98.55v4.57h2.68A3.94,3.94,0,0,0,103.71,99.68Z"/><path class="cls-5" d="M119.32,95.4a6,6,0,0,1,1.84,4.64,6.28,6.28,0,0,1-1.79,4.71q-1.78,1.73-5.47,1.73h-4.23V93.73h4.38A7.61,7.61,0,0,1,119.32,95.4Zm-.33,4.7q0-4.38-5-4.38h-2.15v8.74h2.39a5.14,5.14,0,0,0,3.55-1.11A4.13,4.13,0,0,0,119,100.1Z"/><path class="cls-5" d="M117.84,68.36a10.69,10.69,0,1,0-21.38,0Z"/><path class="cls-6" d="M107.16,79.05a10.69,10.69,0,0,0,10.68-10.69H96.46A10.7,10.7,0,0,0,107.16,79.05Z"/></g></g></svg>