<svg xmlns="http://www.w3.org/2000/svg" viewBox="0 0 165.32 165.32"><defs><style>.cls-1{fill:#e57957;}.cls-2{fill:#c14727;}.cls-3{fill:#fff;}.cls-4{fill:#2a303f;}.cls-5{fill:#3271cc;}.cls-6{fill:#f9c04c;}.cls-7{fill:#ffe89f;}.cls-8{fill:#92ceff;}</style></defs><title>Asset 12</title><g id="Layer_2" data-name="Layer 2"><g id="Layer_1-2" data-name="Layer 1"><path class="cls-1" d="M165.32,82.66A82.66,82.66,0,1,1,82.66,0,82.65,82.65,0,0,1,165.32,82.66Z"/><path class="cls-2" d="M159.1,114.16,87.79,42.85,61.93,128.24l-4,4,2.13,2.13-3.2,10.55,20.22,20.22c1.84.12,3.68.2,5.55.2A82.69,82.69,0,0,0,159.1,114.16Z"/><path class="cls-3" d="M99.65,19.41a8.93,8.93,0,1,0-17.86,0,8.76,8.76,0,0,0,1.4,4.74,6.16,6.16,0,1,0,8.23,4.12A8.91,8.91,0,0,0,99.65,19.41Z"/><path class="cls-4" d="M82.66,65.41A7.33,7.33,0,0,0,90,58.08V50.16H82.66Z"/><path class="cls-4" d="M89.56,45.68a7.32,7.32,0,0,0-6.9-5v5Z"/><path class="cls-5" d="M82.66,40.72a7.32,7.32,0,0,0-6.9,5h6.9Z"/><path class="cls-5" d="M75.33,50.16v7.92a7.33,7.33,0,0,0,7.33,7.33V50.16Z"/><path class="cls-6" d="M89.56,45.68h-6.9v4.48H90v-2.1A7.17,7.17,0,0,0,89.56,45.68Z"/><path class="cls-7" d="M82.66,45.68h-6.9a7.17,7.17,0,0,0-.43,2.38v2.1h7.33Z"/><path class="cls-3" d="M51.27,85.44V115.2H82.66v-21H56.89V85.44a25.6,25.6,0,0,1,4.34-14.29H82.66V54.05A31.42,31.42,0,0,0,51.27,85.44Z"/><path class="cls-8" d="M82.66,54.05v17.1h21.43a25.6,25.6,0,0,1,4.34,14.29v8.73H82.66v21h31.39V85.44A31.42,31.42,0,0,0,82.66,54.05Z"/><path class="cls-5" d="M82.66,71.15H61.23a25.6,25.6,0,0,0-4.34,14.29v8.73H82.66Z"/><path class="cls-4" d="M104.09,71.15H82.66v23h25.77V85.44A25.6,25.6,0,0,0,104.09,71.15Z"/><path class="cls-5" d="M82.66,115.2H51.27v.23a22.77,22.77,0,0,0,5.44,15.47v-6.33a2.82,2.82,0,0,1,5.63,0v11a28.66,28.66,0,0,0,3.64,1.8V124.57a2.81,2.81,0,0,1,5.62,0v14.52c1.17.27,2.38.5,3.63.67V124.57a2.82,2.82,0,0,1,5.63,0v15.64c.6,0,1.19,0,1.81.06V115.2Z"/><path class="cls-4" d="M114.05,115.2H82.66v25.07c.62,0,1.21,0,1.82-.06V124.57a2.81,2.81,0,0,1,5.62,0v15.19c1.26-.17,2.46-.4,3.63-.67V124.57a2.81,2.81,0,1,1,5.62,0v12.76a28.66,28.66,0,0,0,3.64-1.8v-11a2.81,2.81,0,0,1,5.62,0v6.33a22.77,22.77,0,0,0,5.44-15.47Z"/><path class="cls-8" d="M59.53,121.76a2.81,2.81,0,0,0-2.82,2.81v6.33a23,23,0,0,0,5.62,4.63v-11A2.81,2.81,0,0,0,59.53,121.76Z"/><path class="cls-8" d="M68.78,121.76A2.81,2.81,0,0,0,66,124.57v12.76a35.2,35.2,0,0,0,5.62,1.76V124.57A2.81,2.81,0,0,0,68.78,121.76Z"/><path class="cls-8" d="M78,121.76a2.81,2.81,0,0,0-2.81,2.81v15.19a52.41,52.41,0,0,0,5.63.45V124.57A2.81,2.81,0,0,0,78,121.76Z"/><path class="cls-5" d="M87.29,121.76a2.81,2.81,0,0,0-2.81,2.81v15.64a52.22,52.22,0,0,0,5.62-.45V124.57A2.81,2.81,0,0,0,87.29,121.76Z"/><path class="cls-5" d="M105.8,121.76a2.81,2.81,0,0,0-2.81,2.81v11a23,23,0,0,0,5.62-4.63v-6.33A2.81,2.81,0,0,0,105.8,121.76Z"/><path class="cls-5" d="M96.54,121.76a2.81,2.81,0,0,0-2.81,2.81v14.52a34.88,34.88,0,0,0,5.62-1.76V124.57A2.8,2.8,0,0,0,96.54,121.76Z"/><path class="cls-5" d="M97.71,106.54a3.58,3.58,0,0,1,3.58-3.58v-1.7a5.27,5.27,0,1,0,0,10.54v-1.69A3.58,3.58,0,0,1,97.71,106.54Z"/><path class="cls-7" d="M97.71,106.54a3.58,3.58,0,0,0,3.58,3.57V103A3.58,3.58,0,0,0,97.71,106.54Z"/><path class="cls-4" d="M106.56,106.53a5.27,5.27,0,0,0-5.27-5.27V103a3.58,3.58,0,0,1,0,7.15v1.69A5.28,5.28,0,0,0,106.56,106.53Z"/><path class="cls-6" d="M104.86,106.54a3.57,3.57,0,0,0-3.57-3.58v7.15A3.58,3.58,0,0,0,104.86,106.54Z"/><path class="cls-5" d="M60.46,106.54A3.58,3.58,0,0,1,64,103v-1.7a5.27,5.27,0,0,0,0,10.54v-1.69A3.58,3.58,0,0,1,60.46,106.54Z"/><path class="cls-7" d="M60.46,106.54A3.58,3.58,0,0,0,64,110.11V103A3.58,3.58,0,0,0,60.46,106.54Z"/><path class="cls-4" d="M69.31,106.53A5.27,5.27,0,0,0,64,101.26V103a3.58,3.58,0,0,1,0,7.15v1.69A5.27,5.27,0,0,0,69.31,106.53Z"/><path class="cls-6" d="M67.61,106.53A3.57,3.57,0,0,0,64,103v7.15A3.58,3.58,0,0,0,67.61,106.53Z"/><path class="cls-8" d="M62.33,137.74a24.22,24.22,0,0,1-3.83-2.9v8.57h4.57V138.1C62.84,138,62.56,137.87,62.33,137.74Z"/><path class="cls-4" d="M56.89,133.28V144.9H58.5V134.84A21.52,21.52,0,0,1,56.89,133.28Z"/><path class="cls-4" d="M63.07,143.41v1.49h1.61v-6c-.55-.26-1.09-.52-1.61-.8Z"/><path class="cls-8" d="M103,137.74c-.23.13-.5.23-.74.36v5.31h4.57v-8.57A23.34,23.34,0,0,1,103,137.74Z"/><path class="cls-4" d="M100.64,138.9v6h1.61v-6.8C101.74,138.38,101.19,138.64,100.64,138.9Z"/><path class="cls-4" d="M106.82,143.41v1.49h1.61V133.28a18.27,18.27,0,0,1-1.61,1.56Z"/></g></g></svg>