<svg xmlns="http://www.w3.org/2000/svg" viewBox="0 0 165.33 165.32"><defs><style>.cls-1{fill:#3271cc;}.cls-2{fill:#2a303f;}.cls-3{fill:#fff;}.cls-4{fill:#ffe89f;}.cls-5{fill:#f9c04c;}.cls-6{fill:#92ceff;}.cls-7{fill:#e57957;}.cls-8{fill:#c14727;}</style></defs><title>Asset 4</title><g id="Layer_2" data-name="Layer 2"><g id="Layer_1-2" data-name="Layer 1"><path class="cls-1" d="M165.33,82.66A82.67,82.67,0,1,1,82.66,0,82.67,82.67,0,0,1,165.33,82.66Z"/><path class="cls-2" d="M164.64,93.16,105.43,34l-66,87.85,43.52,43.51A82.66,82.66,0,0,0,164.64,93.16Z"/><polygon class="cls-3" points="58.51 73.88 58.51 121.8 61.39 121.8 61.38 101.08 79.05 101.08 79.05 121.8 82.66 121.8 82.66 101.11 58.51 73.88"/><polygon class="cls-3" points="44.03 57.56 39.4 57.56 39.39 71.32 51.43 71.32 51.43 88.23 39.39 88.23 39.39 96.69 51.43 96.69 51.43 121.8 56.02 121.8 56.02 71.07 44.03 57.56"/><polygon class="cls-3" points="82.66 92.87 82.66 57.56 79.05 57.56 79.05 80.19 62.85 61.92 62.85 57.56 58.51 57.56 58.51 65.65 82.66 92.87"/><polygon class="cls-3" points="87.52 121.8 101.02 121.8 87.52 106.58 87.52 121.8"/><polygon class="cls-3" points="56.02 57.56 51.33 57.56 56.02 62.84 56.02 57.56"/><path class="cls-3" d="M102.06,114.73V57.56H97.68v11.8H90.93V57.56H87.52V98.35ZM97.68,79.51v23.87L90.93,96V79.51Z"/><polygon class="cls-3" points="108.28 81.01 108.28 57.56 104.55 57.56 104.55 117.54 108.32 121.8 128.35 121.8 128.35 116.18 108.28 116.18 108.28 85.98 128.35 85.98 128.35 81.01 108.28 81.01"/><polygon class="cls-4" points="56.02 71.07 56.02 121.8 58.51 121.8 58.51 73.88 56.02 71.07"/><polygon class="cls-4" points="58.51 65.65 58.51 57.56 56.02 57.56 56.02 62.84 58.51 65.65"/><polygon class="cls-4" points="104.55 117.54 104.55 57.56 102.06 57.56 102.06 114.73 104.55 117.54"/><polygon class="cls-5" points="104.55 117.54 102.06 114.73 87.52 98.35 87.52 57.56 82.66 57.56 82.66 92.87 58.51 65.65 56.02 62.84 51.33 57.56 44.03 57.56 56.02 71.07 58.51 73.88 82.66 101.11 82.66 121.8 87.52 121.8 87.52 106.58 101.02 121.8 102.06 121.8 104.55 121.8 108.32 121.8 104.55 117.54"/><rect class="cls-5" x="108.28" y="57.56" width="20.07" height="23.45"/><rect class="cls-4" x="108.28" y="85.98" width="20.07" height="30.19"/><rect class="cls-4" x="90.93" y="57.56" width="6.75" height="11.8"/><polygon class="cls-6" points="97.68 103.38 97.68 79.51 90.93 79.51 90.93 96 97.68 103.38"/><rect class="cls-6" x="61.38" y="101.08" width="17.67" height="20.71"/><polygon class="cls-6" points="79.05 80.19 79.05 57.56 62.85 57.56 62.85 61.92 79.05 80.19"/><rect class="cls-5" x="39.39" y="71.32" width="12.03" height="16.92"/><rect class="cls-4" x="39.39" y="96.69" width="12.03" height="25.1"/><path class="cls-7" d="M74.94,44.78c0,14.93,17.29,31.81,17.29,31.81V28.1C82.68,28.1,74.94,35.56,74.94,44.78Z"/><path class="cls-8" d="M109.52,44.78c0,14.93-17.29,31.81-17.29,31.81V28.1C101.78,28.1,109.52,35.56,109.52,44.78Z"/><path class="cls-3" d="M80.77,45.08A11.46,11.46,0,0,0,92.23,56.54V33.63A11.45,11.45,0,0,0,80.77,45.08Z"/><path class="cls-6" d="M103.69,45.08A11.45,11.45,0,0,0,92.23,33.63V56.54A11.46,11.46,0,0,0,103.69,45.08Z"/><polygon class="cls-6" points="92.23 37.46 90.41 43.05 84.54 43.05 89.29 46.5 87.48 52.09 92.23 48.64 92.23 37.46"/><polygon class="cls-1" points="95.17 46.5 99.92 43.05 94.05 43.05 92.23 37.46 92.23 48.64 96.98 52.09 95.17 46.5"/></g></g></svg>