<svg xmlns="http://www.w3.org/2000/svg" viewBox="0 0 165.32 165.32"><defs><style>.cls-1{fill:#ffe89f;}.cls-2{fill:#f9c04c;}.cls-3{fill:#e57957;}.cls-4{fill:#3271cc;}.cls-5{fill:#2a303f;}.cls-6{fill:#fff;}.cls-7{fill:#92ceff;}</style></defs><title>Asset 9</title><g id="Layer_2" data-name="Layer 2"><g id="Layer_1-2" data-name="Layer 1"><path class="cls-1" d="M165.32,82.66A82.66,82.66,0,1,1,82.66,0,82.65,82.65,0,0,1,165.32,82.66Z"/><path class="cls-2" d="M162.22,105.09l-30.05-30-4.43,1.46L108.28,57.05,96.4,68.92l13.48,13.49L95,87.33,67.73,60.08l-12.42-3.4L41.87,72.46l-10.51,24,8.94,8.94-10.5,3.47,56.38,56.37A82.66,82.66,0,0,0,162.22,105.09Z"/><path class="cls-3" d="M98.61,106.94H127a6.63,6.63,0,0,0,6.61-6.62V88.47a5.37,5.37,0,0,0,0-.7l-5-5.72a6.56,6.56,0,0,0-1.54-.19H98.61A6.63,6.63,0,0,0,92,88.47v11.86A6.61,6.61,0,0,0,98.61,106.94Z"/><path class="cls-4" d="M78.17,84.74a12.06,12.06,0,0,0-11.45-8.33h-25l13.89-15.8a2,2,0,0,1,2.81-.14l9.08,8.45c.81.75,1.51.47,1.56-.65l.21-5a4.26,4.26,0,0,0-1.55-3.21l-9.14-6.7a2.64,2.64,0,0,0-3.15.15L30.56,77.64A20.27,20.27,0,0,0,27,84.38a12.51,12.51,0,0,0-.71,4.09v11.86a12.07,12.07,0,0,0,12.06,12.06h28.4a12.07,12.07,0,0,0,12.06-12.06V90.16c1.28,0,2.57-.06,3.88-.07V84.65C81.15,84.65,79.65,84.68,78.17,84.74Zm-4.84,5.71v9.88A6.63,6.63,0,0,1,66.72,107H38.32a6.63,6.63,0,0,1-6.61-6.62V88.47a5.37,5.37,0,0,1,0-.7l5-5.72a6.07,6.07,0,0,1,1.54-.19h28.4a6.62,6.62,0,0,1,6.61,6.61Z"/><path class="cls-5" d="M86.55,90.14v10.19a12.07,12.07,0,0,0,12.06,12.06H127a12.07,12.07,0,0,0,12.06-12.06V88.47a12,12,0,0,0-.72-4,19.63,19.63,0,0,0-3.58-6.79L109.88,53.53a2.63,2.63,0,0,0-3.14-.15l-9.15,6.7a4.28,4.28,0,0,0-1.54,3.21l.21,5c0,1.12.75,1.4,1.56.65l9.07-8.45a2,2,0,0,1,2.82.14l13.89,15.8h-25a12.07,12.07,0,0,0-11.45,8.31c-1.4,0-2.81-.08-4.24-.07h-.26v5.44h.26C84.15,90.09,85.36,90.11,86.55,90.14Zm5.45.27V88.47a6.63,6.63,0,0,1,6.61-6.61H127a6.56,6.56,0,0,1,1.54.19l5,5.72a5.37,5.37,0,0,1,0,.7v11.86A6.63,6.63,0,0,1,127,107H98.61A6.61,6.61,0,0,1,92,100.33Z"/><path class="cls-6" d="M66.72,81.86H38.32a6.62,6.62,0,0,0-6.61,6.61v11.86A6.63,6.63,0,0,0,38.32,107h28.4a6.63,6.63,0,0,0,6.61-6.62V88.47A6.62,6.62,0,0,0,66.72,81.86Z"/><path class="cls-7" d="M98.61,81.86H127a6.62,6.62,0,0,1,6.61,6.61v11.86A6.63,6.63,0,0,1,127,107H98.61A6.61,6.61,0,0,1,92,100.33V88.47A6.61,6.61,0,0,1,98.61,81.86Z"/></g></g></svg>