<svg xmlns="http://www.w3.org/2000/svg" viewBox="0 0 165.33 165.32"><defs><style>.cls-1{fill:#e57957;}.cls-2{fill:#c14727;}.cls-3{fill:#fff;}.cls-4{fill:#92ceff;}.cls-5{fill:#3271cc;}.cls-6{fill:#ffe89f;}.cls-7{fill:#f9c04c;}.cls-8{fill:#2a303f;}</style></defs><title>Asset 6</title><g id="Layer_2" data-name="Layer 2"><g id="Layer_1-2" data-name="Layer 1"><path class="cls-1" d="M165.33,82.66A82.67,82.67,0,1,1,82.66,0,82.66,82.66,0,0,1,165.33,82.66Z"/><path class="cls-2" d="M165.33,82.66a82.9,82.9,0,0,0-.6-9.76L126.64,34.81l-88,95.69,34.23,34.23a84.79,84.79,0,0,0,9.75.59A82.66,82.66,0,0,0,165.33,82.66Z"/><polygon class="cls-3" points="82.14 107.38 82.14 55.55 38.68 55.55 38.68 130.5 71.43 130.5 71.43 107.38 82.14 107.38"/><rect class="cls-4" x="38.68" y="34.81" width="43.46" height="20.74"/><rect class="cls-5" x="82.14" y="34.81" width="44.5" height="20.74"/><path class="cls-6" d="M44.44,50.63V39.89h1.81v4.66h5.33V39.89h1.81V50.63H51.58V46.24H46.25v4.39Z"/><path class="cls-6" d="M65.37,49.15a5.9,5.9,0,0,1-8.06,0,5.66,5.66,0,0,1,0-7.93,5.9,5.9,0,0,1,8.06,0,5.64,5.64,0,0,1,0,7.93ZM64,42.42a3.79,3.79,0,0,0-5.4,0,4,4,0,0,0,0,5.52,3.77,3.77,0,0,0,5.4,0,4,4,0,0,0,0-5.52Z"/><path class="cls-6" d="M73.05,41.55v9.08H71.24V41.55H68V39.89h8.33v1.66Z"/><path class="cls-7" d="M105.9,39.31h10.39a8,8,0,0,0-10.39,0Z"/><path class="cls-7" d="M103.5,42.84h15.19a7.75,7.75,0,0,0-1-1.91h-13.3A8.08,8.08,0,0,0,103.5,42.84Z"/><path class="cls-7" d="M103.07,45.42c0,.32,0,.64.06.95h15.92a6.55,6.55,0,0,0,0-1.91H103.14A7.48,7.48,0,0,0,103.07,45.42Z"/><path class="cls-7" d="M104.44,49.91h13.3a8.38,8.38,0,0,0,1-1.92H103.5A8.15,8.15,0,0,0,104.44,49.91Z"/><path class="cls-7" d="M111.09,53.44a8,8,0,0,0,5.2-1.92H105.9A7.94,7.94,0,0,0,111.09,53.44Z"/><rect class="cls-5" x="45.6" y="62.45" width="10.08" height="16.29"/><rect class="cls-5" x="61.35" y="62.45" width="10.08" height="16.29"/><rect class="cls-5" x="45.6" y="86.15" width="10.08" height="16.29"/><rect class="cls-5" x="61.35" y="86.15" width="10.08" height="16.29"/><rect class="cls-5" x="45.6" y="107.38" width="10.08" height="16.29"/><rect class="cls-5" x="82.14" y="107.38" width="10.71" height="23.12"/><path class="cls-4" d="M92.85,130.5h33.79V55.55H82.14v6.9h5V78.73h-5v7.42h5v16.29h-5v4.94H92.85Zm15.75-68h10.08V78.73H108.6Zm0,23.7h10.08v16.29H108.6Zm0,21.23h10.08v16.29H108.6ZM92.85,62.45h10.08V78.73H92.85Zm0,23.7h10.08v16.29H92.85Z"/><rect class="cls-5" x="77.1" y="62.45" width="5.04" height="16.29"/><rect class="cls-8" x="82.14" y="62.45" width="5.04" height="16.29"/><rect class="cls-8" x="92.85" y="62.45" width="10.08" height="16.29"/><rect class="cls-8" x="108.6" y="62.45" width="10.08" height="16.29"/><rect class="cls-5" x="77.1" y="86.15" width="5.04" height="16.29"/><rect class="cls-8" x="82.14" y="86.15" width="5.04" height="16.29"/><rect class="cls-8" x="92.85" y="86.15" width="10.08" height="16.29"/><rect class="cls-8" x="108.6" y="86.15" width="10.08" height="16.29"/><rect class="cls-4" x="71.43" y="107.38" width="10.71" height="23.12"/><rect class="cls-8" x="108.6" y="107.38" width="10.08" height="16.29"/><path class="cls-6" d="M60.52,115.25c0,4,1.53,7.2,3.41,7.2v-14.4C62.05,108.05,60.52,111.27,60.52,115.25Z"/><path class="cls-7" d="M67.35,115.25c0-4-1.53-7.2-3.42-7.2v14.4C65.82,122.45,67.35,119.23,67.35,115.25Z"/><polygon class="cls-4" points="63.93 130.5 61.37 130.5 59.69 121.72 63.93 121.72 63.93 130.5"/><polygon class="cls-5" points="63.93 130.5 66.5 130.5 68.18 121.72 63.93 121.72 63.93 130.5"/><path class="cls-6" d="M96.93,115.25c0,4,1.53,7.2,3.42,7.2v-14.4C98.46,108.05,96.93,111.27,96.93,115.25Z"/><path class="cls-7" d="M103.77,115.25c0-4-1.53-7.2-3.42-7.2v14.4C102.24,122.45,103.77,119.23,103.77,115.25Z"/><polygon class="cls-5" points="100.35 130.5 97.78 130.5 96.1 121.72 100.35 121.72 100.35 130.5"/><polygon class="cls-8" points="100.35 130.5 102.91 130.5 104.59 121.72 100.35 121.72 100.35 130.5"/><polygon class="cls-6" points="80.09 48.93 80.09 46.05 82.14 46.05 82.14 44.44 80.09 44.44 80.09 41.6 82.14 41.6 82.14 39.89 78.28 39.89 78.28 50.63 82.14 50.63 82.14 48.93 80.09 48.93"/><rect class="cls-7" x="82.14" y="44.44" width="3.1" height="1.62"/><rect class="cls-7" x="82.14" y="39.89" width="3.68" height="1.71"/><rect class="cls-7" x="82.14" y="48.93" width="3.87" height="1.71"/><polygon class="cls-7" points="90.14 39.89 88.33 39.89 88.33 50.63 95.04 50.63 95.04 48.91 90.14 48.91 90.14 39.89"/></g></g></svg>