<svg xmlns="http://www.w3.org/2000/svg" viewBox="0 0 165.33 165.32"><defs><style>.cls-1{fill:#ffe89f;}.cls-2{fill:#f9c04c;}.cls-3{fill:#3271cc;}.cls-4{fill:#2a303f;}.cls-5{fill:#fff;}.cls-6{fill:#92ceff;}.cls-7{fill:#e57957;}.cls-8{fill:#c14727;}</style></defs><title>Asset 1</title><g id="Layer_2" data-name="Layer 2"><g id="Layer_1-2" data-name="Layer 1"><path class="cls-1" d="M165.33,82.66A82.67,82.67,0,1,1,82.66,0,82.66,82.66,0,0,1,165.33,82.66Z"/><path class="cls-2" d="M164.17,96.38,128,60.18l-7,4.14L108.61,51.93,84.93,74.7,58.7,48.48l-16,16L71.8,93.53,37.87,113.68,89.23,165A82.67,82.67,0,0,0,164.17,96.38Z"/><path class="cls-3" d="M47.09,55.85a13,13,0,0,0-13,13v35.58a13,13,0,0,0,13,13H76.85V55.85Z"/><path class="cls-4" d="M131.28,104.46V68.88a13,13,0,0,0-13-13H76.85V117.5h41.39A13,13,0,0,0,131.28,104.46Z"/><path class="cls-5" d="M89.86,75.06a16.42,16.42,0,0,1,23.23,0L116,72.18a20.5,20.5,0,0,0-29,29l2.88-2.88A16.42,16.42,0,0,1,89.86,75.06Z"/><path class="cls-6" d="M116,101.17a20.51,20.51,0,0,0,0-29l-2.89,2.88A16.43,16.43,0,1,1,89.86,98.29L87,101.17A20.5,20.5,0,0,0,116,101.17Z"/><path class="cls-7" d="M89.86,75.06a16.42,16.42,0,0,0,0,23.23L92.17,96a13.16,13.16,0,0,1,18.61-18.61l2.31-2.31A16.42,16.42,0,0,0,89.86,75.06Z"/><path class="cls-8" d="M110.78,96a13.17,13.17,0,0,1-18.61,0l-2.31,2.31a16.43,16.43,0,1,0,23.23-23.23l-2.31,2.31A13.16,13.16,0,0,1,110.78,96Z"/><path class="cls-5" d="M92.17,77.37a13.18,13.18,0,0,0,0,18.61l18.61-18.61A13.16,13.16,0,0,0,92.17,77.37Z"/><path class="cls-6" d="M110.78,96a13.16,13.16,0,0,0,0-18.61L92.17,96A13.17,13.17,0,0,0,110.78,96Z"/><rect class="cls-5" x="43.75" y="66.91" width="20.53" height="13.22"/><path class="cls-5" d="M60.69,55.85V52.33a4.51,4.51,0,0,0-4.51-4.51H51.86a4.51,4.51,0,0,0-4.51,4.51v3.52Z"/><path class="cls-8" d="M101.21,50.05H99.09c-4.36,0-7.9,1.3-7.91,2.9v2.9h17.94V53C109.12,51.35,105.58,50.05,101.21,50.05Z"/></g></g></svg>