<svg xmlns="http://www.w3.org/2000/svg" viewBox="0 0 165.32 165.32"><defs><style>.cls-1{fill:#3271cc;}.cls-2{fill:#2a303f;}.cls-3{fill:#65a2ea;}.cls-4{fill:#92ceff;}.cls-5{fill:#ffe89f;}.cls-6{fill:#e57957;}.cls-7{fill:#c14727;}.cls-8{fill:#f9c04c;}</style></defs><title>Asset 3</title><g id="Layer_2" data-name="Layer 2"><g id="Layer_1-2" data-name="Layer 1"><path class="cls-1" d="M165.32,82.66A82.66,82.66,0,1,1,82.66,0,82.66,82.66,0,0,1,165.32,82.66Z"/><path class="cls-2" d="M164.33,95.46l-50-49.93L80.19,105.75l-2.91,26.72,29.32,29.32A82.75,82.75,0,0,0,164.33,95.46Z"/><rect class="cls-3" x="77.29" y="114.88" width="1.66" height="13.65"/><rect class="cls-4" x="86.37" y="114.88" width="1.67" height="13.65"/><rect class="cls-4" x="77.28" y="124.54" width="5.38" height="7.92"/><rect class="cls-3" x="82.66" y="124.54" width="5.38" height="7.92"/><path class="cls-5" d="M54.85,64c0-17.23,12.46-31.19,27.81-31.19-21.76,0-39.41,14-39.41,31.19,0,22.58,25.75,47.53,35.62,56.26H80C73,111.57,54.84,86.62,54.85,64Z"/><path class="cls-6" d="M54.85,64C54.84,86.62,73,111.57,80,120.3h1.34C77.85,111.57,68.79,86.62,68.79,64c0-17.23,6.21-31.19,13.87-31.19C67.31,32.85,54.84,46.81,54.85,64Z"/><path class="cls-5" d="M68.79,64c0,22.58,9.06,47.53,12.54,56.26h1.33V32.85C75,32.85,68.79,46.81,68.79,64Z"/><path class="cls-7" d="M122.07,64c0-17.23-17.65-31.19-39.41-31.19,15.36,0,27.82,14,27.82,31.19,0,22.58-18.18,47.53-25.14,56.26h1.11C96.32,111.57,122.07,86.62,122.07,64Z"/><path class="cls-8" d="M96.54,64c0,22.58-9.07,47.53-12.54,56.26h1.34c7-8.73,25.14-33.68,25.14-56.26,0-17.23-12.46-31.19-27.82-31.19C90.32,32.85,96.54,46.81,96.54,64Z"/><path class="cls-7" d="M84,120.3C87.47,111.57,96.54,86.62,96.54,64c0-17.23-6.22-31.19-13.88-31.19V120.3Z"/></g></g></svg>