<svg xmlns="http://www.w3.org/2000/svg" xmlns:xlink="http://www.w3.org/1999/xlink" viewBox="0 0 231.26 224"><defs><style>.cls-1{fill:url(#linear-gradient);}.cls-2{fill:url(#linear-gradient-2);}.cls-3{fill:url(#linear-gradient-3);}.cls-4{fill:url(#linear-gradient-4);}.cls-5{fill:#fff;}</style><linearGradient id="linear-gradient" x1="-1.48" y1="192.69" x2="232.95" y2="192.69" gradientUnits="userSpaceOnUse"><stop offset="0" stop-color="#2ea1e5"/><stop offset="1" stop-color="#57c0f0"/></linearGradient><linearGradient id="linear-gradient-2" x1="3.63" y1="77.88" x2="224.88" y2="77.88" gradientUnits="userSpaceOnUse"><stop offset="0" stop-color="#fea12a"/><stop offset="1" stop-color="#fecd2a"/></linearGradient><linearGradient id="linear-gradient-3" x1="172.63" y1="77.71" x2="227.63" y2="77.71" xlink:href="#linear-gradient-2"/><linearGradient id="linear-gradient-4" x1="-1.48" y1="157.23" x2="232.95" y2="157.23" xlink:href="#linear-gradient"/></defs><title>travel-logo</title><g id="Layer_2" data-name="Layer 2"><g id="OBJECTS"><path class="cls-1" d="M198.65,187.17a112.46,112.46,0,0,1-16.53,15h0c-.64-.21-1.51-.5-2.57-.8a83.89,83.89,0,0,0-10.12-2.27c-2.11-.34-4.4-.67-6.82-.9-1.22-.12-2.47-.23-3.75-.29s-2.59-.13-3.91-.16-2.68,0-4,0-2.74.08-4.13.15c-.7,0-1.37,0-2.11.13l-2,.19c-1.38.11-2.81.33-4.21.49-5.57.74-11,1.81-16.15,2.85s-9.86,2-14,2.76c-2,.36-3.92.64-5.6.86s-3.13.37-4.34.42-2.16.1-2.82.1h-1l1,.06c.66,0,1.61.1,2.82.09s2.7,0,4.4-.12,3.59-.27,5.68-.49c4.15-.45,9-1.15,14.13-1.84s10.65-1.38,16.14-1.73c1.37-.07,2.69-.18,4.1-.2l2.07-.06c.62,0,1.33,0,2,0,1.33,0,2.67,0,4,.1s2.6.12,3.88.24,2.52.22,3.73.38,2.41.3,3.57.49c2.3.34,4.46.79,6.44,1.23a79.21,79.21,0,0,1,8,2.23A112,112,0,0,1,37.84,192.59c1.37-.47,2.91-.94,4.6-1.46,2.64-.76,5.65-1.58,9-2.33s7-1.48,10.83-2.07c1.93-.31,3.92-.61,6-.83l3.09-.37,3.17-.27c2.14-.2,4.32-.31,6.51-.4s4.44-.15,6.7-.16c1.12,0,2.29,0,3.36,0l3.47.1c2.33,0,4.57.21,6.87.32,4.6.32,9.22.74,13.75,1.26s9,1.07,13.33,1.66L141,189.73c4,.53,7.74,1,11.23,1.37l5,.49,4.52.34c2.85.14,5.33.26,7.37.22s3.65-.1,4.74-.16l1.67-.1h-1.67c-1.09,0-2.7,0-4.73-.17s-4.48-.38-7.3-.7l-4.46-.63-4.93-.82c-3.43-.62-7.15-1.33-11.06-2.12L129,184.92c-4.29-.87-8.73-1.76-13.26-2.57s-9.18-1.57-13.85-2.21c-2.34-.26-4.74-.61-7-.82-1.15-.09-2.3-.2-3.46-.31s-2.36-.14-3.53-.22c-2.33-.12-4.64-.26-6.93-.26s-4.56-.07-6.78,0l-3.32.08-3.24.18c-2.15.11-4.24.28-6.28.49-4.07.38-7.91.92-11.45,1.5s-6.77,1.25-9.62,1.89-5.32,1.32-7.35,1.92c-.73.2-1.4.41-2,.6a111.67,111.67,0,0,1-14.82-21.9c5.11-1.17,12-1.94,21.39-1.94,40.05,0,99,14.37,127.39,21.29L166,183a132.6,132.6,0,0,0,30.85,4.22Z"/><path class="cls-2" d="M224.88,136.71a110.15,110.15,0,0,1-6.13,19c-13-.33-30.94-5.34-51.58-11.1l-.76-.21,44.78-1.37-66.38-4.52c-4.79-1.25-9.65-2.47-14.57-3.6h0c-20.5-35.16-29.44-119.74-29.44-119.74-34,39.85-35.61,102.06-35.64,112.19-1.31,0-2.6.11-3.86.19C61.69,56.32,94.5,17.68,96.56,15.32c-37.44,36.36-42.48,104.37-43,112.92-22,2.4-36.3,9-45.35,15.62A112.06,112.06,0,0,1,3.63,112,109.78,109.78,0,0,1,5,94.41l31.88-1L5.55,91.3a111.13,111.13,0,0,1,13-35.17L66,54.69l-44.7-3a112,112,0,0,1,156.4-32.89c-9.39,3-9,13.78-8.1,19.43-4.29-5.7-14.58-16.24-31.48-14.87-28.71,2.34-23.67,35.76-23.67,35.76a49.28,49.28,0,0,1,6.16-9.41,24.14,24.14,0,0,1-.71-12.29s.35,7.91,1.62,11.17A48.71,48.71,0,0,1,127,43.11c-.37-2.53-1.35-8.55.3-13.15,0,0-.63,7.51.88,12.18a36.26,36.26,0,0,1,13.17-6.65c14.27-3.74,23.09,1.88,26.25,4.49-5.13-1.57-13.94-2.82-21.66,3.36-14.19,11.36-7.49,34.54-7.49,34.54a53.52,53.52,0,0,1,6.49-17.26,21.1,21.1,0,0,1-3.59-7.91,28.94,28.94,0,0,0,4.26,6.8,46.36,46.36,0,0,1,3.64-5.06,27.15,27.15,0,0,1-4.54-6.74c.23.26,3.39,3.79,5.39,5.72a43.1,43.1,0,0,1,4.29-4.25,22.78,22.78,0,0,1,8.11-4.49,14.37,14.37,0,0,0-3.86,7.4C154.17,70.63,169,87.58,169,87.58a179.86,179.86,0,0,1-1.28-19.47,54.19,54.19,0,0,1-8-6.74c.33.23,4.88,3.45,8,5.12,0-8.4.85-17.26,3.7-22.36a84,84,0,0,1,5.39,7.08c-.27.29-.42.48-.42.48,2.71,3.62,6.21,9,6.63,9.6,0,0,0,0,0,.07-.43.42-.69.69-.69.69,3.16,5.16,6.56,11.41,7,12.14,0,0,0,0,0,.06a10.67,10.67,0,0,0-.94.75c1.28,1.92,5.36,11.29,5.88,12.46a.17.17,0,0,0,0,.07l-.91.41c1.48,3.43,4.29,12.08,4.68,13.29,0,0,0,.11,0,.16l-1,.32c.94,2.61,3.33,12.88,3.65,14.25a.51.51,0,0,0,0,.17l-.88.13c.71,3,2.14,13.71,2.36,15.33,0,.09,0,.15,0,.24l-42.56,2.91Z"/><path class="cls-3" d="M227.63,112a111.6,111.6,0,0,1-1.48,18.21l-11.43.77a8.54,8.54,0,0,0,0-.95c0-4.26-1.35-15.73-1.35-15.73l-.88.12c-.22-2.58-2.68-15.44-2.68-15.44-.32,0-.64,0-1,0-1-4.4-4-14.49-4-14.49l-1,.11C202.3,79.13,198,70.58,198,70.58l-.86.17h0a57.27,57.27,0,0,0-4.59-8.24c-1.71-2.68-3.21-4.79-3.21-4.79a7.44,7.44,0,0,0-.78.2c-.75-1.21-2.7-3.63-4.44-5.76s-3.32-3.93-3.32-3.93c-.25.11-.48.23-.71.35a80,80,0,0,0-7.46-6.3c5.64-2.52,10.66.64,14.72,5.51a42.24,42.24,0,0,0,1.1-5.05,22.28,22.28,0,0,1-.35,6,45.33,45.33,0,0,1,3.14,4.67s1.13-5.91,1-8.34a36.81,36.81,0,0,1-.3,9.46c.8,1.42,1.52,2.82,2.18,4.17a54.43,54.43,0,0,0,.84-7.74,36.18,36.18,0,0,1-.3,8.89A79,79,0,0,1,198,68s1.43-22.25-7.87-30.76c-10.16-9.32-16.49.4-17.45,2a13.24,13.24,0,0,1,4.8-8.21,12.91,12.91,0,0,1,4.75-2.19,33.4,33.4,0,0,0-4.29-4.39,52.75,52.75,0,0,1,5.61,4.18c5.36-.51,9.93,2.94,12.12,5l.26.25a2.08,2.08,0,0,1,.21.21l.39.4.15.16c.16.15.25.27.32.34l0,0h0v0A111.61,111.61,0,0,1,227.63,112Z"/><path class="cls-4" d="M0,163.18s11.46-29.76,74.1-29.08S203.35,170.33,231.26,161c0,0-3.63,30-63.66,15.32C127.8,166.63,25.42,141.39,0,163.18Z"/><path class="cls-5" d="M123.75,14.86s-.37-1.37-3-2.31-7.27-3.8-7.81-4.64-2-2.14-2.25-2.52-.59.83.35,2a28,28,0,0,1,2.43,3.31,8.78,8.78,0,0,0,5,4.3c2.88.74,4.28,1.17,4.23,1.54a1.2,1.2,0,0,1-1.17.89c-.63,0-2.34-.38-2.44,0s1.3,3.34,3.37,3.66a6.13,6.13,0,0,0,4.32-1c.24-.29-1.48-.34-1.33-1s1.08-.48,1.53-1,1.84-.46,2.2-.5-.21-.29-.21-.29,2.91-.18,4.13-.22,4-.92,4.88-.78,7.78-1.41,8-2c.14-.38-1.08.08-2.18.32a20.59,20.59,0,0,1-6.15.33,24.58,24.58,0,0,0-4.41-.66,34.52,34.52,0,0,0-4.43,1.19,13.83,13.83,0,0,1-1.59.3,4.89,4.89,0,0,0-1.36-.89A8.41,8.41,0,0,0,123.75,14.86Z"/><path class="cls-5" d="M164.15,100.24s-.35-.45-.78-.34a4,4,0,0,1-1,.24,2,2,0,0,1-1.67-1.3c-.35-1.07.13-2.72-.76-3.09a14.83,14.83,0,0,0-6.14-.56c-2.8.28-3,.22-2.15.87a5.62,5.62,0,0,0,2.8.84,3.75,3.75,0,0,1,1.93.46,11.16,11.16,0,0,1,1.28,2.3,11.48,11.48,0,0,1,1.37,2.8,1.66,1.66,0,0,1-1.11,1.06c-.56.2-1,.31-.93.5s.71.46,1,.65.61.53.76.31.5-.91,1.15-1.11a6,6,0,0,0,2.09-.72,6.38,6.38,0,0,0,1.86-1.74c.13-.15.57.12.79.38a5.84,5.84,0,0,0,1.12,1.41c.61.45.81,1.26,1.26,1.39s.29-1.85.26-2.82a3.2,3.2,0,0,0-.43-1.94c-.33-.47-.69-.58-1-.39A6.44,6.44,0,0,1,164.15,100.24Z"/></g></g></svg>