<svg xmlns="http://www.w3.org/2000/svg" viewBox="0 0 101.16 100"><defs><style>.cls-1{fill:#fff;}.cls-2{fill:#009de4;}</style></defs><title>Asset 46</title><g id="Layer_2" data-name="Layer 2"><g id="_1" data-name="1"><rect class="cls-1" width="101.16" height="100"/><g id="_471_hotel_sign_board_direction" data-name="471, hotel , sign ,board, direction"><path class="cls-2" d="M37,56v2.6h2.53V56h1.52v6.7H39.55V59.9H37v2.8H35.51V56Z"/><path class="cls-2" d="M48.76,59.3c0,2.2-1.32,3.6-3.34,3.6a3.17,3.17,0,0,1-3.24-3.4A3.28,3.28,0,0,1,45.52,56,3,3,0,0,1,48.76,59.3Zm-5,.1c0,1.3.61,2.3,1.62,2.3S47,60.7,47,59.4s-.61-2.3-1.62-2.3S43.8,58,43.8,59.4Z"/><path class="cls-2" d="M50.78,57.2H49V56h5.26v1.3H52.4v5.5H50.88V57.2Z"/><path class="cls-2" d="M59.08,59.9H56.55v1.6h2.83v1.3H55V56h4.25v1.3H56.65v1.4h2.53l-.1,1.2Z"/><path class="cls-2" d="M60.39,56h1.52v5.5h2.73v1.3H60.39Z"/><path class="cls-2" d="M77.59,72.1h-55a1.23,1.23,0,0,1-1.22-1.2V37.3a1.23,1.23,0,0,1,1.22-1.2h55a1.22,1.22,0,0,1,1.21,1.2V70.9A1.16,1.16,0,0,1,77.59,72.1ZM23.67,69.8H76.38V38.5H23.67Z"/><path class="cls-2" d="M72.94,67.5H27.21A1.22,1.22,0,0,1,26,66.3V42a1.22,1.22,0,0,1,2.43,0V65.2H71.82V42a1.22,1.22,0,0,1,2.43,0V66.3C74.05,66.9,73.54,67.5,72.94,67.5Z"/><rect class="cls-2" x="29.54" y="61.7" width="2.33" height="2.3"/><rect class="cls-2" x="68.28" y="61.7" width="2.33" height="2.3"/><rect class="cls-2" x="29.54" y="40.8" width="2.33" height="2.3"/><rect class="cls-2" x="68.28" y="40.8" width="2.33" height="2.3"/><path class="cls-2" d="M50.38,52.4h0a1.14,1.14,0,0,1-.81-.3L48.46,51H46.84a1.23,1.23,0,0,1-1.22-1.2V48.2l-1.11-1.1a1,1,0,0,1,0-1.6l1.11-1.1V42.8a1.23,1.23,0,0,1,1.22-1.2h1.62l1.11-1.1a1.14,1.14,0,0,1,.81-.3,1.18,1.18,0,0,1,.81.3l1.11,1.1h1.62a1.22,1.22,0,0,1,1.21,1.2v1.6l1.11,1.1a1,1,0,0,1,0,1.6l-1.11,1.1v1.6A1.22,1.22,0,0,1,53.92,51H52.3l-1.11,1.1A1.18,1.18,0,0,1,50.38,52.4Zm-2.33-3.8H49a1.16,1.16,0,0,1,.81.3l.61.6.6-.6a1.18,1.18,0,0,1,.81-.3h.91v-.9a1.14,1.14,0,0,1,.31-.8l.6-.6-.6-.6a1.14,1.14,0,0,1-.31-.8V44h-.91a1.18,1.18,0,0,1-.81-.3l-.6-.7-.61.6A.93.93,0,0,1,49,44h-.91v.9a1.14,1.14,0,0,1-.3.8l-.61.6.61.6a1.14,1.14,0,0,1,.3.8v.9Z"/><path class="cls-2" d="M75.26,33.9H26.1a1.2,1.2,0,1,1,0-2.4H75.26a1.23,1.23,0,0,1,1.22,1.2A1.3,1.3,0,0,1,75.26,33.9Z"/><path class="cls-2" d="M75.26,29.2H26.1a1.2,1.2,0,1,1,0-2.4H75.26a1.2,1.2,0,1,1,0,2.4Z"/><path class="cls-2" d="M31.87,38.5a1.23,1.23,0,0,1-1.22-1.2V28a1.22,1.22,0,0,1,2.43,0v9.3A1.16,1.16,0,0,1,31.87,38.5Z"/><path class="cls-2" d="M69.4,38.5a1.23,1.23,0,0,1-1.22-1.2V28a1.23,1.23,0,0,1,1.22-1.2A1.16,1.16,0,0,1,70.61,28v9.3A1.16,1.16,0,0,1,69.4,38.5Z"/></g></g></g></svg>