<svg xmlns="http://www.w3.org/2000/svg" viewBox="0 0 101.16 100"><defs><style>.cls-1{fill:#fff;}.cls-2{fill:#009de4;}</style></defs><title>Asset 32</title><g id="Layer_2" data-name="Layer 2"><g id="_1" data-name="1"><rect class="cls-1" width="101.16" height="100"/><g id="_463_lighthouse_building_navigation_house" data-name="463, lighthouse, building, navigation, house"><path class="cls-2" d="M61.81,76.1H38.34a1.24,1.24,0,0,1-.91-.4,1.08,1.08,0,0,1-.31-.9l3.55-31.3a1.19,1.19,0,0,1,1.21-1H58.27a1.2,1.2,0,0,1,1.21,1L63,74.7v.2A1.3,1.3,0,0,1,61.81,76.1ZM39.65,73.8H60.49l-3.23-29H42.89Z"/><path class="cls-2" d="M58.27,44.9H41.88a1.22,1.22,0,0,1-1.21-1.2V36.8a1.22,1.22,0,0,1,1.21-1.2H58.27a1.22,1.22,0,0,1,1.21,1.2v6.9A1.3,1.3,0,0,1,58.27,44.9ZM43.09,42.6H57.15V38H43.09Z"/><path class="cls-2" d="M58.27,37.9H41.88a1.22,1.22,0,0,1-1.21-1.2V32.1a1.22,1.22,0,0,1,1.21-1.2H58.27a1.22,1.22,0,0,1,1.21,1.2v4.6A1.22,1.22,0,0,1,58.27,37.9ZM43.09,35.6H57.15V33.3H43.09Z"/><path class="cls-2" d="M58.27,37.9H41.88a1.22,1.22,0,0,1-1.21-1.2V32.1a9.41,9.41,0,0,1,18.81,0v4.6A1.22,1.22,0,0,1,58.27,37.9ZM43.09,35.6H57.15V32.1a7,7,0,0,0-14,0l-.1,3.5Z"/><path class="cls-2" d="M54.73,76.1H45.32a1.23,1.23,0,0,1-1.22-1.2V66.8a5.87,5.87,0,0,1,11.74,0V75A1,1,0,0,1,54.73,76.1Zm-8.2-2.3h7.08V66.9a3.54,3.54,0,0,0-7.08,0Z"/><path class="cls-2" d="M75.87,76.1H24.28a1.23,1.23,0,0,1-1.22-1.2,1.17,1.17,0,0,1,1.22-1.2H75.87a1.22,1.22,0,0,1,1.21,1.2A1.29,1.29,0,0,1,75.87,76.1Z"/><path class="cls-2" d="M50.07,56.4a4.6,4.6,0,1,1,0-9.2,4.69,4.69,0,0,1,4.66,4.6A4.56,4.56,0,0,1,50.07,56.4Zm0-6.9a2.3,2.3,0,1,0,2.33,2.3A2.27,2.27,0,0,0,50.07,49.5Z"/><path class="cls-2" d="M61.81,36.8a1.24,1.24,0,0,1-1-.5,1.14,1.14,0,0,1,.4-1.6l9.41-5.8a1.18,1.18,0,0,1,1.62.4,1.15,1.15,0,0,1-.41,1.6l-9.41,5.8C62.21,36.7,62,36.8,61.81,36.8Z"/><path class="cls-2" d="M71.11,47.2a1.42,1.42,0,0,1-.6-.2L61.1,41.2a1.23,1.23,0,0,1-.4-1.6,1.27,1.27,0,0,1,1.61-.4L71.82,45a1.25,1.25,0,0,1,.41,1.6A1.42,1.42,0,0,1,71.11,47.2Z"/><path class="cls-2" d="M38.34,36.8a1.46,1.46,0,0,1-.61-.2l-9.41-5.8a1.25,1.25,0,0,1-.4-1.6,1.28,1.28,0,0,1,1.62-.4L39,34.6a1.25,1.25,0,0,1,.4,1.6A1.11,1.11,0,0,1,38.34,36.8Z"/><path class="cls-2" d="M29,47.2a1.25,1.25,0,0,1-1-.5,1.15,1.15,0,0,1,.41-1.6l9.4-5.8a1.18,1.18,0,0,1,1.62.4,1.15,1.15,0,0,1-.4,1.6L29.64,47A1.46,1.46,0,0,1,29,47.2Z"/><path class="cls-2" d="M59.48,59.9H53.61a1.2,1.2,0,1,1,0-2.4h5.87a1.23,1.23,0,0,1,1.22,1.2A1.31,1.31,0,0,1,59.48,59.9Z"/><path class="cls-2" d="M46.53,59.9H40.67a1.2,1.2,0,1,1,0-2.4h5.86a1.23,1.23,0,0,1,1.22,1.2A1.17,1.17,0,0,1,46.53,59.9Z"/><path class="cls-2" d="M72.33,39.1h-7a1.2,1.2,0,1,1,0-2.4h7a1.2,1.2,0,1,1,0,2.4Z"/><path class="cls-2" d="M34.8,39.1h-7a1.2,1.2,0,1,1,0-2.4h7A1.22,1.22,0,0,1,36,37.9,1.16,1.16,0,0,1,34.8,39.1Z"/></g></g></g></svg>