<svg xmlns="http://www.w3.org/2000/svg" viewBox="0 0 101.16 100"><defs><style>.cls-1{fill:#fff;}.cls-2{fill:#009de4;}</style></defs><title>Asset 48</title><g id="Layer_2" data-name="Layer 2"><g id="_1" data-name="1"><rect class="cls-1" width="101.16" height="100"/><g id="_473_luggage_bag_handbag_hotel" data-name="473, luggage, bag , handbag, hotel"><path class="cls-2" d="M48.35,37.3H34.29a1.22,1.22,0,0,1-1.21-1.2V24.6a1.22,1.22,0,0,1,1.21-1.2H48.35a1.23,1.23,0,0,1,1.22,1.2V36.2A1.29,1.29,0,0,1,48.35,37.3ZM35.41,35H47.14V25.7H35.41Z"/><path class="cls-2" d="M57.66,46.6H24.89a1.23,1.23,0,0,1-1.22-1.2V39.1a4.16,4.16,0,0,1,4.15-4.2H54.73a4.16,4.16,0,0,1,4.14,4.2v6.3A1.16,1.16,0,0,1,57.66,46.6ZM26.1,44.3H56.55V39.2a1.8,1.8,0,0,0-1.82-1.8H27.82A1.8,1.8,0,0,0,26,39.2l.1,5.1Z"/><path class="cls-2" d="M48.35,65.1a1.22,1.22,0,0,1-1.21-1.2V45.4a1.22,1.22,0,0,1,2.43,0V64A1.29,1.29,0,0,1,48.35,65.1Z"/><rect class="cls-2" x="36.62" y="39.7" width="2.33" height="2.3"/><rect class="cls-2" x="40.16" y="39.7" width="2.33" height="2.3"/><rect class="cls-2" x="43.6" y="39.7" width="2.33" height="2.3"/><path class="cls-2" d="M52,75.6H27.82a4,4,0,0,1-4.15-3.8V45.4a1.23,1.23,0,0,1,1.22-1.2H57.66a1.22,1.22,0,0,1,1.21,1.2v9.3a1.22,1.22,0,0,1-1.21,1.2H51.89a2.44,2.44,0,0,0-2.42,2.4V70.8a2.44,2.44,0,0,0,2.42,2.4,1.23,1.23,0,0,1,1.22,1.2A1.21,1.21,0,0,1,52,75.6Zm-25.9-29V71.8a1.7,1.7,0,0,0,1.82,1.5H47.85a4.72,4.72,0,0,1-.71-2.4V58.3a4.72,4.72,0,0,1,4.75-4.7h4.56V46.7L26.1,46.6Z"/><path class="cls-2" d="M65.85,55.9H57.66a1.22,1.22,0,0,1-1.21-1.2V50.1a1.22,1.22,0,0,1,1.21-1.2h8.19a1.23,1.23,0,0,1,1.22,1.2v4.6A1.17,1.17,0,0,1,65.85,55.9Zm-7-2.3h5.87V51.3H58.87Z"/><path class="cls-2" d="M48.35,30.4H34.29a1.22,1.22,0,0,1-1.21-1.2A1.16,1.16,0,0,1,34.29,28H48.35a1.2,1.2,0,1,1,0,2.4Z"/><path class="cls-2" d="M69.6,75.6H52a4.73,4.73,0,0,1-4.76-4.7V58.3A4.73,4.73,0,0,1,52,53.6H71.72a4.73,4.73,0,0,1,4.76,4.7V68.8a1.27,1.27,0,0,1-.41.9,1.25,1.25,0,0,1-1,.2,2.83,2.83,0,0,0-.91-.1,3.56,3.56,0,0,0-3.54,3.5,2.77,2.77,0,0,0,.1.9,1.23,1.23,0,0,1-.2,1A1.52,1.52,0,0,1,69.6,75.6ZM52,55.9a2.45,2.45,0,0,0-2.43,2.4V70.8A2.45,2.45,0,0,0,52,73.2H68.28a5.84,5.84,0,0,1,5.87-5.8V58.2a2.45,2.45,0,0,0-2.43-2.4H52Z"/><path class="cls-2" d="M71.62,75.6H69.5a1.19,1.19,0,0,1-1.12-.9,7.84,7.84,0,0,1-.2-1.4,5.84,5.84,0,0,1,5.87-5.8,6,6,0,0,1,1.41.2,1.18,1.18,0,0,1,.92,1.1v2.1A4.73,4.73,0,0,1,71.62,75.6Zm-1-2.4h1a2.45,2.45,0,0,0,2.43-2.4v-1A3.39,3.39,0,0,0,70.61,73.2Z"/><path class="cls-2" d="M74.05,61.7a5.84,5.84,0,0,1-5.87-5.8,5.9,5.9,0,0,1,.2-1.4,1.19,1.19,0,0,1,1.12-.9h2.12a4.73,4.73,0,0,1,4.76,4.7v2.1a1.18,1.18,0,0,1-.92,1.1A6,6,0,0,1,74.05,61.7Zm-3.44-5.8a3.56,3.56,0,0,0,3.54,3.5v-1A2.45,2.45,0,0,0,71.72,56H70.61Z"/><path class="cls-2" d="M54,75.6H51.89a4.72,4.72,0,0,1-4.75-4.7V68.8a1.17,1.17,0,0,1,.91-1.1,8,8,0,0,1,1.42-.2,5.84,5.84,0,0,1,5.86,5.8,5.9,5.9,0,0,1-.2,1.4A1.18,1.18,0,0,1,54,75.6Zm-4.55-5.8v1a2.44,2.44,0,0,0,2.42,2.4h1A3.33,3.33,0,0,0,49.47,69.8Z"/><path class="cls-2" d="M49.47,61.7a6.08,6.08,0,0,1-1.42-.2,1.17,1.17,0,0,1-.91-1.1V58.3a4.72,4.72,0,0,1,4.75-4.7H54a1.18,1.18,0,0,1,1.11.9,7.84,7.84,0,0,1,.2,1.4A5.84,5.84,0,0,1,49.47,61.7ZM52,55.9a2.45,2.45,0,0,0-2.43,2.4v1a3.56,3.56,0,0,0,3.54-3.5H52Z"/><path class="cls-2" d="M43.6,53.6H24.89a1.23,1.23,0,0,1-1.22-1.2,1.17,1.17,0,0,1,1.22-1.2H43.6a1.22,1.22,0,0,1,1.21,1.2A1.16,1.16,0,0,1,43.6,53.6Z"/><path class="cls-2" d="M43.6,58.2H24.89A1.23,1.23,0,0,1,23.67,57a1.17,1.17,0,0,1,1.22-1.2H43.6A1.22,1.22,0,0,1,44.81,57,1.16,1.16,0,0,1,43.6,58.2Z"/><path class="cls-2" d="M43.6,62.8H24.89a1.2,1.2,0,1,1,0-2.4H43.6a1.22,1.22,0,0,1,1.21,1.2A1.16,1.16,0,0,1,43.6,62.8Z"/><path class="cls-2" d="M43.6,67.5H24.89a1.23,1.23,0,0,1-1.22-1.2,1.17,1.17,0,0,1,1.22-1.2H43.6a1.2,1.2,0,1,1,0,2.4Z"/><path class="cls-2" d="M70.61,65.1H48.35a1.22,1.22,0,0,1-1.21-1.2,1.16,1.16,0,0,1,1.21-1.2H70.61a1.2,1.2,0,1,1,0,2.4Z"/><path class="cls-2" d="M59.48,75.6a1.22,1.22,0,0,1-1.21-1.2V54.7a1.22,1.22,0,0,1,2.43,0V74.4A1.4,1.4,0,0,1,59.48,75.6Z"/></g></g></g></svg>