<svg xmlns="http://www.w3.org/2000/svg" viewBox="0 0 101.16 100"><defs><style>.cls-1{fill:#fff;}.cls-2{fill:#009de4;}</style></defs><title>Asset 34</title><g id="Layer_2" data-name="Layer 2"><g id="_1" data-name="1"><rect class="cls-1" width="101.16" height="100"/><g id="_454_glass_glasses_drink_hotel" data-name="454, glass, glasses, drink, hotel"><path class="cls-2" d="M51.79,56.4a1.52,1.52,0,0,1-.91-.4L31,31.7a1,1,0,0,1-.1-1.2,1.23,1.23,0,0,1,1-.7H71.72a1.09,1.09,0,0,1,1,.7,1.24,1.24,0,0,1-.1,1.2L52.7,56A1,1,0,0,1,51.79,56.4ZM34.39,32.1l17.5,21.3,17.5-21.3Z"/><path class="cls-2" d="M58.47,77.3H45.22a1.09,1.09,0,0,1-1-.7,1.24,1.24,0,0,1,.1-1.2L51,67.3a1.12,1.12,0,0,1,.91-.4,1.49,1.49,0,0,1,.91.4l6.68,8.1a1,1,0,0,1,.1,1.2A1.37,1.37,0,0,1,58.47,77.3ZM47.65,75H56l-4.15-5.1Z"/><path class="cls-2" d="M51.79,69.2A1.22,1.22,0,0,1,50.58,68V55.3a1.22,1.22,0,0,1,1.21-1.2A1.17,1.17,0,0,1,53,55.3V68A1.17,1.17,0,0,1,51.79,69.2Z"/><path class="cls-2" d="M67.07,37.9H43.6a1.2,1.2,0,1,1,0-2.4H67.07a1.2,1.2,0,1,1,0,2.4Z"/><path class="cls-2" d="M33.08,41.4a9.64,9.64,0,0,1-7.49-3.6,9.28,9.28,0,0,1,1.72-13,9.52,9.52,0,0,1,13.15,1.7,1.11,1.11,0,0,1-.2,1.6,1.15,1.15,0,0,1-1.62-.2,7.11,7.11,0,0,0-9.81-1.3,6.91,6.91,0,0,0-1.31,9.7,7.11,7.11,0,0,0,9.81,1.3,1.15,1.15,0,0,1,1.62.2,1.12,1.12,0,0,1-.21,1.6A8.54,8.54,0,0,1,33.08,41.4Z"/><path class="cls-2" d="M64.74,77.3H31.87a1.2,1.2,0,1,1,0-2.4H64.74a1.2,1.2,0,1,1,0,2.4Z"/><path class="cls-2" d="M75.26,72.7H62.41a1.2,1.2,0,1,1,0-2.4H75.26a1.23,1.23,0,0,1,1.22,1.2A1.3,1.3,0,0,1,75.26,72.7Z"/><path class="cls-2" d="M51.79,42.6a1.18,1.18,0,0,1-.81-.3,1,1,0,0,1,0-1.6L69.8,22a1.06,1.06,0,0,1,1.62,0,1,1,0,0,1,0,1.6L52.7,42.2A1.79,1.79,0,0,1,51.79,42.6Z"/><rect class="cls-2" x="54.22" y="43.7" width="2.33" height="2.3"/><rect class="cls-2" x="50.68" y="47.2" width="2.33" height="2.3"/><rect class="cls-2" x="47.14" y="42.6" width="2.33" height="2.3"/><rect class="cls-2" x="45.93" y="39.1" width="2.33" height="2.3"/></g></g></g></svg>