<svg xmlns="http://www.w3.org/2000/svg" viewBox="0 0 101.16 100"><defs><style>.cls-1{fill:#fff;}.cls-2{fill:#009de4;}</style></defs><title>Asset 41</title><g id="Layer_2" data-name="Layer 2"><g id="_1" data-name="1"><rect class="cls-1" width="101.16" height="100"/><g id="_462_hotel_building_home_service" data-name="462, hotel ,building, home, service"><path class="cls-2" d="M74.66,77.3H44.21A1.23,1.23,0,0,1,43,76.1V27.5a1.23,1.23,0,0,1,1.22-1.2H74.66a1.22,1.22,0,0,1,1.21,1.2V76.1A1.16,1.16,0,0,1,74.66,77.3ZM45.42,75H73.54V28.7H45.42Z"/><path class="cls-2" d="M70,28.7H48.86a1.22,1.22,0,0,1-1.21-1.2V22.9a1.22,1.22,0,0,1,1.21-1.2h21a1.22,1.22,0,0,1,1.21,1.2v4.6A1.2,1.2,0,0,1,70,28.7ZM50.07,26.3H68.79V24H50.07Z"/><path class="cls-2" d="M44.21,77.3H25.49a1.22,1.22,0,0,1-1.21-1.2v-37a1.22,1.22,0,0,1,1.21-1.2H44.21a1.22,1.22,0,0,1,1.21,1.2V76.2A1.21,1.21,0,0,1,44.21,77.3ZM26.61,75H43V40.2H26.61Z"/><path class="cls-2" d="M37.23,40.2H31.36A1.22,1.22,0,0,1,30.15,39V34.4a1.22,1.22,0,0,1,1.21-1.2,1.16,1.16,0,0,1,1.21,1.2v3.5h3.54V34.4a1.23,1.23,0,0,1,1.22-1.2,1.16,1.16,0,0,1,1.21,1.2V39A1.48,1.48,0,0,1,37.23,40.2Z"/><path class="cls-2" d="M64.13,77.3h-9.4a1.23,1.23,0,0,1-1.22-1.2V64.6a1.23,1.23,0,0,1,1.22-1.2h9.4a1.23,1.23,0,0,1,1.22,1.2V76.2A1.21,1.21,0,0,1,64.13,77.3ZM55.94,75h7V65.7h-7Z"/><path class="cls-2" d="M30.15,77.3a1.23,1.23,0,0,1-1.22-1.2V43.7a1.22,1.22,0,0,1,2.43,0V76.1A1.22,1.22,0,0,1,30.15,77.3Z"/><path class="cls-2" d="M34.8,77.3a1.22,1.22,0,0,1-1.21-1.2V43.7a1.21,1.21,0,0,1,2.42,0V76.1A1.16,1.16,0,0,1,34.8,77.3Z"/><path class="cls-2" d="M39.55,77.3a1.22,1.22,0,0,1-1.21-1.2V43.7a1.22,1.22,0,0,1,2.43,0V76.1A1.3,1.3,0,0,1,39.55,77.3Z"/><rect class="cls-2" x="48.86" y="31" width="2.33" height="2.3"/><rect class="cls-2" x="53.61" y="31" width="2.33" height="2.3"/><rect class="cls-2" x="58.27" y="31" width="2.33" height="2.3"/><rect class="cls-2" x="62.92" y="31" width="2.33" height="2.3"/><rect class="cls-2" x="67.68" y="31" width="2.33" height="2.3"/><rect class="cls-2" x="48.86" y="35.6" width="2.33" height="2.3"/><rect class="cls-2" x="53.61" y="35.6" width="2.33" height="2.3"/><rect class="cls-2" x="58.27" y="35.6" width="2.33" height="2.3"/><rect class="cls-2" x="62.92" y="35.6" width="2.33" height="2.3"/><rect class="cls-2" x="67.68" y="35.6" width="2.33" height="2.3"/><rect class="cls-2" x="48.86" y="40.2" width="2.33" height="2.3"/><rect class="cls-2" x="53.61" y="40.2" width="2.33" height="2.3"/><rect class="cls-2" x="58.27" y="40.2" width="2.33" height="2.3"/><rect class="cls-2" x="62.92" y="40.2" width="2.33" height="2.3"/><rect class="cls-2" x="67.68" y="40.2" width="2.33" height="2.3"/><rect class="cls-2" x="48.86" y="44.9" width="2.33" height="2.3"/><rect class="cls-2" x="53.61" y="44.9" width="2.33" height="2.3"/><rect class="cls-2" x="58.27" y="44.9" width="2.33" height="2.3"/><rect class="cls-2" x="62.92" y="44.9" width="2.33" height="2.3"/><rect class="cls-2" x="67.68" y="44.9" width="2.33" height="2.3"/><rect class="cls-2" x="48.86" y="49.5" width="2.33" height="2.3"/><rect class="cls-2" x="53.61" y="49.5" width="2.33" height="2.3"/><rect class="cls-2" x="58.27" y="49.5" width="2.33" height="2.3"/><rect class="cls-2" x="62.92" y="49.5" width="2.33" height="2.3"/><rect class="cls-2" x="67.68" y="49.5" width="2.33" height="2.3"/><rect class="cls-2" x="48.86" y="54.1" width="2.33" height="2.3"/><rect class="cls-2" x="53.61" y="54.1" width="2.33" height="2.3"/><rect class="cls-2" x="58.27" y="54.1" width="2.33" height="2.3"/><rect class="cls-2" x="62.92" y="54.1" width="2.33" height="2.3"/><rect class="cls-2" x="67.68" y="54.1" width="2.33" height="2.3"/><rect class="cls-2" x="48.86" y="58.8" width="2.33" height="2.3"/><rect class="cls-2" x="53.61" y="58.8" width="2.33" height="2.3"/><rect class="cls-2" x="58.27" y="58.8" width="2.33" height="2.3"/><rect class="cls-2" x="62.92" y="58.8" width="2.33" height="2.3"/><rect class="cls-2" x="67.68" y="58.8" width="2.33" height="2.3"/><path class="cls-2" d="M66.46,65.7H52.4a1.2,1.2,0,1,1,0-2.4H66.46a1.23,1.23,0,0,1,1.22,1.2A1.17,1.17,0,0,1,66.46,65.7Z"/><path class="cls-2" d="M39.55,69.2H25.49a1.2,1.2,0,1,1,0-2.4H39.55A1.23,1.23,0,0,1,40.77,68,1.3,1.3,0,0,1,39.55,69.2Z"/><path class="cls-2" d="M44.21,62.2H30.15A1.23,1.23,0,0,1,28.93,61a1.17,1.17,0,0,1,1.22-1.2H44.21a1.2,1.2,0,1,1,0,2.4Z"/><path class="cls-2" d="M39.55,55.3H25.49a1.22,1.22,0,0,1-1.21-1.2,1.16,1.16,0,0,1,1.21-1.2H39.55a1.2,1.2,0,1,1,0,2.4Z"/></g></g></g></svg>