<svg xmlns="http://www.w3.org/2000/svg" viewBox="0 0 101.16 100"><defs><style>.cls-1{fill:#fff;}.cls-2{fill:#009de4;}</style></defs><title>Asset 31</title><g id="Layer_2" data-name="Layer 2"><g id="_1" data-name="1"><rect class="cls-1" width="101.16" height="100"/><g id="_452_location_map_globe_internet" data-name="452, location, map, globe, internet"><path class="cls-2" d="M50.07,73.2A1.22,1.22,0,0,1,48.86,72a1.16,1.16,0,0,1,1.21-1.2c1.93,0,4-1.9,5.47-5.3a33.79,33.79,0,0,0,2.63-13.9A32,32,0,0,0,55.54,38C54,34.7,52,32.7,50.07,32.7a1.2,1.2,0,1,1,0-2.4,21.45,21.45,0,1,1,0,42.9Zm5.57-39.7A19.07,19.07,0,0,1,57.76,37a36.5,36.5,0,0,1,2.83,14.8,36.5,36.5,0,0,1-2.83,14.8,14.8,14.8,0,0,1-2.12,3.5,19.09,19.09,0,0,0,0-36.6Z"/><path class="cls-2" d="M49.16,32.8a1.11,1.11,0,0,1-1-.6v-.1h0a1.08,1.08,0,0,1,0-1.1,1.11,1.11,0,0,1,1-.6h1a1.23,1.23,0,0,1,1.22,1.2,1.17,1.17,0,0,1-1.22,1.2,1.27,1.27,0,0,0-.6.1A.79.79,0,0,0,49.16,32.8Z"/><path class="cls-2" d="M50.07,73.2A21.37,21.37,0,0,1,31.66,40.7a1.36,1.36,0,0,1,1-.6,1.27,1.27,0,0,1,1,.5c2.52,4,7.89,10.6,8.09,10.9a.84.84,0,0,1,.2.7,33.77,33.77,0,0,0,2.73,13.5c1.52,3.2,3.54,5.1,5.46,5.1A1.23,1.23,0,0,1,51.39,72,1.39,1.39,0,0,1,50.07,73.2ZM32.78,43.6a19.5,19.5,0,0,0-1.93,8.3A19.21,19.21,0,0,0,44.51,70.2a16.5,16.5,0,0,1-2-3.3,36.37,36.37,0,0,1-2.94-14.1C38.64,51.5,35.2,47.1,32.78,43.6Z"/><path class="cls-2" d="M50.07,73.2c-2.93,0-5.56-2.3-7.58-6.4a36.65,36.65,0,0,1-2.94-14.5,1.2,1.2,0,0,1,.41-.9c.3-.4,1.11-1.5,2.22-2.8,4.86-6.3,6.78-9.4,7-10.2l.1-.3a.35.35,0,0,1,.11-.3,4.87,4.87,0,0,0,.1-1.2,8.14,8.14,0,0,0-1.22-4.3,1.38,1.38,0,0,1-.1-1.1,1.8,1.8,0,0,1,.81-.7,4.6,4.6,0,0,1,1.11-.1c2.94,0,5.67,2.3,7.69,6.6a36.5,36.5,0,0,1,2.83,14.8,36.5,36.5,0,0,1-2.83,14.8C55.74,70.9,53,73.2,50.07,73.2ZM42,52.8a31.78,31.78,0,0,0,2.73,13.1c1.52,3.2,3.54,5.1,5.46,5.1s3.95-1.9,5.47-5.3a33.79,33.79,0,0,0,2.63-13.9A32.92,32.92,0,0,0,55.54,38c-1.32-2.8-2.94-4.6-4.56-5.1a11.3,11.3,0,0,1,.71,3.7,7.57,7.57,0,0,1-.1,1.5c0,.2,0,.3-.1.4h0l-.1.3h0c-.1.5-.51,2.2-7.39,11.2C43.09,51.3,42.28,52.3,42,52.8Z"/><path class="cls-2" d="M40.77,53.5a1.49,1.49,0,0,1-.91-.4h0c-.21-.3-5.57-7-8.2-11.1a9.94,9.94,0,0,1-1.51-3h0L30,38.7h0a12.31,12.31,0,0,1-.2-2v-.6A10.85,10.85,0,0,1,40.77,25.9a10.63,10.63,0,0,1,9.3,5.2v.1h0a10.67,10.67,0,0,1,1.52,5.5,7.57,7.57,0,0,1-.1,1.5c0,.2,0,.3-.1.4h0l-.1.3h0c-.1.5-.51,2.2-7.39,11.2l-2.32,3a.91.91,0,0,1-.81.4Zm-8.4-15.1a8.39,8.39,0,0,0,1.22,2.3,114.21,114.21,0,0,0,7.18,9.8c.4-.5.91-1.1,1.41-1.8,4.86-6.3,6.78-9.4,7-10.2l.1-.3a.35.35,0,0,1,.11-.3,4.87,4.87,0,0,0,.1-1.2,8.14,8.14,0,0,0-1.22-4.3v-.1h0a8.65,8.65,0,0,0-16,3.9v.4a7.57,7.57,0,0,0,.1,1.5Z"/><path class="cls-2" d="M40.77,41.2a5.1,5.1,0,1,1,5.16-5.1A5.15,5.15,0,0,1,40.77,41.2Zm0-7.9a2.8,2.8,0,1,0,2.83,2.8A2.81,2.81,0,0,0,40.77,33.3Z"/><path class="cls-2" d="M40.77,41.2a5.1,5.1,0,1,1,5.16-5.1A5.15,5.15,0,0,1,40.77,41.2Zm0-7.9a2.8,2.8,0,1,0,2.83,2.8A2.81,2.81,0,0,0,40.77,33.3Z"/><path class="cls-2" d="M70.51,53.8H30.65a1.22,1.22,0,0,1-1.21-1.2,1.16,1.16,0,0,1,1.21-1.2H70.51a1.2,1.2,0,1,1,0,2.4Z"/><path class="cls-2" d="M67.17,42.4H49.37a1.23,1.23,0,0,1-1.22-1.2A1.17,1.17,0,0,1,49.37,40h17.8a1.2,1.2,0,1,1,0,2.4Z"/><path class="cls-2" d="M67.17,63.6H32.57a1.2,1.2,0,1,1,0-2.4h34.6a1.22,1.22,0,0,1,1.21,1.2A1.29,1.29,0,0,1,67.17,63.6Z"/></g></g></g></svg>