<svg xmlns="http://www.w3.org/2000/svg" viewBox="0 0 101.16 100"><defs><style>.cls-1{fill:#fff;}.cls-2{fill:#009de4;}</style></defs><title>Asset 38</title><g id="Layer_2" data-name="Layer 2"><g id="_1" data-name="1"><rect class="cls-1" width="101.16" height="100"/><g id="_453_air_plane_airplane_fly" data-name="453, air , plane, airplane, fly"><path class="cls-2" d="M33.38,61.2a1.41,1.41,0,0,1-1-.5L25.29,50.2a1,1,0,0,1,0-1.3,1.27,1.27,0,0,1,1.31-.4l8.91,3,33.08-5.2a4.14,4.14,0,0,1,1.11-.1A5.24,5.24,0,0,1,75,51.6a6.7,6.7,0,0,1-6.07,7.1L54.83,59.8a1.33,1.33,0,0,1-1.22-.8A1.09,1.09,0,0,1,54,57.7l3.44-2.3H53.61l-4.45,4.3a.71.71,0,0,1-.6.3L33.38,61.2Zm-4.25-9.4,4.76,7,14-1.1,4.55-4.4a1.16,1.16,0,0,1,.81-.3H61.4a1.1,1.1,0,0,1,1.12.8A1.13,1.13,0,0,1,62,55.1l-2.93,2,9.61-.8a4.27,4.27,0,0,0,3.94-4.7c-.1-1.5-.91-3.2-2.93-3.2a1.75,1.75,0,0,0-.71.1L35.71,53.7H35.2Z"/><path class="cls-2" d="M46.23,67H41.58a1.26,1.26,0,0,1-1.12-.7,1.24,1.24,0,0,1,.21-1.3l6.87-6.9h0l4.86-4.7a1.16,1.16,0,0,1,.81-.3H61.4a1.1,1.1,0,0,1,1.12.8A1.13,1.13,0,0,1,62,55.2l-6.57,4.4-8.5,7.1A.93.93,0,0,1,46.23,67Zm-1.92-2.3h1.41l8.2-6.9.1-.1,3.44-2.3H53.61l-4.45,4.3Z"/><rect class="cls-2" x="39.15" y="54.2" width="2.33" height="2.3"/><rect class="cls-2" x="43.9" y="53.1" width="2.33" height="2.3"/><rect class="cls-2" x="63.83" y="50.8" width="2.33" height="2.3"/><rect class="cls-2" x="67.27" y="49.6" width="2.33" height="2.3"/><path class="cls-2" d="M33.38,43.8H26.3a1.22,1.22,0,0,1-1.21-1.2,1.16,1.16,0,0,1,1.21-1.2h7.08a1.23,1.23,0,0,1,1.22,1.2A1.3,1.3,0,0,1,33.38,43.8Z"/><path class="cls-2" d="M41.58,47.3H31a1.2,1.2,0,1,1,0-2.4H41.48a1.22,1.22,0,0,1,1.21,1.2A1.14,1.14,0,0,1,41.58,47.3Z"/><path class="cls-2" d="M33.38,65.8H26.3a1.2,1.2,0,1,1,0-2.4h7.08a1.23,1.23,0,0,1,1.22,1.2A1.3,1.3,0,0,1,33.38,65.8Z"/><path class="cls-2" d="M60.29,42.7a1.2,1.2,0,1,1,0-2.4,2.3,2.3,0,1,0-.81-4.5,1.11,1.11,0,0,1-1.11-.2,1.21,1.21,0,0,1-.51-1v-.2a3.57,3.57,0,0,0-6.77-1.5,1.24,1.24,0,0,1-1.52.6A1.21,1.21,0,0,1,49,32a5.92,5.92,0,0,1,11.13,1.2h.1a4.75,4.75,0,0,1,.1,9.5Z"/><path class="cls-2" d="M50.88,41.3a1.2,1.2,0,1,1,0-2.4,2.3,2.3,0,1,0-.81-4.5A1.11,1.11,0,0,1,49,34.2a1.23,1.23,0,0,1-.5-1V33a3.57,3.57,0,0,0-6.78-1.5,1.07,1.07,0,0,1-.71.6,1,1,0,0,1-.91-.1A2.05,2.05,0,0,0,39,31.7a2.31,2.31,0,0,0-2.23,1.5,1.22,1.22,0,0,1-1.21.8h-.1a2.28,2.28,0,0,0-2.33,2.3,1.22,1.22,0,0,1-1.21,1.2,1.17,1.17,0,0,1-1.22-1.2,4.67,4.67,0,0,1,4.15-4.6,4.65,4.65,0,0,1,4.05-2.3,4.21,4.21,0,0,1,1.11.1,5.86,5.86,0,0,1,4.75-2.4,6,6,0,0,1,5.77,4.6h.1a4.61,4.61,0,0,1,4.65,4.6A4.27,4.27,0,0,1,50.88,41.3Z"/><path class="cls-2" d="M72,71.6a1.22,1.22,0,0,1-1.21-1.2,2.28,2.28,0,0,0-2.33-2.3,2.2,2.2,0,0,0-.8.1,1.13,1.13,0,0,1-1.12-.2,1.23,1.23,0,0,1-.5-1v-.2a3.56,3.56,0,0,0-3.54-3.5,3.61,3.61,0,0,0-3.24,2,1.07,1.07,0,0,1-.71.6,1,1,0,0,1-.91-.1,2.05,2.05,0,0,0-1.11-.3,1.2,1.2,0,1,1,0-2.4,4.18,4.18,0,0,1,1.11.1,5.86,5.86,0,0,1,4.76-2.4,5.94,5.94,0,0,1,5.76,4.6h.1A4.62,4.62,0,0,1,72.94,70C73.14,71.1,72.63,71.6,72,71.6Z"/></g></g></g></svg>