<svg xmlns="http://www.w3.org/2000/svg" viewBox="0 0 101.16 100"><defs><style>.cls-1{fill:#fff;}.cls-2{fill:#009de4;}</style></defs><title>Asset 40</title><g id="Layer_2" data-name="Layer 2"><g id="_1" data-name="1"><rect class="cls-1" width="101.16" height="100"/><g id="_472_Direction_hotel_motel_room" data-name="472, Direction, hotel, motel, room"><path class="cls-2" d="M53,29.8H47.14a1.22,1.22,0,0,1-1.21-1.2V24a1.22,1.22,0,0,1,1.21-1.2H53A1.22,1.22,0,0,1,54.22,24v4.6A1.22,1.22,0,0,1,53,29.8Zm-4.66-2.3h3.54V25.2H48.35Z"/><path class="cls-2" d="M53,44.9H47.14a1.22,1.22,0,0,1-1.21-1.2V39.1a1.22,1.22,0,0,1,1.21-1.2H53a1.22,1.22,0,0,1,1.21,1.2v4.6A1.3,1.3,0,0,1,53,44.9Zm-4.66-2.3h3.54V40.3H48.35Z"/><path class="cls-2" d="M53,76.1H47.14a1.22,1.22,0,0,1-1.21-1.2V54.1a1.22,1.22,0,0,1,1.21-1.2H53a1.22,1.22,0,0,1,1.21,1.2V75A1.21,1.21,0,0,1,53,76.1Zm-4.66-2.3h3.54V55.3H48.35Z"/><path class="cls-2" d="M70.61,40.2H39A1.23,1.23,0,0,1,37.73,39V28.7A1.23,1.23,0,0,1,39,27.5H70.61a.93.93,0,0,1,.71.3l5.86,4.6a.9.9,0,0,1,.41.8,1.4,1.4,0,0,1-.3.9l-5.87,5.8A1.16,1.16,0,0,1,70.61,40.2ZM40.16,37.9H70.1l4.56-4.5L70.1,29.8H40.16Z"/><path class="cls-2" d="M61.2,55.3H29.54a1.16,1.16,0,0,1-.81-.3l-5.87-5.8a1,1,0,0,1-.3-.9,1.23,1.23,0,0,1,.4-.8l5.87-4.6a1.1,1.1,0,0,1,.71-.3H61.2a1.23,1.23,0,0,1,1.22,1.2V54.2A1.21,1.21,0,0,1,61.2,55.3ZM30,53H60V44.9h-30l-4.55,3.6Z"/><path class="cls-2" d="M60,34.4H39A1.2,1.2,0,1,1,39,32H60a1.22,1.22,0,0,1,1.21,1.2A1.16,1.16,0,0,1,60,34.4Z"/><path class="cls-2" d="M64.74,34.4H63.53a1.2,1.2,0,1,1,0-2.4h1.21A1.23,1.23,0,0,1,66,33.2,1.31,1.31,0,0,1,64.74,34.4Z"/><path class="cls-2" d="M61.2,49.5h-21a1.2,1.2,0,1,1,0-2.4h21a1.2,1.2,0,1,1,0,2.4Z"/><path class="cls-2" d="M36.62,49.5H35.41a1.2,1.2,0,1,1,0-2.4h1.21a1.22,1.22,0,0,1,1.21,1.2A1.29,1.29,0,0,1,36.62,49.5Z"/><path class="cls-2" d="M76.48,76.1H26.1a1.22,1.22,0,0,1-1.21-1.2,1.16,1.16,0,0,1,1.21-1.2H76.48a1.22,1.22,0,0,1,1.21,1.2A1.3,1.3,0,0,1,76.48,76.1Z"/><path class="cls-2" d="M60,76.1a1.23,1.23,0,0,1-1.22-1.2V69.1A1.23,1.23,0,0,1,60,67.9a1.16,1.16,0,0,1,1.21,1.2V75A1.14,1.14,0,0,1,60,76.1Z"/><path class="cls-2" d="M64.74,76.1a1.22,1.22,0,0,1-1.21-1.2V62.2A1.22,1.22,0,0,1,64.74,61,1.17,1.17,0,0,1,66,62.2V75A1.3,1.3,0,0,1,64.74,76.1Z"/><path class="cls-2" d="M35.41,76.1a1.23,1.23,0,0,1-1.22-1.2V69.1a1.22,1.22,0,0,1,2.43,0V75A1.14,1.14,0,0,1,35.41,76.1Z"/><path class="cls-2" d="M40.16,76.1A1.22,1.22,0,0,1,39,74.9V62.2a1.21,1.21,0,0,1,2.42,0V75A1.28,1.28,0,0,1,40.16,76.1Z"/></g></g></g></svg>