<svg xmlns="http://www.w3.org/2000/svg" viewBox="0 0 101.16 100"><defs><style>.cls-1{fill:#fff;}.cls-2{fill:#009de4;}</style></defs><title>Asset 33</title><g id="Layer_2" data-name="Layer 2"><g id="_1" data-name="1"><rect class="cls-1" width="101.16" height="100"/><g id="_451_picture_image_landmark_photo" data-name="451, picture, image, landmark, photo"><path class="cls-2" d="M75.26,75.6H24.89a1.23,1.23,0,0,1-1.22-1.2V24.6a1.23,1.23,0,0,1,1.22-1.2H75.26a1.23,1.23,0,0,1,1.22,1.2V74.4A1.3,1.3,0,0,1,75.26,75.6ZM26.1,73.2H74.15V25.8H26.1Z"/><path class="cls-2" d="M70.61,65.1H29.54a1.23,1.23,0,0,1-1.22-1.2V29.2A1.23,1.23,0,0,1,29.54,28h41a1.22,1.22,0,0,1,1.21,1.2V64A1.11,1.11,0,0,1,70.61,65.1ZM30.75,62.8H69.39V30.4H30.75Z"/><path class="cls-2" d="M44.81,53.6a5.8,5.8,0,1,1,5.87-5.8A5.84,5.84,0,0,1,44.81,53.6Zm0-9.3a3.5,3.5,0,1,0,3.54,3.5A3.49,3.49,0,0,0,44.81,44.3Z"/><path class="cls-2" d="M47.14,58.2H42.49A1.23,1.23,0,0,1,41.27,57V52.4a1.23,1.23,0,0,1,1.22-1.2h4.65a1.22,1.22,0,0,1,1.21,1.2V57A1.22,1.22,0,0,1,47.14,58.2ZM43.6,55.9h2.33V53.6H43.6Z"/><path class="cls-2" d="M74.05,69.8H57.66a1.2,1.2,0,1,1,0-2.4H74.05a1.22,1.22,0,0,1,1.21,1.2A1.16,1.16,0,0,1,74.05,69.8Z"/><path class="cls-2" d="M53,69.8H43.6a1.2,1.2,0,1,1,0-2.4H53a1.2,1.2,0,1,1,0,2.4Z"/><rect class="cls-2" x="29.54" y="68.6" width="2.33" height="2.3"/><rect class="cls-2" x="33.08" y="68.6" width="2.33" height="2.3"/><rect class="cls-2" x="36.62" y="68.6" width="2.33" height="2.3"/><path class="cls-2" d="M49.47,65.1H40.06a1.22,1.22,0,0,1-1.21-1.2V62a.44.44,0,0,0-.41-.4H36.52a1.23,1.23,0,0,1-1.22-1.2V59a7.86,7.86,0,0,1,7.89-7.8h2.94A7.86,7.86,0,0,1,54,59v1.5a1.22,1.22,0,0,1-1.21,1.2H50.88a.43.43,0,0,0-.4.4V64C50.68,64.6,50.17,65.1,49.47,65.1Zm-8.2-2.3h7V62A2.71,2.71,0,0,1,51,59.3h.81V59a5.58,5.58,0,0,0-5.56-5.5H43.3A5.58,5.58,0,0,0,37.73,59v.3h.81A2.7,2.7,0,0,1,41.27,62v.8Z"/><path class="cls-2" d="M55.33,65.1H49.47a1.23,1.23,0,0,1-1.22-1.2V62A2.71,2.71,0,0,1,51,59.3h2.74A2.71,2.71,0,0,1,56.45,62v2A1,1,0,0,1,55.33,65.1Zm-4.65-2.3h3.54V62a.43.43,0,0,0-.4-.4H51.09a.43.43,0,0,0-.41.4Z"/><path class="cls-2" d="M40.16,65.1H34.29a1.22,1.22,0,0,1-1.21-1.2V62a2.7,2.7,0,0,1,2.73-2.7h2.73A2.7,2.7,0,0,1,41.27,62v2A1.11,1.11,0,0,1,40.16,65.1Zm-4.75-2.3H39V62a.44.44,0,0,0-.41-.4H35.81a.43.43,0,0,0-.4.4v.8Z"/><path class="cls-2" d="M70.61,65.1a1.1,1.1,0,0,1-1-.6L56.65,40.2a1.23,1.23,0,0,1,.1-1.3A1.16,1.16,0,0,1,58,38.5L70.91,42a1.14,1.14,0,0,1,.81,1.4,1.15,1.15,0,0,1-1.41.8L60,41.4l11.63,22a1.16,1.16,0,0,1-.51,1.6A.9.9,0,0,1,70.61,65.1Z"/><path class="cls-2" d="M54.22,47.8a.75.75,0,0,1-.5-.1,1.16,1.16,0,0,1-.51-1.6l3.54-6.9a1.19,1.19,0,0,1,1.62-.5,1.15,1.15,0,0,1,.5,1.6l-3.54,6.9A1.74,1.74,0,0,1,54.22,47.8Z"/><path class="cls-2" d="M29.54,52.4a1.9,1.9,0,0,1-.71-.2,1.23,1.23,0,0,1-.3-1.6L40.26,34.4a1.26,1.26,0,0,1,1.42-.4l8.19,3.5a1.09,1.09,0,0,1,.61,1.5,1.12,1.12,0,0,1-1.52.6l-7.38-3.1L30.45,52A1.29,1.29,0,0,1,29.54,52.4Z"/></g></g></g></svg>