<svg xmlns="http://www.w3.org/2000/svg" viewBox="0 0 101.16 100"><defs><style>.cls-1{fill:#fff;}.cls-2{fill:#009de4;}</style></defs><title>Asset 27</title><g id="Layer_2" data-name="Layer 2"><g id="_1" data-name="1"><rect class="cls-1" width="101.16" height="100"/><g id="_464_Boat_ship_transport_vessel" data-name="464, Boat, ship, transport, vessel"><path class="cls-2" d="M63.22,57.6h-27A1.22,1.22,0,0,1,35,56.4V50.6a1.22,1.22,0,0,1,1.21-1.2h21a7,7,0,0,1,7,6.9A1.06,1.06,0,0,1,63.22,57.6ZM37.43,55.3H61.91a4.67,4.67,0,0,0-4.55-3.5H37.43Z"/><path class="cls-2" d="M56.14,71.5H25.19A1.23,1.23,0,0,1,24,70.3V56.4a1.11,1.11,0,0,1,.61-1l1.62-.8c2.23-1.1,6.37-1.6,8.6-1.6h1.31a1.23,1.23,0,0,1,1.22,1.2v1.2H74.86a1.22,1.22,0,0,1,1.21,1.2c0,3.9-2.43,7.7-7,10.8A25.28,25.28,0,0,1,56.14,71.5ZM26.4,69.2H56.14a22.17,22.17,0,0,0,11.64-3.9c3.33-2.2,5.36-5,5.86-7.7H36.21A1.22,1.22,0,0,1,35,56.4V55.2h-.1a22.25,22.25,0,0,0-7.59,1.4l-1,.5C26.4,57.2,26.4,69.2,26.4,69.2Z"/><path class="cls-2" d="M36.21,51.8H31.56a1.22,1.22,0,0,1-1.21-1.2,1.16,1.16,0,0,1,1.21-1.2h4.65a1.23,1.23,0,0,1,1.22,1.2A1.17,1.17,0,0,1,36.21,51.8Z"/><path class="cls-2" d="M66.76,47.2H48A1.22,1.22,0,0,1,46.74,46V22.9a1.17,1.17,0,0,1,.8-1.1,1.12,1.12,0,0,1,1.32.4L67.57,45.3a1.1,1.1,0,0,1,.31.8A1.12,1.12,0,0,1,66.76,47.2Zm-17.6-2.3H64.34L49.16,26.2Z"/><path class="cls-2" d="M48,44.9H37.43a1.24,1.24,0,0,1-1-.5,1.34,1.34,0,0,1-.1-1.1L46.84,22.5a1.16,1.16,0,0,1,1.31-.6,1.17,1.17,0,0,1,.91,1.1V43.8A1,1,0,0,1,48,44.9Zm-8.6-2.3h7.49V27.8Z"/><path class="cls-2" d="M48,51.8a1.22,1.22,0,0,1-1.21-1.2V46A1.22,1.22,0,0,1,48,44.8,1.16,1.16,0,0,1,49.16,46v4.6A1.16,1.16,0,0,1,48,51.8Z"/><path class="cls-2" d="M53.72,66.9H33.89a1.2,1.2,0,1,1,0-2.4H53.72A14.23,14.23,0,0,0,60.09,63l6.17-3a1.19,1.19,0,0,1,1.62.5,1.16,1.16,0,0,1-.51,1.6l-6.17,3A16.52,16.52,0,0,1,53.72,66.9Z"/><path class="cls-2" d="M52.7,35.6H48.05a1.2,1.2,0,1,1,0-2.4H52.7a1.23,1.23,0,0,1,1.22,1.2A1.3,1.3,0,0,1,52.7,35.6Z"/><path class="cls-2" d="M53.82,62.2A1.23,1.23,0,0,1,52.6,61V50.7a1.22,1.22,0,0,1,2.43,0V61.1A1.14,1.14,0,0,1,53.82,62.2Z"/><path class="cls-2" d="M48.86,77.3a5.46,5.46,0,0,1-4-1.5c-1.51-1.7-5.05,0-5.56.2a7.1,7.1,0,0,1-8.4-.1c-2.63-1.9-4.25-.2-4.25-.2a1.13,1.13,0,0,1-1.61.1,1.11,1.11,0,0,1-.11-1.6c1-1.2,3.95-2.7,7.49-.2A5,5,0,0,0,38,74l.1-.1c.2-.1,5.56-3,8.49.2,1.42,1.6,5.57.3,6.88-.3a1.09,1.09,0,0,1,1.52.6,1.07,1.07,0,0,1-.61,1.5A26.4,26.4,0,0,1,51,77,10.55,10.55,0,0,1,48.86,77.3Z"/><path class="cls-2" d="M31.56,36.8a1.22,1.22,0,0,1-1.21-1.2c0-.2,0-.6-.91-.9A5.94,5.94,0,0,0,28,34.5a1.22,1.22,0,0,1-1.21-1.2A1.16,1.16,0,0,1,28,32.1c1.62,0,4.65.7,4.65,3.5A1.13,1.13,0,0,1,31.56,36.8Z"/><path class="cls-2" d="M31.56,36.8a1.22,1.22,0,0,1-1.21-1.2c0-2.7,3-3.5,4.65-3.5a1.2,1.2,0,1,1,0,2.4s-2.33.1-2.33,1.2C32.78,36.2,32.17,36.8,31.56,36.8Z"/><path class="cls-2" d="M36.21,29.4A1.22,1.22,0,0,1,35,28.2c0-.2-.71-.4-1.21-.4a1.23,1.23,0,0,1-1.22-1.2,1.17,1.17,0,0,1,1.22-1.2c1.72,0,3.54.8,3.54,2.7A1.08,1.08,0,0,1,36.21,29.4Z"/><path class="cls-2" d="M36.21,29.4A1.22,1.22,0,0,1,35,28.2c0-1.9,1.82-2.7,3.54-2.7a1.2,1.2,0,1,1,0,2.4c-.4,0-1.21.2-1.21.4A1,1,0,0,1,36.21,29.4Z"/></g></g></g></svg>