<svg xmlns="http://www.w3.org/2000/svg" viewBox="0 0 101.16 100"><defs><style>.cls-1{fill:#fff;}.cls-2{fill:#009de4;}</style></defs><title>Asset 35</title><g id="Layer_2" data-name="Layer 2"><g id="_1" data-name="1"><rect class="cls-1" width="101.16" height="100"/><g id="_461_drink_ice_cream_summer_juice" data-name="461, drink, ice cream, summer, juice"><path class="cls-2" d="M40.67,74.4H37.13A1.19,1.19,0,0,1,36,73.6l-8.9-26.8a1.27,1.27,0,0,1,.51-1.4,1,1,0,0,1,1.41.3,5.81,5.81,0,0,0,4.45,2,5.89,5.89,0,0,0,4-1.5,1.11,1.11,0,0,1,1.52,0,5.86,5.86,0,0,0,8.49-.7,1.1,1.1,0,0,1,1.42-.3,1.2,1.2,0,0,1,.61,1.3L41.68,73.4A.9.9,0,0,1,40.67,74.4ZM38,72.1h1.82l6.57-22.7a8.1,8.1,0,0,1-8-.8,8.84,8.84,0,0,1-4.65,1.5,8.31,8.31,0,0,1-3.14-.6Z"/><path class="cls-2" d="M43.09,50.1a7.61,7.61,0,0,1-4.65-1.5,8.84,8.84,0,0,1-4.65,1.5,8.08,8.08,0,0,1-6.27-2.9A8.23,8.23,0,0,1,25.59,42a8.14,8.14,0,0,1,4.86-7.4,11,11,0,0,1-.2-1.8,8.19,8.19,0,0,1,16.38,0,11,11,0,0,1-.2,1.8,8.06,8.06,0,0,1,3,12.5A8.41,8.41,0,0,1,43.09,50.1ZM38.34,46a1.16,1.16,0,0,1,.81.3,5.87,5.87,0,0,0,8.5-.7A5.83,5.83,0,0,0,49,42a5.89,5.89,0,0,0-4.35-5.6,1.07,1.07,0,0,1-.71-.6,1,1,0,0,1,0-.9,5.07,5.07,0,0,0,.41-2.1,5.87,5.87,0,0,0-11.74,0A4.78,4.78,0,0,0,33,34.9a1.38,1.38,0,0,1,0,.9,1.07,1.07,0,0,1-.71.6A5.89,5.89,0,0,0,27.92,42a5.46,5.46,0,0,0,1.42,3.7,5.8,5.8,0,0,0,4.45,2,5.88,5.88,0,0,0,3.94-1.5A.87.87,0,0,1,38.34,46Z"/><path class="cls-2" d="M45.42,54.7H34.8a1.23,1.23,0,0,1-1.22-1.2,1.17,1.17,0,0,1,1.22-1.2H45.32a1.22,1.22,0,0,1,1.21,1.2A1.14,1.14,0,0,1,45.42,54.7Z"/><rect class="cls-2" x="36.01" y="57" width="2.33" height="2.3"/><rect class="cls-2" x="39.55" y="57" width="2.33" height="2.3"/><rect class="cls-2" x="57.05" y="57" width="2.33" height="2.3"/><rect class="cls-2" x="61.81" y="60.5" width="2.33" height="2.3"/><rect class="cls-2" x="66.46" y="55.9" width="2.33" height="2.3"/><rect class="cls-2" x="57.05" y="62.8" width="2.33" height="2.3"/><rect class="cls-2" x="64.13" y="64" width="2.33" height="2.3"/><rect class="cls-2" x="67.68" y="61.7" width="2.33" height="2.3"/><path class="cls-2" d="M72.33,74.4H53.61a1.22,1.22,0,0,1-1.21-1.2V35a1.22,1.22,0,0,1,1.21-1.2H72.33A1.22,1.22,0,0,1,73.54,35V73.2A1.22,1.22,0,0,1,72.33,74.4Zm-17.6-2.3H71.12V36.2H54.73Z"/><path class="cls-2" d="M72.33,74.4H53.61a1.22,1.22,0,0,1-1.21-1.2V53.6a1.22,1.22,0,0,1,1.21-1.2H72.33a1.22,1.22,0,0,1,1.21,1.2V73.3A1.2,1.2,0,0,1,72.33,74.4Zm-17.6-2.3H71.12V54.7H54.73Z"/><path class="cls-2" d="M72.33,74.4H53.61a1.22,1.22,0,0,1-1.21-1.2V68.6a1.22,1.22,0,0,1,1.21-1.2H72.33a1.22,1.22,0,0,1,1.21,1.2v4.6A1.22,1.22,0,0,1,72.33,74.4Zm-17.6-2.3H71.12V69.8H54.73Z"/><path class="cls-2" d="M61.81,59.3h-.2a1.21,1.21,0,0,1-1-1.3l4.66-29a1.1,1.1,0,0,1,.71-.9l9.4-3.5a1.21,1.21,0,0,1,1.52.7,1.19,1.19,0,0,1-.71,1.5L67.47,30,62.92,58.3A1.17,1.17,0,0,1,61.81,59.3Z"/><path class="cls-2" d="M41.07,42.1c-6.17,0-8.8-3.3-9.91-5.4h0c-.2-.3-.31-.7-.51-1a1.19,1.19,0,0,1,.71-1.5,1.21,1.21,0,0,1,1.52.7,3,3,0,0,0,.4.8h0c1.11,2.2,3.74,4.7,9.71,4A1.16,1.16,0,1,1,43.3,42C42.39,42,41.68,42.1,41.07,42.1Z"/><path class="cls-2" d="M47.75,74.4H24.28a1.2,1.2,0,1,1,0-2.4H47.75A1.22,1.22,0,0,1,49,73.2,1.3,1.3,0,0,1,47.75,74.4Z"/></g></g></g></svg>