<svg xmlns="http://www.w3.org/2000/svg" viewBox="0 0 101.16 100"><defs><style>.cls-1{fill:#fff;}.cls-2{fill:#009de4;}</style></defs><title>Asset 36</title><g id="Layer_2" data-name="Layer 2"><g id="_1" data-name="1"><rect class="cls-1" width="101.16" height="100"/><g id="_468_swimming_pool_hotel_serves" data-name="468, swimming, pool , hotel, serves"><path class="cls-2" d="M43.6,53a1.22,1.22,0,0,1-1.21-1.2V32.1a4.65,4.65,0,0,1,9.3,0,1.22,1.22,0,0,1-2.43,0,2.33,2.33,0,0,0-4.65,0V51.8A.93.93,0,0,1,43.6,53Z"/><path class="cls-2" d="M56.55,53a1.23,1.23,0,0,1-1.22-1.2V32.1A4.62,4.62,0,0,1,60,27.5a4.68,4.68,0,0,1,4.65,4.6,1.22,1.22,0,0,1-1.21,1.2,1.17,1.17,0,0,1-1.22-1.2,2.33,2.33,0,0,0-4.65,0V51.8A1,1,0,0,1,56.55,53Z"/><path class="cls-2" d="M50.68,66.9c-13.15,0-23.47-5.1-23.47-11.6S37.53,43.7,50.68,43.7s23.47,5.1,23.47,11.6S63.83,66.9,50.68,66.9Zm0-20.9a37,37,0,0,0-15.27,3c-3.75,1.7-5.87,4-5.87,6.3s2.12,4.6,5.87,6.3c4,1.9,9.5,2.9,15.27,2.9A37.12,37.12,0,0,0,66,61.6c3.74-1.7,5.86-4,5.86-6.3S69.7,50.7,66,49A37.42,37.42,0,0,0,50.68,46Z"/><path class="cls-2" d="M50.68,71.5c-7.38,0-14.36-1.5-19.62-4.2-5.47-2.8-8.5-6.7-8.5-10.8a1.22,1.22,0,0,1,1.21-1.2A1.17,1.17,0,0,1,25,56.5c0,3.2,2.53,6.4,7.28,8.8a42.07,42.07,0,0,0,18.51,3.9c7,0,13.56-1.4,18.51-3.9,4.66-2.4,7.29-5.5,7.29-8.8a1.21,1.21,0,0,1,2.42,0c0,4.2-3,8-8.49,10.8A45.5,45.5,0,0,1,50.68,71.5Z"/><path class="cls-2" d="M56.55,36.8H43.6a1.22,1.22,0,0,1-1.21-1.2,1.16,1.16,0,0,1,1.21-1.2H56.45a1.22,1.22,0,0,1,1.21,1.2A1.21,1.21,0,0,1,56.55,36.8Z"/><path class="cls-2" d="M56.55,41.4H43.6a1.2,1.2,0,1,1,0-2.4H56.45a1.22,1.22,0,0,1,1.21,1.2A1.14,1.14,0,0,1,56.55,41.4Z"/><path class="cls-2" d="M50.68,55.3A.93.93,0,0,1,50,55S46,51.9,44.11,53.5a5.69,5.69,0,0,1-7,.4,1.24,1.24,0,0,1-.31-1.6,1.27,1.27,0,0,1,1.62-.3,3.3,3.3,0,0,0,4.05-.3c3.44-2.9,8.7,1.3,8.9,1.5a1,1,0,0,1,.1,1.6A.84.84,0,0,1,50.68,55.3Z"/><path class="cls-2" d="M50.68,55.3a1.1,1.1,0,0,1-.91-.4,1.12,1.12,0,0,1,.1-1.6c.2-.2,5.36-4.4,8.9-1.5a3.27,3.27,0,0,0,4,.3,1.17,1.17,0,0,1,1.62.3,1.14,1.14,0,0,1-.31,1.6,5.69,5.69,0,0,1-7-.4c-1.61-1.4-4.85.7-5.86,1.5A1.11,1.11,0,0,1,50.68,55.3Z"/><path class="cls-2" d="M50.68,59.9a1.9,1.9,0,0,1-.71-.2S46,56.8,44.11,58.5a5.58,5.58,0,0,1-7.09,0,1.12,1.12,0,0,1-.1-1.6,1.14,1.14,0,0,1,1.62-.1,3.13,3.13,0,0,0,4.05,0c3.44-2.9,8.6,1,8.8,1.1a1.12,1.12,0,0,1,.2,1.6A1.1,1.1,0,0,1,50.68,59.9Z"/><path class="cls-2" d="M50.68,59.9a1.21,1.21,0,0,1-.91-.5,1.13,1.13,0,0,1,.2-1.6c.2-.2,5.36-4,8.8-1.1a3.07,3.07,0,0,0,4,0,1.14,1.14,0,0,1,1.62.1,1.12,1.12,0,0,1-.1,1.6,5.57,5.57,0,0,1-7.08,0c-2-1.7-5.87,1.2-5.87,1.2A1.1,1.1,0,0,1,50.68,59.9Z"/><path class="cls-2" d="M77.59,37.9H61.2a1.2,1.2,0,1,1,0-2.4H77.59a1.22,1.22,0,0,1,1.21,1.2A1.16,1.16,0,0,1,77.59,37.9Z"/><path class="cls-2" d="M67.07,41.4h-7a1.2,1.2,0,1,1,0-2.4h7a1.2,1.2,0,1,1,0,2.4Z"/><path class="cls-2" d="M39,37.9H22.56a1.2,1.2,0,1,1,0-2.4H39a1.2,1.2,0,1,1,0,2.4Z"/><path class="cls-2" d="M40.16,41.4h-7a1.2,1.2,0,1,1,0-2.4h7a1.2,1.2,0,1,1,0,2.4Z"/></g></g></g></svg>