<svg xmlns="http://www.w3.org/2000/svg" viewBox="0 0 101.16 100"><defs><style>.cls-1{fill:#fff;}.cls-2{fill:#009de4;}</style></defs><title>Asset 43</title><g id="Layer_2" data-name="Layer 2"><g id="_1" data-name="1"><rect class="cls-1" width="101.16" height="100"/><g id="_475_tea_cup_coffee_hotel" data-name="475, tea, cup, coffee, hotel"><path class="cls-2" d="M50.07,66.3c-4.45,0-8.49-2.1-11.63-5.9a21.79,21.79,0,0,1-4.75-13.8,1.22,1.22,0,0,1,1.21-1.2H65.35a1.22,1.22,0,0,1,1.21,1.2,21.79,21.79,0,0,1-4.75,13.8C58.57,64.2,54.52,66.3,50.07,66.3ZM36,47.8A19.42,19.42,0,0,0,40.16,59,12.82,12.82,0,0,0,50,64a12.82,12.82,0,0,0,9.81-5,18.76,18.76,0,0,0,4.15-11.2Z"/><path class="cls-2" d="M52.91,73.2H47.34A5.54,5.54,0,0,1,43.9,72l-.5-.4a3.24,3.24,0,0,0-1.92-.7h-8.6a3.54,3.54,0,1,1,0-7H67.47a3.54,3.54,0,1,1,0,7h-8.6a2.7,2.7,0,0,0-1.92.7l-.6.4A5.56,5.56,0,0,1,52.91,73.2ZM32.78,66.3c-.91,0-1.72.5-1.72,1.2s.81,1.2,1.72,1.2h8.59a5.52,5.52,0,0,1,3.44,1.2l.51.4a3.22,3.22,0,0,0,1.92.7h5.57a2.7,2.7,0,0,0,1.92-.7l.5-.4a5.54,5.54,0,0,1,3.44-1.2h8.6c.91,0,1.72-.5,1.72-1.2s-.81-1.2-1.72-1.2Z"/><path class="cls-2" d="M61.81,60.5a1.3,1.3,0,0,1-1.22-1.1,1.08,1.08,0,0,1,1.12-1.2,9.2,9.2,0,0,0,6.17-4.1c1.31-2,1.31-2.8,1.21-3-.3-.4-2-.3-3.44.1a1.11,1.11,0,0,1-1.41-.8,1.17,1.17,0,0,1,.81-1.4c.7-.2,4.55-1.2,6,.8s-.5,4.7-1.11,5.6a11.49,11.49,0,0,1-8.09,5.1Z"/><path class="cls-2" d="M65.35,47.8H34.8a1.23,1.23,0,0,1-1.22-1.2V43.1a1.23,1.23,0,0,1,1.22-1.2H65.25a1.22,1.22,0,0,1,1.21,1.2v3.5A1.2,1.2,0,0,1,65.35,47.8ZM36,45.4H64.14V44.2H36Z"/><path class="cls-2" d="M52.4,51.2H36a1.2,1.2,0,1,1,0-2.4H52.4A1.22,1.22,0,0,1,53.61,50,1.16,1.16,0,0,1,52.4,51.2Z"/><path class="cls-2" d="M44.51,44.3a1.22,1.22,0,0,1-1.21-1.2,5.84,5.84,0,0,1,5.86-5.8h9.41a1.2,1.2,0,1,0,0-2.4H42.18a3.5,3.5,0,1,1,0-7h7a1.23,1.23,0,0,0,1.22-1.2,1.22,1.22,0,0,1,2.43,0,3.57,3.57,0,0,1-3.55,3.5h-7a1.2,1.2,0,1,0,0,2.4H58.67a3.5,3.5,0,1,1,0,7H49.26a3.56,3.56,0,0,0-3.54,3.5A1.29,1.29,0,0,1,44.51,44.3Z"/></g></g></g></svg>