<svg xmlns="http://www.w3.org/2000/svg" viewBox="0 0 101.16 100"><defs><style>.cls-1{fill:#fff;}.cls-2{fill:#009de4;}</style></defs><title>Asset 37</title><g id="Layer_2" data-name="Layer 2"><g id="_1" data-name="1"><rect class="cls-1" width="101.16" height="100"/><g id="_457_lunch_hotel_knife_table" data-name="457, lunch, hotel, knife, table"><path class="cls-2" d="M47,52.7H44.1a1.58,1.58,0,0,1-1.61-1.6V40.6a3,3,0,0,1,6.07,0V51.1A1.57,1.57,0,0,1,47,52.7Zm-2.23-2.3h1.42V40.6a.71.71,0,0,0-1.42,0v9.8Z"/><path class="cls-2" d="M45.62,63.5a1.22,1.22,0,0,1-1.21-1.2V51.5a1.22,1.22,0,0,1,2.43,0V62.3A1.23,1.23,0,0,1,45.62,63.5Z"/><path class="cls-2" d="M48.15,63.5a1.22,1.22,0,0,1-1.21-1.2V57c0-.4-.2-.7-.31-.7H44.41c-.1,0-.31.3-.31.7v5.4a1.21,1.21,0,0,1-2.42,0V57a2.84,2.84,0,0,1,2.73-3h2.22a2.91,2.91,0,0,1,2.74,3v5.4A1.15,1.15,0,0,1,48.15,63.5Z"/><path class="cls-2" d="M55.23,63.5A3.17,3.17,0,0,1,52,60.3V49.5c0-.2,0-.3.1-.4A8.09,8.09,0,0,1,50,43.6a7.46,7.46,0,0,1,7.29-7.7,1.22,1.22,0,0,1,1.21,1.2V60.4A3.29,3.29,0,0,1,55.23,63.5Zm-.91-12.8v9.6a.91.91,0,0,0,1.82,0v-22a5.36,5.36,0,0,0-3.84,5.3,5.5,5.5,0,0,0,2.83,4.9,1.2,1.2,0,0,1,.61,1.3,1.18,1.18,0,0,1-1.11.9Z"/><path class="cls-2" d="M50.07,68.6A19.1,19.1,0,1,1,69.39,49.5,19.27,19.27,0,0,1,50.07,68.6Zm0-35.9a16.8,16.8,0,1,0,17,16.8A16.87,16.87,0,0,0,50.07,32.7Z"/><path class="cls-2" d="M72.94,75.6a1.23,1.23,0,0,1-1.22-1.2V26.2l-2,.7a1.2,1.2,0,0,1-1-.1l-2.84-1.9L63,26.8a1.07,1.07,0,0,1-1.31,0l-2.84-1.9L56,26.8a1.07,1.07,0,0,1-1.31,0l-2.84-1.9-2.83,1.9a1.07,1.07,0,0,1-1.31,0l-2.84-1.9-2.83,1.9a1.07,1.07,0,0,1-1.31,0l-2.84-1.9L35.1,26.8a1.07,1.07,0,0,1-1.31,0l-3-2-2.12.7v49a1.23,1.23,0,0,1-1.22,1.2,1.16,1.16,0,0,1-1.21-1.2V24.6A1.17,1.17,0,0,1,27,23.5l3.54-1.2a1.21,1.21,0,0,1,1,.1l2.83,1.9,2.84-1.9a1.07,1.07,0,0,1,1.31,0l2.83,1.9,2.84-1.9a1.07,1.07,0,0,1,1.31,0l2.83,1.9,2.84-1.9a1.07,1.07,0,0,1,1.31,0l2.83,1.9,2.84-1.9a1.07,1.07,0,0,1,1.31,0l2.83,1.9,2.84-1.9a1.07,1.07,0,0,1,1.31,0l3,2,2.93-1a.94.94,0,0,1,1,.2,1.21,1.21,0,0,1,.51.9V74.3A1.1,1.1,0,0,1,72.94,75.6Z"/><path class="cls-2" d="M30.75,76.7a.76.76,0,0,1-.4-.1l-3.54-1.2a1.19,1.19,0,0,1-.71-1.5,1.21,1.21,0,0,1,1.52-.7l2.93,1,3-2a1.08,1.08,0,0,1,1.32,0l2.83,1.9,2.83-1.9a1.08,1.08,0,0,1,1.32,0l2.83,1.9,2.83-1.9a1.08,1.08,0,0,1,1.32,0l2.83,1.9,2.83-1.9a1.08,1.08,0,0,1,1.32,0l2.83,1.9,2.83-1.9a1.08,1.08,0,0,1,1.32,0l2.83,1.9,2.83-1.9a1.23,1.23,0,0,1,1-.1L73,73.3a1.18,1.18,0,0,1,.7,1.5,1.2,1.2,0,0,1-1.51.7l-2.94-1-3,2a1.08,1.08,0,0,1-1.32,0l-2.83-1.9-2.83,1.9a1.08,1.08,0,0,1-1.32,0l-2.83-1.9L52.3,76.5a1.08,1.08,0,0,1-1.32,0l-2.83-1.9-2.83,1.9a1.08,1.08,0,0,1-1.32,0l-2.83-1.9-2.73,1.9a1.08,1.08,0,0,1-1.32,0l-2.83-1.9-2.93,1.9A.75.75,0,0,1,30.75,76.7Z"/><path class="cls-2" d="M37.73,57a1.18,1.18,0,0,1-1.11-.8,20.92,20.92,0,0,1,0-13.5,1.09,1.09,0,0,1,1.52-.6,1.06,1.06,0,0,1,.6,1.5,19.3,19.3,0,0,0,0,11.9A1.18,1.18,0,0,1,38,57Z"/><path class="cls-2" d="M62.41,55.9a.6.6,0,0,1-.4-.1,1.07,1.07,0,0,1-.61-1.5,16,16,0,0,0,0-10.7A1.23,1.23,0,0,1,62,42.1a1.26,1.26,0,0,1,1.52.6c.1.3,2.53,6.3,0,12.4A1.29,1.29,0,0,1,62.41,55.9Z"/></g></g></g></svg>