<svg xmlns="http://www.w3.org/2000/svg" viewBox="0 0 101.16 100"><defs><style>.cls-1{fill:#fff;}.cls-2{fill:#009de4;}</style></defs><title>Asset 45</title><g id="Layer_2" data-name="Layer 2"><g id="_1" data-name="1"><rect class="cls-1" width="101.16" height="100"/><g id="_466_swimsuite_summer_swim_beach_trouser" data-name="466, swimsuite, summer, swim, beach, trouser"><path class="cls-2" d="M70,51.2H29A1.22,1.22,0,0,1,27.82,50V43.8a4.25,4.25,0,0,1,4.25-4.2h34.8a4.26,4.26,0,0,1,4.25,4.2V50A1.14,1.14,0,0,1,70,51.2ZM30.15,48.9H68.79V43.8a1.91,1.91,0,0,0-1.92-1.9H32.07a1.91,1.91,0,0,0-1.92,1.9Z"/><path class="cls-2" d="M53.61,74.4a.91.91,0,0,1-.7-.3,1.07,1.07,0,0,1-.41-.9V62.4a2.33,2.33,0,1,0-4.65,0V73.2a1.45,1.45,0,0,1-.41.9,1.18,1.18,0,0,1-1,.2l-17.6-3.5a1.18,1.18,0,0,1-.91-1.1V43.9a4.25,4.25,0,0,1,4.25-4.2H67a4.26,4.26,0,0,1,4.25,4.2V69.8a1.18,1.18,0,0,1-.91,1.1L53.92,74.4ZM30.15,68.8l15.27,3V62.4a4.79,4.79,0,0,1,4.65-4.8,4.67,4.67,0,0,1,4.66,4.8v9.4l14.06-3v-25a1.91,1.91,0,0,0-1.92-1.9H32.07a1.91,1.91,0,0,0-1.92,1.9Z"/><path class="cls-2" d="M55.94,46.6H43.09a1.2,1.2,0,1,1,0-2.4H55.94a1.23,1.23,0,0,1,1.22,1.2A1.31,1.31,0,0,1,55.94,46.6Z"/><path class="cls-2" d="M46.53,54.7a1.22,1.22,0,0,1-1.21-1.2V45.4a1.22,1.22,0,0,1,2.43,0v8.1A1.17,1.17,0,0,1,46.53,54.7Z"/><path class="cls-2" d="M52.4,54.7a1.22,1.22,0,0,1-1.21-1.2V45.4a1.21,1.21,0,0,1,2.42,0v8.1A1.16,1.16,0,0,1,52.4,54.7Z"/><path class="cls-2" d="M33.69,70.9a1.23,1.23,0,0,1-1.22-1.2V59.3a1.22,1.22,0,0,1,2.43,0V69.7A1.3,1.3,0,0,1,33.69,70.9Z"/><path class="cls-2" d="M33.69,57a1.23,1.23,0,0,1-1.22-1.2V54.6a1.22,1.22,0,0,1,2.43,0v1.2A1.3,1.3,0,0,1,33.69,57Z"/><path class="cls-2" d="M65.15,38.5H61.71a9.23,9.23,0,0,1-9.31-9.2V28.2A3.61,3.61,0,0,1,56,24.6h9.11a3.61,3.61,0,0,1,3.64,3.6v6.7A3.61,3.61,0,0,1,65.15,38.5ZM56,26.9a1.33,1.33,0,0,0-1.31,1.3v1.1a7,7,0,0,0,7,6.9h3.44a1.33,1.33,0,0,0,1.31-1.3V28.2a1.33,1.33,0,0,0-1.31-1.3Z"/><path class="cls-2" d="M38.44,38.5H35a3.61,3.61,0,0,1-3.64-3.6V28.2A3.61,3.61,0,0,1,35,24.6h9.11a3.61,3.61,0,0,1,3.64,3.6v1.1A9.3,9.3,0,0,1,38.44,38.5ZM35,26.9a1.33,1.33,0,0,0-1.31,1.3v6.7A1.33,1.33,0,0,0,35,36.2h3.44a7,7,0,0,0,7-6.9V28.2a1.33,1.33,0,0,0-1.31-1.3Z"/><path class="cls-2" d="M57.05,26.9H44.11a1.23,1.23,0,0,1-1.22-1.2,1.17,1.17,0,0,1,1.22-1.2h13a1.22,1.22,0,0,1,1.21,1.2A1.25,1.25,0,0,1,57.05,26.9Z"/><path class="cls-2" d="M53.61,31.5H46.53a1.2,1.2,0,1,1,0-2.4h7.08a1.23,1.23,0,0,1,1.22,1.2A1.3,1.3,0,0,1,53.61,31.5Z"/><path class="cls-2" d="M71.22,28.1H71l-5.86-1.2a1.17,1.17,0,0,1-.91-1.4,1.19,1.19,0,0,1,1.41-.9l5.87,1.2a1.18,1.18,0,0,1,.91,1.4A1.41,1.41,0,0,1,71.22,28.1Z"/><path class="cls-2" d="M28.93,28.1a1.18,1.18,0,0,1-1.11-.9,1.29,1.29,0,0,1,.91-1.4l5.87-1.2a1.31,1.31,0,0,1,1.41.9,1.29,1.29,0,0,1-.91,1.4L29.24,28A.4.4,0,0,1,28.93,28.1Z"/><path class="cls-2" d="M66.26,60.8a2.09,2.09,0,0,1-1.72-.7c-.3-.3-2-.2-3.44.3a1.21,1.21,0,0,1-1.52-.7,1.19,1.19,0,0,1,.71-1.5s1-.3,2.13-.5c1.71-.2,3,0,3.74.7a7.35,7.35,0,0,0,3.24-1.3,1.14,1.14,0,0,1,1.61.3,1.11,1.11,0,0,1-.3,1.6A8.65,8.65,0,0,1,66.26,60.8Z"/><path class="cls-2" d="M66.26,65.1a2.09,2.09,0,0,1-1.72-.7c-.3-.3-2-.2-3.44.3a1.2,1.2,0,0,1-1.62-.7,1.19,1.19,0,0,1,.71-1.5s1-.3,2.12-.5c1.72-.2,3,0,3.75.7a7.28,7.28,0,0,0,3.23-1.3,1.15,1.15,0,0,1,1.62.3,1.11,1.11,0,0,1-.3,1.6A7.94,7.94,0,0,1,66.26,65.1Z"/></g></g></g></svg>