<svg xmlns="http://www.w3.org/2000/svg" viewBox="0 0 101.16 100"><defs><style>.cls-1{fill:#fff;}.cls-2{fill:#009de4;}</style></defs><title>Asset 44</title><g id="Layer_2" data-name="Layer 2"><g id="_1" data-name="1"><rect class="cls-1" width="101.16" height="100"/><g id="_460_pass_passboart_ticket_hotel" data-name="460, pass, passboart, ticket, hotel"><path class="cls-2" d="M50.07,56.4A11.6,11.6,0,1,1,61.81,44.8,11.68,11.68,0,0,1,50.07,56.4Zm0-20.8a9.3,9.3,0,1,0,9.41,9.3A9.39,9.39,0,0,0,50.07,35.6Z"/><path class="cls-2" d="M50.07,55.7c-1.72,0-3.33-1.2-4.45-3.5a16.7,16.7,0,0,1-1.51-7.4,16.7,16.7,0,0,1,1.51-7.4c1.12-2.2,2.73-3.5,4.45-3.5s3.34,1.2,4.45,3.5A16.56,16.56,0,0,1,56,44.8a16.56,16.56,0,0,1-1.52,7.4C53.41,54.5,51.79,55.7,50.07,55.7Zm0-19.4c-1.72,0-3.64,3.6-3.64,8.5s1.92,8.5,3.64,8.5,3.64-3.6,3.64-8.5S51.79,36.3,50.07,36.3Z"/><path class="cls-2" d="M60.59,46.4H40.16a1.2,1.2,0,1,1,0-2.4H60.59a1.23,1.23,0,0,1,1.22,1.2A1.17,1.17,0,0,1,60.59,46.4Z"/><path class="cls-2" d="M58.87,40.5h-17a1.2,1.2,0,1,1,0-2.4h17a1.23,1.23,0,0,1,1.22,1.2A1.17,1.17,0,0,1,58.87,40.5Z"/><path class="cls-2" d="M58.87,51.4H41.07a1.22,1.22,0,0,1-1.21-1.2A1.16,1.16,0,0,1,41.07,49H59a1.22,1.22,0,0,1,1.21,1.2A1.25,1.25,0,0,1,58.87,51.4Z"/><path class="cls-2" d="M68.28,76.1H63.63a1.23,1.23,0,0,1-1.22-1.2c0-1-1.11-2.2-3.13-3a22.32,22.32,0,0,0-8.6-1.6,22,22,0,0,0-8.6,1.6c-1.92.9-3.13,2-3.13,3a1.23,1.23,0,0,1-1.22,1.2H31.87a1.23,1.23,0,0,1-1.22-1.2V24a1.23,1.23,0,0,1,1.22-1.2h5.86A1.23,1.23,0,0,1,39,24c0,1,1.11,2.2,3.13,3a22.32,22.32,0,0,0,8.6,1.6,22,22,0,0,0,8.6-1.6c1.92-.9,3.13-2,3.13-3a1.23,1.23,0,0,1,1.22-1.2h4.65A1.23,1.23,0,0,1,69.5,24V75A1.3,1.3,0,0,1,68.28,76.1Zm-3.74-2.3h2.53V25.2H64.54c-.51,1.6-1.92,3-4.25,4A25.68,25.68,0,0,1,50.68,31a23.85,23.85,0,0,1-9.61-1.8c-2.33-1-3.84-2.4-4.25-4H33.08V73.8h3.74c.51-1.6,1.92-2.9,4.25-4A23.51,23.51,0,0,1,50.68,68a23.51,23.51,0,0,1,9.61,1.8C62.62,70.9,64,72.3,64.54,73.8Z"/><path class="cls-2" d="M62.41,61.1H37.73a1.22,1.22,0,0,1-1.21-1.2,1.16,1.16,0,0,1,1.21-1.2H62.31a1.23,1.23,0,0,1,1.22,1.2A1.14,1.14,0,0,1,62.41,61.1Z"/><path class="cls-2" d="M62.41,65.7H37.73a1.2,1.2,0,1,1,0-2.4H62.31a1.23,1.23,0,0,1,1.22,1.2A1.14,1.14,0,0,1,62.41,65.7Z"/></g></g></g></svg>