<svg xmlns="http://www.w3.org/2000/svg" viewBox="0 0 101.16 100"><defs><style>.cls-1{fill:#fff;}.cls-2{fill:#009de4;}</style></defs><title>Asset 50</title><g id="Layer_2" data-name="Layer 2"><g id="_1" data-name="1"><rect class="cls-1" width="101.16" height="100"/><g id="_467_bullet_train_high_speed" data-name="467, bullet, train, high, speed"><path class="cls-2" d="M65.35,66.3H26.61a1.23,1.23,0,0,1-1.22-1.2A19.79,19.79,0,0,1,45.32,45.4H65.25a1.22,1.22,0,0,1,1.21,1.2V65.1A1.14,1.14,0,0,1,65.35,66.3ZM27.82,64H64.13V47.8H45.42A17.51,17.51,0,0,0,27.82,64Z"/><path class="cls-2" d="M45.42,58.2H29A1.22,1.22,0,0,1,27.82,57,1.16,1.16,0,0,1,29,55.8H44.31V46.5a1.22,1.22,0,0,1,2.43,0V57A1.49,1.49,0,0,1,45.42,58.2Z"/><path class="cls-2" d="M65.35,54.7H52.4a1.22,1.22,0,0,1-1.21-1.2V46.6a1.22,1.22,0,0,1,1.21-1.2H65.25a1.22,1.22,0,0,1,1.21,1.2v6.9A1.14,1.14,0,0,1,65.35,54.7ZM53.61,52.4H64.13V47.8H53.61Z"/><path class="cls-2" d="M65.35,54.7H52.4a1.22,1.22,0,0,1-1.21-1.2V46.6a1.22,1.22,0,0,1,1.21-1.2H65.25a1.22,1.22,0,0,1,1.21,1.2v6.9A1.14,1.14,0,0,1,65.35,54.7ZM53.61,52.4H64.13V47.8H53.61Z"/><path class="cls-2" d="M52.4,54.7h-7a1.22,1.22,0,0,1-1.21-1.2V46.6a1.22,1.22,0,0,1,1.21-1.2h7a1.22,1.22,0,0,1,1.21,1.2v6.9A1.16,1.16,0,0,1,52.4,54.7Zm-5.87-2.3h4.66V47.8H46.53v4.6Z"/><path class="cls-2" d="M52.4,54.7h-7a1.22,1.22,0,0,1-1.21-1.2V46.6a1.22,1.22,0,0,1,1.21-1.2h7a1.22,1.22,0,0,1,1.21,1.2v6.9A1.16,1.16,0,0,1,52.4,54.7Zm-5.87-2.3h4.66V47.8H46.53v4.6Z"/><path class="cls-2" d="M65.35,62.8H36a1.2,1.2,0,1,1,0-2.4H65.35a1.22,1.22,0,0,1,1.21,1.2A1.29,1.29,0,0,1,65.35,62.8Z"/><path class="cls-2" d="M75.87,70.9H24.28a1.2,1.2,0,1,1,0-2.4H75.87a1.22,1.22,0,0,1,1.21,1.2A1.29,1.29,0,0,1,75.87,70.9Z"/><rect class="cls-2" x="48.86" y="57" width="2.33" height="2.3"/><rect class="cls-2" x="52.4" y="57" width="2.33" height="2.3"/><rect class="cls-2" x="55.94" y="57" width="2.33" height="2.3"/><rect class="cls-2" x="59.48" y="57" width="2.33" height="2.3"/><path class="cls-2" d="M70,66.3H65.35a1.2,1.2,0,1,1,0-2.4h3.44V43.1a3.54,3.54,0,0,0-7.08,0v3.5a1.23,1.23,0,0,1-1.22,1.2,1.16,1.16,0,0,1-1.21-1.2V43.1A5.87,5.87,0,0,1,71,43.1v22A1,1,0,0,1,70,66.3Z"/><path class="cls-2" d="M27.82,74.4a1.22,1.22,0,0,1-1.21-1.2V69.7a1.22,1.22,0,0,1,1.21-1.2A1.16,1.16,0,0,1,29,69.7v3.5A1.22,1.22,0,0,1,27.82,74.4Z"/><path class="cls-2" d="M32.47,74.4a1.22,1.22,0,0,1-1.21-1.2V69.7a1.22,1.22,0,0,1,2.43,0v3.5A1.17,1.17,0,0,1,32.47,74.4Z"/><path class="cls-2" d="M37.23,74.4A1.23,1.23,0,0,1,36,73.2V69.7a1.23,1.23,0,0,1,1.22-1.2,1.16,1.16,0,0,1,1.21,1.2v3.5A1.3,1.3,0,0,1,37.23,74.4Z"/><path class="cls-2" d="M41.88,74.4a1.22,1.22,0,0,1-1.21-1.2V69.7a1.21,1.21,0,0,1,2.42,0v3.5A1.22,1.22,0,0,1,41.88,74.4Z"/><path class="cls-2" d="M46.53,74.4a1.22,1.22,0,0,1-1.21-1.2V69.7a1.22,1.22,0,0,1,2.43,0v3.5A1.17,1.17,0,0,1,46.53,74.4Z"/><path class="cls-2" d="M51.29,74.4a1.23,1.23,0,0,1-1.22-1.2V69.7a1.23,1.23,0,0,1,1.22-1.2,1.16,1.16,0,0,1,1.21,1.2v3.5A1.3,1.3,0,0,1,51.29,74.4Z"/><path class="cls-2" d="M55.94,74.4a1.22,1.22,0,0,1-1.21-1.2V69.7a1.22,1.22,0,0,1,1.21-1.2,1.17,1.17,0,0,1,1.22,1.2v3.5A1.31,1.31,0,0,1,55.94,74.4Z"/><path class="cls-2" d="M60.59,74.4a1.22,1.22,0,0,1-1.21-1.2V69.7a1.22,1.22,0,0,1,1.21-1.2,1.17,1.17,0,0,1,1.22,1.2v3.5A1.17,1.17,0,0,1,60.59,74.4Z"/><path class="cls-2" d="M65.35,74.4a1.23,1.23,0,0,1-1.22-1.2V69.7a1.22,1.22,0,0,1,2.43,0v3.5A1.29,1.29,0,0,1,65.35,74.4Z"/><path class="cls-2" d="M70,74.4a1.22,1.22,0,0,1-1.21-1.2V69.7A1.22,1.22,0,0,1,70,68.5a1.17,1.17,0,0,1,1.22,1.2v3.5A1.3,1.3,0,0,1,70,74.4Z"/><path class="cls-2" d="M27.82,45.4a4.6,4.6,0,1,1,0-9.2h.1A5.92,5.92,0,0,1,39.05,35a1.07,1.07,0,0,1-.61,1.5,1.09,1.09,0,0,1-1.52-.6,3.6,3.6,0,0,0-3.23-2,3.56,3.56,0,0,0-3.54,3.5v.2a1.24,1.24,0,0,1-.51,1,1.41,1.41,0,0,1-1.11.2,2,2,0,0,0-.81-.1,2.3,2.3,0,1,0,0,4.6,1.22,1.22,0,0,1,1.21,1.2C29,44.9,28.43,45.4,27.82,45.4Z"/><path class="cls-2" d="M74.66,35a1.23,1.23,0,0,1-1.22-1.2,2.27,2.27,0,0,0-2.32-2.3,2.23,2.23,0,0,0-.81.1,1.13,1.13,0,0,1-1.12-.2,1.23,1.23,0,0,1-.5-1v-.2a3.56,3.56,0,0,0-3.54-3.5,3.61,3.61,0,0,0-3.24,2,1.24,1.24,0,0,1-1.52.6,1.21,1.21,0,0,1-.6-1.5A5.91,5.91,0,0,1,70.91,29H71a4.62,4.62,0,0,1,4.66,4.6A1,1,0,0,1,74.66,35Z"/><path class="cls-2" d="M33.28,45.4H27.41a1.22,1.22,0,0,1-1.21-1.2A1.16,1.16,0,0,1,27.41,43h5.87a1.23,1.23,0,0,1,1.22,1.2A1.31,1.31,0,0,1,33.28,45.4Z"/></g></g></g></svg>