<svg xmlns="http://www.w3.org/2000/svg" viewBox="0 0 101.16 100"><defs><style>.cls-1{fill:#fff;}.cls-2{fill:#009de4;}</style></defs><title>Asset 39</title><g id="Layer_2" data-name="Layer 2"><g id="_1" data-name="1"><rect class="cls-1" width="101.16" height="100"/><g id="_458_temperature_hot_weather_update" data-name="458, temperature, hot, weather, update"><path class="cls-2" d="M50.07,75.6h-.2a14.24,14.24,0,0,1-9.71-4.1,13.82,13.82,0,0,1-1.72-17.7A14.15,14.15,0,0,1,44.21,49V30.4a5.87,5.87,0,0,1,11.73,0V49a13.64,13.64,0,0,1,5.67,4.7,13.91,13.91,0,0,1,2.52,7.9,14.24,14.24,0,0,1-14.06,14Zm0-48.7a3.56,3.56,0,0,0-3.54,3.5V49.8a1.23,1.23,0,0,1-.7,1.1,11.51,11.51,0,0,0,4,22.3h.2a11.71,11.71,0,0,0,8.3-3.4,11.45,11.45,0,0,0,3.44-8.2,11.59,11.59,0,0,0-7.49-10.8,1.09,1.09,0,0,1-.71-1.1V30.4A3.56,3.56,0,0,0,50.07,26.9Z"/><path class="cls-2" d="M50.07,68.6a7,7,0,1,1,7.08-7A7.06,7.06,0,0,1,50.07,68.6Zm0-11.6a4.6,4.6,0,1,0,4.66,4.6A4.68,4.68,0,0,0,50.07,57Z"/><path class="cls-2" d="M50.07,32.7H45.42a1.22,1.22,0,0,1-1.21-1.2,1.16,1.16,0,0,1,1.21-1.2h4.65a1.2,1.2,0,1,1,0,2.4Z"/><path class="cls-2" d="M50.07,37.3H45.42a1.22,1.22,0,0,1-1.21-1.2,1.16,1.16,0,0,1,1.21-1.2h4.65a1.2,1.2,0,1,1,0,2.4Z"/><path class="cls-2" d="M50.07,42H45.42a1.2,1.2,0,1,1,0-2.4h4.65a1.2,1.2,0,1,1,0,2.4Z"/><path class="cls-2" d="M50.07,46.6H45.42a1.2,1.2,0,1,1,0-2.4h4.65a1.2,1.2,0,1,1,0,2.4Z"/><path class="cls-2" d="M29.44,39.7a4.6,4.6,0,1,1,0-9.2h.1a5.92,5.92,0,0,1,11.13-1.2,1.07,1.07,0,0,1-.61,1.5,1.16,1.16,0,0,1-1.52-.6,3.61,3.61,0,0,0-3.24-2,3.56,3.56,0,0,0-3.54,3.5v.1a1.23,1.23,0,0,1-.5,1,1.42,1.42,0,0,1-1.11.2,2.32,2.32,0,1,0-.81,4.5,1.22,1.22,0,0,1,1.21,1.2A1.19,1.19,0,0,1,29.44,39.7Z"/><path class="cls-2" d="M74.25,33.9A1.22,1.22,0,0,1,73,32.7a2.44,2.44,0,0,0-3.14-2.2,1.11,1.11,0,0,1-1.11-.2,1.21,1.21,0,0,1-.51-1v-.1a3.56,3.56,0,0,0-3.54-3.5,3.74,3.74,0,0,0-3.24,2,1.23,1.23,0,0,1-1.51.6,1.21,1.21,0,0,1-.61-1.5A5.92,5.92,0,0,1,70.51,28h.1a4.61,4.61,0,0,1,4.65,4.6A1,1,0,0,1,74.25,33.9Z"/><path class="cls-2" d="M34.8,39.7H28.93a1.22,1.22,0,0,1-1.21-1.2,1.16,1.16,0,0,1,1.21-1.2H34.8A1.22,1.22,0,0,1,36,38.5,1.16,1.16,0,0,1,34.8,39.7Z"/><path class="cls-2" d="M64.13,42a1.22,1.22,0,0,1-1.21-1.2V35.4a1.55,1.55,0,0,0-1.52-1.5H54.73a1.2,1.2,0,1,1,0-2.4H61.4a3.84,3.84,0,0,1,3.85,3.9v5.4A1.09,1.09,0,0,1,64.13,42Z"/><path class="cls-2" d="M62.11,43.2v4.6H61.2v-2h-2v2h-.91V43.2h.91V45h2V43.2Z"/><path class="cls-2" d="M65,47.8a3,3,0,0,1-.91-.2,1.79,1.79,0,0,1-.7-.5c-.21-.2-.31-.5-.51-.7a3.09,3.09,0,0,1-.2-.8,1.49,1.49,0,0,1,.2-.9,3.73,3.73,0,0,1,.51-.7,1.79,1.79,0,0,1,.7-.5,3,3,0,0,1,.91-.2,2.92,2.92,0,0,1,.91.2,1.76,1.76,0,0,1,.71.5,1.9,1.9,0,0,1,.41.8,3.09,3.09,0,0,1,.2.8,2.92,2.92,0,0,1-.2.9,1.82,1.82,0,0,1-.51.7,1.76,1.76,0,0,1-.71.5C65.65,47.7,65.35,47.8,65,47.8Zm-1.31-2.3a1.27,1.27,0,0,0,.1.6c.1.2.2.3.3.5a.57.57,0,0,0,.41.3c.1,0,.4.1.61.1a1.27,1.27,0,0,0,.6-.1,1.45,1.45,0,0,0,.41-.3c.1-.2.2-.3.3-.5a1.85,1.85,0,0,0,0-1.2c-.1-.2-.2-.3-.3-.5s-.31-.3-.41-.3a3.54,3.54,0,0,0-.6-.1,1.29,1.29,0,0,0-.61.1,1.61,1.61,0,0,0-.41.3,2.19,2.19,0,0,0-.3.5A1.27,1.27,0,0,0,63.73,45.5Z"/><path class="cls-2" d="M71.11,43.9H69.7v3.8h-.91V43.9H67.37v-.8h3.85l-.11.8Z"/><path class="cls-2" d="M74.66,66.3H62.92a1.2,1.2,0,1,1,0-2.4H74.66a1.22,1.22,0,0,1,1.21,1.2A1.16,1.16,0,0,1,74.66,66.3Z"/><path class="cls-2" d="M68.79,70.9h-8.2a1.2,1.2,0,1,1,0-2.4h8.2A1.22,1.22,0,0,1,70,69.7,1.16,1.16,0,0,1,68.79,70.9Z"/><path class="cls-2" d="M37.23,66.3H25.49a1.2,1.2,0,1,1,0-2.4H37.23a1.22,1.22,0,0,1,1.21,1.2A1.3,1.3,0,0,1,37.23,66.3Z"/><path class="cls-2" d="M39.55,70.9H31.36a1.2,1.2,0,1,1,0-2.4h8.19a1.23,1.23,0,0,1,1.22,1.2A1.3,1.3,0,0,1,39.55,70.9Z"/></g></g></g></svg>