<svg xmlns="http://www.w3.org/2000/svg" viewBox="0 0 101.16 100"><defs><style>.cls-1{fill:#fff;}.cls-2{fill:#009de4;}</style></defs><title>Asset 49</title><g id="Layer_2" data-name="Layer 2"><g id="_1" data-name="1"><rect class="cls-1" width="101.16" height="100"/><g id="_465_hotel_bag_suitcase_luggage" data-name="465, hotel, bag , suitcase, luggage"><path class="cls-2" d="M74.66,66.3H25.49a1.22,1.22,0,0,1-1.21-1.2V31.5a1.22,1.22,0,0,1,1.21-1.2H74.66a1.22,1.22,0,0,1,1.21,1.2V65.1A1.22,1.22,0,0,1,74.66,66.3ZM26.71,64H73.54V32.7H26.71Z"/><path class="cls-2" d="M65,66.3H35.1a1.22,1.22,0,0,1-1.21-1.2V42a1.22,1.22,0,0,1,1.21-1.2H65A1.23,1.23,0,0,1,66.26,42V65.2A1.15,1.15,0,0,1,65,66.3ZM36.21,64H63.83V43.1H36.21Z"/><path class="cls-2" d="M36.32,37.3h-6a1.23,1.23,0,0,1-1.22-1.2V31.5a1.23,1.23,0,0,1,1.22-1.2h6a1.22,1.22,0,0,1,1.21,1.2v4.6A1.3,1.3,0,0,1,36.32,37.3ZM31.46,35H35.1V32.7H31.46Z"/><path class="cls-2" d="M69.9,37.3h-6a1.22,1.22,0,0,1-1.21-1.2V31.5a1.22,1.22,0,0,1,1.21-1.2h6a1.22,1.22,0,0,1,1.21,1.2v4.6A1.29,1.29,0,0,1,69.9,37.3ZM65,35h3.65V32.7H65Z"/><rect class="cls-2" x="29.13" y="59.3" width="2.43" height="2.3"/><rect class="cls-2" x="68.69" y="59.3" width="2.43" height="2.3"/><path class="cls-2" d="M54.22,61.7H35a1.22,1.22,0,0,1-1.21-1.2A1.16,1.16,0,0,1,35,59.3H54.22a1.22,1.22,0,0,1,1.21,1.2A1.16,1.16,0,0,1,54.22,61.7Z"/><path class="cls-2" d="M59.08,61.7H57.86a1.22,1.22,0,0,1-1.21-1.2,1.16,1.16,0,0,1,1.21-1.2h1.22a1.2,1.2,0,1,1,0,2.4Z"/><path class="cls-2" d="M61.5,32.7H38.64a1.22,1.22,0,0,1-1.21-1.2V24.6a1.22,1.22,0,0,1,1.21-1.2H61.4a1.23,1.23,0,0,1,1.22,1.2v6.9A1.14,1.14,0,0,1,61.5,32.7ZM39.86,30.4H60.29V25.8H39.86Z"/><path class="cls-2" d="M41.07,45.4a1.22,1.22,0,0,1-1.21-1.2V39.6a1.21,1.21,0,0,1,2.42,0v4.6A1.16,1.16,0,0,1,41.07,45.4Z"/><path class="cls-2" d="M44.71,45.4a1.22,1.22,0,0,1-1.21-1.2V39.6a1.22,1.22,0,0,1,1.21-1.2,1.17,1.17,0,0,1,1.22,1.2v4.6A1.3,1.3,0,0,1,44.71,45.4Z"/><path class="cls-2" d="M48.25,45.4A1.22,1.22,0,0,1,47,44.2V39.6a1.22,1.22,0,0,1,2.43,0v4.6A1.17,1.17,0,0,1,48.25,45.4Z"/><path class="cls-2" d="M51.89,45.4a1.22,1.22,0,0,1-1.21-1.2V39.6a1.22,1.22,0,0,1,1.21-1.2,1.17,1.17,0,0,1,1.22,1.2v4.6A1.3,1.3,0,0,1,51.89,45.4Z"/><path class="cls-2" d="M55.43,45.4a1.22,1.22,0,0,1-1.21-1.2V39.6a1.22,1.22,0,0,1,1.21-1.2,1.25,1.25,0,0,1,1.22,1.3v4.6A1.15,1.15,0,0,1,55.43,45.4Z"/><path class="cls-2" d="M59.08,45.4a1.23,1.23,0,0,1-1.22-1.2V39.6a1.23,1.23,0,0,1,1.22-1.2,1.16,1.16,0,0,1,1.21,1.2v4.6A1.3,1.3,0,0,1,59.08,45.4Z"/><path class="cls-2" d="M41.07,70.9H30.25A1.23,1.23,0,0,1,29,69.7V65.1a1.23,1.23,0,0,1,1.22-1.2H41.07a1.22,1.22,0,0,1,1.21,1.2v4.6A1.16,1.16,0,0,1,41.07,70.9Zm-9.61-2.3H40V66.3h-8.5Z"/><path class="cls-2" d="M69.9,70.9H59.08a1.23,1.23,0,0,1-1.22-1.2V65.1a1.23,1.23,0,0,1,1.22-1.2H69.9a1.22,1.22,0,0,1,1.21,1.2v4.6A1.29,1.29,0,0,1,69.9,70.9Zm-9.71-2.3h8.5V66.3h-8.5v2.3Z"/><path class="cls-2" d="M75.87,70.9H24.28a1.2,1.2,0,1,1,0-2.4H75.87a1.22,1.22,0,0,1,1.21,1.2A1.29,1.29,0,0,1,75.87,70.9Z"/><path class="cls-2" d="M75.87,75.6H24.28a1.2,1.2,0,1,1,0-2.4H75.87a1.22,1.22,0,0,1,1.21,1.2A1.38,1.38,0,0,1,75.87,75.6Z"/></g></g></g></svg>