<svg xmlns="http://www.w3.org/2000/svg" viewBox="0 0 101.16 100"><defs><style>.cls-1{fill:#fff;}.cls-2{fill:#009de4;}</style></defs><title>Asset 29</title><g id="Layer_2" data-name="Layer 2"><g id="_1" data-name="1"><rect class="cls-1" width="101.16" height="100"/><g id="_474_globe_world_internet_hotel" data-name="474, globe, world, internet, hotel"><path class="cls-2" d="M50.07,73.2A23.75,23.75,0,1,1,74.15,49.4,23.91,23.91,0,0,1,50.07,73.2Zm0-45.1A21.45,21.45,0,1,0,71.82,49.5,21.55,21.55,0,0,0,50.07,28.1Z"/><path class="cls-2" d="M50.07,77.9A28.52,28.52,0,0,1,21.45,49.5a28.14,28.14,0,0,1,9.81-21.3,1.14,1.14,0,0,1,1.62.1,1.12,1.12,0,0,1-.1,1.6A25.69,25.69,0,1,0,43.9,24.1a1.21,1.21,0,0,1-1.41-.9c-.21-.7.2-1.2.91-1.4a30.39,30.39,0,0,1,6.67-.8,28.45,28.45,0,1,1,0,56.9Z"/><path class="cls-2" d="M47.34,73.1h-.1a24,24,0,0,1-17.8-11.4,1.12,1.12,0,0,1-.1-1,1.14,1.14,0,0,1,.81-.7A5.94,5.94,0,0,1,32,59.8a7.36,7.36,0,0,1,3.44,1,22.85,22.85,0,0,0,2.22,1h0c3,.9,3.54,2.4,3.74,3.9.11.6.11.8.41.9h0a.58.58,0,0,0,.4.1,10.51,10.51,0,0,0,2.43-.5.35.35,0,0,0,.2-.1h0c.1,0,.1,0,.21-.1a18.65,18.65,0,0,1,4.35-.9c1.21,0,1.71.5,1.92,1,.5,1.1-.41,2.1-.71,2.5-.61.7-1.11,1.2-1.52,1.6s-.61.7-.71.9a1.76,1.76,0,0,0,.1.6c0,.1.11.2.11.3a1.15,1.15,0,0,1-1.22,1.1ZM32.47,62a21.73,21.73,0,0,0,13.66,8.6,5.27,5.27,0,0,1,1.31-2.1c.31-.3.61-.7,1-1.1a21,21,0,0,0-2.73.7.35.35,0,0,0-.2.1c-.1,0-.1,0-.2.1a9.69,9.69,0,0,1-3.14.6,3.55,3.55,0,0,1-1.82-.5,3.6,3.6,0,0,1-1.31-2.5c-.1-.9-.21-1.5-2-2a19.17,19.17,0,0,1-2.73-1.1A5.63,5.63,0,0,0,32.47,62Z"/><path class="cls-2" d="M38.84,55.4a3.27,3.27,0,0,1-2.42-1.3c-2-1.9-1.42-4.5-1.12-6a7.72,7.72,0,0,0,.21-1.1c-.21-1-2.13-1.4-3.64-1.4a16.42,16.42,0,0,1-4.25-.4,1.13,1.13,0,0,1-.81-1.4,1.15,1.15,0,0,1,1.41-.8,17.72,17.72,0,0,0,3.65.3c3.33,0,5.46,1.2,6,3.2a5.32,5.32,0,0,1-.2,2.1c-.4,1.6-.61,2.9.41,3.8h0c.5.6.8.6.8.6s.41-.2.71-.3a11.1,11.1,0,0,1,1.52-.7,7.54,7.54,0,0,1,3.24-.2c1.11.1,1.72.2,3.23-1.8a5.24,5.24,0,0,1,1.83-1.7,2.31,2.31,0,0,0,.7-.5c.31-.3.31-1,0-2s-.91-2.4-1.31-3.5c-.31-.6-.51-1.2-.71-1.6a11.94,11.94,0,0,1-.91-3.6,3.76,3.76,0,0,1,1.42-2.4c.3-.3.6-.7,1.11-1.2a21.79,21.79,0,0,0-2.73.7c-.1,0-.2.1-.31.1s-.3.1-.5.1c-1.72.5-3.24,1-4.45.1-1-.8-1-2.3-.91-3.3h0a8.57,8.57,0,0,0,.1-2.7,1.2,1.2,0,0,1,1-1.3,1.22,1.22,0,0,1,1.32,1,12.29,12.29,0,0,1-.11,3.3c-.1.8,0,1.1.11,1.2a8.36,8.36,0,0,0,2.22-.5c.2,0,.3-.1.51-.1s.1,0,.2-.1c3.24-1,5.36-1.3,6.17-.1s-.3,2.3-.61,2.7c-.61.7-1.11,1.2-1.52,1.6-.6.6-.7.8-.7.9a15.4,15.4,0,0,0,.81,2.7,11.43,11.43,0,0,0,.6,1.4c1.22,2.6,2.73,6.1.91,8h0c-.5.5-.91.7-1.11.9a3.48,3.48,0,0,0-1.11,1.1h0C47.44,54,46,54.1,44.21,53.9a4.82,4.82,0,0,0-2.33.2,4.11,4.11,0,0,0-.91.5A4.67,4.67,0,0,1,38.84,55.4Z"/><path class="cls-2" d="M69.39,49a3.66,3.66,0,0,1-2.52-1.3c-2-1.9-1.42-4.5-1.12-6a6.53,6.53,0,0,0,.2-1.1c-.4-1.2-2-1.4-4.45-1.5s-4.85-.2-6.07-2.2h0c-1.11-2.1.51-4.2,1.72-5.7a8,8,0,0,0,.92-1.3l.3-.6.3-.6a1.37,1.37,0,0,1,.61-.7,1.42,1.42,0,0,1,.91,0,23.34,23.34,0,0,1,9.1,7.4,24.52,24.52,0,0,1,4.56,11.1,1.35,1.35,0,0,1-.31.9,1,1,0,0,1-.91.4s-.2,0-.2.1a.37.37,0,0,0-.3.1,3.9,3.9,0,0,0-.91.5A5.86,5.86,0,0,1,69.39,49ZM57.56,35.8c.51.9,2.33,1,4,1.1,2.52.1,5.76.2,6.67,3.2v.1a5.32,5.32,0,0,1-.2,2.1c-.41,1.6-.61,2.9.4,3.8h0c.61.6.81.6.81.6s.41-.2.71-.3a3.25,3.25,0,0,1,1.32-.6,22.11,22.11,0,0,0-11-15.1c0,.1,0,.1-.1.2a.1.1,0,0,1-.1.1c-.3.5-.71,1.1-1.11,1.7C58.27,33.7,57.15,35,57.56,35.8Z"/><path class="cls-2" d="M57.15,72.2a1.85,1.85,0,0,1-.7-.2,2.31,2.31,0,0,1-.81-1h0c-1.12-2,.5-4.1,1.62-5.7a8.43,8.43,0,0,0,1.92-7.5,2.91,2.91,0,0,1,2.43-4.1,7.55,7.55,0,0,1,2-.3,5.85,5.85,0,0,1,3.44,1.1,15.43,15.43,0,0,0,2.22,1,5.14,5.14,0,0,1,3,1.9,1.07,1.07,0,0,1,.1,1.1,23.51,23.51,0,0,1-5.87,8.4,22.57,22.57,0,0,1-9,5.2C57.36,72.1,57.26,72.2,57.15,72.2ZM61.2,56.3a5.81,5.81,0,0,0,.1,1,12.22,12.22,0,0,1-1.11,7.6h0A14.19,14.19,0,0,1,59,66.7c-.81,1-1.72,2.2-1.52,3A21.86,21.86,0,0,0,69.8,58.3a8,8,0,0,0-1.32-.6,17.42,17.42,0,0,1-2.63-1.1,4.33,4.33,0,0,0-2.32-.8,8,8,0,0,0-1.42.2C61.5,56.1,61.3,56.2,61.2,56.3Z"/><path class="cls-2" d="M34.29,30.4a3.5,3.5,0,1,1,3.54-3.5A3.63,3.63,0,0,1,34.29,30.4Zm0-4.6A1.2,1.2,0,1,0,35.51,27,1.3,1.3,0,0,0,34.29,25.8Z"/></g></g></g></svg>