<svg xmlns="http://www.w3.org/2000/svg" viewBox="0 0 101.16 100"><defs><style>.cls-1{fill:#fff;}.cls-2{fill:#009de4;}</style></defs><title>Asset 26</title><g id="Layer_2" data-name="Layer 2"><g id="_1" data-name="1"><rect class="cls-1" width="101.16" height="100"/><g id="_456_Boat_ship_transport_vessel" data-name="456, Boat, ship, transport, vessel"><path class="cls-2" d="M64.13,47.5a.6.6,0,0,1-.4-.1L50.07,42.6,36.42,47.4a1.47,1.47,0,0,1-1.12-.1,1.19,1.19,0,0,1-.5-.9v-12A1.22,1.22,0,0,1,36,33.2H64.13a1.23,1.23,0,0,1,1.22,1.2V46.3a1,1,0,0,1-.51.9A1.08,1.08,0,0,1,64.13,47.5ZM50.07,40.2a.63.63,0,0,1,.41.1L63,44.7V35.6H37.23v9.1l12.54-4.4A1,1,0,0,1,50.07,40.2Z"/><path class="cls-2" d="M50.07,71.5H39.55a1.18,1.18,0,0,1-1.11-.9L32.57,47.4a1.28,1.28,0,0,1,.71-1.4l16.39-5.8a1.44,1.44,0,0,1,1.11.1,1.18,1.18,0,0,1,.51.9v29A1.25,1.25,0,0,1,50.07,71.5Zm-9.61-2.3H49V43L35.1,47.9Z"/><path class="cls-2" d="M60.59,71.5H50.07a1.22,1.22,0,0,1-1.21-1.2v-29a1,1,0,0,1,.51-.9,1.09,1.09,0,0,1,1.11-.1l16.39,5.8a1.07,1.07,0,0,1,.7,1.4L61.71,70.6A1.1,1.1,0,0,1,60.59,71.5Zm-9.3-2.3h8.39l5.37-21.3L51.29,43V69.2Z"/><path class="cls-2" d="M55.94,35.6H43.09a1.22,1.22,0,0,1-1.21-1.2V27.5a1.22,1.22,0,0,1,1.21-1.2H55.94a1.22,1.22,0,0,1,1.21,1.2v6.9A1.29,1.29,0,0,1,55.94,35.6ZM44.21,33.3H54.73V28.7H44.21Z"/><path class="cls-2" d="M52.4,28.7H46.53a1.22,1.22,0,0,1-1.21-1.2V22.9a1.22,1.22,0,0,1,1.21-1.2H52.4a1.22,1.22,0,0,1,1.21,1.2v4.6A1.22,1.22,0,0,1,52.4,28.7Zm-4.65-2.4h3.54V24H47.75Z"/><rect class="cls-2" x="41.88" y="36.8" width="2.33" height="2.3"/><rect class="cls-2" x="38.34" y="36.8" width="2.33" height="2.3"/><rect class="cls-2" x="45.42" y="36.8" width="2.33" height="2.3"/><rect class="cls-2" x="48.86" y="36.8" width="2.33" height="2.3"/><rect class="cls-2" x="52.4" y="36.8" width="2.33" height="2.3"/><rect class="cls-2" x="55.94" y="36.8" width="2.33" height="2.3"/><rect class="cls-2" x="59.48" y="36.8" width="2.33" height="2.3"/><path class="cls-2" d="M31.36,77.3a3.56,3.56,0,0,1-3.54-3.5A1.22,1.22,0,0,1,29,72.6a1.17,1.17,0,0,1,1.22,1.2,1.21,1.21,0,0,0,2.42,0,1.22,1.22,0,0,1,2.43,0A4,4,0,0,1,31.36,77.3Z"/><path class="cls-2" d="M36,77.3a3.56,3.56,0,0,1-3.54-3.5,1.22,1.22,0,0,1,2.43,0,1.22,1.22,0,0,0,2.43,0,1.22,1.22,0,0,1,1.21-1.2,1.17,1.17,0,0,1,1.22,1.2A3.91,3.91,0,0,1,36,77.3Z"/><path class="cls-2" d="M40.67,77.3a3.56,3.56,0,0,1-3.54-3.5,1.22,1.22,0,0,1,1.21-1.2,1.16,1.16,0,0,1,1.21,1.2,1.22,1.22,0,0,0,2.43,0,1.22,1.22,0,0,1,2.43,0A3.89,3.89,0,0,1,40.67,77.3Z"/><path class="cls-2" d="M45.42,77.3a3.56,3.56,0,0,1-3.54-3.5,1.22,1.22,0,0,1,1.21-1.2,1.17,1.17,0,0,1,1.22,1.2,1.22,1.22,0,0,0,2.43,0,1.21,1.21,0,0,1,2.42,0A4,4,0,0,1,45.42,77.3Z"/><path class="cls-2" d="M50.07,77.3a3.56,3.56,0,0,1-3.54-3.5,1.22,1.22,0,0,1,2.43,0,1.22,1.22,0,0,0,2.43,0,1.22,1.22,0,0,1,2.43,0A3.9,3.9,0,0,1,50.07,77.3Z"/><path class="cls-2" d="M54.73,77.3a3.56,3.56,0,0,1-3.54-3.5,1.21,1.21,0,0,1,2.42,0A1.23,1.23,0,0,0,54.83,75,1.16,1.16,0,0,0,56,73.8a1.23,1.23,0,0,1,1.22-1.2,1.16,1.16,0,0,1,1.21,1.2A3.89,3.89,0,0,1,54.73,77.3Z"/><path class="cls-2" d="M59.48,77.3a3.56,3.56,0,0,1-3.54-3.5,1.22,1.22,0,0,1,1.21-1.2,1.17,1.17,0,0,1,1.22,1.2,1.22,1.22,0,0,0,2.43,0A1.22,1.22,0,0,1,62,72.6a1.16,1.16,0,0,1,1.21,1.2A4,4,0,0,1,59.48,77.3Z"/><path class="cls-2" d="M64.13,77.3a3.56,3.56,0,0,1-3.54-3.5,1.23,1.23,0,0,1,1.22-1.2A1.16,1.16,0,0,1,63,73.8a1.22,1.22,0,0,0,2.43,0,1.22,1.22,0,0,1,2.43,0A3.9,3.9,0,0,1,64.13,77.3Z"/><path class="cls-2" d="M68.79,77.3a3.56,3.56,0,0,1-3.54-3.5,1.22,1.22,0,0,1,2.43,0A1.22,1.22,0,0,0,68.89,75a1.16,1.16,0,0,0,1.21-1.2,1.22,1.22,0,0,1,2.43,0A3.89,3.89,0,0,1,68.79,77.3Z"/><path class="cls-2" d="M55.94,32.1H50.07a1.2,1.2,0,1,1,0-2.4h5.87a1.22,1.22,0,0,1,1.21,1.2A1.29,1.29,0,0,1,55.94,32.1Z"/><path class="cls-2" d="M34.8,53a1.19,1.19,0,0,1-.41-2.3l10.52-3.5a1.21,1.21,0,0,1,1.52.7,1.19,1.19,0,0,1-.71,1.5L35.2,52.9C35.1,53,35,53,34.8,53Z"/><path class="cls-2" d="M65.35,53a.8.8,0,0,1-.41-.1L54.42,49.4a1.18,1.18,0,0,1-.7-1.5,1.2,1.2,0,0,1,1.51-.7l10.52,3.5a1.19,1.19,0,0,1,.71,1.5A1.29,1.29,0,0,1,65.35,53Z"/></g></g></g></svg>