<svg xmlns="http://www.w3.org/2000/svg" viewBox="0 0 101.16 100"><defs><style>.cls-1{fill:#fff;}.cls-2{fill:#009de4;}</style></defs><title>Asset 42</title><g id="Layer_2" data-name="Layer 2"><g id="_1" data-name="1"><rect class="cls-1" width="101.16" height="100"/><g id="_469_Beach_sunbed_vacation" data-name="469, Beach, sunbed, vacation"><path class="cls-2" d="M77,47.2H46.53A1.22,1.22,0,0,1,45.32,46,16.44,16.44,0,0,1,78.2,46,1.17,1.17,0,0,1,77,47.2ZM47.75,44.9h28A14,14,0,0,0,61.71,32.2,13.85,13.85,0,0,0,47.75,44.9Z"/><path class="cls-2" d="M71.11,47.2H52.4A1.22,1.22,0,0,1,51.19,46a21.65,21.65,0,0,1,2.93-11.3c2-3.2,4.65-5,7.59-5s5.66,1.8,7.58,5A21.06,21.06,0,0,1,72.23,46,1,1,0,0,1,71.11,47.2Zm-17.5-2.3H70A18.74,18.74,0,0,0,67.47,36c-1.51-2.5-3.54-3.9-5.66-3.9s-4.05,1.4-5.67,3.9A19,19,0,0,0,53.61,44.9Z"/><path class="cls-2" d="M65.35,47.2h-7A1.23,1.23,0,0,1,57.15,46c0-1.7.11-16.2,4.66-16.2S66.46,44.4,66.46,46A1.14,1.14,0,0,1,65.35,47.2Zm-5.87-2.3h4.65a66.47,66.47,0,0,0-.8-8.6,9.86,9.86,0,0,0-1.52-4.1c-.31.3-.91,1.4-1.52,4.1A42.61,42.61,0,0,0,59.48,44.9Z"/><path class="cls-2" d="M58.27,71.5H25.49a1.24,1.24,0,0,1-1.11-.7,1.12,1.12,0,0,1,.3-1.3l5.87-5.8a1.16,1.16,0,0,1,.81-.3h21a1.16,1.16,0,0,1,.81.3L59,69.4a1.27,1.27,0,0,1,.4.9A1,1,0,0,1,58.27,71.5ZM28.32,69.2H55.43l-3.54-3.5H31.76Z"/><path class="cls-2" d="M61.81,71.5a1.23,1.23,0,0,1-1.22-1.2V46a1.23,1.23,0,0,1,1.22-1.2A1.16,1.16,0,0,1,63,46V70.3A1.3,1.3,0,0,1,61.81,71.5Z"/><path class="cls-2" d="M43,65.7a1.38,1.38,0,0,1-.81-.3,1.12,1.12,0,0,1-.1-1.6l7-8.1a1.14,1.14,0,0,1,1.62-.1,1.1,1.1,0,0,1,.1,1.6l-7,8.1C43.7,65.6,43.4,65.7,43,65.7Z"/><path class="cls-2" d="M34.8,65.7a1.9,1.9,0,0,1-.71-.2,1.11,1.11,0,0,1-.2-1.6l3.54-4.6a1.21,1.21,0,0,1,.91-.5h8.19A1.23,1.23,0,0,1,47.75,60a1.17,1.17,0,0,1-1.22,1.2H39l-3.14,4.2A1.72,1.72,0,0,1,34.8,65.7Z"/><path class="cls-2" d="M74.66,71.5H23.06a1.2,1.2,0,1,1,0-2.4h51.6a1.22,1.22,0,0,1,1.21,1.2A1.16,1.16,0,0,1,74.66,71.5Z"/><path class="cls-2" d="M57.05,65.7H52.4a1.2,1.2,0,1,1,0-2.4h4.65a1.23,1.23,0,0,1,1.22,1.2A1.17,1.17,0,0,1,57.05,65.7Z"/><path class="cls-2" d="M31.36,45.9a1.16,1.16,0,0,1-.81-.3,1.11,1.11,0,0,1,0-1.6,4.4,4.4,0,0,1,6.37,0,1,1,0,0,1,0,1.6,1.06,1.06,0,0,1-1.62,0,1.84,1.84,0,0,0-1.92-.6,4.21,4.21,0,0,0-1.11.6A1.64,1.64,0,0,1,31.36,45.9Z"/><path class="cls-2" d="M40.67,45.9a1.14,1.14,0,0,1-.81-.3,4.17,4.17,0,0,0-1.12-.6,1.85,1.85,0,0,0-1.92.6,1.06,1.06,0,0,1-1.62,0,1,1,0,0,1,0-1.6,4.41,4.41,0,0,1,6.38,0,1,1,0,0,1,0,1.6A1.67,1.67,0,0,1,40.67,45.9Z"/><path class="cls-2" d="M48.86,30.6a1.16,1.16,0,0,1-.81-.3,1.12,1.12,0,0,0-1.21-.4,1.08,1.08,0,0,0-.61.4,1.06,1.06,0,0,1-1.62,0,1,1,0,0,1,0-1.6,3.57,3.57,0,0,1,5.16,0,1,1,0,0,1,0,1.6A1.64,1.64,0,0,1,48.86,30.6Z"/><path class="cls-2" d="M48.86,30.6a1.16,1.16,0,0,1-.81-.3,1,1,0,0,1,0-1.6,3.57,3.57,0,0,1,5.16,0l-1.62,1.5h0a1.7,1.7,0,0,0-.71-.4,1.12,1.12,0,0,0-1.21.4A.93.93,0,0,1,48.86,30.6Z"/><path class="cls-2" d="M33.69,40.2a5.8,5.8,0,1,1,5.86-5.8A5.84,5.84,0,0,1,33.69,40.2Zm0-9.2a3.5,3.5,0,1,0,3.54,3.5A3.56,3.56,0,0,0,33.69,31Z"/><path class="cls-2" d="M72.33,71.5a1.23,1.23,0,0,1-1.22-1.2V59.9a1.23,1.23,0,0,1,1.22-1.2,1.16,1.16,0,0,1,1.21,1.2V70.3A1.22,1.22,0,0,1,72.33,71.5Z"/><path class="cls-2" d="M67.68,71.5a1.23,1.23,0,0,1-1.22-1.2V66.8a1.22,1.22,0,0,1,2.43,0v3.5A1.3,1.3,0,0,1,67.68,71.5Z"/></g></g></g></svg>