<svg xmlns="http://www.w3.org/2000/svg" viewBox="0 0 101.16 100"><defs><style>.cls-1{fill:#fff;}.cls-2{fill:#009de4;}</style></defs><title>Asset 30</title><g id="Layer_2" data-name="Layer 2"><g id="_1" data-name="1"><rect class="cls-1" width="101.16" height="100"/><g id="_459_camera_image_photo_picture" data-name="459, camera, image, photo, picture"><path class="cls-2" d="M74.55,76.2H25.49a3.09,3.09,0,0,1-3-3V44.5a3,3,0,0,1,3-3h49a3,3,0,0,1,3,3V73.2A2.88,2.88,0,0,1,74.55,76.2ZM25.49,43.8a.69.69,0,0,0-.71.7V73.2a.69.69,0,0,0,.71.7h49a.69.69,0,0,0,.71-.7V44.5a.69.69,0,0,0-.71-.7Z"/><path class="cls-2" d="M65.25,43.8H35.1a1.25,1.25,0,0,1-1-.5,1.38,1.38,0,0,1-.1-1.1l3.54-8.1a1.24,1.24,0,0,1,1.11-.7H61.71a1.24,1.24,0,0,1,1.11.7l3.54,8a.9.9,0,0,1,.1.5A1.22,1.22,0,0,1,65.25,43.8ZM36.92,41.4H63.53L61,35.6H39.45Z"/><path class="cls-2" d="M32.17,43.8h-5A1.22,1.22,0,0,1,26,42.6V39.1a1.22,1.22,0,0,1,1.21-1.2h5a1.22,1.22,0,0,1,1.21,1.2v3.5A1.38,1.38,0,0,1,32.17,43.8Zm-3.74-2.4H31V40.2H28.43Z"/><path class="cls-2" d="M72.94,43.8h-8.2a1.22,1.22,0,0,1-1.21-1.2V39.1a1.22,1.22,0,0,1,1.21-1.2h8.2a1.22,1.22,0,0,1,1.21,1.2v3.5A1.39,1.39,0,0,1,72.94,43.8Zm-7.09-2.4h5.87V40.2H65.85Z"/><path class="cls-2" d="M50.17,30.4A1.22,1.22,0,0,1,49,29.2V24a1.22,1.22,0,0,1,2.43,0v5.3A1.15,1.15,0,0,1,50.17,30.4Z"/><path class="cls-2" d="M55.13,30.8a1.51,1.51,0,0,1-.61-.2,1.25,1.25,0,0,1-.4-1.6l2.93-4.6a1.28,1.28,0,0,1,1.62-.4,1.25,1.25,0,0,1,.41,1.6l-2.94,4.6A1.36,1.36,0,0,1,55.13,30.8Z"/><path class="cls-2" d="M45.22,30.8a1.24,1.24,0,0,1-1-.5l-2.84-4.6a1.18,1.18,0,0,1,2-1.2l2.83,4.6a1.16,1.16,0,0,1-.4,1.6C45.62,30.7,45.42,30.8,45.22,30.8Z"/><path class="cls-2" d="M55.33,43.8H44.81a1.22,1.22,0,0,1-1.21-1.2V38a1.22,1.22,0,0,1,1.21-1.2H55.33A1.23,1.23,0,0,1,56.55,38v4.6A1.39,1.39,0,0,1,55.33,43.8Zm-9.4-2.4h8.19V39.1H45.93v2.3Z"/><path class="cls-2" d="M76.48,66.9h-17a1.11,1.11,0,0,1-1-.6,1,1,0,0,1,.1-1.2,10.08,10.08,0,0,0,2.13-6.3,10.28,10.28,0,0,0-2.13-6.3,1.06,1.06,0,0,1-.1-1.2,1.11,1.11,0,0,1,1-.6h17a1.22,1.22,0,0,1,1.21,1.2V65.8A1.29,1.29,0,0,1,76.48,66.9ZM61.61,64.6H75.26V53H61.61A12.61,12.61,0,0,1,63,58.8,14,14,0,0,1,61.61,64.6Z"/><path class="cls-2" d="M40.67,66.9h-17a1.22,1.22,0,0,1-1.21-1.2V51.9a1.22,1.22,0,0,1,1.21-1.2h17a1.11,1.11,0,0,1,1,.6,1,1,0,0,1-.1,1.2,10.08,10.08,0,0,0-2.13,6.3,10.28,10.28,0,0,0,2.13,6.3,1.06,1.06,0,0,1,.1,1.2A.94.94,0,0,1,40.67,66.9ZM24.89,64.6H38.54a12.61,12.61,0,0,1-1.41-5.8A12.92,12.92,0,0,1,38.54,53H24.89Z"/><path class="cls-2" d="M50.07,71.6a13,13,0,0,1-10.31-5.1,12.28,12.28,0,0,1-2.53-7.6A12.71,12.71,0,0,1,50.07,46.2a12.85,12.85,0,0,1,10.32,5.1,12.28,12.28,0,0,1,2.53,7.6,12.71,12.71,0,0,1-2.53,7.6A13,13,0,0,1,50.07,71.6Zm0-23.2a10.34,10.34,0,0,0-8.39,4.2,10.08,10.08,0,0,0-2.13,6.3,10.51,10.51,0,0,0,18.92,6.3,10.07,10.07,0,0,0,2.12-6.3A10.54,10.54,0,0,0,50.07,48.4Z"/><path class="cls-2" d="M50.07,65.8A7.12,7.12,0,0,1,44.41,63a7,7,0,0,1,5.66-11.2,7.13,7.13,0,0,1,5.67,2.8,6.92,6.92,0,0,1,0,8.4A7.13,7.13,0,0,1,50.07,65.8Zm0-11.6a4.7,4.7,0,1,0,3.75,7.5,4.76,4.76,0,0,0,0-5.6A4.63,4.63,0,0,0,50.07,54.2Z"/></g></g></g></svg>