<svg xmlns="http://www.w3.org/2000/svg" viewBox="0 0 101.16 100"><defs><style>.cls-1{fill:#fff;}.cls-2{fill:#009de4;}</style></defs><title>Asset 28</title><g id="Layer_2" data-name="Layer 2"><g id="_1" data-name="1"><rect class="cls-1" width="101.16" height="100"/><g id="_470_calendar_vecation_date_holidays" data-name="470, calendar, vecation, date, holidays"><path class="cls-2" d="M74.66,72.1H25.49a1.22,1.22,0,0,1-1.21-1.2V38.5a1.22,1.22,0,0,1,1.21-1.2H74.66a1.22,1.22,0,0,1,1.21,1.2V70.9A1.16,1.16,0,0,1,74.66,72.1ZM26.6,69.8H73.44V39.7H26.6Z"/><path class="cls-2" d="M74.66,72.1H25.49a1.22,1.22,0,0,1-1.21-1.2V38.5a1.22,1.22,0,0,1,1.21-1.2H74.66a1.22,1.22,0,0,1,1.21,1.2V70.9A1.16,1.16,0,0,1,74.66,72.1ZM26.6,69.8H73.44V39.7H26.6Z"/><path class="cls-2" d="M74.66,39.7H25.49a1.22,1.22,0,0,1-1.21-1.2V32.7a1.22,1.22,0,0,1,1.21-1.2H74.66a1.22,1.22,0,0,1,1.21,1.2v5.8A1.22,1.22,0,0,1,74.66,39.7ZM26.6,37.3H73.44V33.8H26.6Z"/><path class="cls-2" d="M74.66,39.7H25.49a1.22,1.22,0,0,1-1.21-1.2V32.7a1.22,1.22,0,0,1,1.21-1.2H74.66a1.22,1.22,0,0,1,1.21,1.2v5.8A1.22,1.22,0,0,1,74.66,39.7ZM26.6,37.3H73.44V33.8H26.6Z"/><rect class="cls-2" x="32.47" y="43.1" width="2.33" height="2.3"/><rect class="cls-2" x="37.23" y="43.1" width="2.33" height="2.3"/><rect class="cls-2" x="41.88" y="43.1" width="2.33" height="2.3"/><rect class="cls-2" x="46.53" y="43.1" width="2.33" height="2.3"/><rect class="cls-2" x="51.29" y="43.1" width="2.33" height="2.3"/><rect class="cls-2" x="55.94" y="43.1" width="2.33" height="2.3"/><rect class="cls-2" x="60.59" y="43.1" width="2.33" height="2.3"/><rect class="cls-2" x="65.35" y="43.1" width="2.33" height="2.3"/><rect class="cls-2" x="32.47" y="47.8" width="2.33" height="2.3"/><rect class="cls-2" x="37.23" y="47.8" width="2.33" height="2.3"/><path class="cls-2" d="M43.09,50.1h0a1.22,1.22,0,0,1-1.21-1.2h0a1.22,1.22,0,0,1,1.21-1.2h0a1.23,1.23,0,0,1,1.22,1.2h0A1.3,1.3,0,0,1,43.09,50.1Z"/><path class="cls-2" d="M47.75,50.1h0a1.23,1.23,0,0,1-1.22-1.2h0a1.23,1.23,0,0,1,1.22-1.2h0A1.22,1.22,0,0,1,49,48.9h0A1.3,1.3,0,0,1,47.75,50.1Z"/><path class="cls-2" d="M52.4,50.1h0a1.22,1.22,0,0,1-1.21-1.2h0a1.22,1.22,0,0,1,1.21-1.2h0a1.22,1.22,0,0,1,1.21,1.2h0A1.16,1.16,0,0,1,52.4,50.1Z"/><path class="cls-2" d="M57.05,50.1h0a1.22,1.22,0,0,1-1.21-1.2h0a1.22,1.22,0,0,1,1.21-1.2h0a1.23,1.23,0,0,1,1.22,1.2h0A1.17,1.17,0,0,1,57.05,50.1Z"/><path class="cls-2" d="M61.81,50.1h0a1.23,1.23,0,0,1-1.22-1.2h0a1.23,1.23,0,0,1,1.22-1.2h0A1.22,1.22,0,0,1,63,48.9h0A1.29,1.29,0,0,1,61.81,50.1Z"/><path class="cls-2" d="M66.46,50.1h0a1.22,1.22,0,0,1-1.21-1.2h0a1.22,1.22,0,0,1,1.21-1.2h0a1.23,1.23,0,0,1,1.22,1.2h0A1.17,1.17,0,0,1,66.46,50.1Z"/><path class="cls-2" d="M33.69,54.7h0a1.23,1.23,0,0,1-1.22-1.2h0a1.23,1.23,0,0,1,1.22-1.2h0a1.22,1.22,0,0,1,1.21,1.2h0A1.3,1.3,0,0,1,33.69,54.7Z"/><path class="cls-2" d="M38.34,54.7h0a1.22,1.22,0,0,1-1.21-1.2h0a1.22,1.22,0,0,1,1.21-1.2h0a1.22,1.22,0,0,1,1.21,1.2h0A1.16,1.16,0,0,1,38.34,54.7Z"/><path class="cls-2" d="M43.09,54.7h0a1.22,1.22,0,0,1-1.21-1.2h0a1.22,1.22,0,0,1,1.21-1.2h0a1.23,1.23,0,0,1,1.22,1.2h0A1.3,1.3,0,0,1,43.09,54.7Z"/><path class="cls-2" d="M47.75,54.7h0a1.23,1.23,0,0,1-1.22-1.2h0a1.23,1.23,0,0,1,1.22-1.2h0A1.22,1.22,0,0,1,49,53.5h0A1.3,1.3,0,0,1,47.75,54.7Z"/><path class="cls-2" d="M52.4,54.7h0a1.22,1.22,0,0,1-1.21-1.2h0a1.22,1.22,0,0,1,1.21-1.2h0a1.22,1.22,0,0,1,1.21,1.2h0A1.16,1.16,0,0,1,52.4,54.7Z"/><rect class="cls-2" x="55.94" y="52.4" width="2.33" height="2.3"/><rect class="cls-2" x="60.59" y="52.4" width="2.33" height="2.3"/><rect class="cls-2" x="65.35" y="52.4" width="2.33" height="2.3"/><rect class="cls-2" x="32.47" y="57" width="2.33" height="2.3"/><rect class="cls-2" x="37.23" y="57" width="2.33" height="2.3"/><rect class="cls-2" x="41.88" y="57" width="2.33" height="2.3"/><rect class="cls-2" x="46.53" y="57" width="2.33" height="2.3"/><rect class="cls-2" x="51.29" y="57" width="2.33" height="2.3"/><rect class="cls-2" x="55.94" y="57" width="2.33" height="2.3"/><rect class="cls-2" x="60.59" y="57" width="2.33" height="2.3"/><rect class="cls-2" x="65.35" y="57" width="2.33" height="2.3"/><rect class="cls-2" x="32.47" y="61.7" width="2.33" height="2.3"/><rect class="cls-2" x="37.23" y="61.7" width="2.33" height="2.3"/><rect class="cls-2" x="41.88" y="61.7" width="2.33" height="2.3"/><rect class="cls-2" x="46.53" y="61.7" width="2.33" height="2.3"/><rect class="cls-2" x="51.29" y="61.7" width="2.33" height="2.3"/><rect class="cls-2" x="55.94" y="61.7" width="2.33" height="2.3"/><rect class="cls-2" x="60.59" y="61.7" width="2.33" height="2.3"/><rect class="cls-2" x="65.35" y="61.7" width="2.33" height="2.3"/><path class="cls-2" d="M74.66,72.1H25.49a1.22,1.22,0,0,1-1.21-1.2V67.4a1.22,1.22,0,0,1,1.21-1.2H74.66a1.22,1.22,0,0,1,1.21,1.2v3.5A1.16,1.16,0,0,1,74.66,72.1ZM26.6,69.8H73.44V68.6H26.6Z"/><path class="cls-2" d="M74.66,72.1H25.49a1.22,1.22,0,0,1-1.21-1.2V67.4a1.22,1.22,0,0,1,1.21-1.2H74.66a1.22,1.22,0,0,1,1.21,1.2v3.5A1.16,1.16,0,0,1,74.66,72.1ZM26.6,69.8H73.44V68.6H26.6Z"/><path class="cls-2" d="M73.54,29.2H25.49a1.2,1.2,0,1,1,0-2.4H73.54A1.23,1.23,0,0,1,74.76,28,1.3,1.3,0,0,1,73.54,29.2Z"/></g></g></g></svg>