<svg xmlns="http://www.w3.org/2000/svg" xmlns:xlink="http://www.w3.org/1999/xlink" viewBox="0 0 500 500"><defs><style>.cls-1{fill:none;}.cls-2{fill:#dbeafe;}.cls-3{fill:url(#New_Pattern_Swatch_2);}</style><pattern id="New_Pattern_Swatch_2" data-name="New Pattern Swatch 2" width="243" height="243" patternUnits="userSpaceOnUse" viewBox="0 0 243 243"><rect class="cls-1" width="243" height="243"/><path class="cls-2" d="M243,131v30.36H209.8a.51.51,0,0,1-.75-.45v-3.67a.39.39,0,0,1,0-.48V131.45a.5.5,0,0,1,.74-.44h14.76v0c0-1.46.07-2.92,0-4.38a.53.53,0,0,1,.07-.26,2.17,2.17,0,0,1,.63-1.18,3.5,3.5,0,0,1,1.35-.92h0a.46.46,0,0,1,.39-.19h7.79a.62.62,0,0,1,.27,0h.14a.52.52,0,0,1,.29.08,2.23,2.23,0,0,1,1.78,2.15.46.46,0,0,1-.12.31V131Zm-17.43,0h.58c0-1.32,0-2.63.06-3.94a.49.49,0,0,1,.35-.46,1.62,1.62,0,0,1,1-.68.5.5,0,0,1,.34-.12H234a.47.47,0,0,1,.46.3,2.31,2.31,0,0,1,.6.53.62.62,0,0,1,.14.38.53.53,0,0,1,.07.26V131h1v-4.69a.5.5,0,0,1,.1-.31,1.39,1.39,0,0,0-1.19-1h-8a1,1,0,0,1-.24.16,2.17,2.17,0,0,0-.74.49c-.11.11-.54.52-.48.69a.44.44,0,0,1-.07.44c0,1.38,0,2.75-.06,4.13Zm8.54-3.86-.08-.08,0,0a.86.86,0,0,0-.2-.13l-.13-.07H228.2a.45.45,0,0,1-.31.1.5.5,0,0,0-.35.1.51.51,0,0,0-.2.38.34.34,0,0,1-.13.23c-.05,1.12-.06,2.24,0,3.37h7v-3.73s0,0,0,0Zm-24,8a2.8,2.8,0,0,0,3.6-3.11h-3.6Zm3.27,25.2a3.56,3.56,0,0,0-1.09-2.06,3.45,3.45,0,0,0-1.27-.74,3.13,3.13,0,0,0-.91-.21v3ZM219.58,132h-4.89a3.84,3.84,0,0,1-4.62,4.18v20.12a4.3,4.3,0,0,1,2.49.89,4.52,4.52,0,0,1,1.8,3.12h5.22Zm3.08,0h-2v28.31h2Zm16.08,28.31a.31.31,0,0,1,0-.1V132h-15v28.31ZM242.08,132h-2.33v28.21a.31.31,0,0,1,0,.1h2.34Z"/><path class="cls-2" d="M99.91,205.21c-1.25,2.56-5,3.74-7.66,3.42A7.15,7.15,0,0,1,86.47,203c-.06-.25-.11-.52-.15-.79l-5,.52a.45.45,0,0,1-.23,0,2.21,2.21,0,0,1-1-.22c-1.72-.85-.8-3.23.54-3.63A83.08,83.08,0,0,0,74,192c-.15.28-.29.56-.44.83l-.87,1.71c3,1.21,4.35,5.12,3.9,8.16-.49,3.33-3.14,5.19-6.4,5.13-3.07-.05-5.92-1.19-7.2-4.15a7,7,0,0,1,1.36-7.6c1.8-2,4.87-3.18,7.42-2.12.45-.9.92-1.8,1.39-2.69l1.24-2.37c.14-.28.5-.73.51-1,.3-.28.16-.43-.44-.45l-.38-.12a6.59,6.59,0,0,0-3-.27c-1.51.29-1.34,2.18,0,2.71.64.26.36,1.31-.29,1-1.67-.67-2.71-3.07-1-4.36a4.34,4.34,0,0,1,3-.49,5.94,5.94,0,0,1,3.17,1c.66.63-.06,1.59-.37,2.21-.08.14-.15.28-.22.43h9.35a2.48,2.48,0,0,1,.23-1.4c.34-.5,1.05-.53,1.59-.59,1-.11,2.8-.29,2.91,1.08.05.7-1,.69-1.09,0a9.07,9.07,0,0,0-1.87,0c-.15,0-.29,0-.43.06s-.29.11-.23.32a2.5,2.5,0,0,0,0,.82.66.66,0,0,1,.14.18,34,34,0,0,0,3.93,5.19l0,0a7.62,7.62,0,0,1,8.9,1.55A8,8,0,0,1,99.91,205.21Zm-27.74-9.72a30.49,30.49,0,0,0-2,5.23.54.54,0,0,1-1-.29,30.88,30.88,0,0,1,2.09-5.52c-2.8-1.17-6.22,1.11-7.34,3.67a5.83,5.83,0,0,0,2.38,7.3c3,1.63,7.72,1.21,8.94-2.38C76.15,200.81,75.08,196.55,72.17,195.49Zm17.32,1.29a3,3,0,0,0-2.16,2.57,41.84,41.84,0,0,1,4.7.89c-.75-1.21-1.56-2.38-2.42-3.5Zm-8.25,1.12a70.64,70.64,0,0,0,3-7,.58.58,0,0,1,.32-.33h-9.9l-.21.39A85,85,0,0,1,81.24,197.9Zm.36,2.41a.61.61,0,0,1-.32-.31l-.12-.08c-.42-.35-1.59,1.19-.51,1.62a1,1,0,0,0,1.09-.2A.63.63,0,0,0,81.6,200.31Zm4.62,0c-1.24-.18-2.48-.36-3.7-.6a1.67,1.67,0,0,1,.4,1.78l3.3-.34Q86.2,200.7,86.22,200.28Zm2.66-4.45-.38-.47a34.08,34.08,0,0,1-3.2-4.11,76.06,76.06,0,0,1-3.14,7.24c1.38.31,2.78.52,4.19.72A4.09,4.09,0,0,1,88.88,195.83ZM87.26,201l2.21-.23c-.74-.13-1.49-.25-2.23-.36C87.24,200.62,87.25,200.82,87.26,201Zm11.06-3a6.46,6.46,0,0,0-7.84-2,43.37,43.37,0,0,1,2.94,4.33s0,0,0,.05a.58.58,0,0,1-.3,1l-5.74.6a8.3,8.3,0,0,0,1.42,3.39c2.09,2.58,5.61,2.52,8.35,1C100.06,204.9,100.08,200.52,98.32,198.05Z"/><path class="cls-2" d="M96.32,18.18A7.15,7.15,0,0,1,88.24,18a6.67,6.67,0,0,1-.64-.48l-3.32,3.8a.55.55,0,0,1-.18.14,2.33,2.33,0,0,1-.89.51c-1.84.55-2.79-1.81-2.08-3a82.33,82.33,0,0,0-9.55-.49l.24.91c.17.61.35,1.23.53,1.84,3-1.18,6.67.78,8.41,3.31,1.91,2.78,1.23,5.95-1.19,8.13s-5.15,3.15-8.1,1.86A7,7,0,0,1,67.28,28c0-2.66,1.41-5.65,4-6.61-.29-1-.56-1.94-.82-2.91s-.46-1.72-.71-2.58a3.44,3.44,0,0,0-.32-1.1c0-.41-.17-.42-.63,0l-.35.16a6.82,6.82,0,0,0-2.38,1.84c-.91,1.24.51,2.51,1.81,2,.64-.25,1.15.72.5,1-1.68.64-4.08-.41-3.71-2.5a4.34,4.34,0,0,1,1.84-2.38,5.85,5.85,0,0,1,3-1.45c.91,0,1,1.2,1.23,1.86,0,.16.09.31.13.47L77.69,9.4a2.4,2.4,0,0,1-.78-1.18c-.09-.6.4-1.1.76-1.52.65-.74,1.85-2.11,2.86-1.19.51.48-.29,1.22-.8.75-.08-.08-1.25,1.16-1.35,1.28a4,4,0,0,0-.27.34c-.16.15-.14.28,0,.39a2.4,2.4,0,0,0,.55.61.44.44,0,0,1,.22,0A33.11,33.11,0,0,0,85.34,10h0A7.64,7.64,0,0,1,93,5.12a8,8,0,0,1,6.65,5.34C100.43,13.19,98.49,16.61,96.32,18.18ZM86.4,14.74a40.36,40.36,0,0,1,4-2.55,39,39,0,0,0-4.16-.91l0,.1A3,3,0,0,0,86.4,14.74ZM68.72,30.13a5.84,5.84,0,0,0,6.72,3.72c3.29-.84,6.48-4.37,4.93-7.83-1.16-2.59-4.85-5-7.7-3.78A30.14,30.14,0,0,0,74.8,27.4a.55.55,0,0,1-1,.51,31.24,31.24,0,0,1-2.23-5.47C68.75,23.49,67.8,27.49,68.72,30.13ZM81,17.83a69.31,69.31,0,0,0-2.54-7.17.56.56,0,0,1,0-.46L71.17,17c0,.14.07.28.11.41A84.39,84.39,0,0,1,81,17.83Zm1.08-.2c1.22-.71,2.39-1.52,3.55-2.33a4.08,4.08,0,0,1-.44-4.19l-.6-.08a34.14,34.14,0,0,1-5.15-.84A75.56,75.56,0,0,1,82,17.63ZM83.66,20a.65.65,0,0,0-.81-.67.56.56,0,0,1-.44,0,.32.32,0,0,1-.14,0c-.55,0-.35,1.95.72,1.53A1,1,0,0,0,83.66,20Zm3.13-3.22a8.37,8.37,0,0,1-.57-.62c-1,.72-2.06,1.43-3.12,2.09a1.69,1.69,0,0,1,1.51,1Zm2.15-2.46c-.64.41-1.26.83-1.88,1.26a5.44,5.44,0,0,0,.42.41C88,15.45,88.45,14.89,88.94,14.33Zm4.62-8a6.46,6.46,0,0,0-7.08,3.91,40.64,40.64,0,0,1,5.11,1.17h0a.59.59,0,0,1,.48,1l-3.8,4.34a8,8,0,0,0,3.36,1.52c3.28.47,5.82-2,6.8-4.94C99.5,10.13,96.53,6.91,93.56,6.3Z"/><path class="cls-2" d="M60.41,33.93a11.1,11.1,0,1,1-11.1-11.1A11.12,11.12,0,0,1,60.41,33.93Zm-.85,0A10.26,10.26,0,1,0,49.31,44.19,10.26,10.26,0,0,0,59.56,33.93Z"/><path class="cls-2" d="M57.86,33.93a8.56,8.56,0,1,1-8.55-8.55A8.56,8.56,0,0,1,57.86,33.93Zm-.84,0a7.71,7.71,0,1,0-7.71,7.71A7.72,7.72,0,0,0,57,33.93Z"/><path class="cls-2" d="M51.39,33.93a.5.5,0,0,1,0,.12L49.72,39.9a.43.43,0,0,1-.41.3.42.42,0,0,1-.41-.3l-1.65-5.85a.25.25,0,0,1,0-.12.2.2,0,0,1,0-.11L48.9,28a.43.43,0,0,1,.41-.31.44.44,0,0,1,.41.31l1.65,5.85A.36.36,0,0,1,51.39,33.93Zm-1,.43H48.21l1.1,3.86Zm0-.85-1.09-3.87-1.1,3.87Z"/><path class="cls-2" d="M202.63,234.52a13.89,13.89,0,0,1-2.88,8.48h-1.37a12.93,12.93,0,1,0-19.5,0h-1.37a14,14,0,1,1,25.12-8.48Z"/><path class="cls-2" d="M199.42,234.52A10.79,10.79,0,0,1,195.3,243h-1.92a9.72,9.72,0,1,0-9.5,0H182a10.79,10.79,0,1,1,17.46-8.48Z"/><path class="cls-2" d="M191.25,234.52a.77.77,0,0,1,0,.15L189.14,242a.53.53,0,0,1-.51.39.55.55,0,0,1-.52-.39L186,234.67a.57.57,0,0,1,0-.3l2.08-7.37a.55.55,0,0,1,.52-.39.53.53,0,0,1,.51.39l2.09,7.37A.77.77,0,0,1,191.25,234.52Zm-1.24.54h-2.76l1.38,4.87Zm0-1.07-1.38-4.88L187.25,234Z"/><path class="cls-2" d="M199.5,139.05a12.4,12.4,0,1,1-12.4-12.39A12.41,12.41,0,0,1,199.5,139.05Zm-.95,0A11.45,11.45,0,1,0,187.1,150.5,11.45,11.45,0,0,0,198.55,139.05Z"/><path class="cls-2" d="M196.66,139.05a9.56,9.56,0,1,1-9.56-9.55A9.56,9.56,0,0,1,196.66,139.05Zm-.95,0a8.61,8.61,0,1,0-8.61,8.61A8.61,8.61,0,0,0,195.71,139.05Z"/><path class="cls-2" d="M189.43,139.05a.51.51,0,0,1,0,.13l-1.85,6.53a.47.47,0,0,1-.91,0l-1.85-6.53a.51.51,0,0,1,0-.13.69.69,0,0,1,0-.13l1.85-6.52a.47.47,0,0,1,.91,0l1.85,6.52A.69.69,0,0,1,189.43,139.05Zm-1.1.48h-2.45l1.22,4.31Zm0-.95-1.23-4.31-1.22,4.31Z"/><path class="cls-2" d="M33,9.44a.53.53,0,0,1-.58.58l-.17,0H12.59l-.17,0a.53.53,0,0,1-.57-.58,13.35,13.35,0,0,1,5-9.44h2.65a18.88,18.88,0,0,1,1.1,4c.23,1.58,0,3.24.32,4.8H24c.31-1.56.1-3.22.33-4.8a18.88,18.88,0,0,1,1.1-4H28A13.37,13.37,0,0,1,33,9.44Zm-13.32-.6c-.19-1.25-.07-2.53-.19-3.79A17.26,17.26,0,0,0,18.34.37a12.06,12.06,0,0,0-5.22,8.47Zm12,0A12.07,12.07,0,0,0,26.51.37a17.62,17.62,0,0,0-1.15,4.68c-.12,1.26,0,2.54-.19,3.79Z"/><path class="cls-2" d="M30.29,24.83c-.54.09-1.1-.07-1.64,0a5,5,0,0,0-2.22.76,5.39,5.39,0,0,0-2.27,3.53c-.23.92-.83,1.61-1.84,1.39h0c-.9,0-2.59.28-3.08-.67a15.19,15.19,0,0,1-.44-1.54,4.53,4.53,0,0,0-1.17-1.81c-1.08-1-2.66-1.09-4-1.51s-1.2-1-1.28-2.2a.46.46,0,0,1,.56-.48.41.41,0,0,1,.16,0H30.79a.48.48,0,0,1,.49.45.24.24,0,0,1,0,.08C31.49,23.7,31.37,24.66,30.29,24.83Zm.05-1.57H13.4c.12.52.4.71,1.08.88.52.14,1,.25,1.56.4a5.57,5.57,0,0,1,2.39,1.31,6,6,0,0,1,1.43,2.44c.18.58.08,1,.74,1.11a14.06,14.06,0,0,0,1.72.06.42.42,0,0,1,.16,0h.11c.47.1,1.11-2.36,1.35-2.77a5.89,5.89,0,0,1,1.46-1.68,5.8,5.8,0,0,1,2.46-1.15,6.11,6.11,0,0,1,1.28-.13C29.69,23.78,30.34,23.86,30.34,23.26Z"/><path class="cls-2" d="M138.36,121.82a.47.47,0,0,1-.12.09l-4.59,2.35L127,127.63,122.45,130a.44.44,0,0,1-.15.05.47.47,0,0,1-.7-.22,12,12,0,0,1,.69-10.7,11.88,11.88,0,0,1,.22-3.61c.12-.83.27-1.66.44-2.49l-.38-.17c-.64-.27-.31-1.3.33-1l.28.12c0-.1,0-.2.07-.3.16-.68,1.19-.34,1,.34l-.09.41c.77.34,1.53.71,2.28,1.1a11.71,11.71,0,0,1,3.05,1.94,12,12,0,0,1,9.07,5.72A.46.46,0,0,1,138.36,121.82Zm-10.71,4.28c-.66-.92-1.09-2-1.71-3a15.59,15.59,0,0,0-2.84-3.28,10.86,10.86,0,0,0-.73,8.93l4.17-2.12Zm3.42-1.75c-.39-1.37-1.24-2.62-1.7-4a16.94,16.94,0,0,1-.83-4.4,12.53,12.53,0,0,0-2.66-1.58c-.63-.34-1.27-.65-1.92-.94-.14.7-.27,1.4-.37,2.11a12.63,12.63,0,0,0-.27,3.07,17.31,17.31,0,0,1,3.08,3.26c.83,1.17,1.34,2.59,2.22,3.71Zm6.25-3.19a10.87,10.87,0,0,0-7.66-4.65,15.34,15.34,0,0,0,1,4.23c.42,1.06,1,2,1.4,3.12l1.1-.57Z"/><path class="cls-2" d="M142.71,134.6c-.39.28-.91.39-1.32.65a4.58,4.58,0,0,0-1.48,1.52,4.87,4.87,0,0,0-.37,3.76c.19.83,0,1.64-.91,1.87h0c-.73.34-2,1.28-2.75.72a12.32,12.32,0,0,1-1-1.06,4.31,4.31,0,0,0-1.68-1c-1.29-.35-2.59.22-3.84.43s-1.37-.29-1.93-1.24a.4.4,0,0,1,.25-.61l.12-.09,14.25-7.28a.44.44,0,0,1,.58.16l.05.06C143.21,133.19,143.51,134,142.71,134.6Zm-.6-1.29-13.6,6.95c.31.37.61.4,1.23.26.47-.1.94-.23,1.41-.32a5.12,5.12,0,0,1,2.46.07,5.31,5.31,0,0,1,2.14,1.38c.39.39.48.76,1.05.58a12.79,12.79,0,0,0,1.41-.65.43.43,0,0,1,.14,0l.09,0c.43-.12-.07-2.35,0-2.79a5.35,5.35,0,0,1,2-3.87,5.28,5.28,0,0,1,1-.63C141.8,134,142.35,133.79,142.11,133.31Z"/><path class="cls-2" d="M103.25,73a9.55,9.55,0,1,1-9.55-9.55A9.56,9.56,0,0,1,103.25,73ZM102,73a8.31,8.31,0,1,0-8.31,8.3A8.32,8.32,0,0,0,102,73Z"/><path class="cls-2" d="M96.31,62.1a.64.64,0,0,1-.53.29H91.63a.62.62,0,0,1-.53-.29.61.61,0,0,1,0-.61l2.08-4.15A.62.62,0,0,1,93.7,57a.63.63,0,0,1,.56.35l2.08,4.15A.66.66,0,0,1,96.31,62.1Zm-1.54-1L93.7,59l-1.07,2.14Z"/><path class="cls-2" d="M96.34,84.47l-2.08,4.15a.63.63,0,0,1-.56.34.61.61,0,0,1-.55-.34l-2.08-4.15a.61.61,0,0,1,0-.61.62.62,0,0,1,.53-.29h4.15a.64.64,0,0,1,.53.29A.66.66,0,0,1,96.34,84.47Zm-1.57.34H92.63L93.7,87Z"/><path class="cls-2" d="M87.85,63.44a.6.6,0,0,1-.17.58L84.75,67a.62.62,0,0,1-.44.18h-.15a.61.61,0,0,1-.44-.41l-1.47-4.41a.59.59,0,0,1,.15-.63.61.61,0,0,1,.64-.15L87.44,63A.64.64,0,0,1,87.85,63.44Zm-1.76.42-2.27-.76.76,2.27Z"/><path class="cls-2" d="M105,84.28a.63.63,0,0,1-.44.19.65.65,0,0,1-.2,0L100,83a.61.61,0,0,1-.4-.45.64.64,0,0,1,.16-.59L102.66,79a.62.62,0,0,1,.58-.17.64.64,0,0,1,.45.41l1.47,4.41A.63.63,0,0,1,105,84.28Zm-1.43-1.42-.75-2.27-1.52,1.51Z"/><path class="cls-2" d="M83.11,70.9v4.16a.61.61,0,0,1-.29.52.56.56,0,0,1-.33.1.58.58,0,0,1-.28-.07l-4.15-2.07a.63.63,0,0,1,0-1.12l4.15-2.07a.63.63,0,0,1,.61,0A.64.64,0,0,1,83.11,70.9Zm-1.24,1L79.73,73l2.14,1.07Z"/><path class="cls-2" d="M109.69,73a.63.63,0,0,1-.35.56l-4.15,2.07a.58.58,0,0,1-.6,0,.6.6,0,0,1-.3-.52V70.9a.63.63,0,0,1,.3-.53.61.61,0,0,1,.6,0l4.15,2.07A.63.63,0,0,1,109.69,73Zm-2,0-2.13-1.07v2.14Z"/><path class="cls-2" d="M87.85,82.52a.64.64,0,0,1-.41.45L83,84.43a.79.79,0,0,1-.2,0,.63.63,0,0,1-.44-.19.59.59,0,0,1-.15-.63l1.47-4.41a.61.61,0,0,1,.44-.41.65.65,0,0,1,.59.17l2.93,2.93A.62.62,0,0,1,87.85,82.52Zm-1.76-.42-1.51-1.51-.76,2.27Z"/><path class="cls-2" d="M105.16,62.31l-1.47,4.41a.64.64,0,0,1-.45.41h-.14a.6.6,0,0,1-.44-.18L99.72,64a.62.62,0,0,1-.16-.58A.61.61,0,0,1,100,63l4.41-1.46a.61.61,0,0,1,.64.15A.63.63,0,0,1,105.16,62.31Zm-1.58.79-2.27.76,1.52,1.51Z"/><path class="cls-2" d="M166.47,129a6.33,6.33,0,1,1-6.32-6.32A6.34,6.34,0,0,1,166.47,129Zm-.82,0a5.5,5.5,0,1,0-5.5,5.5A5.51,5.51,0,0,0,165.65,129Z"/><path class="cls-2" d="M161.87,121.8a.41.41,0,0,1-.35.19h-2.75a.41.41,0,0,1-.35-.19.43.43,0,0,1,0-.41l1.38-2.75a.4.4,0,0,1,.37-.22.4.4,0,0,1,.36.22l1.38,2.75A.43.43,0,0,1,161.87,121.8Zm-1-.63-.7-1.42-.71,1.42Z"/><path class="cls-2" d="M161.89,136.61l-1.38,2.75a.4.4,0,0,1-.73,0l-1.38-2.75a.41.41,0,0,1,.37-.59h2.75a.41.41,0,0,1,.37.59Zm-1,.23h-1.41l.71,1.42Z"/><path class="cls-2" d="M156.27,122.69a.41.41,0,0,1-.11.38l-1.95,2a.38.38,0,0,1-.29.12h-.09a.45.45,0,0,1-.3-.27l-1-2.92a.41.41,0,0,1,.52-.52l2.92,1A.43.43,0,0,1,156.27,122.69Zm-1.17.27-1.5-.5.5,1.5Z"/><path class="cls-2" d="M167.63,136.49a.4.4,0,0,1-.29.12l-.13,0-2.92-1a.43.43,0,0,1-.27-.3.41.41,0,0,1,.11-.38l2-1.95a.41.41,0,0,1,.38-.11.43.43,0,0,1,.3.27l1,2.92A.41.41,0,0,1,167.63,136.49Zm-.94-.94-.5-1.5-1,1Z"/><path class="cls-2" d="M153.13,127.63v2.75a.42.42,0,0,1-.19.35.43.43,0,0,1-.22.06.37.37,0,0,1-.18,0l-2.75-1.38a.4.4,0,0,1,0-.73l2.75-1.38a.41.41,0,0,1,.59.37Zm-.82.67-1.42.7,1.42.71Z"/><path class="cls-2" d="M170.73,129a.4.4,0,0,1-.22.37l-2.75,1.38a.43.43,0,0,1-.19,0,.46.46,0,0,1-.22-.06.42.42,0,0,1-.19-.35v-2.75a.41.41,0,0,1,.19-.35.43.43,0,0,1,.41,0l2.75,1.38A.4.4,0,0,1,170.73,129Zm-1.33,0-1.42-.7v1.41Z"/><path class="cls-2" d="M156.27,135.32a.43.43,0,0,1-.27.3l-2.92,1-.13,0a.4.4,0,0,1-.29-.12.41.41,0,0,1-.1-.42l1-2.92a.43.43,0,0,1,.3-.27.41.41,0,0,1,.38.11l1.95,1.95A.41.41,0,0,1,156.27,135.32Zm-1.17-.27-1-1-.5,1.5Z"/><path class="cls-2" d="M167.73,121.94l-1,2.92a.45.45,0,0,1-.3.27h-.09a.38.38,0,0,1-.29-.12l-2-2a.41.41,0,0,1-.11-.38.43.43,0,0,1,.27-.3l2.92-1a.41.41,0,0,1,.52.52Zm-1,.52-1.5.5,1,1Z"/><path class="cls-2" d="M37.48,118.68a9.55,9.55,0,1,1-9.55-9.55A9.57,9.57,0,0,1,37.48,118.68Zm-1.25,0a8.31,8.31,0,1,0-8.3,8.3A8.31,8.31,0,0,0,36.23,118.68Z"/><path class="cls-2" d="M30.53,107.79a.6.6,0,0,1-.53.3H25.85a.6.6,0,0,1-.53-.3.64.64,0,0,1,0-.6L27.37,103a.62.62,0,0,1,1.11,0l2.08,4.15A.59.59,0,0,1,30.53,107.79Zm-1.54-1-1.06-2.13-1.07,2.13Z"/><path class="cls-2" d="M30.56,130.17l-2.08,4.15a.62.62,0,0,1-1.11,0l-2.08-4.15a.66.66,0,0,1,0-.61.63.63,0,0,1,.53-.3H30a.63.63,0,0,1,.53.3A.6.6,0,0,1,30.56,130.17Zm-1.57.34H26.86l1.07,2.14Z"/><path class="cls-2" d="M22.07,109.14a.62.62,0,0,1-.16.58L19,112.66a.62.62,0,0,1-.44.18.34.34,0,0,1-.14,0,.62.62,0,0,1-.45-.41L16.47,108a.62.62,0,0,1,.79-.79l4.4,1.47A.62.62,0,0,1,22.07,109.14Zm-1.76.41-2.26-.75.75,2.26Z"/><path class="cls-2" d="M39.23,130a.62.62,0,0,1-.44.18.69.69,0,0,1-.2,0l-4.4-1.47a.61.61,0,0,1-.41-.44.62.62,0,0,1,.17-.59l2.93-2.93a.6.6,0,0,1,.58-.17.62.62,0,0,1,.45.41l1.47,4.4A.63.63,0,0,1,39.23,130Zm-1.43-1.42-.75-2.27-1.51,1.51Z"/><path class="cls-2" d="M17.34,116.6v4.15a.6.6,0,0,1-.3.53.63.63,0,0,1-.32.1.64.64,0,0,1-.28-.07l-4.16-2.08a.61.61,0,0,1-.34-.55.63.63,0,0,1,.34-.56L16.44,116a.64.64,0,0,1,.6,0A.62.62,0,0,1,17.34,116.6Zm-1.25,1L14,118.68l2.13,1.07Z"/><path class="cls-2" d="M43.91,118.68a.61.61,0,0,1-.34.55l-4.15,2.08a.72.72,0,0,1-.28.07.64.64,0,0,1-.33-.1.63.63,0,0,1-.3-.53V116.6a.64.64,0,0,1,.3-.53.66.66,0,0,1,.61,0l4.15,2.08A.63.63,0,0,1,43.91,118.68Zm-2,0-2.14-1.07v2.14Z"/><path class="cls-2" d="M22.07,128.22a.61.61,0,0,1-.41.44l-4.4,1.47a.64.64,0,0,1-.2,0,.62.62,0,0,1-.44-.18.65.65,0,0,1-.15-.64l1.47-4.4a.62.62,0,0,1,.45-.41.6.6,0,0,1,.58.17l2.94,2.93A.64.64,0,0,1,22.07,128.22Zm-1.76-.42-1.51-1.51-.75,2.27Z"/><path class="cls-2" d="M39.38,108l-1.47,4.4a.62.62,0,0,1-.45.41.32.32,0,0,1-.14,0,.62.62,0,0,1-.44-.18L34,109.72a.6.6,0,0,1-.17-.58.62.62,0,0,1,.41-.45l4.4-1.47a.65.65,0,0,1,.64.15A.63.63,0,0,1,39.38,108Zm-1.58.79-2.26.75,1.51,1.51Z"/><path class="cls-2" d="M217.52,189.46v22.32a.45.45,0,0,1-.71.35l-.14,0H202.26a.39.39,0,0,1-.34-.16.41.41,0,0,1-.16-.34V189.54a.44.44,0,0,1,.38-.64h.47l11.08-4.24a.34.34,0,0,1,.33,0,.44.44,0,0,1,.55.41v3.81h2.33a.84.84,0,0,1,.62.56Zm-12.45-.56h8.61v-3.29Zm11.57.89H202.76l-.12,0v21.45H216.5l.14,0Z"/><path class="cls-2" d="M215.67,197.18a6,6,0,1,1-6-6.05A6.05,6.05,0,0,1,215.67,197.18Zm-3.21-4.52a6.22,6.22,0,0,1,.65,1,5.67,5.67,0,0,1,1,.66A5.53,5.53,0,0,0,212.46,192.66Zm1.08,2.1a8.74,8.74,0,0,1,.24,1,6.14,6.14,0,0,1,.95.34A3.6,3.6,0,0,0,213.54,194.76Zm-2.37,5.84a7.61,7.61,0,0,0,1.42-.45,7.38,7.38,0,0,0,.45-1.42,16.07,16.07,0,0,1-1.65.22A16.07,16.07,0,0,1,211.17,200.6Zm.22-5.19a16.07,16.07,0,0,1,1.65.22,7.61,7.61,0,0,0-.45-1.42,6.92,6.92,0,0,0-1.42-.44A15.86,15.86,0,0,1,211.39,195.41Zm1.76,2.58c0-.27,0-.53,0-.81s0-.54,0-.8a11.61,11.61,0,0,0-1.71-.25c0,.35,0,.7,0,1.05s0,.71,0,1.06A15.1,15.1,0,0,0,213.15,198Zm-2.48-5.91a5.69,5.69,0,0,1,.33.94,8.31,8.31,0,0,1,1,.24A3.62,3.62,0,0,0,210.67,192.08Zm.05,4c-.34,0-.71,0-1.1,0s-.76,0-1.11,0c0,.35,0,.71,0,1.1s0,.76,0,1.11c.35,0,.72,0,1.11,0s.76,0,1.1,0q0-.53,0-1.11C210.75,196.79,210.74,196.43,210.72,196.08ZM209,192.92l.62,0,.62,0c-.23-.71-.47-1.08-.62-1.08S209.23,192.21,209,192.92Zm-.19.74a14.44,14.44,0,0,0-.25,1.71c.35,0,.71,0,1.06,0l1.06,0a12.47,12.47,0,0,0-.26-1.71,7,7,0,0,0-.8,0A7.34,7.34,0,0,0,208.81,193.66Zm-1.61-.4a8.31,8.31,0,0,1,1-.24,5.69,5.69,0,0,1,.33-.94A3.62,3.62,0,0,0,207.2,193.26Zm.58,3.92c0-.35,0-.7,0-1.05a11.61,11.61,0,0,0-1.71.25c0,.26,0,.53,0,.8s0,.54,0,.81a15.1,15.1,0,0,0,1.71.25C207.79,197.89,207.78,197.53,207.78,197.18Zm-1.58,1.55a7.38,7.38,0,0,0,.45,1.42,7.38,7.38,0,0,0,1.42.45,16.07,16.07,0,0,1-.22-1.65A16.07,16.07,0,0,1,206.2,198.73Zm1.87-5a6.73,6.73,0,0,0-1.42.44,7.61,7.61,0,0,0-.45,1.42,16.07,16.07,0,0,1,1.65-.22A15.86,15.86,0,0,1,208.07,193.77Zm-3,.58a5.67,5.67,0,0,1,1-.66,6.22,6.22,0,0,1,.65-1A5.42,5.42,0,0,0,205.1,194.35Zm-.59,1.79a5.79,5.79,0,0,1,1-.34,8.74,8.74,0,0,1,.24-1A3.6,3.6,0,0,0,204.51,196.14Zm.85,1.66c0-.2,0-.41,0-.62s0-.41,0-.61c-.72.22-1.08.46-1.08.61S204.64,197.58,205.36,197.8Zm-.85.43a3.57,3.57,0,0,0,1.19,1.37,8.31,8.31,0,0,1-.24-1A5,5,0,0,1,204.51,198.23Zm2.27,3.47a6.22,6.22,0,0,1-.65-1,6.22,6.22,0,0,1-1-.65A5.39,5.39,0,0,0,206.78,201.7Zm1.79.59a5.82,5.82,0,0,1-.33-.95,8.31,8.31,0,0,1-1-.24A3.65,3.65,0,0,0,208.57,202.29Zm1.67-.85-.62,0-.62,0c.23.72.47,1.08.62,1.08S210,202.16,210.24,201.44Zm.18-.73a13,13,0,0,0,.26-1.71l-1.06,0-1.06,0a15.1,15.1,0,0,0,.25,1.71c.27,0,.54,0,.81,0S210.16,200.73,210.42,200.71Zm1.62.39a8.31,8.31,0,0,1-1,.24,5.82,5.82,0,0,1-.33.95A3.65,3.65,0,0,0,212,201.1Zm2.1-1.08a6.22,6.22,0,0,1-1,.65,6.22,6.22,0,0,1-.65,1A5.5,5.5,0,0,0,214.14,200Zm.59-1.79a5.27,5.27,0,0,1-.95.33,8.31,8.31,0,0,1-.24,1A3.57,3.57,0,0,0,214.73,198.23Zm.23-1c0-.15-.37-.39-1.08-.61,0,.2,0,.4,0,.61s0,.42,0,.62C214.59,197.58,215,197.33,215,197.18Z"/><path class="cls-2" d="M50.34,66.36V88.67a.45.45,0,0,1-.71.35l-.15,0a.61.61,0,0,1-.19,0H35.08a.6.6,0,0,1-.51-.51V66.43A.44.44,0,0,1,35,65.8h.46L46.5,61.55a.39.39,0,0,1,.34,0,.44.44,0,0,1,.55.42V65.8h2.33a.4.4,0,0,1,.33.15A.42.42,0,0,1,50.34,66.36ZM37.89,65.8H46.5V62.5Zm11.56.88H35.57l-.11,0V88.17H49.32l.13,0Z"/><path class="cls-2" d="M48.48,74.08a6,6,0,1,1-6-6A6,6,0,0,1,48.48,74.08Zm-3.21-4.52a5.31,5.31,0,0,1,.65,1,5.31,5.31,0,0,1,1,.65A5.19,5.19,0,0,0,45.27,69.56Zm1.09,2.1a8.15,8.15,0,0,1,.24,1,6,6,0,0,1,.94.34A3.63,3.63,0,0,0,46.36,71.66ZM44,77.49A6.28,6.28,0,0,0,45.4,77a6.28,6.28,0,0,0,.45-1.41,15.78,15.78,0,0,1-1.65.21A15.78,15.78,0,0,1,44,77.49Zm.21-5.18a15.78,15.78,0,0,1,1.65.21,6.28,6.28,0,0,0-.45-1.41A6.28,6.28,0,0,0,44,70.66,15.78,15.78,0,0,1,44.2,72.31ZM46,74.88a6.51,6.51,0,0,0,0-1.61A15.1,15.1,0,0,0,44.25,73c0,.35,0,.7,0,1.06s0,.7,0,1A15.1,15.1,0,0,0,46,74.88ZM43.48,69a6,6,0,0,1,.34.94,8.15,8.15,0,0,1,1,.24A3.63,3.63,0,0,0,43.48,69Zm.06,4c-.35,0-.71,0-1.1,0s-.76,0-1.11,0c0,.35,0,.71,0,1.11s0,.75,0,1.1c.35,0,.71,0,1.11,0s.75,0,1.1,0c0-.35,0-.71,0-1.1S43.56,73.32,43.54,73Zm-1.72-3.15c.2,0,.41,0,.62,0s.41,0,.61,0c-.22-.72-.46-1.09-.61-1.09S42,69.1,41.82,69.82Zm-.19.73a15.1,15.1,0,0,0-.25,1.71c.35,0,.7,0,1.06,0s.7,0,1.05,0a15.1,15.1,0,0,0-.25-1.71,6.51,6.51,0,0,0-1.61,0ZM40,70.15a8.15,8.15,0,0,1,1-.24,6,6,0,0,1,.34-.94A3.63,3.63,0,0,0,40,70.15Zm.57,3.93c0-.36,0-.71,0-1.06a15.1,15.1,0,0,0-1.71.25,6.51,6.51,0,0,0,0,1.61,15.1,15.1,0,0,0,1.71.25Q40.59,74.61,40.59,74.08ZM39,75.63A6.28,6.28,0,0,0,39.47,77a6.28,6.28,0,0,0,1.41.45,15.78,15.78,0,0,1-.21-1.65A15.78,15.78,0,0,1,39,75.63Zm1.86-5a6.28,6.28,0,0,0-1.41.45A6.28,6.28,0,0,0,39,72.52a15.78,15.78,0,0,1,1.65-.21A15.78,15.78,0,0,1,40.88,70.66Zm-3,.58a5.31,5.31,0,0,1,1-.65,5.31,5.31,0,0,1,.65-1A5.19,5.19,0,0,0,37.92,71.24ZM37.33,73a6,6,0,0,1,.94-.34,8.15,8.15,0,0,1,.24-1A3.63,3.63,0,0,0,37.33,73Zm.85,1.66c0-.2,0-.41,0-.61s0-.42,0-.62c-.72.22-1.09.46-1.09.62S37.46,74.47,38.18,74.69Zm-.85.43a3.63,3.63,0,0,0,1.18,1.37,8.15,8.15,0,0,1-.24-1A6,6,0,0,1,37.33,75.12Zm2.27,3.47a5.31,5.31,0,0,1-.65-1,4.87,4.87,0,0,1-1-.65A5.19,5.19,0,0,0,39.6,78.59Zm1.79.59a6,6,0,0,1-.34-.94A8.15,8.15,0,0,1,40,78,3.63,3.63,0,0,0,41.39,79.18Zm1.66-.85c-.2,0-.41,0-.61,0s-.42,0-.62,0c.22.72.46,1.09.62,1.09S42.83,79.05,43.05,78.33Zm.19-.73a15.1,15.1,0,0,0,.25-1.71q-.52,0-1.05,0c-.36,0-.71,0-1.06,0a15.1,15.1,0,0,0,.25,1.71,6.51,6.51,0,0,0,1.61,0Zm1.61.4a8.15,8.15,0,0,1-1,.24,6,6,0,0,1-.34.94A3.63,3.63,0,0,0,44.85,78ZM47,76.91a4.87,4.87,0,0,1-1,.65,5.31,5.31,0,0,1-.65,1A5.19,5.19,0,0,0,47,76.91Zm.59-1.79a6,6,0,0,1-.94.34,8.15,8.15,0,0,1-.24,1A3.63,3.63,0,0,0,47.54,75.12Zm.24-1c0-.16-.37-.4-1.09-.62,0,.2,0,.41,0,.62s0,.41,0,.61C47.41,74.47,47.78,74.23,47.78,74.08Z"/><path class="cls-2" d="M174,156.42a.39.39,0,0,1-.1.08l-16.57,10.65a.44.44,0,0,1-.75,0l-5-7.73a.52.52,0,0,1-.25,0,2.72,2.72,0,0,0-1,.11.55.55,0,0,1-.22,0,.41.41,0,0,1-.6-.25,67.51,67.51,0,0,1-2-9.85.36.36,0,0,1,.07-.29.39.39,0,0,1,.29-.35,112.7,112.7,0,0,1,17.58-4,.44.44,0,0,1,.66.23l1,3,.93-.59a.44.44,0,0,1,.75,0l5.39,8.4A.42.42,0,0,1,174,156.42Zm-7.65-7.91,0,0-.94-2.74a111.25,111.25,0,0,0-17,3.87,66.78,66.78,0,0,0,1.87,9.08,3.74,3.74,0,0,1,.81-.1.41.41,0,0,1,.2-.39Zm6.85,7.39-4.89-7.6-16.14,10.37,4.88,7.6Z"/><path class="cls-2" d="M159.17,162.33a2.36,2.36,0,1,1,.71-3.26A2.37,2.37,0,0,1,159.17,162.33Zm.12-2.88a1.65,1.65,0,1,0-.5,2.28A1.65,1.65,0,0,0,159.29,159.45Z"/><path class="cls-2" d="M154.13,155.08a2.36,2.36,0,1,1,.71-3.26A2.37,2.37,0,0,1,154.13,155.08Zm.11-2.88a1.65,1.65,0,1,0-.5,2.28A1.65,1.65,0,0,0,154.24,152.2Z"/><path class="cls-2" d="M165.26,159.69l-1.77,1.14-1.34-2.09,1.77-1.14Zm-1.56.16.58-.37-.57-.9-.58.37Z"/><path class="cls-2" d="M167.3,158.38l-1.77,1.14-1.34-2.09L166,156.3Zm-1.56.16.58-.37-.58-.9-.58.38Z"/><path class="cls-2" d="M169.33,157.07l-1.77,1.14-1.34-2.09L168,155Zm-1.55.16.57-.37-.57-.89-.58.37Z"/><path class="cls-2" d="M171.37,155.77l-1.77,1.13-1.34-2.08,1.77-1.14Zm-1.56.15.58-.37-.58-.89-.57.37Z"/><path class="cls-2" d="M205.56,104.73a.63.63,0,0,1-.56.29h-2.12a.65.65,0,0,1-.48-.19l0,0a.65.65,0,0,1-.17-.45V90.56h-1.5a1.39,1.39,0,0,1-.95-.92c0-.92,0-1.84,0-2.76a47.69,47.69,0,0,1,.39-9.08,19.2,19.2,0,0,1,1.53-4.91c.77-1.61,1.67-3.18,3-3.78a.69.69,0,0,1,.68.06.76.76,0,0,1,.34.62v34.3A.76.76,0,0,1,205.56,104.73Zm-1.3-33.62a11.49,11.49,0,0,0-1.74,3.12,19.34,19.34,0,0,0-1.19,4.46,48.06,48.06,0,0,0-.26,8.13c0,.79,0,1.58,0,2.37h1.52a.71.71,0,0,1,.77.18.7.7,0,0,1,.16.75v13.53h.7Z"/><path class="cls-2" d="M196.42,77.53a3.35,3.35,0,0,1-1.78,2.17,6.74,6.74,0,0,1-1.62.45l-.79.17v23.84a.82.82,0,0,1,0,.21.64.64,0,0,1-.66.54H189a1.09,1.09,0,0,1-.25,0,.74.74,0,0,1-.69-1V80.57c-1.52-.22-3.47-.83-4-3.2a14.12,14.12,0,0,1-.24-3.24v-.55c0-1.43,0-3,.12-4.5a.65.65,0,0,1,.39-.58,1.32,1.32,0,0,1,1.27-.36,2.1,2.1,0,0,1,1.41,1.4,8.82,8.82,0,0,1,.29,1.84c0,.19,0,.38,0,.56.11.94.19,1.89.26,2.83,0,.15,0,.34,0,.55,0,.56,0,1.34.34,1.46a4.47,4.47,0,0,0,.68.12c0-.12,0-.33,0-.46s0-.24,0-.31c0-1.51.08-3.15.08-5.15s.91-2.69,1.65-2.84a1.45,1.45,0,0,1,1.17.23,2.23,2.23,0,0,1,.83,1.53,18.17,18.17,0,0,1,0,3.46c0,.5-.05,1-.06,1.47,0,.14,0,.31,0,.5-.08.81-.11,1.49.34,1.55a.55.55,0,0,0,.42-.09c.28-.25.3-1,.31-1.41,0-.1,0-.19,0-.28.05-.9.07-1.8.06-2.68,0-.26,0-.54,0-.81a8,8,0,0,1,0-1.55c.15-1.12,1-1.15,1.61-1.18a2.9,2.9,0,0,0,.79-.1.6.6,0,0,1,.44,0,.72.72,0,0,1,.73.63A19.58,19.58,0,0,1,196.42,77.53Zm-.78-7.35h-.13l-.29,0c-.49.06-.49.06-.48.35,0,.79.06,1.84,0,2.88s-.06,1.84-.12,2.7v.11a2.06,2.06,0,0,1-.54,1.54,2.38,2.38,0,0,1-2.74.11,1.71,1.71,0,0,1-.47-1.32c0-.55,0-1.11,0-1.65,0-.27,0-.54,0-.81l.05-2.61c0-.11,0-.24,0-.39,0-.46.09-1.17-.14-1.44a.25.25,0,0,0-.26-.08.63.63,0,0,0-.44.37,1.21,1.21,0,0,0-.07.34v.07a5.58,5.58,0,0,0,0,.82v.25c0,.78,0,1.57,0,2.35s-.05,1.67-.07,2.51a2.8,2.8,0,0,0,0,.29,1.89,1.89,0,0,1-.26,1.27c-.59.72-2.31.39-2.9-.08a1.52,1.52,0,0,1-.48-1.3V76.3c0-.78-.1-1.56-.16-2.32s-.16-1.67-.25-2.48l0-.3c0-.31-.07-.63-.13-.94l0-.08a1.14,1.14,0,0,0-.06-.25v-.06c0-.15-.05-.22-.08-.24a.23.23,0,0,0-.18,0h-.14a60,60,0,0,0-.05,6.18,3.61,3.61,0,0,0,1,2.67,4.78,4.78,0,0,0,2.77.79.71.71,0,0,1,.62.51.68.68,0,0,1-.13.65v23.08h1.41V80.1a.77.77,0,0,1,0-.52.67.67,0,0,1,.4-.39,7.8,7.8,0,0,1,1.38-.36,8.34,8.34,0,0,0,1.17-.28c.91-.32,1.23-1.06,1.47-2.15A21.6,21.6,0,0,0,195.64,70.18Z"/><path class="cls-2" d="M99.67,228.14a.54.54,0,0,1-.36.4L77.87,236a.54.54,0,0,1-.34.12l-.13,0a.5.5,0,0,1-.36-.33l-.47-1.33a.5.5,0,0,1,0-.4.46.46,0,0,1,.3-.28l8.54-3-.3-.86a.5.5,0,0,1,.08-.49.48.48,0,0,1,.34-.41l1.71-.63a31.59,31.59,0,0,1,5.78-1.73,12.91,12.91,0,0,1,3.43-.12,5.07,5.07,0,0,1,3.06,1.07A.55.55,0,0,1,99.67,228.14Zm-1.76-.25a8.22,8.22,0,0,0-2.08-.32,12.49,12.49,0,0,0-3,.23,30.4,30.4,0,0,0-5.12,1.6l-1.4.51.3.86a.55.55,0,0,1,.05.6.53.53,0,0,1-.49.31l-8.37,2.91.1.28Z"/><path class="cls-2" d="M97.65,223a13.23,13.23,0,0,1-5.21,1.46,2.33,2.33,0,0,1-1.81-.67,4.87,4.87,0,0,1-.65-.93,3.26,3.26,0,0,0-.24-.4L74.9,227.64a.41.41,0,0,1-.16,0h-.09a.51.51,0,0,1-.47-.35l-.54-1.57a.55.55,0,0,1-.06-.6.53.53,0,0,1,.5-.31l14.55-5.06a2.87,2.87,0,0,1,1.17-3.24,9.43,9.43,0,0,1,2-.86l.35-.12c.89-.31,1.85-.61,2.84-.9a.5.5,0,0,1,.52.13,1,1,0,0,1,.53.78,1.43,1.43,0,0,1-.6,1.26,6.1,6.1,0,0,1-1.1.59l-.33.15c-.57.27-1.15.53-1.72.78l-.35.12c-.29.1-.79.26-.78.46a2.11,2.11,0,0,0,0,.34l.19-.07.2-.08c1-.3,2-.64,3.24-1.07s2,0,2.23.45a1.07,1.07,0,0,1,.12.85,1.59,1.59,0,0,1-.82.9,12.42,12.42,0,0,1-2.17.77l-.93.28-.33.09c-.47.11-.88.23-.83.45a.24.24,0,0,0,.1.19c.19.11.61,0,.89-.12l.17,0c.57-.17,1.14-.35,1.69-.55.16,0,.33-.13.5-.2a5.4,5.4,0,0,1,1-.34c.8-.16,1,.39,1.18.8a1.88,1.88,0,0,0,.22.45.5.5,0,0,1,.11.32A.54.54,0,0,1,97.65,223Zm-.9-.76a.87.87,0,0,0-.07-.17,1.26,1.26,0,0,0-.12-.22l-.1,0c-.49.18-1.14.43-1.8.64s-1.16.37-1.72.52l-.07,0a1.5,1.5,0,0,1-1.14,0,1.68,1.68,0,0,1-.7-1.8,1.19,1.19,0,0,1,.77-.62c.35-.13.7-.24,1-.35l.51-.16,1.65-.53.25-.08c.27-.07.71-.19.82-.36s0,0,0-.1a.32.32,0,0,0-.26-.15.59.59,0,0,0-.21,0,3,3,0,0,0-.55.17l-.15.05-1.48.5-1.59.5-.17.07a1.35,1.35,0,0,1-.91.11c-.63-.23-.81-1.42-.63-1.93a1.11,1.11,0,0,1,.76-.64l.11,0c.48-.19,1-.39,1.42-.6s1-.45,1.49-.69l.18-.09.55-.28,0,0,.14-.08,0,0,.09-.05,0,0,0,0c-1.17.35-2.52.77-3.8,1.29a2.37,2.37,0,0,0-1.41,1.13,3.11,3.11,0,0,0,.11,1.86.52.52,0,0,1-.21.58.55.55,0,0,1-.49.09l-14.32,5,.25.73,14.51-5.05.06,0a.55.55,0,0,1,.75.08,5.7,5.7,0,0,1,.54.81,5.67,5.67,0,0,0,.42.66c.37.46.88.5,1.59.41A13.69,13.69,0,0,0,96.75,222.26Z"/><path class="cls-2" d="M119.89,159.52a19,19,0,1,1-19-19A19,19,0,0,1,119.89,159.52ZM108.35,145.4a5.08,5.08,0,0,1-.84.94,3.14,3.14,0,0,1-1.68.55,3.29,3.29,0,0,0-1.28.34,3.08,3.08,0,0,0-1.3,2.07c-.07.2-.13.41-.21.63a4.88,4.88,0,0,1-1.16,1.7,8.11,8.11,0,0,0-.55.62,1.42,1.42,0,0,0-.37,1.1.62.62,0,0,0,.43.4,2.36,2.36,0,0,0,1.55-.18l.06,0a5.69,5.69,0,0,1,1.79-.4,2.44,2.44,0,0,1,1,.2,4.44,4.44,0,0,1,1.07.74,2.67,2.67,0,0,0,1.36.77,4.47,4.47,0,0,0,2.69-.87l.46-.26a6.09,6.09,0,0,1,2.92-.83,6.32,6.32,0,0,1,1.16.16,3.17,3.17,0,0,0,2,0,17.87,17.87,0,0,0-7.57-8.86C109.24,144.22,108.81,144.79,108.35,145.4Zm-19.51,1.1.25,0a4.47,4.47,0,0,1,1.23.21,4.25,4.25,0,0,1,1.39.9,9.86,9.86,0,0,1,.78.8,4.65,4.65,0,0,0,1.9,1.48,2,2,0,0,0,1.69-.36.49.49,0,0,0,0-.6,3.84,3.84,0,0,0-.44-.64,3.47,3.47,0,0,1-.59-.95,6.51,6.51,0,0,1-.28-1.05,5.56,5.56,0,0,0-.34-1.18A2.06,2.06,0,0,0,92.69,144a.46.46,0,0,1-.23-.06A17.49,17.49,0,0,0,88.84,146.5Zm-1.9,22.15c0-.17,0-.33,0-.49a5,5,0,0,1,0-.77,3.47,3.47,0,0,1,.54-1.34,3.93,3.93,0,0,0,.44-1,.82.82,0,0,0-.18-.72,2.91,2.91,0,0,0-2-.9,1.85,1.85,0,0,0-1.35.62,1.35,1.35,0,0,0-.33,1.1h0a17.76,17.76,0,0,0,2.16,4.31C86.71,169.35,86.92,169.16,86.94,168.65Zm31.75-9.13a17.8,17.8,0,0,0-.82-5.32,4,4,0,0,1-2.37.05,7.61,7.61,0,0,0-1.12-.14,5.51,5.51,0,0,0-2.88.94c-.41.22-.82.44-1.27.63a3.63,3.63,0,0,1-3.36,0,5.59,5.59,0,0,1-.71-.55,4.93,4.93,0,0,0-.64-.51,2.22,2.22,0,0,0-2,.06c-.83.28-2.1.71-3.11,0a2.07,2.07,0,0,1-.15-3,5.86,5.86,0,0,1,.67-.73,7.28,7.28,0,0,0,.54-.58,3.86,3.86,0,0,0,.6-1.41c0-.15.08-.3.13-.44a3.81,3.81,0,0,1,2-2.45,4.31,4.31,0,0,1,1.62-.35,2,2,0,0,0,1.52-1,6.34,6.34,0,0,1,1.15-1.23,17.7,17.7,0,0,0-14.46-.36,3,3,0,0,1,.93.71,4.65,4.65,0,0,1,.93,2.21l.06.25a3.31,3.31,0,0,0,.62,1.39l.14.17a2.77,2.77,0,0,1,.55.85,1.68,1.68,0,0,1-.72,2c-1.54,1.09-3.31.26-4.45-.89-.17-.17-.33-.34-.49-.52a7.21,7.21,0,0,0-1.22-1.13,3.1,3.1,0,0,0-1.53-.41,6.15,6.15,0,0,1-1.1-.18,17.69,17.69,0,0,0-4.65,12,17.48,17.48,0,0,0,.4,3.74,2.92,2.92,0,0,1,1.21-.83,3.81,3.81,0,0,1,3.91,1.21c.88,1,.38,1.87,0,2.68a3.63,3.63,0,0,0-.51,1.34c0,.19,0,.39,0,.6a2.52,2.52,0,0,1-.25,1.51,1.85,1.85,0,0,1-.89.75,17.76,17.76,0,0,0,31.71-11Z"/><path class="cls-2" d="M108.58,162.63a1.12,1.12,0,0,1-.23.36l-.12.16,0,0-.06,0c-.07,0-.14.09-.11.29l.06.2a2.76,2.76,0,0,1-.82,2.58c-.14.15-.28.28-.42.41a4.09,4.09,0,0,0-.72.79,2.82,2.82,0,0,0-.34,1.23l0,.28a4.51,4.51,0,0,1-.52,2,1.94,1.94,0,0,1-1.66,1h0a2.36,2.36,0,0,1-2-1.23,5.12,5.12,0,0,1-.54-2c0-.28-.07-.56-.12-.83a2.57,2.57,0,0,0-.56-1.29,4.28,4.28,0,0,0-.44-.4,5.39,5.39,0,0,1-.43-.39,6.27,6.27,0,0,1-.71-.94,5.32,5.32,0,0,0-.8-1,2.38,2.38,0,0,0-2.14-.28c-.27,0-.56.09-.83.11a2,2,0,0,1-1.56-.54,5.13,5.13,0,0,1-1.28-3.47,2.48,2.48,0,0,1,.89-2.1c.88-.81,1.63-1.49,2.4-2.13a2.12,2.12,0,0,1,2.3-.6,1.74,1.74,0,0,1,.8.95c.18.39.31.64.66.72a3.39,3.39,0,0,0,1.44-.08,4,4,0,0,1,1.61-.08,3.25,3.25,0,0,1,2,1.3.65.65,0,0,1,.22.18,5.43,5.43,0,0,0,2.45,2.14l.13.05c.73.23,1.49.48,1.68,1.48A1.77,1.77,0,0,1,108.58,162.63Zm-1.08-.92c-.09-.28-.31-.35-.69-.45l-.26-.07a6.51,6.51,0,0,1-3.09-2.61.6.6,0,0,1-.23-.19c-.72-1-1.65-.84-2.81-.66l-.19,0a2.85,2.85,0,0,1-2-.3,2.14,2.14,0,0,1-.64-.84c-.31-.56-.45-.75-.86-.57a3.17,3.17,0,0,0-.79.61l-.25.23L94.5,158l-.29.24a3.59,3.59,0,0,0-.65.64,1.59,1.59,0,0,0-.17,1.11,3.71,3.71,0,0,0,.9,2.44,2.33,2.33,0,0,0,1.66,0,5,5,0,0,1,1-.13h.11a2.72,2.72,0,0,1,1.75.74,6.34,6.34,0,0,1,.87,1.08l.26.39a6,6,0,0,0,.74.77,5.33,5.33,0,0,1,.74.76,4.39,4.39,0,0,1,.74,2.33,4.79,4.79,0,0,0,.46,1.83.92.92,0,0,0,1.77-.17,5.31,5.31,0,0,0,.19-1.16c0-.25,0-.5.08-.76a3.54,3.54,0,0,1,1-1.94l.35-.34c.49-.45,1-.92,1-1.5a2.1,2.1,0,0,0-.08-.52,1.28,1.28,0,0,1,.27-1.34C107.46,162.17,107.59,162,107.5,161.71Z"/><path class="cls-2" d="M43,155.31,38.51,165a.55.55,0,0,1-.86.12l-.7-.84q-1,2.17-2.09,4.34a.54.54,0,0,1-.94,0,6,6,0,0,0-.31-.62c-.69,1.93-1.37,3.86-2,5.79a.55.55,0,0,1-1.05,0l-.42-1.2c-1,1.73-2,3.44-3.15,5.11-.28.42-1.06.3-1-.28.37-5.33,1.54-10.36,4.8-14.7a23.49,23.49,0,0,1,11.07-8.12.49.49,0,0,1,.38,0C42.57,154.26,43.27,154.75,43,155.31Zm-1.43.51a22.3,22.3,0,0,0-10.08,7.67,24,24,0,0,0-4.26,11.74c.88-1.4,1.73-2.82,2.53-4.26a.55.55,0,0,1,1,.13c.1.28.19.57.29.85.61-1.76,1.22-3.52,1.86-5.28a.55.55,0,0,1,.91-.24,8,8,0,0,1,.53.69l2-4.14a.54.54,0,0,1,.85-.11l.7.83Q39.74,159.76,41.58,155.82Z"/><path class="cls-2" d="M41.87,154.33c-1.8-.15-3.65.79-5.21,1.59a24.77,24.77,0,0,0-4.26,2.82.55.55,0,0,1-.93-.39,3.84,3.84,0,0,1,0-.48l-1.78,1.28-1.39,1A5.41,5.41,0,0,1,27,161c-1.22.4-1.24-.8-1.11-1.82-1,.62-2.31,1.31-3.3.91a.55.55,0,0,1-.32-.8,17.16,17.16,0,0,1,8.77-6.73,16.79,16.79,0,0,1,6.56-.8c1.42.11,3.85.15,4.66,1.54a.52.52,0,0,1,.07.31A.5.5,0,0,1,41.87,154.33Zm-1.4-1a10.52,10.52,0,0,0-1.81-.32,15.47,15.47,0,0,0-2.8-.15,15.63,15.63,0,0,0-12,6.18,18,18,0,0,0,2.48-1.31c.33-.16.87,0,.82.47a14,14,0,0,0-.26,1.7c.32-.19.65-.52.85-.66l1.39-1,2.77-2c.41-.3.91.19.8.61,0,.12-.05.23-.07.34a25.63,25.63,0,0,1,3.8-2.36A15.06,15.06,0,0,1,40.47,153.3Z"/><path class="cls-2" d="M62.28,165.47a15,15,0,0,0-2.77-1.73,9.25,9.25,0,0,0-1.7-.67l-.23,0a.15.15,0,0,1,.06.15c-.08.27-.18.54-.27.81a.56.56,0,0,1-1,.13,16.91,16.91,0,0,0-2.66-3,1.36,1.36,0,0,1-.86.46,47.35,47.35,0,0,1,4.07,9.37c1,2.79,1.9,5.6,2.78,8.43a51.11,51.11,0,0,1,1.76,6c.32,1.74.26,2.87-1.57,3.5a3.77,3.77,0,0,1-2.68-.25c-1.58-.69-1.1-1.82-1.38-3.33-1.9-10.25-5.33-20.43-11.68-28.81a.44.44,0,0,1,.09-.65,1.59,1.59,0,0,1,.68-1,.57.57,0,0,1,.24-.91,13.16,13.16,0,0,1,11.6,1.74,17,17,0,0,1,6.43,9.25C63.36,165.51,62.67,165.79,62.28,165.47Zm-13-6.71a1.7,1.7,0,0,1-.68-.31,25,25,0,0,1-2.91-2.74.56.56,0,0,0-.17.06l-.07,0-.07.08a.35.35,0,0,0,0,.08,0,0,0,0,1,0,0,1.06,1.06,0,0,1,0,.19c6.31,8.44,9.73,18.65,11.63,28.93.25,1.32.21,3,2.12,2.87,2.09-.2,1.5-2,1.16-3.44-.43-1.8-1.11-3.53-1.66-5.29-.79-2.56-1.63-5.11-2.51-7.63C54.42,167,52.77,162.26,49.27,158.76Zm1.64.17c-.12-.2-.25-.4-.38-.58l-.08.06C50.61,158.58,50.76,158.75,50.91,158.93Zm10.67,4.73c-2.5-6.07-8.59-10.67-15.3-8.9h0a.61.61,0,0,1,.2.19l1.29,1.23c.59.56,1.57,2,2.4.93a.56.56,0,0,1,.78,0,11.9,11.9,0,0,1,1.2,1.79c.16.32.28.66.44,1s.2.76.55.17a.55.55,0,0,1,.86-.11,17.94,17.94,0,0,1,2.62,2.68,1.06,1.06,0,0,1,.58-.7c.48-.19,1.14.17,1.57.34A15,15,0,0,1,61.58,163.66Z"/><path class="cls-2" d="M61.52,150.34c-1.16.14-2.31.33-3.46.56l.59,1.17a.55.55,0,0,1-.62.8l-4.68-1.2v.11a.87.87,0,0,1-.32.49,2.5,2.5,0,0,1-1.68.29c-2,0-4.26-.38-5.91,1.06a.6.6,0,0,1-.24.12c-.35.33-1.08,0-.9-.53,1.07-3.28,4.2-5.49,7.47-6.24a11.88,11.88,0,0,1,10.14,2.44C62.32,149.74,61.93,150.29,61.52,150.34Zm-1.41-.9a10.65,10.65,0,0,0-8-1.42,9.65,9.65,0,0,0-6,3.94,7.17,7.17,0,0,1,2.58-.54,24.68,24.68,0,0,1,3.1.05h.41c.11.13.11.06,0-.18.07-.14.06-.42.14-.6a.55.55,0,0,1,.61-.25l4.23,1.09-.37-.74a.56.56,0,0,1,.33-.8Q58.6,149.67,60.11,149.44Z"/><path class="cls-2" d="M59.88,136.31a34.36,34.36,0,0,1-3.33,2.81l1.2.72a.56.56,0,0,1-.13,1c-1.23.35-2.44.72-3.65,1.13a9.12,9.12,0,0,1-1.9.66c-.3,0-.38-.17-.26,0a5.35,5.35,0,0,0,.58.77.55.55,0,0,1-.2.75l-1.9.87c-.3.13-.61.26-.9.41s-.9.61-.67.86a.54.54,0,0,1-.11.85c-2,.86-4.17,2-4.78,4.24a.54.54,0,0,1-.18.27l0,.67c0,.7-1,.7-1.09,0a16.34,16.34,0,0,1,.76-7.22,13,13,0,0,1,3.71-4.73c3.46-2.94,7.81-5.08,12.43-5A.55.55,0,0,1,59.88,136.31Zm-1.86.23a18.94,18.94,0,0,0-10.19,4.64,11.83,11.83,0,0,0-3.61,4.73,10.6,10.6,0,0,0-.61,3.44,9.54,9.54,0,0,1,4-2.89c-.45-1.43,2.12-2.43,3.51-3-.55-.8-.71-1.38.52-1.84,1.49-.55,3-1,4.54-1.5l-.83-.5a.55.55,0,0,1,0-.94C56.25,138,57.15,137.3,58,136.54Z"/><path class="cls-2" d="M41,151.08a.55.55,0,0,1-.54-.23c-.64-.86-1.91-.57-2.81-.45a5.1,5.1,0,0,1-2.2-.06.56.56,0,0,1-.24-.92,6.67,6.67,0,0,1-1.86.43l-1.74.42a.55.55,0,0,1-.53-.91c.37-.39.73-.79,1.09-1.19-1.15,0-2.3-.1-3.44-.23-.85-.1-1.89-.06-2.21-1a.57.57,0,0,1,.25-.62c5.11-3.82,11.61-.78,14.78,4A.53.53,0,0,1,41,151.08Zm-1.67-1.84c-2.93-3.13-7.47-4.78-11.35-2.42a20.78,20.78,0,0,0,2.35.17c1,.08,2,.11,3,.11a.55.55,0,0,1,.38.93c-.21.26-.44.51-.66.77l1-.24a2.63,2.63,0,0,1,1.66-.08,1.12,1.12,0,0,1,.64.91C37.33,149.48,38.37,149.2,39.33,149.24Z"/><path class="cls-2" d="M137.58,236.1l-3.22,6.9h-1.2c1-2.13,2-4.27,3-6.39a22.13,22.13,0,0,0-9,6.39h-1.4a23.37,23.37,0,0,1,10.7-7.64.49.49,0,0,1,.38,0C137.14,235.05,137.84,235.54,137.58,236.1Z"/><path class="cls-2" d="M136.43,235.12c-1.79-.15-3.65.79-5.2,1.59a24.85,24.85,0,0,0-4.27,2.82.55.55,0,0,1-.93-.39c0-.16,0-.32,0-.48l-1.78,1.28-1.39,1a5.46,5.46,0,0,1-1.28.87c-1.22.4-1.23-.8-1.11-1.82-1,.62-2.31,1.31-3.29.91a.55.55,0,0,1-.33-.8,17.23,17.23,0,0,1,8.78-6.73,16.74,16.74,0,0,1,6.56-.8c1.42.11,3.85.15,4.65,1.54a.62.62,0,0,1,.08.31A.5.5,0,0,1,136.43,235.12Zm-1.4-1a10.26,10.26,0,0,0-1.8-.32,15.53,15.53,0,0,0-2.81-.15,15.76,15.76,0,0,0-5.21,1.06,15.92,15.92,0,0,0-6.79,5.12,17.64,17.64,0,0,0,2.49-1.31c.32-.16.87,0,.82.47a12.31,12.31,0,0,0-.26,1.7c.31-.19.64-.52.85-.66l1.38-1,2.78-2c.41-.3.91.19.8.61,0,.12,0,.23-.07.34a25.12,25.12,0,0,1,3.8-2.36A15,15,0,0,1,135,234.09Z"/><path class="cls-2" d="M156.72,243h-1.26c-2.81-5.32-8.44-9.08-14.61-7.45h0a.61.61,0,0,1,.2.19l1.28,1.23c.59.56,1.57,2,2.41.93a.55.55,0,0,1,.77,0,10.9,10.9,0,0,1,1.21,1.8c.16.31.28.65.44,1s.19.76.55.17a.54.54,0,0,1,.85-.11,15.22,15.22,0,0,1,2.27,2.27h-1.45a13,13,0,0,0-1.12-1.1,1.32,1.32,0,0,1-.86.46c.13.21.26.42.37.64h-1.25a18.53,18.53,0,0,0-2.69-3.45,1.65,1.65,0,0,1-.68-.31,25,25,0,0,1-2.92-2.74.59.59,0,0,0-.16.06l-.08,0s-.06.08-.07.08,0,0,0,.08a0,0,0,0,1,0,0,.59.59,0,0,1,0,.19,49.65,49.65,0,0,1,3.87,6h-1.25a49.59,49.59,0,0,0-3.74-5.71.43.43,0,0,1,.1-.65,1.54,1.54,0,0,1,.67-1,.58.58,0,0,1,.24-.91,13.18,13.18,0,0,1,11.61,1.74A16.27,16.27,0,0,1,156.72,243ZM145,239.2c.16.17.32.34.47.52a5.87,5.87,0,0,0-.39-.58Zm8.22,3.8h-1.82a.68.68,0,0,1,.36-.29A2.19,2.19,0,0,1,153.23,243Z"/><path class="cls-2" d="M156.09,231.13c-1.16.14-2.32.33-3.46.56l.58,1.17a.55.55,0,0,1-.61.8l-4.69-1.2a.2.2,0,0,1,0,.11.8.8,0,0,1-.31.49,2.5,2.5,0,0,1-1.68.29c-2,0-4.27-.38-5.91,1.06a.68.68,0,0,1-.24.12c-.36.33-1.09,0-.9-.53,1.06-3.28,4.2-5.49,7.47-6.24a11.85,11.85,0,0,1,10.13,2.44C156.89,230.53,156.49,231.08,156.09,231.13Zm-1.42-.9a10.61,10.61,0,0,0-8-1.42,9.7,9.7,0,0,0-6,3.94,7.22,7.22,0,0,1,2.59-.54,24.52,24.52,0,0,1,3.09,0h.42c.11.13.11.07,0-.18.07-.14,0-.42.13-.6a.57.57,0,0,1,.62-.25l4.23,1.09-.37-.74a.55.55,0,0,1,.33-.8C152.67,230.56,153.67,230.38,154.67,230.23Z"/><path class="cls-2" d="M154.44,217.1a35.48,35.48,0,0,1-3.32,2.81l1.19.72a.55.55,0,0,1-.13,1c-1.22.35-2.44.72-3.64,1.13a9.33,9.33,0,0,1-1.9.66c-.3,0-.38-.17-.27,0a6.28,6.28,0,0,0,.59.77.55.55,0,0,1-.2.75l-1.91.87c-.3.13-.6.26-.9.41-.15.07-.89.61-.67.86s.24.71-.11.85c-2,.86-4.17,2-4.78,4.24a.47.47,0,0,1-.17.27l0,.67c0,.7-1.06.7-1.09,0a16.34,16.34,0,0,1,.76-7.22,13,13,0,0,1,3.7-4.73c3.47-2.94,7.82-5.08,12.44-5A.55.55,0,0,1,154.44,217.1Zm-1.86.23A18.91,18.91,0,0,0,142.4,222a11.85,11.85,0,0,0-3.62,4.73,10.87,10.87,0,0,0-.6,3.44,9.48,9.48,0,0,1,3.95-2.89c-.45-1.43,2.12-2.43,3.51-3-.56-.8-.71-1.38.52-1.84,1.49-.55,3-1,4.54-1.5l-.83-.5a.55.55,0,0,1,0-.94A33.76,33.76,0,0,0,152.58,217.33Z"/><path class="cls-2" d="M135.57,231.87a.54.54,0,0,1-.54-.23c-.64-.86-1.91-.57-2.81-.45a5.1,5.1,0,0,1-2.2-.06.55.55,0,0,1-.24-.92,6.84,6.84,0,0,1-1.86.43l-1.74.42a.55.55,0,0,1-.53-.91c.37-.39.73-.79,1.09-1.19-1.15,0-2.3-.1-3.45-.23-.84-.1-1.88-.06-2.2-1a.55.55,0,0,1,.25-.62c5.1-3.82,11.6-.78,14.77,4A.52.52,0,0,1,135.57,231.87ZM133.9,230c-2.93-3.13-7.48-4.78-11.35-2.42a20.63,20.63,0,0,0,2.35.17c1,.08,2,.11,3,.11a.55.55,0,0,1,.39.93l-.66.77,1-.24a2.62,2.62,0,0,1,1.66-.08,1.12,1.12,0,0,1,.64.91C131.89,230.27,132.94,230,133.9,230Z"/><path class="cls-2" d="M111,127.55c-3,5.63-10.52,6.6-16.17,5.29a9.58,9.58,0,0,1-6.33-4.3.61.61,0,0,1-.55-.28.56.56,0,0,1,.1-.67,14.77,14.77,0,0,1-.3-8.56c.4-2.82,4.78-3.93,7.21-4.49-.87-1.21-1.73-2.41-2.58-3.62a7.79,7.79,0,0,1-1.41.34c-2,.54-3.91,1.56-4.69,3.55a.57.57,0,0,1-.82.33,4,4,0,0,0-4.58.65c-.28.25-.86.19-.93-.25a16.06,16.06,0,0,1,.85-8.51c.91-2.32,2.47-5,4.71-6.31a7.54,7.54,0,0,1,3.35-1.59,13.16,13.16,0,0,1,4.37-.51,13.57,13.57,0,0,1,7.86,3.06.49.49,0,0,1,.16.2.58.58,0,0,1,0,1.1,6.24,6.24,0,0,0-2.79,1.59c-.44.54-.37,1.43-.85,1.89s-1.53.59-2.15.87a5,5,0,0,0-2.12,1.54A2.52,2.52,0,0,0,93,110l0,0q1.43,2,2.88,4.05a33.54,33.54,0,0,1,7.36-.27c2,.14,4.4.19,6.28,1.1a4.06,4.06,0,0,1,2.37,3.25.34.34,0,0,1,0,.12A14,14,0,0,1,111,127.55ZM88.36,100.46c3.32.05,6.28,2.06,8.34,4.74a.54.54,0,0,1,.1.18A1.42,1.42,0,0,0,97,105a4.9,4.9,0,0,1,3.06-2.72A12.22,12.22,0,0,0,89.5,100.1Q88.93,100.25,88.36,100.46Zm-4.24,13.17A13.33,13.33,0,0,1,83,107.45a13.59,13.59,0,0,1,.73-3.65,15.33,15.33,0,0,0-2,3.86,14.82,14.82,0,0,0-.83,6.73A5.11,5.11,0,0,1,84.12,113.63Zm7.11-3.51a.53.53,0,0,1-.21-.23,28.6,28.6,0,0,0-2.71-4,44.31,44.31,0,0,1-2.4-3.81,10.07,10.07,0,0,0-1.78,5.7,12.37,12.37,0,0,0,1.34,6.09A7.06,7.06,0,0,1,89,110.75c.41-.17.83-.32,1.25-.45C90.43,110.26,90.86,110.2,91.23,110.12Zm3.34-3.59c.38-.19.77-.35,1.16-.51l.24-.09a.51.51,0,0,1-.22-.17c-2.11-2.74-5.33-4.7-8.81-4.08.72,1.26,1.49,2.5,2.33,3.69A27.91,27.91,0,0,1,92,109.32a2,2,0,0,1,.08-.43,3.9,3.9,0,0,1,.45-.76A5.77,5.77,0,0,1,94.57,106.53Zm-5.33,14.15a4.35,4.35,0,0,0,2.64,1,26.91,26.91,0,0,0,6.15,0c1.94-.15,3.88-.21,5.82-.35a14.35,14.35,0,0,0,5.82-1.28c2.42-1.36.62-3.84-1.32-4.47a22.65,22.65,0,0,0-5.69-.73,31.65,31.65,0,0,0-6,.21L98.8,118a.56.56,0,0,1,.25.14l.69.7a.58.58,0,0,1,.15.34h.2c1.34-.11,2.67-.25,4-.4.73-.08,3.5-.15,3.52-1.31,0-.71,1.13-.71,1.11,0,0,1.53-1.67,2-2.91,2.19a56.26,56.26,0,0,1-5.93.64c-1.33.1-9.91.92-8.71-2.23.26-.66,1.33-.37,1.07.3-.32.84,3.66.91,6.09.87q-1.35-1.84-2.69-3.7h0c-1.89.44-4.41.91-5.89,2.28C89,118.5,88.43,119.79,89.24,120.68Zm21.93-.42a4.76,4.76,0,0,1-1.6,1c-3.75,1.54-8.19,1.22-12.16,1.53a22.26,22.26,0,0,1-6.57-.19,4.71,4.71,0,0,1-2.4-1.22,12.17,12.17,0,0,0,.53,5.51l.61-.42a.54.54,0,0,1,.75.19.57.57,0,0,1-.19.76l-.71.49a6.86,6.86,0,0,0,1,1.42c2.54,2.56,6.6,3,10,2.82a14.43,14.43,0,0,0,5-1.13,2.86,2.86,0,0,1-.67-.8.55.55,0,1,1,1-.56l.13.21,0,0h0a.46.46,0,0,0,.07.07l.17.17a.46.46,0,0,0,.07.07l0,0a.72.72,0,0,1,.22.28,8.73,8.73,0,0,0,3.09-2.83c.09-.14.18-.28.26-.42a.61.61,0,0,1-.4,0l-1.17-.26a.58.58,0,0,1-.39-.69.56.56,0,0,1,.68-.38l1.17.26a.53.53,0,0,1,.4.46,10.52,10.52,0,0,0,1-3.65.55.55,0,0,1-.4.18,2.3,2.3,0,0,0-.69.09.55.55,0,0,1-.29-1.07,4.06,4.06,0,0,1,1-.13.56.56,0,0,1,.46.25A15.4,15.4,0,0,0,111.17,120.26Z"/><path class="cls-2" d="M90.8,125.1a.56.56,0,0,0,0-1.11A.56.56,0,0,0,90.8,125.1Z"/><path class="cls-2" d="M93.14,127.87l1.5.54c.68.23,1-.84.3-1.07l-1.51-.54C92.76,126.57,92.47,127.64,93.14,127.87Z"/><path class="cls-2" d="M107.38,125h.05a.56.56,0,0,0,.56-.55.58.58,0,0,0-.56-.56h-.05a.56.56,0,1,0,0,1.11Z"/><path class="cls-2" d="M104.05,125a.56.56,0,0,0,0-1.11A.56.56,0,0,0,104.05,125Z"/><path class="cls-2" d="M103.29,127.82a3.46,3.46,0,0,0,1.53.15.56.56,0,0,0,.56-.55.57.57,0,0,0-.56-.56,2.74,2.74,0,0,1-1.24-.11C102.9,126.52,102.61,127.59,103.29,127.82Z"/><path class="cls-2" d="M98.73,126a7.33,7.33,0,0,0,.64-.83.55.55,0,1,0-1-.56l-.12.16-.06.09,0,.07,0,0a.27.27,0,0,1-.07.08.8.8,0,0,1-.15.17.58.58,0,0,0,0,.79A.57.57,0,0,0,98.73,126Z"/><path class="cls-2" d="M101.17,130.2v-1.11a.56.56,0,0,0-1.11,0v1.11A.56.56,0,0,0,101.17,130.2Z"/><path class="cls-2" d="M94.76,131a.55.55,0,0,0,.2.75.56.56,0,0,0,.76-.19,1.09,1.09,0,0,1,.08-.15s.08-.1.09-.14l0,0,.13-.13a.57.57,0,0,0,0-.79.58.58,0,0,0-.79,0A2.69,2.69,0,0,0,94.76,131Z"/><path class="cls-2" d="M197.5,45.5c-3,5.63-10.52,6.61-16.17,5.29a9.58,9.58,0,0,1-6.33-4.3.6.6,0,0,1-.55-.27.57.57,0,0,1,.1-.68,14.76,14.76,0,0,1-.3-8.56c.4-2.82,4.78-3.92,7.21-4.49q-1.31-1.8-2.58-3.61a8.72,8.72,0,0,1-1.41.34c-2,.54-3.91,1.55-4.69,3.54a.57.57,0,0,1-.82.34,4,4,0,0,0-4.58.64c-.28.26-.86.19-.93-.24A16,16,0,0,1,167.3,25c.91-2.33,2.47-5,4.71-6.31a7.43,7.43,0,0,1,3.35-1.59,13.44,13.44,0,0,1,4.37-.52,13.64,13.64,0,0,1,7.86,3.06.51.51,0,0,1,.16.21.57.57,0,0,1,0,1.09,6.26,6.26,0,0,0-2.79,1.6c-.44.54-.37,1.43-.85,1.88s-1.53.59-2.15.87a5,5,0,0,0-2.12,1.54,2.57,2.57,0,0,0-.33,1.08l0,.05Q181,30,182.46,32a32.93,32.93,0,0,1,7.36-.27c2.05.14,4.4.18,6.28,1.1a4,4,0,0,1,2.37,3.24.5.5,0,0,1,0,.13A14,14,0,0,1,197.5,45.5ZM174.88,18.41c3.32.06,6.28,2.07,8.34,4.74a.58.58,0,0,1,.1.19,1.66,1.66,0,0,0,.18-.4,4.9,4.9,0,0,1,3.06-2.72,12.46,12.46,0,0,0-6.64-2.53,12.8,12.8,0,0,0-3.9.36Q175.45,18.2,174.88,18.41Zm-4.24,13.17a13.56,13.56,0,0,1-.35-9.82,15.27,15.27,0,0,0-2,3.85,15,15,0,0,0-.84,6.73A5.16,5.16,0,0,1,170.64,31.58Zm7.11-3.5a.59.59,0,0,1-.21-.23,28.11,28.11,0,0,0-2.71-4,42.82,42.82,0,0,1-2.4-3.81,10.12,10.12,0,0,0-1.78,5.71A12.33,12.33,0,0,0,172,31.86a7,7,0,0,1,3.56-3.15,11.68,11.68,0,0,1,1.25-.45C177,28.21,177.38,28.16,177.75,28.08Zm3.34-3.59c.38-.19.77-.36,1.16-.51l.24-.09a.53.53,0,0,1-.22-.18c-2.11-2.73-5.33-4.69-8.81-4.08.72,1.27,1.49,2.5,2.33,3.69a28.6,28.6,0,0,1,2.71,4,2.05,2.05,0,0,1,.08-.44,4,4,0,0,1,.44-.75A5.78,5.78,0,0,1,181.09,24.49Zm-5.33,14.14a4.42,4.42,0,0,0,2.64,1,26.91,26.91,0,0,0,6.15,0c1.94-.16,3.88-.21,5.82-.36A14.26,14.26,0,0,0,196.18,38c2.43-1.37.63-3.85-1.31-4.48a22.66,22.66,0,0,0-5.7-.72,31.57,31.57,0,0,0-6,.2l2.14,2.94a.55.55,0,0,1,.25.13l.69.71a.53.53,0,0,1,.15.33h.2c1.34-.1,2.67-.24,4-.4.73-.08,3.5-.14,3.52-1.3a.56.56,0,0,1,1.11,0c0,1.53-1.67,2-2.91,2.19-2,.34-4,.49-5.93.64-1.33.1-9.91.92-8.71-2.23.26-.66,1.33-.37,1.07.29-.32.84,3.66.92,6.09.87q-1.35-1.84-2.69-3.7h0c-1.89.44-4.41.92-5.89,2.28C175.47,36.46,175,37.74,175.76,38.63Zm21.93-.42a4.62,4.62,0,0,1-1.6,1c-3.76,1.54-8.19,1.23-12.16,1.53a21.92,21.92,0,0,1-6.57-.19,4.78,4.78,0,0,1-2.4-1.21,12.12,12.12,0,0,0,.53,5.5l.61-.42a.56.56,0,0,1,.75.2.57.57,0,0,1-.19.76l-.71.48A6.37,6.37,0,0,0,177,47.32c2.54,2.57,6.6,3,10,2.82A14.21,14.21,0,0,0,192,49a2.68,2.68,0,0,1-.67-.79.55.55,0,1,1,.95-.56l.13.21h0l.07.07a1.45,1.45,0,0,0,.17.18l.07.06,0,0a.59.59,0,0,1,.22.28,8.75,8.75,0,0,0,3.09-2.84c.09-.14.18-.28.26-.42a.61.61,0,0,1-.4,0L194.8,45a.55.55,0,1,1,.29-1.07l1.17.26a.55.55,0,0,1,.4.47,10.64,10.64,0,0,0,1-3.66.55.55,0,0,1-.4.18,2.3,2.3,0,0,0-.69.1.57.57,0,0,1-.68-.39.56.56,0,0,1,.39-.68,4.07,4.07,0,0,1,1-.14.56.56,0,0,1,.46.26A15.58,15.58,0,0,0,197.69,38.21Z"/><path class="cls-2" d="M177.32,41.94a.56.56,0,0,0,0,1.11A.56.56,0,0,0,177.32,41.94Z"/><path class="cls-2" d="M181.46,45.29,180,44.76c-.67-.24-1,.83-.29,1.07l1.5.53C181.84,46.6,182.13,45.53,181.46,45.29Z"/><path class="cls-2" d="M194,41.89h0a.56.56,0,0,0-.56.55.57.57,0,0,0,.56.56h0a.56.56,0,1,0,0-1.11Z"/><path class="cls-2" d="M190.57,42.94a.56.56,0,0,0,0-1.11A.56.56,0,0,0,190.57,42.94Z"/><path class="cls-2" d="M191.34,44.82a2.74,2.74,0,0,1-1.24-.12c-.68-.23-1,.84-.29,1.07a3.46,3.46,0,0,0,1.53.16.58.58,0,0,0,.56-.56A.56.56,0,0,0,191.34,44.82Z"/><path class="cls-2" d="M185.69,42.35a.58.58,0,0,0-.76.2,1.63,1.63,0,0,1-.11.17l-.06.08,0,.07,0,0-.07.08-.15.17a.57.57,0,0,0,0,.78.56.56,0,0,0,.79,0,7.33,7.33,0,0,0,.64-.83A.56.56,0,0,0,185.69,42.35Z"/><path class="cls-2" d="M186.58,47.05v1.1a.56.56,0,0,0,1.11,0v-1.1A.56.56,0,0,0,186.58,47.05Z"/><path class="cls-2" d="M181.79,48.25a2.63,2.63,0,0,0-.51.68.56.56,0,1,0,1,.56,1.09,1.09,0,0,1,.08-.15.6.6,0,0,0,.09-.13l0,0,.13-.14a.56.56,0,0,0-.79-.78Z"/><path class="cls-2" d="M162.19,89.8A7.78,7.78,0,1,1,154.41,82,7.79,7.79,0,0,1,162.19,89.8Zm-1,0a6.74,6.74,0,1,0-6.74,6.74A6.76,6.76,0,0,0,161.15,89.8Z"/><path class="cls-2" d="M159.9,89.8a5.49,5.49,0,1,1-5.49-5.49A5.49,5.49,0,0,1,159.9,89.8Zm-1,0a4.45,4.45,0,1,0-4.45,4.45A4.46,4.46,0,0,0,158.86,89.8Z"/><path class="cls-2" d="M168.58,98.69c-.05.28-.21.41-.73.49a13.38,13.38,0,0,1-1.79-.05H141a.56.56,0,0,1-.72-.72V80.82a.48.48,0,0,1,.15-.36h0a.47.47,0,0,1,.36-.14H142v-.58a.51.51,0,0,1,.35-.48.48.48,0,0,1,.44-.25h3a.48.48,0,0,1,.47.32.57.57,0,0,1,.1.31v.68h21.63a.51.51,0,0,1,.47.72,9.08,9.08,0,0,0,0,2.55v5.69c0,2.94.06,5.89,0,8.82,0,0,0,0,.07,0A3.61,3.61,0,0,1,168.58,98.69ZM143.09,80.3h2.29V80h-2.29Zm24.39,1H141.3V98.08h26.18Z"/><path class="cls-2" d="M166.44,84.08a1.85,1.85,0,1,1-1.85-1.85A1.85,1.85,0,0,1,166.44,84.08Zm-1.05,0a.8.8,0,1,0-.8.8A.8.8,0,0,0,165.39,84.08Z"/><path class="cls-2" d="M24.42,81.4a24.09,24.09,0,0,1-.06,4.93C24,89,23,91,21.26,92.09a4.75,4.75,0,0,1-2.61.79,4.93,4.93,0,0,1-2.95-1c-1.95-1.43-2.22-3.6-2.32-5.53-.05-.87-.1-1.8-.23-2.71a2.59,2.59,0,0,1-.89-2.7,4.42,4.42,0,0,1,.1-.5c-.13-.35-.28-.73-.46-1.15-.88-2.13-1.58-4.08-1.15-6.3a8.38,8.38,0,0,1,3-5.06,5.88,5.88,0,0,1,5.59-.74c4.45,1.65,5.09,6.64,5.07,9.52a4.35,4.35,0,0,1,.54,2,3.52,3.52,0,0,1-.55,1.9C24.39,80.91,24.4,81.16,24.42,81.4ZM14,77.7a7,7,0,0,0,2-7.15.49.49,0,0,1,.1-.45.57.57,0,0,1,.42-.22.61.61,0,0,1,.4.05.52.52,0,0,1,.24.32c.33,1.23,1.65,2,2.72,2.66L20,73l.54.32a17.81,17.81,0,0,1,2.35,1.57l.37.33a8.85,8.85,0,0,0-1-4,6.06,6.06,0,0,0-4.77-3.32h-.34a4.85,4.85,0,0,0-3.62,1.72,7.5,7.5,0,0,0-1.75,6,15.48,15.48,0,0,0,1.08,3.18c0,.08.07.16.1.25A8.46,8.46,0,0,1,14,77.7Zm9.29,2.92c0-.21-.05-.43-.08-.64a8.93,8.93,0,0,1-.1-1.16c0-.3,0-.6.06-.9s0-.41.05-.61,0-.3,0-.44a8.58,8.58,0,0,0-2.43-2.17l-.9-.53a12.91,12.91,0,0,1-2.54-1.72,7.81,7.81,0,0,1-1.12,4.23A10,10,0,0,1,15,78.14a10.79,10.79,0,0,0-1.1,1.33,5.26,5.26,0,0,0-.43.92c.05.16.11.32.16.48a23,23,0,0,1,.81,5.63l0,.4c.15,2.44,1.08,4,2.82,4.65A4,4,0,0,0,22,89.88a10.16,10.16,0,0,0,1.4-5.6A35,35,0,0,0,23.27,80.62Z"/><path class="cls-2" d="M8.8,79.29c-.17.42-.32.8-.45,1.15,0,.17.07.33.1.5a2.59,2.59,0,0,1-.9,2.7c-.12.91-.18,1.84-.22,2.71C7.23,88.28,7,90.45,5,91.88a5,5,0,0,1-2.95,1A4.68,4.68,0,0,1,0,92.4V91.15a3.66,3.66,0,0,0,3.4.4c1.74-.69,2.66-2.21,2.82-4.65l0-.4a23,23,0,0,1,.81-5.63c0-.16.1-.32.16-.48a5.26,5.26,0,0,0-.43-.92,10.87,10.87,0,0,0-1.11-1.33,10,10,0,0,1-1.19-1.46,7.72,7.72,0,0,1-1.12-4.23A12.91,12.91,0,0,1,.82,74.17L0,74.65V73.39l.2-.12L.73,73l.08,0c1.06-.64,2.39-1.43,2.72-2.66a.52.52,0,0,1,.24-.32.61.61,0,0,1,.4-.05.58.58,0,0,1,.42.22.51.51,0,0,1,.1.45,7,7,0,0,0,2,7.15,8,8,0,0,1,1,1.33c0-.09.07-.17.1-.25A15.48,15.48,0,0,0,8.93,75.6a7.5,7.5,0,0,0-1.75-6,4.84,4.84,0,0,0-4-1.71A5.59,5.59,0,0,0,0,69.27V67.88a7.21,7.21,0,0,1,1.39-.69A5.88,5.88,0,0,1,7,67.93,8.38,8.38,0,0,1,10,73C10.39,75.21,9.69,77.16,8.8,79.29Z"/><path class="cls-2" d="M189.92,208.23c-.47,2.44-1.66,5.73-4.6,7.59A7.9,7.9,0,0,1,181,217h-.42a16.12,16.12,0,0,1-5.14-.91c-3-1.18-4.57-4-5.32-6.25-.78-.51-.8-1.67-.72-2.63a.62.62,0,0,1,.09-.27.45.45,0,0,1,.29-.48,5.29,5.29,0,0,1,2.1-.47H172a5.16,5.16,0,0,1,2,.2,1.3,1.3,0,0,1,.69.85,3.17,3.17,0,0,1-.07,2.25,1,1,0,0,1-.37.38,6.82,6.82,0,0,0,5.87,3.36,5.44,5.44,0,0,0,5-4,24.92,24.92,0,0,0,.75-7.51,45.88,45.88,0,0,0-2.79-15.58h0c-.64.09-1,.11-1.21,0a1.41,1.41,0,0,1-.36-.92,2.92,2.92,0,0,0-.1-.44,2.59,2.59,0,0,1-.17-1.84,2.16,2.16,0,0,1,1.71-1.16c1.12-.26,2.26-.46,3.33-.63l.45-.09a2.91,2.91,0,0,1,2.14.06,1.58,1.58,0,0,1,.48.68l.11.25a9,9,0,0,1,.51,1.26,1.12,1.12,0,0,1-.84,1.48A78.36,78.36,0,0,1,190.54,197,51.25,51.25,0,0,1,189.92,208.23Zm-18.5.78a6.5,6.5,0,0,0,1.34-.07h.13c.25,0,.73-.11.84-.3a2.56,2.56,0,0,0,0-1.06l0-.06c-.07-.37-.33-.4-.82-.43h-.07a5.56,5.56,0,0,0-2.29.24,3.37,3.37,0,0,0,.07,1.2C170.67,209,170.86,209,171.42,209Zm.44,2.16a11.47,11.47,0,0,1,1.67-.68l-.33-.51-.22,0-.1,0a8.62,8.62,0,0,1-1.49.08A11.33,11.33,0,0,0,171.86,211.17Zm1.54,2.22c.51-.44,1-.85,1.6-1.24a10.21,10.21,0,0,1-.74-.73,9.16,9.16,0,0,0-1.85.7A9.3,9.3,0,0,0,173.4,213.39Zm4.14.29a8.15,8.15,0,0,1-1.64-.83,17.94,17.94,0,0,0-1.67,1.27,7.28,7.28,0,0,0,2.37,1.16C176.92,214.76,177.24,214.22,177.54,213.68Zm2.69.39h-.4a6,6,0,0,1-1.2-.11h0c-.28.52-.58,1-.9,1.56h.06a20.77,20.77,0,0,0,2.3.31A7.64,7.64,0,0,0,180.23,214.07Zm9.19-18a12.69,12.69,0,0,0-2.76-.09c.09.72.16,1.45.21,2.17a7.56,7.56,0,0,1,2.6-.12C189.46,197.36,189.44,196.71,189.42,196Zm-3.12-2.47c.09.48.15.9.21,1.3.38,0,.75-.05,1.12-.05a12.68,12.68,0,0,1,1.73.12c0-.49-.06-1-.11-1.58h0A19.11,19.11,0,0,0,186.3,193.57Zm.38-9.48.58-.13a7.68,7.68,0,0,0,1.29-.37c.41-.17.41-.23.24-.64,0-.09-.07-.19-.11-.29a2.91,2.91,0,0,0-.25-.59.82.82,0,0,0-.71-.28,5,5,0,0,0-1,.14l-.43.09c-.64.1-1.29.22-1.92.35l-.44.07a4.52,4.52,0,0,0-1.31.36.58.58,0,0,0-.31.36c-.07.24-.05.72.48,1.61a.61.61,0,0,1,.05.12A36.93,36.93,0,0,0,186.68,184.09Zm-1.78,3.68c1.22-.2,2.45-.35,3.64-.43-.13-.85-.28-1.69-.43-2.49-1.46.4-2.7.69-3.88.91C184.46,186.41,184.69,187.08,184.9,187.77Zm.7,2.51a14.69,14.69,0,0,1,3.3-.41c-.05-.44-.12-.91-.19-1.45h-.05a34,34,0,0,0-3.45.39C185.36,189.35,185.49,189.83,185.6,190.28Zm.5,2.22a21.19,21.19,0,0,1,3.05-.23h0c0-.41-.08-.84-.13-1.31a14.25,14.25,0,0,0-3.18.38C186,191.75,186,192.14,186.1,192.5Zm-1.75,22.62a.31.31,0,0,1,0-.1,6.35,6.35,0,0,0-.93-1.88,6.54,6.54,0,0,1-2.05.8,9.2,9.2,0,0,1-.14,1.95,7.9,7.9,0,0,0,1.67-.19A6.28,6.28,0,0,0,184.35,215.12Zm2.13-1.76s0-.07,0-.11a2.4,2.4,0,0,0-1.4-1.58l-.19.24a5.48,5.48,0,0,1-.59.59,7.64,7.64,0,0,1,1,2,8.43,8.43,0,0,0,1-1A1.46,1.46,0,0,0,186.48,213.36Zm1.76-3.11a6.42,6.42,0,0,0-2-1,8.2,8.2,0,0,1-.6,1.47,3.52,3.52,0,0,1,1.61,1.58A10.73,10.73,0,0,0,188.24,210.25Zm.74-3a.57.57,0,0,1-.13-.08,3.07,3.07,0,0,0-2-.77h0a17.76,17.76,0,0,1-.26,1.77,7.35,7.35,0,0,1,2.07.95A17.45,17.45,0,0,0,189,207.29Zm.3-2.75a5.34,5.34,0,0,0-2.34-.35v0c0,.1,0,.2,0,.3,0,.28,0,.55,0,.83a4.1,4.1,0,0,1,2.28.72c0-.36.07-.73.1-1.1l0-.37Zm.15-2.59-.07,0a4.56,4.56,0,0,0-2.35-.33c0,.51,0,1,0,1.51l.41,0a6,6,0,0,1,2,.33C189.39,203,189.41,202.48,189.43,202Zm0-2.86h-.07a6.46,6.46,0,0,0-2.47.13c0,.43,0,.86.05,1.27q.3,0,.6,0a5.52,5.52,0,0,1,1.88.33C189.48,200.24,189.48,199.67,189.48,199.09Z"/><path class="cls-2" d="M184.19,197.52a1,1,0,0,1-1.11.63,1.93,1.93,0,0,0-.41,0,.59.59,0,0,1-.37-.07,8.3,8.3,0,0,1-.88,2.63,7,7,0,0,1-6.21,3.43,7.53,7.53,0,0,1-3.1-.89l-.71-.31c-1.24-.52-2.3-.06-3.42.43a11.28,11.28,0,0,1-1.34.52,7.87,7.87,0,0,1-2.3.35,7.72,7.72,0,0,1-5.87-2.66,7.11,7.11,0,0,1-1.44-2.83h-.13a2.1,2.1,0,0,0-.56,0,1.17,1.17,0,0,1-1.28-.59,6.41,6.41,0,0,1-.42-2.38c0-.13,0-.25,0-.36a2.82,2.82,0,0,1,.52-2.28,3,3,0,0,1,2-.66.49.49,0,0,1,.51-.2H180a5.46,5.46,0,0,1,3.63.75,2,2,0,0,1,.67,1.83c0,.21,0,.45,0,.7A4.82,4.82,0,0,1,184.19,197.52Zm-27.28-3.93c-.54,0-1,.16-1.17.65a3.09,3.09,0,0,0,0,1.29c0,.1,0,.18,0,.27s0,.17,0,.28c0,.46.08,1.31.32,1.53s.36.09.59.08h.14A16.37,16.37,0,0,1,156.91,193.59Zm24.24.52c-.44-.83-1.4-.79-2.33-.76H158c-.38,2.86-.53,6.06,2,8.25a6.48,6.48,0,0,0,3.58,1.54,8,8,0,0,0,4.16-.85,5,5,0,0,1,3.34-.6,7.72,7.72,0,0,1,1.57.64,6.61,6.61,0,0,0,1.71.65,6,6,0,0,0,5.71-2.2,7.14,7.14,0,0,0,1.24-3.75l0-.34A4.6,4.6,0,0,0,181.15,194.11Zm2-.08a1,1,0,0,0-.58-.3l-.05,0-.41-.1a4.07,4.07,0,0,1,.43,1.9c0,.51,0,1-.06,1.49a.78.78,0,0,1,.21.09h.11c.34,0,.43,0,.43-.38v-1.15c0-.19,0-.38,0-.57s0-.14,0-.22A1.56,1.56,0,0,0,183.11,194Z"/><path class="cls-2" d="M180.7,197.39a5.39,5.39,0,0,1-2,3.82,4.7,4.7,0,0,1-2.94,1,4.29,4.29,0,0,1-.79-.07,5.69,5.69,0,0,1-1.8-.71l-.46-.23a5,5,0,0,0-2.63-.52,10.16,10.16,0,0,0-2.57.62,10.16,10.16,0,0,1-2.69.64h-.27c-3.42,0-4.77-3.65-5.49-6.44a.52.52,0,0,1,.14-.52.59.59,0,0,1,.08-.41.51.51,0,0,1,.44-.24l16.68-.22.91,0a12.56,12.56,0,0,1,1.94,0C180.82,194.29,180.76,196.67,180.7,197.39Zm-1.24-1.66c0-.17-.12-.46-.26-.54a1.53,1.53,0,0,0-.43,0l-.2,0-18.44.23a8.86,8.86,0,0,0,2.14,4.48c1.31,1.21,2.8,1.05,4.64.43a11.13,11.13,0,0,1,3.56-.74,5.37,5.37,0,0,1,.7,0,5.72,5.72,0,0,1,1.92.56l.52.27a5,5,0,0,0,1.48.62,3.55,3.55,0,0,0,3.34-1.13A4.62,4.62,0,0,0,179.46,195.73Z"/><path class="cls-2" d="M128.36,42.53a.56.56,0,0,1-.33.41c-1.32.65-2.68,1.26-4,1.83-.68.29-1.38.57-2.08.84l-.32.11c-.48.15-.77.27-.85.64a6.34,6.34,0,0,1-.23.74l-.1.3c-.22.67-.44,1.35-.68,2-.45,1.26-.95,2.55-1.53,3.93a.61.61,0,0,1-.35.36.78.78,0,0,1-.21,0,.74.74,0,0,1-.25,0,.66.66,0,0,1-.41-.18c-.73-.65-1.51-1.3-2.29-1.93a.62.62,0,0,1-.23-.65s0-.07,0-.11c.05-1.74.18-3.53.41-5.33a108.37,108.37,0,0,0-8.52-7.11c-3.82,4-7.6,8.15-11.26,12.19a.66.66,0,0,1-.49.22.69.69,0,0,1-.49-.22l0,0c-.9-.66-.6-1.85-.38-2.72,0-.16.08-.31.11-.45l.92-4.46a1.11,1.11,0,0,1,0-.19l-.52-.44L93.89,42l-.11-.1a2.6,2.6,0,0,1-.53-.65,2,2,0,0,1,.34-1.85c.26-.44.63-1.07,1.35-.95a4,4,0,0,1,1.19.48c.11-.31.24-.63.37-1l-1.15-1.1a.7.7,0,0,1-.14-.81l.15-.39c.22-.62.5-1.39,1.11-1.56a2.15,2.15,0,0,1,1.47.31c.38-1,.74-2,1.07-3a26.16,26.16,0,0,1-3.93-5.18,4.93,4.93,0,0,1-.64-4l.06-.15a2,2,0,0,1,1-1l.16-.08a5,5,0,0,1,4.05.4,27.14,27.14,0,0,1,5.41,3.62c.93-.38,1.9-.79,2.89-1.24a2.2,2.2,0,0,1-.4-1.45c.13-.61.89-.94,1.5-1.2.14-.07.28-.12.38-.18a.69.69,0,0,1,.81.1l1.17,1.09c.32-.16.63-.3.94-.43a3.75,3.75,0,0,1-.55-1.16c-.17-.71.44-1.12.84-1.39s1.17-.77,1.85-.46a2.72,2.72,0,0,1,.69.5l.1.09.27.29c.13.14.35.37.47.48a.55.55,0,0,1,.18,0l4.4-1.18.45-.14c.85-.27,2-.64,2.75.24l0,0a.72.72,0,0,1,.24.48.61.61,0,0,1-.19.5c-3.82,3.89-7.69,7.92-11.5,12a107.42,107.42,0,0,0,7.6,8.08c1.77-.33,3.55-.57,5.3-.72h.18a.49.49,0,0,1,.28,0,.75.75,0,0,1,.32.22l0,.05.73.74.15.16C127.88,41.35,128.44,42,128.36,42.53Zm-1.76-.42c-.47-.49-.9-1-1.3-1.39a50.3,50.3,0,0,0-5.41.75.71.71,0,0,1-.75-.33l0,0a107.5,107.5,0,0,1-7.93-8.46.75.75,0,0,1-.42-.47.67.67,0,0,1,.16-.63c3.64-3.87,7.39-7.78,11.15-11.62l-.47.13-.25.08-4.95,1.34a.74.74,0,0,1-.39,0c-.55,0-.94-.42-1.28-.8a2.48,2.48,0,0,0-.56-.53,1,1,0,0,0-.78.18c-.06,0-.13.11-.11.18a3.45,3.45,0,0,0,.6,1l.15.19a.59.59,0,0,1,.08.61.72.72,0,0,1-.55.41l-.06,0a17.59,17.59,0,0,0-1.83.84.72.72,0,0,1-.82-.09l-1.19-1.12a2.45,2.45,0,0,0-.64.33h0l0,.05a2.41,2.41,0,0,0,.15.33,4.77,4.77,0,0,0,.39.66.66.66,0,0,1,.08.57.59.59,0,0,1-.33.39c-1.32.6-2.65,1.18-3.95,1.71a1.27,1.27,0,0,1-.92-.11,30.1,30.1,0,0,0-4.24-3,8.76,8.76,0,0,0-2.64-1.12,1.69,1.69,0,0,0-1.91,2,8.93,8.93,0,0,0,1.27,2.57,31.65,31.65,0,0,0,3.29,4.05.65.65,0,0,1,.19.54.67.67,0,0,1,0,.37c-.46,1.34-1,2.7-1.47,4.05a.63.63,0,0,1-.38.35.7.7,0,0,1-.57,0,6.19,6.19,0,0,0-.67-.36,1.66,1.66,0,0,0-.35-.13h0a2.32,2.32,0,0,0-.29.66l1.18,1.13a.69.69,0,0,1,.14.81A16.37,16.37,0,0,0,97.21,40l0,.07a.75.75,0,0,1-.38.57.61.61,0,0,1-.62-.05l-.2-.13A3,3,0,0,0,95,40c-.08,0-.14.06-.18.12a1,1,0,0,0-.13.78,2.42,2.42,0,0,0,.56.54,1.78,1.78,0,0,1,.87,1.22.76.76,0,0,1,0,.4l-1,5a1.58,1.58,0,0,1-.06.26c0,.15-.08.31-.11.48,3.61-4,7.29-7.95,11-11.82a.65.65,0,0,1,.61-.2.76.76,0,0,1,.5.39,108.78,108.78,0,0,1,8.91,7.42l0,0a.7.7,0,0,1,.38.73,48.86,48.86,0,0,0-.43,5.44c.46.37.93.77,1.43,1.2.09-.26.26-.65.51-1.23.08-.18.14-.31.15-.35.25-.66.49-1.33.72-2s.46-1.34.66-2c.06-.17.12-.35.2-.53l0,0a.73.73,0,0,1,.24-1,.75.75,0,0,1,.65,0,1.1,1.1,0,0,1,.14-.09c.38-.17.77-.31,1.16-.44l.94-.35C123.94,43.33,125.29,42.74,126.6,42.11Z"/><path class="cls-2" d="M59.73,219.17a1,1,0,0,1,0,.17,2.05,2.05,0,0,1-.72,1.22l-.14.1a4.94,4.94,0,0,1-4,.51,26.71,26.71,0,0,1-6.07-2.35c-.82.58-1.68,1.2-2.55,1.85A2.19,2.19,0,0,1,46.9,222c0,.63-.66,1.11-1.2,1.5l-.33.26a.7.7,0,0,1-.81.08l-1.38-.8-.82.63a3.77,3.77,0,0,1,.79,1c.32.65-.19,1.18-.52,1.53s-1,1-1.7.86a2.5,2.5,0,0,1-.78-.34l-.12-.07-.33-.22-.56-.36-.18,0-4,2.12-.41.24a3.91,3.91,0,0,1-1.82.68,1.47,1.47,0,0,1-.91-.31l0,0a.69.69,0,0,1-.34-.41.62.62,0,0,1,.08-.53c2.87-4.65,5.76-9.43,8.58-14.2a108.81,108.81,0,0,0-9.19-6.21c-1.66.71-3.34,1.34-5,1.87l-.18,0a.41.41,0,0,1-.27.08.63.63,0,0,1-.36-.15l-.06,0c-.29-.18-.59-.36-.87-.56l-.19-.11c-1-.65-1.73-1.18-1.76-1.69a.57.57,0,0,1,.23-.47c1.14-.92,2.33-1.82,3.53-2.67.42-.31.85-.6,1.28-.89a1.13,1.13,0,0,1,0-.18.72.72,0,0,1,.21-.52.73.73,0,0,1,.66-.2l.14,0,.12.07.05,0a.71.71,0,0,0,.39-.63,6.48,6.48,0,0,1,.06-.77l0-.31c.06-.71.14-1.42.22-2.13.16-1.33.37-2.69.63-4.17a.59.59,0,0,1,.26-.42.64.64,0,0,1,.45-.1.75.75,0,0,1,.44.08c.86.48,1.76,1,2.66,1.39a.6.6,0,0,1,.37.57l0,.11c.34,1.71.6,3.49.78,5.29a105.3,105.3,0,0,0,9.87,5.06c2.83-4.79,5.62-9.62,8.3-14.36a.64.64,0,0,1,.43-.33.66.66,0,0,1,.52.11l0,0c1,.44,1,1.67,1,2.56,0,.17,0,.33,0,.47l.08,4.56a.49.49,0,0,1,.06.17l.61.32.33.18.13.08a2.44,2.44,0,0,1,.66.51,1.94,1.94,0,0,1,.08,1.88c-.16.49-.39,1.18-1.11,1.22a3.74,3.74,0,0,1-1.26-.21c-.05.34-.1.68-.16,1l1.37.82a.71.71,0,0,1,.32.76,3.63,3.63,0,0,0-.06.41c-.09.66-.19,1.48-.74,1.77a2.17,2.17,0,0,1-1.51,0c-.15,1.05-.28,2.1-.39,3.13a26.7,26.7,0,0,1,5,4.18A5,5,0,0,1,59.73,219.17Zm-1.6-1.56a8.53,8.53,0,0,0-1.81-2.22,29.43,29.43,0,0,0-4.1-3.23.68.68,0,0,1-.3-.49.72.72,0,0,1-.06-.36c.15-1.41.33-2.85.54-4.28a.64.64,0,0,1,.29-.42.69.69,0,0,1,.57-.08,6,6,0,0,0,.73.19,1.64,1.64,0,0,0,.37.05h0a2.36,2.36,0,0,0,.14-.7l-1.4-.85a.69.69,0,0,1-.32-.75,17.75,17.75,0,0,0,.3-2s0,0,0-.07a.72.72,0,0,1,.24-.64.62.62,0,0,1,.62-.1l.22.09a3.37,3.37,0,0,0,1.13.31c.07,0,.12-.09.15-.16a1,1,0,0,0,0-.8,2.88,2.88,0,0,0-.66-.4c-.46-.22-1-.46-1.12-1a.62.62,0,0,1-.12-.38l-.09-5.12v-.27c0-.15,0-.32,0-.48-2.66,4.68-5.37,9.37-8.08,13.93a.64.64,0,0,1-.56.33.74.74,0,0,1-.57-.27,108.88,108.88,0,0,1-10.32-5.27l0,0a.68.68,0,0,1-.53-.62,50.71,50.71,0,0,0-.78-5.41c-.53-.26-1.07-.54-1.65-.85,0,.28-.11.69-.23,1.32a2.9,2.9,0,0,0-.07.37q-.15,1-.27,2.1c-.08.71-.14,1.41-.2,2.12a2.53,2.53,0,0,1-.78,1.92c-.33.24-.69.46-1,.68l-.85.55c-1.18.82-2.37,1.69-3.51,2.6.57.37,1.09.72,1.58,1.06a52.1,52.1,0,0,0,5.11-1.92.7.7,0,0,1,.8.16l0,0a106.35,106.35,0,0,1,9.59,6.51.72.72,0,0,1,.52.37.64.64,0,0,1,0,.64c-2.7,4.59-5.5,9.22-8.32,13.8l.43-.24.23-.14,4.53-2.38a.6.6,0,0,1,.39-.08,1.78,1.78,0,0,1,1.42.5,2.91,2.91,0,0,0,.66.39,1,1,0,0,0,.72-.35c0-.06.1-.14.07-.2a3.08,3.08,0,0,0-.81-.85l-.18-.15a.62.62,0,0,1-.22-.59A.75.75,0,0,1,41,223l.06-.05a16.51,16.51,0,0,0,1.6-1.22.73.73,0,0,1,.82-.09l1.41.83a2.33,2.33,0,0,0,.55-.47h0l0,0a1.91,1.91,0,0,0-.22-.3,4.51,4.51,0,0,0-.53-.54.74.74,0,0,1-.2-.54.62.62,0,0,1,.23-.46c1.16-.88,2.33-1.73,3.49-2.53a.65.65,0,0,1,.34-.13.73.73,0,0,1,.58,0,31.2,31.2,0,0,0,4.8,2,8.66,8.66,0,0,0,2.82.51,1.68,1.68,0,0,0,1.42-2.4Z"/><path class="cls-2" d="M149.07,188.76a.73.73,0,0,1-.23.38c-.75.63-1.51,1.3-2.24,2a.62.62,0,0,1-.67.13h-.11a53.29,53.29,0,0,1-5.22-1.16,108.75,108.75,0,0,0-8.25,7.42c3.47,4.36,7,8.69,10.47,12.88a.65.65,0,0,1,.15.51.72.72,0,0,1-.29.46l0,0c-.77.79-1.91.33-2.74,0l-.44-.17-4.28-1.55a.55.55,0,0,1-.18,0l-.52.46-.28.25-.12.09a2.89,2.89,0,0,1-.72.44c-.7.24-1.35-.27-1.78-.61s-1-.77-.75-1.46a3.73,3.73,0,0,1,.65-1.11q-.45-.24-.9-.51l-1.26,1a.7.7,0,0,1-.82,0,3.61,3.61,0,0,0-.36-.2c-.58-.31-1.31-.7-1.39-1.32a2.21,2.21,0,0,1,.52-1.42c-.93-.51-1.86-1-2.78-1.48A26.8,26.8,0,0,1,118.8,207a4.92,4.92,0,0,1-4.07.05l-.15-.08a2,2,0,0,1-.88-1.11,1,1,0,0,1,0-.16,4.91,4.91,0,0,1,1-4,26.5,26.5,0,0,1,4.35-4.83c-.25-1-.52-2-.82-3a2.21,2.21,0,0,1-1.49.2c-.59-.22-.81-1-1-1.66,0-.15-.08-.29-.12-.4a.7.7,0,0,1,.21-.79l1.24-1c-.11-.34-.2-.67-.29-1a3.92,3.92,0,0,1-1.23.38c-.72.06-1-.6-1.25-1a2,2,0,0,1-.2-1.89,2.68,2.68,0,0,1,.6-.61l.11-.08.32-.24c.16-.11.42-.29.54-.39a.39.39,0,0,1,0-.18l-.56-4.52a4,4,0,0,0-.07-.46,4,4,0,0,1,0-1.95,1.47,1.47,0,0,1,.62-.74l0,0a.7.7,0,0,1,.51-.17.61.61,0,0,1,.46.26c3.32,4.34,6.75,8.74,10.21,13.08a106.45,106.45,0,0,0,9.08-6.38,52.71,52.71,0,0,1,0-5.34.63.63,0,0,1,0-.19.43.43,0,0,1,0-.27.64.64,0,0,1,.27-.29l0,0,.84-.62.18-.13c1-.74,1.71-1.2,2.19-1a.53.53,0,0,1,.36.38c.46,1.39.88,2.82,1.25,4.25.19.71.36,1.45.53,2.17,0,.11.05.23.07.34.08.49.15.8.51.93a6.36,6.36,0,0,1,.7.33,2.44,2.44,0,0,0,.28.14c.64.31,1.27.64,1.91,1,1.18.62,2.38,1.3,3.67,2.07a.57.57,0,0,1,.3.39A.63.63,0,0,1,149.07,188.76Zm-1.75-.12c-.25-.13-.6-.35-1.15-.68l-.32-.2c-.62-.34-1.25-.68-1.87-1l-1.91-.94a2.56,2.56,0,0,1-1.51-1.41c-.11-.4-.19-.81-.27-1.21s-.13-.66-.21-1c-.35-1.41-.75-2.82-1.18-4.22-.55.4-1.06.76-1.56,1.1a49.76,49.76,0,0,0,0,5.46.71.71,0,0,1-.44.69l0,0a108.42,108.42,0,0,1-9.5,6.65.73.73,0,0,1-.53.35.63.63,0,0,1-.59-.25c-3.33-4.16-6.66-8.42-9.93-12.69,0,.17,0,.35.07.49s0,.19,0,.26l.62,5.09a.65.65,0,0,1-.06.39c-.07.55-.55.86-1,1.15a2.8,2.8,0,0,0-.6.48,1,1,0,0,0,.07.8c0,.06.09.14.16.13a3.27,3.27,0,0,0,1.09-.46l.2-.11a.6.6,0,0,1,.63,0,.74.74,0,0,1,.32.59s0,.05,0,.07a17.61,17.61,0,0,0,.57,1.93.72.72,0,0,1-.21.8L117,192a2,2,0,0,0,.24.68h0a2.42,2.42,0,0,0,.36-.1,5.46,5.46,0,0,0,.7-.3.69.69,0,0,1,.58,0,.59.59,0,0,1,.34.37c.41,1.39.79,2.79,1.13,4.16a.66.66,0,0,1,0,.37.7.7,0,0,1-.23.52,31.27,31.27,0,0,0-3.62,3.77,8.58,8.58,0,0,0-1.48,2.45,1.68,1.68,0,0,0,1.73,2.18,8.66,8.66,0,0,0,2.73-.89,31,31,0,0,0,4.48-2.69,1.28,1.28,0,0,1,.92,0c1.26.64,2.54,1.32,3.8,2a.6.6,0,0,1,.29.42.69.69,0,0,1-.12.56,5.24,5.24,0,0,0-.44.61,1.86,1.86,0,0,0-.19.33v0a2.31,2.31,0,0,0,.61.38l1.28-1a.71.71,0,0,1,.82,0,17.1,17.1,0,0,0,1.76,1l.06,0a.71.71,0,0,1,.51.45.58.58,0,0,1-.13.61l-.16.18a3.11,3.11,0,0,0-.69.94c0,.07,0,.15.1.2a1,1,0,0,0,.76.24,2.77,2.77,0,0,0,.61-.48,1.77,1.77,0,0,1,1.33-.69.69.69,0,0,1,.4,0l4.81,1.74.25.1a4.9,4.9,0,0,0,.46.18c-3.43-4.15-6.84-8.35-10.15-12.51a.65.65,0,0,1-.11-.64h0a.78.78,0,0,1,.46-.43A109.54,109.54,0,0,1,139.8,189l0,0a.69.69,0,0,1,.77-.27,52.74,52.74,0,0,0,5.33,1.2C146.36,189.48,146.82,189.07,147.32,188.64Z"/><path class="cls-2" d="M243,1.37v2l-.12-.57a49.72,49.72,0,0,0-5-2.1.7.7,0,0,1-.48-.66s0,0,0,0V0h2.44C240.88.42,242,.88,243,1.37Zm0,3.29V6c-1.1-.09-2.21-.22-3.29-.36-.74-.1-1.48-.22-2.22-.34l-.33-.07c-.49-.1-.8-.16-1.06.12a5.76,5.76,0,0,1-.57.53l-.24.2c-.53.48-1.07.94-1.61,1.4-1,.86-2.11,1.72-3.31,2.62a.67.67,0,0,1-.39.13h-.09a.72.72,0,0,1-.4-.25.67.67,0,0,1-.26-.35c-.3-.94-.64-1.9-1-2.84a.6.6,0,0,1,.14-.66.31.31,0,0,1,0-.1,49.44,49.44,0,0,1,3.05-4.39c-.17-.56-.34-1.11-.53-1.67h1.45c.14.45.28.9.41,1.35v0a.69.69,0,0,1,0,.82,50.94,50.94,0,0,0-3.13,4.47c.21.55.42,1.13.63,1.76.21-.18.55-.43,1.06-.8l.31-.23c.55-.44,1.1-.89,1.63-1.35s1.07-.93,1.6-1.4a2.5,2.5,0,0,1,1.88-.87c.41,0,.82.13,1.22.21s.66.13,1,.18C240.29,4.38,241.65,4.54,243,4.66Z"/><path class="cls-2" d="M25.38,243l.3-.73a14.28,14.28,0,0,0-1.82-2.9c-.46-.65-.94-1.28-1.43-1.9-.49.62-1,1.25-1.43,1.9a14.28,14.28,0,0,0-1.82,2.9l.3.73H16.83a12.09,12.09,0,0,1,1.09-.79,13.25,13.25,0,0,1,2-3.45c.54-.76,1.11-1.51,1.7-2.24l-.3-.36c-.5-.59.35-1.44.85-.85l.22.26a2.75,2.75,0,0,1,.22-.26c.5-.59,1.34.26.85.85l-.3.36c.58.73,1.15,1.48,1.7,2.24a12.94,12.94,0,0,1,2,3.45A12.09,12.09,0,0,1,28,243Z"/><path class="cls-2" d="M20,197.52a.73.73,0,0,0,.24,1,.76.76,0,0,0,.38.11.73.73,0,1,0-.62-1.11Z"/><path class="cls-2" d="M18.48,195.76a.73.73,0,0,0-.75,1.25.72.72,0,0,0,1-.25.73.73,0,0,0-.26-1Z"/><path class="cls-2" d="M22.46,199.06a.73.73,0,0,0,.62,1.12.73.73,0,0,0,.61-.34.72.72,0,0,0-.22-1A.73.73,0,0,0,22.46,199.06Z"/><path class="cls-2" d="M15,194.55a.72.72,0,0,0,.27,1,.75.75,0,0,0,.36.1.73.73,0,0,0,.37-1.36A.73.73,0,0,0,15,194.55Z"/><path class="cls-2" d="M2.07,187.73a.73.73,0,1,0,1-.34A.74.74,0,0,0,2.07,187.73Z"/><path class="cls-2" d="M10.85,191.42h0a.73.73,0,1,0,.29,1A.73.73,0,0,0,10.85,191.42Z"/><path class="cls-2" d="M.76,187.09a.73.73,0,0,1-.66.42H0v-1.43a.65.65,0,0,1,.41.05A.74.74,0,0,1,.76,187.09Z"/><path class="cls-2" d="M25.52,201.77a.72.72,0,0,0,.61-.32.73.73,0,0,0-.2-1,.72.72,0,0,0-1,.2.72.72,0,0,0,.6,1.13Z"/><path class="cls-2" d="M12.42,193.11a.73.73,0,0,0,.28,1,.64.64,0,0,0,.35.1.73.73,0,0,0,.36-1.37h0A.73.73,0,0,0,12.42,193.11Z"/><path class="cls-2" d="M4.68,189A.74.74,0,0,0,5,190a.73.73,0,0,0,.33.08.74.74,0,0,0,.65-.4.73.73,0,0,0-.32-1A.74.74,0,0,0,4.68,189Z"/><path class="cls-2" d="M8.27,190a.74.74,0,0,0-1,.31.73.73,0,0,0,.31,1,.69.69,0,0,0,.34.09A.73.73,0,0,0,8.27,190Z"/><path class="cls-2" d="M237.68,45.44a.73.73,0,1,0-.71.86h.12A.73.73,0,0,0,237.68,45.44Z"/><path class="cls-2" d="M164.19,51.18a.65.65,0,0,0,.19,0,.73.73,0,0,0,.71-.53.74.74,0,0,0-.52-.9.73.73,0,0,0-.38,1.41Z"/><path class="cls-2" d="M161.38,68.5a.72.72,0,0,0,.63.81h.09a.72.72,0,0,0,.72-.64.73.73,0,0,0-.63-.82A.72.72,0,0,0,161.38,68.5Z"/><path class="cls-2" d="M162.65,52.83a.72.72,0,0,0,.3,1,.6.6,0,0,0,.34.09.73.73,0,1,0-.64-1.07Z"/><path class="cls-2" d="M149.22,56.05a.73.73,0,1,0,0-1.46.72.72,0,0,0-.72.73A.73.73,0,0,0,149.22,56.05Z"/><path class="cls-2" d="M148.7,52.31a.72.72,0,0,0,.62.82h.1a.73.73,0,0,0,.72-.63.73.73,0,1,0-1.44-.2Z"/><path class="cls-2" d="M121.64,48.62a.74.74,0,0,0,.61-1.13.75.75,0,0,0-1-.22.73.73,0,0,0,.4,1.35Z"/><path class="cls-2" d="M168,69.19a.72.72,0,1,0-.11,0Z"/><path class="cls-2" d="M174.28,66.92a.73.73,0,1,0-1.39.43.71.71,0,0,0,.69.51.78.78,0,0,0,.22,0A.72.72,0,0,0,174.28,66.92Z"/><path class="cls-2" d="M161.91,42.91a.74.74,0,0,0,.5.2.71.71,0,0,0,.53-.23.73.73,0,0,0-1.06-1,.72.72,0,0,0,0,1Z"/><path class="cls-2" d="M164.28,68.74a.73.73,0,0,0,.73.71h0a.73.73,0,1,0-.75-.71Z"/><path class="cls-2" d="M164,47.63h0a.72.72,0,0,0,.72.69h0a.74.74,0,0,0,.69-.77h0a.73.73,0,0,0-1.46.08Z"/><path class="cls-2" d="M164,45.5a.8.8,0,0,0,.3-.06.73.73,0,1,0-.3.06Z"/><path class="cls-2" d="M211.42,51.74a.73.73,0,0,0,.24,1.42.69.69,0,0,0,.24,0,.72.72,0,0,0,.45-.92A.73.73,0,0,0,211.42,51.74Z"/><path class="cls-2" d="M170.78,68.65l.17,0a.72.72,0,0,0,.53-.88.73.73,0,1,0-1.41.34A.74.74,0,0,0,170.78,68.65Z"/><path class="cls-2" d="M189.87,61.49a.86.86,0,0,0,.27-.05h0a.75.75,0,1,0-.28.05Z"/><path class="cls-2" d="M133.73,60.11a.73.73,0,0,0-.8,1.22.75.75,0,0,0,.4.12.71.71,0,0,0,.61-.33A.72.72,0,0,0,133.73,60.11Z"/><path class="cls-2" d="M243,44v1.35l-.18.05h-.1a.73.73,0,0,1-.09-1.45A.77.77,0,0,1,243,44Z"/><path class="cls-2" d="M138.78,62.66a.73.73,0,0,0-.94.44.72.72,0,0,0,.44.93h0a.73.73,0,0,0,.25,0,.71.71,0,0,0,.68-.48A.73.73,0,0,0,138.78,62.66Z"/><path class="cls-2" d="M128.3,56.54a.73.73,0,0,0,0,1,.75.75,0,0,0,.51.21.74.74,0,0,0,.51-1.26A.72.72,0,0,0,128.3,56.54Z"/><path class="cls-2" d="M149.26,49.37a.72.72,0,0,0,.53.88.57.57,0,0,0,.18,0,.73.73,0,1,0-.71-.91Z"/><path class="cls-2" d="M122.84,49.72a.73.73,0,0,0-.19,1,.74.74,0,0,0,.6.31.73.73,0,1,0-.41-1.32Z"/><path class="cls-2" d="M124.53,52.09a.73.73,0,0,0-.14,1h0a.7.7,0,0,0,.57.29.73.73,0,1,0-.44-1.31Z"/><path class="cls-2" d="M127.3,55.47a.73.73,0,1,0-1-.07.71.71,0,0,0,.55.25A.74.74,0,0,0,127.3,55.47Z"/><path class="cls-2" d="M239.84,45.81H240a.74.74,0,0,0,.61-.84.73.73,0,0,0-1.44.23A.74.74,0,0,0,239.84,45.81Z"/><path class="cls-2" d="M136.18,61.54a.71.71,0,0,0-1,.32.73.73,0,0,0,.31,1,.8.8,0,0,0,.33.08.73.73,0,0,0,.33-1.38Z"/><path class="cls-2" d="M151.16,46.1a.73.73,0,0,0-.57,1.35.71.71,0,0,0,.28.06.74.74,0,0,0,.29-1.41Z"/><path class="cls-2" d="M152.4,62.22h0a.75.75,0,0,0-.4.49.71.71,0,0,0-.53.17.72.72,0,0,0-.1,1h0a.72.72,0,0,0,.56.27.75.75,0,0,0,.47-.17.77.77,0,0,0,.24-.39.74.74,0,0,0,.38-.07.73.73,0,0,0-.62-1.32Z"/><path class="cls-2" d="M151.7,43.8a.73.73,0,0,0,.16,1,.69.69,0,0,0,.43.14.74.74,0,0,0,.59-.29.73.73,0,0,0-1.18-.87Z"/><path class="cls-2" d="M153.6,66a.73.73,0,0,0,.44.15.75.75,0,0,0,.59-.29.74.74,0,0,0-.15-1,.72.72,0,0,0-1,.14A.73.73,0,0,0,153.6,66Z"/><path class="cls-2" d="M150,64.63a.64.64,0,0,0,.2,0,.73.73,0,1,0-.4-1.4.73.73,0,0,0,.2,1.43Z"/><path class="cls-2" d="M153.94,41.6a.73.73,0,0,0,.42,1.33.69.69,0,0,0,.41-.13h0a.73.73,0,0,0-.84-1.2Z"/><path class="cls-2" d="M150.2,58.08a.73.73,0,1,0-.72.86h.14A.72.72,0,0,0,150.2,58.08Z"/><path class="cls-2" d="M151,60.68a.72.72,0,0,0-1-.36.73.73,0,0,0-.36,1,.72.72,0,0,0,.66.42.81.81,0,0,0,.31-.06A.74.74,0,0,0,151,60.68Z"/><path class="cls-2" d="M144.22,65.27a.73.73,0,1,0-.73-.77.71.71,0,0,0,.68.77Z"/><path class="cls-2" d="M141.33,64.88a.75.75,0,1,0-.15,0h0A.47.47,0,0,0,141.33,64.88Z"/><path class="cls-2" d="M155.87,66.64a.73.73,0,1,0,1-.34A.74.74,0,0,0,155.87,66.64Z"/><path class="cls-2" d="M157,41.73l.17,0a.73.73,0,1,0-.17,0Z"/><path class="cls-2" d="M147.13,65.2h.07a.72.72,0,0,0,.65-.8.73.73,0,0,0-.81-.65.74.74,0,0,0-.64.81A.74.74,0,0,0,147.13,65.2Z"/><path class="cls-2" d="M154.88,60.87a.74.74,0,0,0-.23,1,.73.73,0,0,0,.62.33.7.7,0,0,0,.39-.11.72.72,0,0,0,.22-1A.71.71,0,0,0,154.88,60.87Z"/><path class="cls-2" d="M130.42,58.53a.73.73,0,0,0,1.13.93.73.73,0,0,0-1.13-.93Z"/><path class="cls-2" d="M206.17,55.12a.56.56,0,0,0,.25,0,.72.72,0,0,0,.43-.93.73.73,0,0,0-.94-.43.73.73,0,0,0,.26,1.41Z"/><path class="cls-2" d="M223.48,48.71a.73.73,0,1,0-.7.93.69.69,0,0,0,.2,0A.73.73,0,0,0,223.48,48.71Z"/><path class="cls-2" d="M228.59,48.11h0a.72.72,0,0,0,.53-.88.58.58,0,0,0-.08-.18.73.73,0,0,0,.38-.73.75.75,0,0,0-.83-.63.74.74,0,0,0-.62.82.79.79,0,0,0,.1.27.71.71,0,0,0-.36.8.73.73,0,0,0,.71.55A.52.52,0,0,0,228.59,48.11Z"/><path class="cls-2" d="M198,58.24a.85.85,0,0,0,.26-.05.73.73,0,1,0-.26.05Z"/><path class="cls-2" d="M203.43,56.14a.75.75,0,0,0,.26,0,.72.72,0,1,0-.26,0Z"/><path class="cls-2" d="M226.3,47.94a.73.73,0,1,0-.71.92.63.63,0,0,0,.19,0A.73.73,0,0,0,226.3,47.94Z"/><path class="cls-2" d="M161.69,56.34a.73.73,0,0,0,.45-1.31.73.73,0,0,0-.89,1.16A.73.73,0,0,0,161.69,56.34Z"/><path class="cls-2" d="M208.91,54.13a.69.69,0,0,0,.24-.05.7.7,0,1,0-.24.05Z"/><path class="cls-2" d="M200,56.72a.74.74,0,0,0,.68.46.86.86,0,0,0,.27,0,.73.73,0,0,0-.53-1.36h0A.74.74,0,0,0,200,56.72Z"/><path class="cls-2" d="M181.77,64.78a.86.86,0,0,0,.27,0,.73.73,0,0,0-.54-1.36.74.74,0,0,0-.41,1A.73.73,0,0,0,181.77,64.78Z"/><path class="cls-2" d="M187.17,62.59a.74.74,0,0,0,.28-.06.73.73,0,1,0-1-.4A.73.73,0,0,0,187.17,62.59Z"/><path class="cls-2" d="M195.28,59.31a.65.65,0,0,0,.27-.05.74.74,0,1,0-.27.05Z"/><path class="cls-2" d="M192.58,60.4a.7.7,0,0,0,.27-.06.71.71,0,1,0-.27.06Z"/><path class="cls-2" d="M179.06,65.87a.81.81,0,0,0,.27-.05.73.73,0,0,0,.41-.95.74.74,0,0,0-1-.41.73.73,0,0,0-.4,1A.71.71,0,0,0,179.06,65.87Z"/><path class="cls-2" d="M231.25,47.46a.41.41,0,0,0,.16,0,.72.72,0,0,0,.56-.87.73.73,0,0,0-1.43.32A.73.73,0,0,0,231.25,47.46Z"/><path class="cls-2" d="M184.19,62.28a.72.72,0,0,0-.39.95.71.71,0,0,0,.67.46.63.63,0,0,0,.27-.06.73.73,0,0,0,.41-1A.74.74,0,0,0,184.19,62.28Z"/><path class="cls-2" d="M176.34,66.92a.7.7,0,0,0,.25,0,.73.73,0,0,0,.44-.93.74.74,0,0,0-.94-.44.73.73,0,0,0,.25,1.42Z"/><path class="cls-2" d="M234.25,46.84a.73.73,0,0,0,.57-.86.73.73,0,1,0-1.43.29.74.74,0,0,0,.72.58Z"/><path class="cls-2" d="M217.42,51.28a.73.73,0,0,0-.45-1.39.73.73,0,0,0,.23,1.43A.6.6,0,0,0,217.42,51.28Z"/><path class="cls-2" d="M157.17,59.21a.72.72,0,0,0-.1,1,.71.71,0,0,0,.56.27.74.74,0,0,0,.46-.16h0a.73.73,0,0,0-.92-1.13Z"/><path class="cls-2" d="M159,68.7a.76.76,0,0,0,.21,0,.73.73,0,0,0,.2-1.43.72.72,0,0,0-.9.5A.73.73,0,0,0,159,68.7Z"/><path class="cls-2" d="M220,50.46a.52.52,0,0,0,.21,0,.73.73,0,1,0-.42-1.39.74.74,0,0,0-.49.91A.75.75,0,0,0,220,50.46Z"/><path class="cls-2" d="M214.65,52.18a.72.72,0,0,0,.46-.92.72.72,0,0,0-.92-.46.74.74,0,0,0-.46.92.73.73,0,0,0,.69.5A.59.59,0,0,0,214.65,52.18Z"/><path class="cls-2" d="M159.71,41.69l.17,0a.73.73,0,0,0,.71-.55.73.73,0,1,0-.88.53Z"/><path class="cls-2" d="M159.78,58.53a.7.7,0,0,0,.52-.22.74.74,0,0,0,0-1,.75.75,0,0,0-1,0h0a.73.73,0,0,0,0,1A.67.67,0,0,0,159.78,58.53Z"/><path class="cls-2" d="M231.68,64.38h.1a.7.7,0,1,0-.1,0Z"/><polygon class="cls-2" points="232.79 66.45 232.79 66.45 232.79 66.46 232.79 66.45"/><path class="cls-2" d="M198.94,120a.73.73,0,0,0,0,1.46h0a.73.73,0,0,0,0-1.46Z"/><path class="cls-2" d="M232.06,67.27h.09a.73.73,0,0,0,.64-.81.73.73,0,1,0-.73.82Z"/><path class="cls-2" d="M215.84,117.51a.74.74,0,0,0-.4.95.72.72,0,0,0,.67.46,1,1,0,0,0,.28,0,.73.73,0,0,0-.55-1.36Z"/><path class="cls-2" d="M145.18,109.07a.73.73,0,0,0,.68-.47.72.72,0,1,0-1.35-.52.71.71,0,0,0,.41.93A.65.65,0,0,0,145.18,109.07Z"/><path class="cls-2" d="M232.39,70.17h.07a.72.72,0,1,0-.8-.65A.74.74,0,0,0,232.39,70.17Z"/><path class="cls-2" d="M210.53,120.58h.15a.73.73,0,0,0-.3-1.43.72.72,0,0,0-.56.86A.73.73,0,0,0,210.53,120.58Z"/><path class="cls-2" d="M228.38,28.87a.73.73,0,0,0,.58.85h.14a.73.73,0,0,0,.13-1.44A.72.72,0,0,0,228.38,28.87Z"/><path class="cls-2" d="M229,26a.74.74,0,0,0,.55.87.47.47,0,0,0,.16,0,.72.72,0,0,0,.71-.56.73.73,0,0,0-.54-.88A.74.74,0,0,0,229,26Z"/><path class="cls-2" d="M229.7,23.13a.73.73,0,0,0,.51.9l.19,0a.73.73,0,0,0,.19-1.43A.72.72,0,0,0,229.7,23.13Z"/><path class="cls-2" d="M227.91,31.78a.73.73,0,0,0,.62.83h.1a.73.73,0,1,0-.72-.83Z"/><path class="cls-2" d="M230.51,20.31a.73.73,0,0,0,.49.91.69.69,0,0,0,.2,0,.72.72,0,0,0,.7-.52.73.73,0,0,0-.48-.91A.74.74,0,0,0,230.51,20.31Z"/><path class="cls-2" d="M178,118.12a.74.74,0,0,0,.58.86h.14a.73.73,0,0,0,.71-.6.72.72,0,0,0-.58-.85A.74.74,0,0,0,178,118.12Z"/><path class="cls-2" d="M229.26,50a.72.72,0,0,0,.59-.84.7.7,0,0,0-.83-.59.72.72,0,0,0,.11,1.44Z"/><path class="cls-2" d="M175.11,117.54a.73.73,0,0,0,.57.86h.15A.72.72,0,0,0,176,117,.73.73,0,0,0,175.11,117.54Z"/><path class="cls-2" d="M181.43,119.5h.12a.73.73,0,0,0,.13-1.44h0a.73.73,0,0,0-.84.6A.72.72,0,0,0,181.43,119.5Z"/><path class="cls-2" d="M230.19,55.76h.14a.75.75,0,0,0,.58-.86.73.73,0,1,0-.72.87Z"/><path class="cls-2" d="M195.28,120.58a.73.73,0,0,0,.68.77h0a.73.73,0,1,0-.73-.77Z"/><path class="cls-2" d="M231.23,61.5h.13a.73.73,0,0,0,.59-.84h0a.73.73,0,0,0-.84-.6.73.73,0,0,0,.11,1.45Z"/><path class="cls-2" d="M230.73,58.63l.13,0A.73.73,0,1,0,230,58,.75.75,0,0,0,230.73,58.63Z"/><path class="cls-2" d="M192.38,120.32a.73.73,0,0,0,.65.8h.08a.73.73,0,1,0-.73-.8Z"/><path class="cls-2" d="M186.59,119.59a.72.72,0,0,0,.62.82h.1a.75.75,0,0,0,.73-.63.73.73,0,0,0-1.45-.2Z"/><path class="cls-2" d="M184.32,120h.11a.73.73,0,1,0-.72-.84A.72.72,0,0,0,184.32,120Z"/><path class="cls-2" d="M213.15,118.44a.74.74,0,0,0-.49.91.73.73,0,0,0,.7.52.82.82,0,0,0,.21,0,.73.73,0,0,0,.49-.9A.74.74,0,0,0,213.15,118.44Z"/><path class="cls-2" d="M189.48,120a.74.74,0,0,0,.64.82h.09a.73.73,0,1,0-.73-.82Z"/><path class="cls-2" d="M221.84,115a.73.73,0,1,0-.6,1.14.72.72,0,0,0,.42-.13h0A.72.72,0,0,0,221.84,115Z"/><path class="cls-2" d="M204.7,119.91Z"/><path class="cls-2" d="M235.75,9.78a.73.73,0,1,0-1.36-.52.74.74,0,0,0,.42.94.63.63,0,0,0,.26.05A.73.73,0,0,0,235.75,9.78Z"/><path class="cls-2" d="M201.84,121.49h0a.73.73,0,1,0-.75-.71A.73.73,0,0,0,201.86,121.49Z"/><path class="cls-2" d="M236.13,7.53a.72.72,0,0,0,.68-.46.73.73,0,1,0-1.36-.53h0a.72.72,0,0,0,.41.94A.8.8,0,0,0,236.13,7.53Z"/><path class="cls-2" d="M231.86,18.43a.59.59,0,0,0,.23,0,.72.72,0,0,0,.69-.5.73.73,0,1,0-1.38-.45h0A.72.72,0,0,0,231.86,18.43Z"/><path class="cls-2" d="M207.65,121.07h.1a.73.73,0,1,0-.19-1.45.75.75,0,0,0-.63.83A.73.73,0,0,0,207.65,121.07Z"/><path class="cls-2" d="M232.59,71.62a.73.73,0,0,0,.06,1.45h.06a.73.73,0,0,0-.12-1.45Z"/><path class="cls-2" d="M204,120.69a.71.71,0,0,0,.72.67h.06a.73.73,0,1,0-.78-.67Z"/><path class="cls-2" d="M225,111.07a.74.74,0,0,0,.56,1.21.72.72,0,0,0,.55-.26.74.74,0,0,0-.08-1A.73.73,0,0,0,225,111.07Z"/><path class="cls-2" d="M223.52,114.36a.7.7,0,0,0,.49-.19.74.74,0,0,0,.06-1,.73.73,0,0,0-1,0,.73.73,0,0,0,.48,1.27Z"/><path class="cls-2" d="M233,77.43a.75.75,0,0,0-.71.76.73.73,0,0,0,.73.7h0a.72.72,0,0,0,.7-.75A.73.73,0,0,0,233,77.43Z"/><path class="cls-2" d="M232.35,14.74a.73.73,0,0,0,.44.93.69.69,0,0,0,.25,0,.73.73,0,1,0-.69-1Z"/><path class="cls-2" d="M232.33,81.09a.73.73,0,0,0,.73.72h0a.73.73,0,1,0-.74-.72Z"/><path class="cls-2" d="M232.8,74.52a.73.73,0,0,0,0,1.46h0a.74.74,0,0,0,.69-.77A.74.74,0,0,0,232.8,74.52Z"/><path class="cls-2" d="M233.78,12.93A.75.75,0,0,0,234,13a.74.74,0,0,0,.68-.48.73.73,0,0,0-.43-.94.73.73,0,1,0-.51,1.37Z"/><path class="cls-2" d="M233.08,83.27a.73.73,0,0,0,0,1.45h0a.73.73,0,0,0,0-1.45Z"/><path class="cls-2" d="M218.41,116.32a.74.74,0,0,0-.3,1,.74.74,0,0,0,.65.38.73.73,0,1,0-.35-1.37Z"/><path class="cls-2" d="M227.42,37.67a.73.73,0,0,0,.71.75h0a.72.72,0,0,0,.73-.71.73.73,0,1,0-1.46,0Z"/><path class="cls-2" d="M226.71,108.82a.73.73,0,0,0,.2,1,.75.75,0,0,0,.4.12.72.72,0,0,0,.61-.32.73.73,0,0,0-.2-1A.72.72,0,0,0,226.71,108.82Z"/><path class="cls-2" d="M228.36,44.25h.07a.73.73,0,0,0,.66-.79.73.73,0,0,0-1.46.13A.74.74,0,0,0,228.36,44.25Z"/><path class="cls-2" d="M228.45,107.36a.81.81,0,0,0,.34.08.76.76,0,0,0,.65-.4.73.73,0,0,0-.32-1,.73.73,0,0,0-.67,1.3Z"/><path class="cls-2" d="M233.05,86.18a.73.73,0,0,0-.75.71.72.72,0,0,0,.7.75h0a.74.74,0,0,0,.73-.7A.74.74,0,0,0,233.05,86.18Z"/><path class="cls-2" d="M229.64,52.9l.14,0a.72.72,0,0,0,.58-.85.73.73,0,1,0-.72.87Z"/><path class="cls-2" d="M227.58,34.72a.74.74,0,0,0,.67.79h.06a.73.73,0,1,0-.73-.79Z"/><path class="cls-2" d="M228.2,41.33a.73.73,0,0,0,.7-.75.74.74,0,0,0-.76-.7.73.73,0,0,0,0,1.46Z"/><path class="cls-2" d="M233.35,92.81a.72.72,0,0,0-.64-.8.73.73,0,1,0-.16,1.45h.08A.72.72,0,0,0,233.35,92.81Z"/><path class="cls-2" d="M233.61,89.88a.73.73,0,0,0-.68-.78.72.72,0,0,0-.77.68.71.71,0,0,0,.67.77h.06A.72.72,0,0,0,233.61,89.88Z"/><path class="cls-2" d="M231.9,92.66h0Z"/><path class="cls-2" d="M230,104.79a.74.74,0,0,0,.68-.47.72.72,0,0,0-.41-.94.73.73,0,1,0-.54,1.35A.66.66,0,0,0,230,104.79Z"/><path class="cls-2" d="M233,95.74a.73.73,0,1,0-1.44-.24.72.72,0,0,0,.6.84h.12A.73.73,0,0,0,233,95.74Z"/><path class="cls-2" d="M231,102a.72.72,0,0,0,.21-1.42.73.73,0,1,0-.42,1.39A.76.76,0,0,0,231,102Z"/><path class="cls-2" d="M232.4,98.64a.73.73,0,1,0-.87.56h.16A.73.73,0,0,0,232.4,98.64Z"/><path class="cls-2" d="M88.17,94.81a.73.73,0,0,0,.72.73h0a.73.73,0,0,0,.73-.72.74.74,0,0,0-.73-.74A.73.73,0,0,0,88.17,94.81Z"/><path class="cls-2" d="M34.27,47.12l.19,0a.74.74,0,0,0,.7-.54.73.73,0,1,0-.89.52Z"/><path class="cls-2" d="M44.79,50a.73.73,0,0,0,.37,1,.8.8,0,0,0,.3.06.74.74,0,0,0,.67-.43A.73.73,0,0,0,44.79,50Z"/><path class="cls-2" d="M39.35,47.86a.72.72,0,0,0,.45.93.67.67,0,0,0,.24,0,.73.73,0,0,0,.23-1.42A.73.73,0,0,0,39.35,47.86Z"/><path class="cls-2" d="M42.77,49.84a.72.72,0,0,0,.68-.46.73.73,0,1,0-1.36-.53.73.73,0,0,0,.42.94h0A.75.75,0,0,0,42.77,49.84Z"/><path class="cls-2" d="M22.27,44.23a.72.72,0,0,0,.64.8H23a.73.73,0,0,0,.73-.65.74.74,0,0,0-.64-.81A.73.73,0,0,0,22.27,44.23Z"/><path class="cls-2" d="M9.16,43.83a.73.73,0,0,0-1.45.07.74.74,0,0,0,.76.7A.73.73,0,0,0,9.16,43.83Z"/><path class="cls-2" d="M2.7,45a.73.73,0,0,0-.15-1.45h0A.73.73,0,0,0,2.62,45Z"/><path class="cls-2" d="M5.58,44.78A.74.74,0,0,0,6.25,44a.73.73,0,1,0-1.45.11.74.74,0,0,0,.73.68Z"/><path class="cls-2" d="M11.35,44.5h0a.72.72,0,0,0,.72-.74.73.73,0,1,0-1.46,0A.72.72,0,0,0,11.35,44.5Z"/><path class="cls-2" d="M.45,44.57a.73.73,0,0,1-.45.76V44A.74.74,0,0,1,.45,44.57Z"/><path class="cls-2" d="M45.53,111.89a.73.73,0,0,0,.2,1.43.68.68,0,0,0,.2,0,.74.74,0,0,0,.5-.91A.73.73,0,0,0,45.53,111.89Z"/><path class="cls-2" d="M50.62,118.73a.73.73,0,0,0,.31,1,.81.81,0,0,0,.34.08.73.73,0,0,0,.64-.38.73.73,0,1,0-1.29-.68Z"/><path class="cls-2" d="M47,116a.69.69,0,0,0,.4-.12.72.72,0,0,0,.2-1,.72.72,0,0,0-1-.2.73.73,0,0,0-.2,1A.72.72,0,0,0,47,116Z"/><path class="cls-2" d="M44.7,109.66a.71.71,0,0,0,.68.77h0a.73.73,0,1,0-.73-.78Z"/><path class="cls-2" d="M46.85,103.9a.71.71,0,0,0,.17,1,.66.66,0,0,0,.42.14.75.75,0,0,0,.6-.31.72.72,0,0,0-.18-1A.71.71,0,0,0,46.85,103.9Z"/><path class="cls-2" d="M52.33,100a.73.73,0,0,0-1-.24h0a.73.73,0,0,0-.24,1,.7.7,0,0,0,.62.35.62.62,0,0,0,.37-.11A.72.72,0,0,0,52.33,100Z"/><path class="cls-2" d="M46.32,106.19a.75.75,0,0,0-1,.42.73.73,0,0,0,.42.94.65.65,0,0,0,.26.06.74.74,0,0,0,.27-1.42Z"/><path class="cls-2" d="M16.45,43.82a.73.73,0,0,0,.7.77h0a.73.73,0,0,0,0-1.46A.73.73,0,0,0,16.45,43.82Z"/><path class="cls-2" d="M19.36,44a.73.73,0,0,0,.67.78h.06a.74.74,0,0,0,.73-.68.73.73,0,0,0-.68-.78A.74.74,0,0,0,19.36,44Z"/><path class="cls-2" d="M48.39,118a.74.74,0,0,0,.48.18.7.7,0,0,0,.55-.25.73.73,0,0,0-.07-1,.72.72,0,0,0-1,.06A.73.73,0,0,0,48.39,118Z"/><path class="cls-2" d="M49.38,102.87a.72.72,0,0,0,.49-.19.73.73,0,1,0-1-1.07.73.73,0,0,0,0,1A.74.74,0,0,0,49.38,102.87Z"/><path class="cls-2" d="M13.53,43.76a.74.74,0,0,0,.72.74h0a.73.73,0,0,0,0-1.46A.74.74,0,0,0,13.53,43.76Z"/><path class="cls-2" d="M56.12,55.15a.73.73,0,1,0-.78,1.23h0a.71.71,0,0,0,.39.12.73.73,0,0,0,.4-1.35Z"/><path class="cls-2" d="M53.6,53.62a.73.73,0,1,0-.73,1.26.69.69,0,0,0,.37.1.74.74,0,0,0,.62-.36A.72.72,0,0,0,53.6,53.62Z"/><path class="cls-2" d="M54.16,119.4a.73.73,0,0,0-.35,1.41.52.52,0,0,0,.17,0,.73.73,0,0,0,.18-1.43Z"/><path class="cls-2" d="M59.05,120.21a.72.72,0,0,0,.7.54.62.62,0,0,0,.19,0,.73.73,0,1,0-.89-.52Z"/><path class="cls-2" d="M59.91,58.69a.72.72,0,0,0,.11,1,.69.69,0,0,0,.45.16.71.71,0,0,0,.57-.27.73.73,0,1,0-1.13-.92Z"/><path class="cls-2" d="M59.9,98.19l.15,0a.72.72,0,0,0,.56-.86.72.72,0,1,0-1.42.29A.73.73,0,0,0,59.9,98.19Z"/><path class="cls-2" d="M119.85,99.12a.73.73,0,0,0,.49.91.76.76,0,0,0,.21,0,.74.74,0,0,0,.7-.53.73.73,0,0,0-1.4-.41Z"/><path class="cls-2" d="M56.87,97.44a.73.73,0,0,0-.5.91.76.76,0,0,0,.9.5.74.74,0,0,0,.5-.91A.73.73,0,0,0,56.87,97.44Z"/><path class="cls-2" d="M58.14,58.12a.74.74,0,0,0,.6-.31.72.72,0,0,0-.17-1,.73.73,0,0,0-1,.17.72.72,0,0,0,.59,1.15Z"/><path class="cls-2" d="M47.44,51.16a.73.73,0,0,0,.33,1,.79.79,0,0,0,.32.08.73.73,0,1,0-.65-1.06Z"/><path class="cls-2" d="M56.86,119.71a.73.73,0,0,0,0,1.45h0a.73.73,0,0,0,0-1.45Z"/><path class="cls-2" d="M54,98.42a.72.72,0,0,0-.39,1,.74.74,0,0,0,.68.45.86.86,0,0,0,.27,0A.73.73,0,1,0,54,98.42Z"/><path class="cls-2" d="M37.05,47.9a.76.76,0,0,0,.21,0,.73.73,0,0,0,.7-.52A.73.73,0,0,0,36.57,47,.73.73,0,0,0,37.05,47.9Z"/><path class="cls-2" d="M51,52.18a.72.72,0,0,0-1,.3.73.73,0,0,0,.29,1,.75.75,0,0,0,1-.3A.73.73,0,0,0,51,52.18Z"/><path class="cls-2" d="M71.11,78.48a.73.73,0,0,0,.14,1.45l.14,0a.73.73,0,0,0,.58-.85A.74.74,0,0,0,71.11,78.48Z"/><path class="cls-2" d="M82.34,94.93a.73.73,0,0,0,.73.7h0a.73.73,0,1,0,0-1.46A.73.73,0,0,0,82.34,94.93Z"/><path class="cls-2" d="M28.76,45.88a.72.72,0,0,0,.72-.59.73.73,0,1,0-.85.58Z"/><path class="cls-2" d="M80.16,95.76h0a.73.73,0,1,0-.76-.69A.73.73,0,0,0,80.19,95.76Z"/><path class="cls-2" d="M64.52,116.88a.73.73,0,1,0,.87,1.17.73.73,0,0,0-.87-1.17Z"/><path class="cls-2" d="M66.8,66.14a.74.74,0,0,0,.23-1,.73.73,0,0,0-1.24.78.75.75,0,0,0,.62.34A.68.68,0,0,0,66.8,66.14Z"/><path class="cls-2" d="M65.76,97.22a.73.73,0,0,0,.61-.83.72.72,0,0,0-.82-.61.73.73,0,0,0,.1,1.45Z"/><path class="cls-2" d="M96.91,95.12a.74.74,0,0,0,.67.78h.06a.73.73,0,1,0-.73-.78Z"/><path class="cls-2" d="M99.81,95.35a.74.74,0,0,0,.66.8h.07a.73.73,0,1,0-.73-.8Z"/><path class="cls-2" d="M94,94.94a.73.73,0,0,0,.69.77h0a.73.73,0,0,0,.73-.69A.73.73,0,1,0,94,94.94Z"/><path class="cls-2" d="M85.25,94.84a.73.73,0,0,0,.73.72h0a.73.73,0,1,0-.74-.72Z"/><path class="cls-2" d="M91.09,94.85a.72.72,0,0,0,.71.75h0a.73.73,0,1,0-.73-.75Z"/><path class="cls-2" d="M71.65,81.35a.73.73,0,0,0,.12,1.45h.11a.73.73,0,1,0-.23-1.44Z"/><path class="cls-2" d="M72.31,93.72a.74.74,0,0,0,.73.68h0a.74.74,0,0,0,.69-.78.73.73,0,0,0-1.46.1Z"/><path class="cls-2" d="M72.46,87.13a.73.73,0,0,0,.08,1.45h.07a.73.73,0,1,0-.15-1.45Z"/><path class="cls-2" d="M71.36,95a.73.73,0,0,0,.08,1.46h.08a.72.72,0,0,0,.64-.8A.73.73,0,0,0,71.36,95Z"/><path class="cls-2" d="M102.72,95.66a.74.74,0,0,0,.63.82h.09a.73.73,0,1,0-.72-.82Z"/><path class="cls-2" d="M72.1,84.23a.74.74,0,0,0-.63.82.73.73,0,0,0,.72.64h.1a.73.73,0,0,0-.19-1.45Z"/><path class="cls-2" d="M72.75,90a.73.73,0,0,0,.07,1.46h.06a.71.71,0,0,0,.66-.78A.73.73,0,0,0,72.75,90Z"/><path class="cls-2" d="M68.26,71a.72.72,0,0,0,.68.48.8.8,0,0,0,.26,0,.72.72,0,0,0,.42-.94.73.73,0,0,0-1.36.51Z"/><path class="cls-2" d="M68.54,96.83h.09a.73.73,0,0,0,.63-.82.72.72,0,0,0-.81-.63.73.73,0,0,0-.63.82A.72.72,0,0,0,68.54,96.83Z"/><path class="cls-2" d="M67.13,116.26a.73.73,0,0,0,.5-1.26.73.73,0,0,0-1,0,.72.72,0,0,0,0,1A.74.74,0,0,0,67.13,116.26Z"/><path class="cls-2" d="M70.08,74.23a.73.73,0,1,0-.91-.48.73.73,0,0,0,.69.52A.57.57,0,0,0,70.08,74.23Z"/><path class="cls-2" d="M69,114a.76.76,0,0,0,.6-.32.73.73,0,0,0-1.2-.83A.74.74,0,0,0,69,114Z"/><path class="cls-2" d="M112.78,97.33a.73.73,0,1,0-.86.57h.15A.72.72,0,0,0,112.78,97.33Z"/><path class="cls-2" d="M142.47,108a.74.74,0,0,0,.68-.47.73.73,0,0,0-1.36-.53.73.73,0,0,0,.41.95A.86.86,0,0,0,142.47,108Z"/><path class="cls-2" d="M139.49,106.89a.8.8,0,0,0,.26,0,.73.73,0,0,0,.27-1.41.73.73,0,1,0-.53,1.36Z"/><path class="cls-2" d="M136.77,105.83a.84.84,0,0,0,.27,0,.72.72,0,0,0,.68-.46.73.73,0,0,0-.42-.94h0a.73.73,0,0,0-.94.41A.73.73,0,0,0,136.77,105.83Z"/><path class="cls-2" d="M150.64,111.14a.74.74,0,0,0,.68-.48.73.73,0,0,0-.43-.94.73.73,0,0,0-.5,1.37A.7.7,0,0,0,150.64,111.14Z"/><path class="cls-2" d="M153.14,112.09a.67.67,0,0,0,.24,0,.73.73,0,0,0,.24-1.42.72.72,0,0,0-.93.44A.74.74,0,0,0,153.14,112.09Z"/><path class="cls-2" d="M169.43,116.23a.74.74,0,0,0,.53.88l.18,0a.73.73,0,0,0,.17-1.44A.72.72,0,0,0,169.43,116.23Z"/><path class="cls-2" d="M122.64,100a.72.72,0,0,0,.47.91.83.83,0,0,0,.22,0,.73.73,0,0,0,.7-.5.73.73,0,1,0-1.39-.44Z"/><path class="cls-2" d="M125.41,100.86a.74.74,0,0,0,.45.93.67.67,0,0,0,.24,0,.73.73,0,0,0,.24-1.42A.74.74,0,0,0,125.41,100.86Z"/><path class="cls-2" d="M133.64,103.83a.73.73,0,0,0,.42,1,.8.8,0,0,0,.26,0,.73.73,0,0,0,.68-.47.72.72,0,0,0-.42-.94h0A.72.72,0,0,0,133.64,103.83Z"/><path class="cls-2" d="M130.91,102.81a.72.72,0,0,0,.68,1,.7.7,0,0,0,.68-.47.72.72,0,0,0-.42-.94A.73.73,0,0,0,130.91,102.81Z"/><path class="cls-2" d="M105.61,96a.73.73,0,0,0,.61.83h.11a.74.74,0,0,0,.72-.62.73.73,0,0,0-1.44-.22Z"/><path class="cls-2" d="M128.17,101.82a.72.72,0,0,0,.44.93.67.67,0,0,0,.24,0,.73.73,0,0,0,.25-1.41A.72.72,0,0,0,128.17,101.82Z"/><path class="cls-2" d="M114.2,97.65a.74.74,0,0,0,.54.88l.17,0a.73.73,0,0,0,.17-1.44A.74.74,0,0,0,114.2,97.65Z"/><path class="cls-2" d="M117.93,97.83a.73.73,0,1,0-.38,1.41.63.63,0,0,0,.19,0,.73.73,0,0,0,.19-1.44Z"/><path class="cls-2" d="M108.49,96.5a.74.74,0,0,0,.59.85h.12a.73.73,0,1,0-.71-.86Z"/><path class="cls-2" d="M173,117.8a.73.73,0,0,0,.16-1.45.73.73,0,0,0-.87.55.72.72,0,0,0,.55.88Z"/><path class="cls-2" d="M77.19,94.49a.73.73,0,0,0,0,1.46h.06a.73.73,0,0,0-.11-1.46Z"/><path class="cls-2" d="M161.7,114.84a.75.75,0,0,0,.7-.52.73.73,0,1,0-1.4-.42.73.73,0,0,0,.49.91A.76.76,0,0,0,161.7,114.84Z"/><path class="cls-2" d="M156.14,113.08a.74.74,0,0,0,.69-.5.73.73,0,0,0-.46-.92.73.73,0,0,0-.47,1.38A1,1,0,0,0,156.14,113.08Z"/><path class="cls-2" d="M159.13,112.56a.73.73,0,1,0-.44,1.39.78.78,0,0,0,.22,0,.72.72,0,0,0,.69-.51A.73.73,0,0,0,159.13,112.56Z"/><path class="cls-2" d="M147.65,110.06a.58.58,0,0,0,.26,0,.73.73,0,0,0,.26-1.41.74.74,0,0,0-.95.43A.72.72,0,0,0,147.65,110.06Z"/><path class="cls-2" d="M166.61,115.5a.72.72,0,0,0,.52.89l.18,0a.73.73,0,0,0,.18-1.43h0A.73.73,0,0,0,166.61,115.5Z"/><path class="cls-2" d="M164.7,114.21a.73.73,0,0,0-.9.51.72.72,0,0,0,.5.9.69.69,0,0,0,.2,0,.74.74,0,0,0,.2-1.44Z"/><path class="cls-2" d="M67.5,67.42a.73.73,0,0,0-.35,1,.72.72,0,0,0,.66.42.7.7,0,0,0,.31-.07.73.73,0,1,0-.62-1.32Z"/><path class="cls-2" d="M73.08,105.43a.73.73,0,1,0-.87.56h.16A.72.72,0,0,0,73.08,105.43Z"/><path class="cls-2" d="M64.69,63.9a.72.72,0,0,0,.47-.17.73.73,0,1,0-1-1.11.73.73,0,0,0-.08,1A.72.72,0,0,0,64.69,63.9Z"/><path class="cls-2" d="M62.67,61.79a.73.73,0,1,0-.53-1.22.74.74,0,0,0,0,1A.73.73,0,0,0,62.67,61.79Z"/><path class="cls-2" d="M71.58,108.81a.73.73,0,1,0-.69-1,.74.74,0,0,0,.45.93A.67.67,0,0,0,71.58,108.81Z"/><path class="cls-2" d="M70.45,75.64a.73.73,0,0,0,.18,1.44l.17,0a.73.73,0,0,0-.35-1.42Z"/><path class="cls-2" d="M74.41,96.19a.77.77,0,1,0-.07,0Z"/><path class="cls-2" d="M73.15,95.85a.73.73,0,0,0,0,1.46h0a.73.73,0,0,0,0-1.46Z"/><path class="cls-2" d="M73.59,102.49a.72.72,0,0,0-.63-.81.73.73,0,0,0-.82.63.72.72,0,0,0,.63.81h.1A.73.73,0,0,0,73.59,102.49Z"/><path class="cls-2" d="M73.84,99.53a.73.73,0,0,0-.69-.76.74.74,0,0,0-.77.69h0a.74.74,0,0,0,.7.76h0A.74.74,0,0,0,73.84,99.53Z"/><path class="cls-2" d="M62.48,119.73a.73.73,0,0,0,.65-1,.73.73,0,0,0-1-.33.72.72,0,0,0-.33,1A.74.74,0,0,0,62.48,119.73Z"/><path class="cls-2" d="M31.46,46.44l.16,0a.74.74,0,1,0-.16,0Z"/><path class="cls-2" d="M25.78,45.4h.11a.75.75,0,1,0-.11,0Z"/><path class="cls-2" d="M70.14,111.43a.93.93,0,0,0,.33.07.73.73,0,0,0,.65-.41.73.73,0,0,0-1.31-.64A.73.73,0,0,0,70.14,111.43Z"/><path class="cls-2" d="M62.66,96.22a.73.73,0,0,0,.11,1.45h.12a.73.73,0,0,0-.23-1.44Z"/><path class="cls-2" d="M9.06,131.52v29.27a.46.46,0,0,1-.42.48.45.45,0,0,1-.3.1H0V131H3.91a.56.56,0,0,1,.44,0H8.48l.16,0A.47.47,0,0,1,9.06,131.52Zm-1,26a5.12,5.12,0,0,0-3,2.85H8ZM8,137c-2.57-.24-5.25-2.25-4.66-5H.1v28.31H4A6.15,6.15,0,0,1,8,156.42Zm0-5H4.44C3.86,134.22,6,135.76,8,136Z"/><path class="cls-2" d="M241.45,71.21a8.85,8.85,0,0,0-1,4l.36-.33A16,16,0,0,1,243,73.39v1.26l-.08,0a8.58,8.58,0,0,0-2.43,2.17c0,.14,0,.29,0,.44s0,.41.05.61.06.6.06.9a8.93,8.93,0,0,1-.1,1.16c0,.21-.06.43-.08.64a35,35,0,0,0-.15,3.66,10.07,10.07,0,0,0,1.4,5.6A5,5,0,0,0,243,91.15V92.4a4.29,4.29,0,0,1-.55-.31c-1.69-1.1-2.77-3.1-3.1-5.76a19.11,19.11,0,0,1-.16-2.58c0-.73,0-1.51.1-2.35,0-.24,0-.49,0-.76h0a3.84,3.84,0,0,1,0-3.93c0-2.55.48-6.75,3.68-8.83v1.39A6.94,6.94,0,0,0,241.45,71.21Z"/><path class="cls-2" d="M134.36,0l-1.29,2.76a.54.54,0,0,1-.85.12l-.7-.84c-.7,1.45-1.39,2.9-2.09,4.34a.54.54,0,0,1-.94,0c-.1-.22-.2-.42-.31-.62q-1.05,2.9-2,5.79a.55.55,0,0,1-1,0l-.42-1.2c-1,1.73-2,3.44-3.16,5.11-.27.42-1,.3-1-.28.36-5.33,1.53-10.36,4.79-14.7l.38-.48h1.4c-.36.41-.7.84-1,1.28A24,24,0,0,0,121.81,13q1.32-2.1,2.53-4.26a.54.54,0,0,1,1,.13l.3.85q.9-2.64,1.85-5.28a.56.56,0,0,1,.92-.24c.19.23.37.46.53.69l2-4.14a.55.55,0,0,1,.86-.11l.69.83L133.16,0Z"/><path class="cls-2" d="M154.46,26.68a3.77,3.77,0,0,1-2.68-.25c-1.58-.69-1.1-1.82-1.38-3.33a73.9,73.9,0,0,0-8-23.1h1.25a75.26,75.26,0,0,1,7.77,22.91c.24,1.32.21,3,2.12,2.87,2.09-.2,1.5-2,1.16-3.44-.44-1.8-1.11-3.53-1.66-5.29-.8-2.56-1.64-5.11-2.51-7.63A47.38,47.38,0,0,0,146.53,0h1.25a49.77,49.77,0,0,1,3.71,8.73c1,2.79,1.9,5.6,2.77,8.43a53.14,53.14,0,0,1,1.77,6C156.35,24.92,156.28,26.05,154.46,26.68Zm2.39-23.42a15.29,15.29,0,0,0-2.77-1.73,9.25,9.25,0,0,0-1.7-.67l-.24,0a.14.14,0,0,1,.06.15c-.08.27-.17.54-.26.81a.56.56,0,0,1-1,.13A15.67,15.67,0,0,0,149.39,0h1.45c.13.14.24.28.35.42a1.67,1.67,0,0,1,.22-.42h1.82l.11.05a15,15,0,0,1,2.8,1.4A15.91,15.91,0,0,0,155.46,0h1.26a20.45,20.45,0,0,1,1,2.73C157.93,3.3,157.24,3.58,156.85,3.26Z"/><path class="cls-2" d="M199.75,0a13.93,13.93,0,0,1-11.12,5.52A13.93,13.93,0,0,1,177.51,0h1.37a12.87,12.87,0,0,0,9.75,4.45A12.87,12.87,0,0,0,198.38,0Z"/><path class="cls-2" d="M195.3,0a10.81,10.81,0,0,1-6.67,2.31A10.81,10.81,0,0,1,182,0h1.92a9.69,9.69,0,0,0,4.75,1.24A9.69,9.69,0,0,0,193.38,0Z"/><path class="cls-2" d="M243,220.87v1.34h0c-.08,0-.17,0-.19.1a3.08,3.08,0,0,0,0,1.17l0,.24a.61.61,0,0,1-.24.57.74.74,0,0,1-.68.08h-.07a16.48,16.48,0,0,0-2-.21.7.7,0,0,1-.65-.49l-.47-1.57a4,4,0,0,0-.57-.06l-.15,0v0a2.1,2.1,0,0,0,0,.37,4.82,4.82,0,0,0,0,.76.7.7,0,0,1-.22.53.62.62,0,0,1-.49.17c-1.43-.15-2.87-.33-4.27-.53a.66.66,0,0,1-.34-.15.69.69,0,0,1-.39-.41,30.82,30.82,0,0,0-2.12-4.78,8.64,8.64,0,0,0-1.7-2.3,1.69,1.69,0,0,0-2.68.78,8.53,8.53,0,0,0-.2,2.86,30,30,0,0,0,.78,5.16.69.69,0,0,1-.12.56.59.59,0,0,1-.2.3c-1.07.93-2.19,1.86-3.32,2.75a.58.58,0,0,1-.5.11.7.7,0,0,1-.47-.32,5.78,5.78,0,0,0-.4-.64,1.44,1.44,0,0,0-.24-.3l0,0a2.26,2.26,0,0,0-.59.42l.45,1.57a.7.7,0,0,1-.29.77A14.84,14.84,0,0,0,219,231l-.06,0a.71.71,0,0,1-.62.3.6.6,0,0,1-.51-.35l-.1-.22a3.22,3.22,0,0,0-.62-1c-.05-.05-.15,0-.22,0a1,1,0,0,0-.5.62,2.39,2.39,0,0,0,.21.74,1.83,1.83,0,0,1,.13,1.5.68.68,0,0,1-.17.35l-3.44,3.8-.19.19c-.1.11-.23.23-.33.36,5.13-1.6,10.31-3.16,15.42-4.64a.63.63,0,0,1,.63.14.73.73,0,0,1,.23.59c1.32,3.12,2.49,6.32,3.51,9.56h-1.45c-.93-2.95-2-5.89-3.21-8.78-5.34,1.55-10.68,3.17-15.88,4.8a.64.64,0,0,1-.54-.06.72.72,0,0,1-.31-.44l0-.05c-.44-1,.42-1.89,1.05-2.53l.32-.34,3.06-3.37a.87.87,0,0,1,.07-.17c0-.16-.15-.47-.22-.65l-.12-.36,0-.14a2.89,2.89,0,0,1-.14-.83c0-.75.76-1.16,1.24-1.42s1.09-.61,1.64-.14a3.85,3.85,0,0,1,.78,1c.26-.22.53-.43.81-.64l-.44-1.54a.71.71,0,0,1,.29-.76l.33-.26c.51-.43,1.15-1,1.75-.79a2.23,2.23,0,0,1,1.11,1c.83-.66,1.64-1.34,2.43-2a26.28,26.28,0,0,1-.77-6.46,5,5,0,0,1,1.49-3.8l.14-.1a2,2,0,0,1,1.35-.4l.17,0a5,5,0,0,1,3.3,2.4,27.07,27.07,0,0,1,2.82,5.86c1,.15,2,.28,3.12.4a2.22,2.22,0,0,1,.39-1.46c.43-.46,1.25-.36,1.91-.28l.41,0a.68.68,0,0,1,.65.49l.46,1.53,1,.1a4.25,4.25,0,0,1,.12-1.27c.21-.7,1-.74,1.43-.77Zm0,8.93c-2.27.64-4.54,1.3-6.8,2a105,105,0,0,0,2.45,10.81l1.13.43h-2.44a108.77,108.77,0,0,1-2.54-11.28.74.74,0,0,1-.12-.63.65.65,0,0,1,.46-.45c2.6-.76,5.22-1.52,7.86-2.26Z"/><path class="cls-2" d="M9.59,227a.64.64,0,0,1-.42.33c-3,.81-6.1,1.66-9.17,2.52v-1.42q3.81-1.08,7.64-2.11a4.81,4.81,0,0,0-.48-.12l-.26-.06L2,224.73a.69.69,0,0,1-.34-.2,1.81,1.81,0,0,1-.69-1.34,2.7,2.7,0,0,0-.22-.74,1,1,0,0,0-.72-.24v-1.34a1.87,1.87,0,0,1,1.74.54,2.74,2.74,0,0,1,.34.79l0,.12s.05.2.1.4.11.49.15.64a.54.54,0,0,1,.16.1l4.39,1.21.46.11c.87.2,2.06.47,2.24,1.6v0A.72.72,0,0,1,9.59,227Z"/><path class="cls-2" d="M1.6,5.94a.51.51,0,0,1-.49.18L0,6V4.66l.3,0C.19,4.23.09,3.81,0,3.4v-2l.58.27.15.1A.41.41,0,0,1,1,1.87a.63.63,0,0,1,.17.35v.07c.09.34.18.67.26,1l.05.21C1.79,4.69,1.93,5.55,1.6,5.94Z"/><path class="cls-2" d="M243,186.07v1.43a.83.83,0,0,1-.21-.06.73.73,0,0,1-.35-1A.65.65,0,0,1,243,186.07Z"/><path class="cls-2" d="M239.79,185.25a.74.74,0,0,0,.36,1,.8.8,0,0,0,.3.06.72.72,0,0,0,.3-1.39A.72.72,0,0,0,239.79,185.25Z"/><path class="cls-2" d="M237.12,184.07a.73.73,0,0,0,.38,1,.77.77,0,0,0,.3.06.73.73,0,0,0,.66-.43.73.73,0,1,0-1.34-.59Z"/><path class="cls-2" d="M143,184.16a.68.68,0,0,0,.41-.12.73.73,0,0,0,.19-1,.72.72,0,0,0-1-.2.73.73,0,0,0,.41,1.33Z"/><path class="cls-2" d="M234.44,182.93a.73.73,0,0,0,.39.95.71.71,0,0,0,.28.06.73.73,0,1,0-.67-1Z"/><path class="cls-2" d="M232.41,182.83a.73.73,0,1,0-.67-1,.72.72,0,0,0,.41.94h0A.8.8,0,0,0,232.41,182.83Z"/><path class="cls-2" d="M145.44,182.59a.68.68,0,0,0,.38-.12.73.73,0,1,0-1-.23A.72.72,0,0,0,145.44,182.59Z"/><path class="cls-2" d="M229,180.77a.74.74,0,0,0,.43.95.75.75,0,0,0,.93-.42.73.73,0,0,0-.41-1A.75.75,0,0,0,229,180.77Z"/><path class="cls-2" d="M148,181.11a.73.73,0,1,0-.64-.38A.73.73,0,0,0,148,181.11Z"/><path class="cls-2" d="M226.29,179.76a.71.71,0,0,0,.43.93.8.8,0,0,0,.26.05.73.73,0,0,0,.24-1.41h0A.74.74,0,0,0,226.29,179.76Z"/><path class="cls-2" d="M223.54,178.79a.73.73,0,0,0,.45.93.67.67,0,0,0,.24,0,.73.73,0,1,0-.69-1Z"/><path class="cls-2" d="M150.2,178.37a.72.72,0,0,0-.33,1,.72.72,0,0,0,1,.33.74.74,0,0,0,.33-1A.73.73,0,0,0,150.2,178.37Z"/><path class="cls-2" d="M221.47,178.83a.73.73,0,0,0,.69-.5.74.74,0,0,0-.47-.92.73.73,0,1,0-.45,1.38h0A.85.85,0,0,0,221.47,178.83Z"/><path class="cls-2" d="M152.86,177.1a.74.74,0,0,0-.37,1,.73.73,0,0,0,.67.43.59.59,0,0,0,.29-.07.73.73,0,1,0-.59-1.33Z"/><path class="cls-2" d="M218,177a.73.73,0,0,0,.48.91.83.83,0,0,0,.22,0,.74.74,0,0,0,.7-.51.76.76,0,0,0-.49-.92A.75.75,0,0,0,218,177Z"/><path class="cls-2" d="M155.57,176a.73.73,0,0,0,.27,1.41.86.86,0,0,0,.27-.05.73.73,0,1,0-.54-1.36Z"/><path class="cls-2" d="M215.89,177.13a.73.73,0,0,0,.7-.53.73.73,0,1,0-.9.5A.69.69,0,0,0,215.89,177.13Z"/><path class="cls-2" d="M213.08,176.35a.73.73,0,0,0,.19-1.43.73.73,0,0,0-.38,1.41Z"/><path class="cls-2" d="M158.33,174.94a.72.72,0,0,0,.24,1.41.67.67,0,0,0,.24,0h0a.73.73,0,0,0,.45-.93A.72.72,0,0,0,158.33,174.94Z"/><path class="cls-2" d="M210.25,175.64a.73.73,0,0,0,.71-.56.73.73,0,1,0-.88.54Z"/><path class="cls-2" d="M161.13,174a.72.72,0,0,0-.49.91.73.73,0,0,0,.7.52l.21,0a.75.75,0,0,0,.49-.91A.73.73,0,0,0,161.13,174Z"/><path class="cls-2" d="M207.42,175a.72.72,0,0,0,.71-.57.73.73,0,0,0-.55-.87.74.74,0,0,0-.87.56.72.72,0,0,0,.55.86A.47.47,0,0,0,207.42,175Z"/><path class="cls-2" d="M164,173.24a.73.73,0,0,0-.53.89.74.74,0,0,0,.71.55l.18,0a.73.73,0,1,0-.36-1.41Z"/><path class="cls-2" d="M203.86,173.52a.73.73,0,0,0,.58.86h.14a.73.73,0,1,0-.72-.87Z"/><path class="cls-2" d="M166.82,172.57A.73.73,0,0,0,167,174a.44.44,0,0,0,.16,0,.73.73,0,0,0-.31-1.42Z"/><path class="cls-2" d="M201.59,173.86h.12a.74.74,0,0,0,.72-.61.73.73,0,0,0-.59-.84.74.74,0,0,0-.85.59A.75.75,0,0,0,201.59,173.86Z"/><path class="cls-2" d="M169.11,172.86a.74.74,0,0,0,.72.6H170a.73.73,0,1,0-.24-1.44A.74.74,0,0,0,169.11,172.86Z"/><path class="cls-2" d="M198.74,173.4h.1a.72.72,0,0,0,.1-1.44.72.72,0,0,0-.82.61A.73.73,0,0,0,198.74,173.4Z"/><path class="cls-2" d="M195.23,172.2a.73.73,0,0,0,.63.82H196a.73.73,0,1,0-.72-.82Z"/><path class="cls-2" d="M172,172.38a.72.72,0,0,0,.72.64h.1a.72.72,0,0,0,.62-.82.73.73,0,1,0-1.44.19Z"/><path class="cls-2" d="M192.33,171.92a.74.74,0,0,0,.66.79h.07a.73.73,0,1,0-.73-.79Z"/><path class="cls-2" d="M174.88,172a.73.73,0,0,0,.72.66h.07a.74.74,0,0,0,.66-.8.73.73,0,0,0-.8-.65A.72.72,0,0,0,174.88,172Z"/><path class="cls-2" d="M189.42,171.71a.73.73,0,0,0,.68.77h.05a.73.73,0,0,0,0-1.46A.74.74,0,0,0,189.42,171.71Z"/><path class="cls-2" d="M177.78,171.77a.73.73,0,0,0,.73.68h0a.73.73,0,1,0-.09-1.46A.73.73,0,0,0,177.78,171.77Z"/><path class="cls-2" d="M186.51,171.59a.73.73,0,0,0,.71.75h0a.73.73,0,0,0,.72-.7.74.74,0,0,0-.7-.76A.74.74,0,0,0,186.51,171.59Z"/><path class="cls-2" d="M180.69,171.61a.73.73,0,0,0,.72.71h0a.73.73,0,1,0-.05-1.46A.73.73,0,0,0,180.69,171.61Z"/><path class="cls-2" d="M183.6,171.55a.73.73,0,0,0,.73.73h0a.73.73,0,0,0,.73-.72.73.73,0,1,0-1.46,0Z"/><rect class="cls-1" width="243" height="243"/></pattern></defs><title>pattern-1</title><g id="Layer_2" data-name="Layer 2"><g id="Pattern"><rect class="cls-3" width="500" height="500"/></g></g></svg>